<svg xmlns="http://www.w3.org/2000/svg" viewBox="0 0 800 600"><rect width="100%" height="100%" fill="#1a1a1a"/><circle cx="400" cy="300" r="200" fill="none" stroke="#333" stroke-width="2"/><circle cx="400" cy="300" r="150.0" fill="none" stroke="#333" stroke-width="1"/><circle cx="400" cy="300" r="100.0" fill="none" stroke="#333" stroke-width="1"/><line x1="200" y1="300" x2="600" y2="300" stroke="#333" stroke-width="1"/><line x1="400" y1="100" x2="400" y2="500" stroke="#333" stroke-width="1"/><path d="M 400.0,100.0 L 403.49008257455176,100.05330321574823 L 406.9767103659344,100.2131548795584 L 410.4564325572212,100.47938110965083 L 413.9258062592112,100.85169233139104 L 417.38140046240267,101.3296836194971 L 420.8197999747146,101.91283517655091 L 424.23760934023244,102.6005129472342 L 427.63145673427823,103.39196936754755 L 430.9979978301326,104.28634424810659 L 434.33391963277165,105.28266579044649 L 437.6359442750206,106.37985173510774 L 440.900832771573,107.57671064011464 L 444.12538872637407,108.87194328830071 L 447.3064619889252,110.26414422178064 L 450.44095225512604,111.75180340171369 L 453.52581260834035,113.33330799135209 L 456.5580529964428,115.00694426022011 L 459.53474364068285,116.7708996071213 L 462.4530183722822,118.62326469953001 L 465.31007789277385,120.56203572678123 L 468.10319295417935,122.58511676433534 L 470.8297074552204,124.69032224626179 L 473.48704144986255,126.87537954295317 L 476.0726940645946,129.13793164095557 L 478.5842463209583,131.47553992167707 L 481.01936385995805,133.88568703561725 L 483.3757995650984,136.36577986864611 L 485.65139608092267,138.9131525967476 L 487.8440882240488,141.52506982553984 L 489.9519052838329,144.19872981077805 L 491.9729732099222,146.93126775595258 L 493.9055166840978,149.71975918299788 L 495.7478610739464,152.56122337204377 L 497.4984342660464,155.4526268660545 L 499.1557683764954,158.39088703612526 L 500.71850133676014,161.37287570313157 L 502.18537835297633,164.39542281136042 L 503.55525323698265,167.45532014968882 L 504.8270896075273,170.5493251158195 L 505.99996196024256,173.6741645190313 L 507.07305660514317,176.8265384168565 L 508.04567247056343,180.00312398105626 L 508.91722177261175,183.2005793882321 L 509.68723054938204,186.41554773037984 L 510.3553390593274,189.64466094067262 L 510.92130204336473,192.88454372973774 L 511.3849888504453,196.13181752768446 L 511.74638342649024,199.3831044271311 L 512.0055841667563,202.63503112247955 L 512.1628036318646,205.8842328406928 L 512.218368127884,209.1273572588401 L 512.1727171510358,212.36106840369217 L 512.0264026977385,215.58205052867254 L 511.7800884408839,218.7870119634974 L 511.4345487733927,221.97268893187288 L 510.9906677202612,225.13584933265605 L 510.4494377204663,228.27329647993366 L 509.8119582802588,231.38187279752054 L 509.0794344995251,234.4584634634391 L 508.25317547305485,237.49999999999997 L 507.33459256870174,240.5034638051735 L 506.3251975845745,243.46588962101146 L 505.2266007875395,246.38436893495813 L 504.0405088354625,249.25605330997047 L 502.7687225857558,252.07815763945547 L 501.4131347929346,254.84796332312436 L 499.9757276980209,257.5628213599611 L 498.45857051276414,260.22015535460326 L 496.8638168017745,262.81746443353956 L 495.1937017657859,265.3523260676399 L 493.45053942939023,267.8223987976463 L 491.6367197366932,270.2254248593737 L 489.7547055584578,272.5592327054913 L 487.8070296144063,274.821739420882 L 485.7962913144534,277.01095302870687 L 483.7251535227416,279.12497468443615 L 481.5963392484426,281.16200075524426 L 479.41262826737534,283.1203247823071 L 477.1768536785766,284.9983393236818 L 474.89189840003553,286.7945376755966 L 472.56069160787797,288.507515470125 L 470.1862051233535,290.13597214737064 L 467.7714497520412,291.6787123004424 L 465.3194715797456,293.1346468916528 L 462.83334822960705,294.5027943385327 L 460.3161850849961,295.7822814684115 L 457.7711114828027,296.9723443404733 L 455.2012768817642,298.07232893436174 L 452.60984701050717,299.081691704568 L 450.0,300.0 L 447.374922505132,300.82693234829634 L 444.7378058201454,301.5622786046119 L 442.0918419926547,302.2059399647677 L 439.4402199409863,302.757928842824 L 436.7861215795675,303.21836861329854 L 434.1327179570817,303.5874932184181 L 431.483165412091,303.8656466409571 L 428.8406017508036,304.05328224337717 L 426.20814245163587,304.15096197414806 L 423.58887690118524,304.15935544228967 L 420.9858646661898,304.0792388613363 L 418.4021318060053,303.911493864083 L 415.84066723008095,303.6571061896308 L 413.304419104858,303.31716424440293 L 410.7962913144534,302.89285753895894 L 408.3191399794256,302.3854750025819 L 405.87577003784577,301.79640317776494 L 403.4689318928222,301.12712429686843 L 401.1013181305415,300.37921424336196 L 401.22443968719506,300.4456595997932 L 403.5057741520543,301.3457406119304 L 405.7401850560854,302.31918530380557 L 407.9252423527768,303.3640657911115 L 410.05858902867453,304.47837236929564 L 412.13794388209084,305.6600161864746 L 414.1611042055458,306.90683201112176 L 416.12594836870267,308.21658109108716 L 418.0304382986818,309.58695410039945 L 419.87262185476214,311.0155741701928 L 421.65063509461095,312.5 L 423.3627044293139,314.03772904555547 L 425.00714866461624,315.6262007791589 L 426.58238092592387,317.26280001856367 L 428.08691046475695,318.94486032026924 L 429.51934434449356,320.66966743302254 L 430.87838900338915,322.4344628072553 L 432.16285169300926,324.23644715612267 L 433.37164179036364,326.072784063742 L 434.5037719821869,327.94060363617615 L 435.5583593199667,329.83700619065326 L 436.53462614447915,331.7590659784697 L 437.4319008787508,333.70383493698307 L 438.2496186885283,335.66834646606566 L 438.9873220094996,337.6496192243626 L 439.6446609406726,339.6446609406726 L 440.2213935034823,341.65047223575505 L 440.7173857663619,343.6640504498509 L 441.13261183467756,345.68239347120425 L 441.4671537060924,347.7025035608663 L 441.72120099158866,349.72139116907084 L 441.89505050254354,351.7360787384834 L 441.98910570441683,353.743604489639 L 442.00387603777153,355.7410261839103 L 441.93997610751285,357.7254248593737 L 441.79812474139084,359.6939085349756 L 441.5791439189717,361.6436158784413 L 441.28395757244374,363.5717198334138 L 440.91359026077726,365.4754312013595 L 440.4691657189168,367.3520021738362 L 439.9519052838329,369.1987298107781 L 439.3631261994151,371.01295946052056 L 438.7042398023336,372.79208811735964 L 437.97674959114374,374.5335677125171 L 437.1822491810503,376.234908334466 L 436.32242014688836,377.89368137465794 L 435.39902975701455,379.5075225947843 L 434.41392860093515,381.0741351118028 L 433.3690481136292,382.59129229705945 L 432.26639799964937,384.0568405859445 L 431.10806356020703,385.4687021946279 L 429.8962029265665,386.82487774053834 L 428.6330442031881,388.12344876336334 L 427.3208825241692,389.3625801434764 L 425.96207702664043,390.540522414816 L 424.55904774487396,391.6556139693795 L 423.11427242895843,392.7062831506197 L 421.63028329198755,393.6910502331757 L 420.10966368979706,394.6085292865048 L 418.5550447373662,395.45742992012583 L 416.96910186607863,396.2365589083327 L 415.3545513261095,396.9448216923796 L 413.71414663827164,397.58122375829544 L 412.0506749997177,398.1448718886336 L 410.3669536479493,398.63497528662174 L 408.66582618763687,399.05084657132835 L 406.95015888479867,399.3919026426265 L 405.22283693292684,399.65766541489177 L 403.4867606956844,399.84776241853206 L 401.7448419308234,399.9619272686126 L 400.0,400.0 L 398.2551580691766,399.9619272686126 L 396.5132393043157,399.84776241853206 L 394.7771630670732,399.65766541489177 L 393.0498411152014,399.3919026426265 L 391.33417381236313,399.05084657132835 L 389.6330463520507,398.63497528662174 L 387.94932500028233,398.14487188863365 L 386.2858533617283,397.5812237582954 L 384.6454486738905,396.94482169237966 L 383.03089813392137,396.2365589083327 L 381.44495526263387,395.4574299201259 L 379.89033631020294,394.6085292865048 L 378.36971670801245,393.69105023317576 L 376.88572757104157,392.7062831506197 L 375.44095225512604,391.6556139693795 L 374.0379229733596,390.540522414816 L 372.6791174758308,389.36258014347635 L 371.3669557968119,388.1234487633634 L 370.10379707343344,386.82487774053834 L 368.89193643979297,385.46870219462795 L 367.73360200035063,384.0568405859444 L 366.6309518863708,382.59129229705945 L 365.58607139906485,381.0741351118028 L 364.60097024298545,379.5075225947843 L 363.67757985311164,377.89368137465794 L 362.8177508189497,376.234908334466 L 362.02325040885626,374.5335677125171 L 361.2957601976664,372.79208811735964 L 360.6368738005849,371.0129594605206 L 360.0480947161671,369.19872981077805 L 359.53083428108323,367.3520021738362 L 359.08640973922274,365.4754312013595 L 358.71604242755626,363.5717198334138 L 358.4208560810283,361.6436158784413 L 358.20187525860916,359.69390853497555 L 358.06002389248715,357.7254248593737 L 357.99612396222847,355.74102618391026 L 358.01089429558317,353.743604489639 L 358.10494949745646,351.7360787384834 L 358.2787990084114,349.7213911690709 L 358.5328462939076,347.7025035608663 L 358.8673881653224,345.6823934712043 L 359.2826142336381,343.6640504498509 L 359.7786064965177,341.650472235755 L 360.3553390593274,339.6446609406726 L 361.0126779905004,337.64961922436254 L 361.7503813114717,335.6683464660657 L 362.56809912124925,333.70383493698307 L 363.46537385552085,331.7590659784697 L 364.4416406800333,329.83700619065326 L 365.4962280178131,327.9406036361762 L 366.6283582096364,326.07278406374195 L 367.83714830699074,324.23644715612267 L 369.12161099661085,322.4344628072553 L 370.48065565550644,320.6696674330226 L 371.91308953524305,318.94486032026924 L 373.41761907407613,317.2628000185636 L 374.99285133538376,315.6262007791589 L 376.6372955706861,314.0377290455555 L 378.349364905389,312.50000000000006 L 380.12737814523786,311.01557417019274 L 381.96956170131824,309.58695410039945 L 383.87405163129733,308.21658109108716 L 385.8388957944542,306.90683201112176 L 387.86205611790916,305.66001618647454 L 389.94141097132547,304.47837236929564 L 392.0747576472232,303.3640657911115 L 394.25981494391453,302.31918530380557 L 396.49422584794564,301.34574061193047 L 398.775560312805,300.4456595997932 L 398.8986818694585,300.37921424336196 L 396.5310681071778,301.12712429686843 L 394.1242299621543,301.79640317776494 L 391.68086002057436,302.3854750025819 L 389.2037086855466,302.89285753895894 L 386.695580895142,303.31716424440293 L 384.1593327699191,303.6571061896308 L 381.5978681939948,303.911493864083 L 379.01413533381015,304.0792388613363 L 376.41112309881476,304.15935544228967 L 373.7918575483642,304.15096197414806 L 371.1593982491965,304.05328224337717 L 368.51683458790893,303.8656466409571 L 365.86728204291825,303.5874932184181 L 363.2138784204325,303.21836861329854 L 360.55978005901375,302.7579288428241 L 357.9081580073454,302.2059399647677 L 355.2621941798546,301.56227860461183 L 352.625077494868,300.82693234829634 L 350.0,300.0 L 347.3901529894929,299.081691704568 L 344.7987231182358,298.07232893436174 L 342.2288885171973,296.9723443404733 L 339.6838149150039,295.7822814684115 L 337.166651770393,294.50279433853274 L 334.68052842025446,293.1346468916528 L 332.22855024795876,291.6787123004423 L 329.8137948766465,290.13597214737064 L 327.4393083921221,288.507515470125 L 325.10810159996447,286.79453767559664 L 322.82314632142334,284.99833932368176 L 320.58737173262466,283.1203247823071 L 318.4036607515574,281.16200075524426 L 316.2748464772584,279.12497468443615 L 314.20370868554664,277.0109530287069 L 312.19297038559364,274.82173942088195 L 310.2452944415422,272.5592327054913 L 308.3632802633068,270.22542485937373 L 306.5494605706098,267.8223987976464 L 304.80629823421407,265.35232606763986 L 303.1361831982255,262.81746443353956 L 301.54142948723586,260.22015535460326 L 300.0242723019792,257.56282135996116 L 298.58686520706544,254.84796332312442 L 297.2312774142441,252.07815763945544 L 295.9594911645375,249.2560533099705 L 294.77339921246056,246.3843689349582 L 293.6748024154256,243.46588962101154 L 292.66540743129826,240.50346380517348 L 291.74682452694515,237.49999999999997 L 290.9205655004749,234.4584634634391 L 290.1880417197412,231.38187279752063 L 289.5505622795338,228.27329647993375 L 289.0093322797388,225.13584933265602 L 288.5654512266073,221.97268893187288 L 288.2199115591161,218.78701196349743 L 287.97359730226145,215.5820505286726 L 287.82728284896416,212.36106840369212 L 287.78163187211607,209.12735725884008 L 287.8371963681355,205.88423284069285 L 287.99441583324364,202.6350311224796 L 288.2536165735098,199.38310442713123 L 288.6150111495547,196.1318175276844 L 289.07869795663527,192.88454372973774 L 289.6446609406726,189.64466094067268 L 290.31276945061796,186.41554773037996 L 291.08277822738825,183.20057938823203 L 291.95432752943657,180.00312398105626 L 292.92694339485683,176.82653841685652 L 294.00003803975744,173.6741645190314 L 295.17291039247266,170.54932511581958 L 296.44474676301735,167.4553201496888 L 297.81462164702367,164.39542281136042 L 299.2814986632398,161.3728757031316 L 300.8442316235045,158.3908870361253 L 302.5015657339536,155.45262686605446 L 304.2521389260536,152.56122337204377 L 306.0944833159022,149.71975918299793 L 308.02702679007774,146.93126775595263 L 310.04809471616704,144.19872981077816 L 312.1559117759512,141.52506982553984 L 314.34860391907733,138.9131525967476 L 316.6242004349016,136.36577986864614 L 318.98063614004195,133.88568703561734 L 321.4157536790417,131.475539921677 L 323.92730593540546,129.13793164095557 L 326.51295855013745,126.87537954295323 L 329.17029254477956,124.69032224626181 L 331.89680704582054,122.58511676433542 L 334.68992210722615,120.56203572678123 L 337.5469816277178,118.62326469953001 L 340.4652563593171,116.7708996071213 L 343.44194700355706,115.00694426022017 L 346.4741873916597,113.33330799135209 L 349.55904774487396,111.75180340171369 L 352.6935380110748,110.26414422178064 L 355.8746112736259,108.87194328830074 L 359.0991672284269,107.57671064011467 L 362.3640557249794,106.37985173510774 L 365.66608036722835,105.28266579044649 L 369.00200216986735,104.28634424810662 L 372.3685432657217,103.3919693675476 L 375.7623906597676,102.60051294723414 L 379.1802000252854,101.91283517655091 L 382.6185995375973,101.3296836194971 L 386.07419374078876,100.85169233139104 L 389.5435674427787,100.47938110965083 L 393.0232896340656,100.2131548795584 L 396.50991742544824,100.05330321574823 L 399.99999999999994,100.0 Z" fill="rgba(66, 133, 244, 0.4)" stroke="#4285f4" stroke-width="4"/><text x="50%" y="50" text-anchor="middle" fill="white" font-family="Arial" font-size="24">Hypercardioid Pattern</text></svg>