<svg xmlns="http://www.w3.org/2000/svg" viewBox="0 0 800 600"><rect width="100%" height="100%" fill="#1a1a1a"/><circle cx="400" cy="300" r="200" fill="none" stroke="#333" stroke-width="2"/><circle cx="400" cy="300" r="150.0" fill="none" stroke="#333" stroke-width="1"/><circle cx="400" cy="300" r="100.0" fill="none" stroke="#333" stroke-width="1"/><line x1="200" y1="300" x2="600" y2="300" stroke="#333" stroke-width="1"/><line x1="400" y1="100" x2="400" y2="500" stroke="#333" stroke-width="1"/><path d="M 400.0,100.0 L 403.49014636861654,100.04964845622399 L 406.977220601865,100.198543634218 L 410.45815394784,100.44653501996032 L 413.9298844175494,100.79337195005408 L 417.3893601563433,101.23870390144171 L 420.8335428033252,101.78208089651804 L 424.25941083476,102.4229540231544 L 427.66396288751577,103.1606760690097 L 431.0442210585988,103.99450226936511 L 434.39723417687,104.92359116758439 L 437.7200810430668,105.94700558716525 L 441.0098736342896,107.06371371421451 L 444.2637602691579,108.27259028904507 L 447.47892872988655,109.57241790546388 L 450.6526093375865,110.96188841618931 L 453.78207797714987,112.43960444270957 L 456.8646590681396,114.00408098776776 L 459.8977284781719,115.65374714853695 L 462.8787163753461,117.38694792842705 L 465.8051100163515,119.20194614534714 L 468.6744564669603,121.09692443413124 L 471.4843652516943,123.06998734072272 L 474.23251092954126,125.11916350560256 L 476.91663559268505,127.24240793383947 L 479.5345512853074,129.43760434903592 L 482.08414233961525,131.70256762834515 L 484.56336762634817,134.035046315635 L 486.97026271712355,136.43272520978235 L 489.30294195608377,138.8932280249928 L 491.55960043841964,141.41412011995152 L 493.7385158934564,143.99291129253257 L 495.8380504701047,146.6270586367126 L 497.85665242259586,149.3139694582632 L 499.7928576945429,152.05100424572444 L 501.6452913994896,154.83547969309748 L 503.4126691962377,157.6646717706322 L 505.09379855736563,160.53581884002938 L 506.6875799294865,163.4461248103235 L 508.1930077839177,166.3927623306653 L 509.609171556573,169.372876016179 L 510.93525647601643,172.38358570303075 L 512.1705442787568,175.42198972881064 L 513.3144138109938,178.4851682343015 L 514.3663415161689,181.57018648268223 L 515.3259018078045,184.67409819219546 L 516.1927673272633,187.79394887829176 L 516.9667090861875,190.926779201255 L 517.6475964935285,194.06962831530666 L 518.235397267204,197.2195372151866 L 518.7301772305734,200.37355207621272 L 519.1320999940456,203.5287275838309 L 519.4414265222852,206.68213024868035 L 519.6585145876138,209.8308417032194 L 519.7838181103408,212.97196197597867 L 519.8178863868976,216.10261273953975 L 519.7613632067807,219.2199405283672 L 519.6149858594453,222.3211199226634 L 519.379584032423,225.40335669445471 L 519.0560786020687,228.46389091216713 L 518.6454803184681,231.5 L 518.1488883861701,234.50900174846294 L 517.5674889425283,237.48825727250113 L 516.9025534355609,240.43517391369932 L 516.1554369033619,243.34720808312474 L 515.3275761572077,246.22186804144022 L 514.4204878706283,249.05671661299885 L 513.4357665768156,251.8493738307106 L 512.3750825768591,254.59751950855755 L 511.240179761401,257.2988957387236 L 510.0328733484092,259.95130931039614 L 508.7550475398659,262.5526340473939 L 507.4086531002672,265.10081306187556 L 505.9957048599217,267.5938609214851 L 504.5182791461275,270.0298657273969 L 502.97851114539105,272.4069911008331 L 501.3785921999349,274.723478075737 L 499.7207670418193,276.9776468954015 L 498.00733096807704,279.16789871096967 L 496.2406269603296,281.2927171798433 L 494.42304275242054,283.3506699621594 L 492.5570078496619,285.34041011361757 L 490.6449905033472,287.26067737306926 L 488.6894946442369,289.11029934340684 L 486.69305677877105,290.8881925644234 L 484.65824285180577,292.5933634764424 L 482.58764507971114,294.2249092736537 L 480.48387875770067,295.7820186462234 L 478.349579045293,297.2639724103839 L 476.1873977338305,298.670144025844 L 474.0,300.0 L 471.7900611493154,301.253100178562 L 469.5602633535332,302.429097922354 L 467.3132923859763,303.5277401701791 L 465.0518343587429,304.5488673877842 L 462.7785724657725,305.49241340309584 L 460.4961837357334,306.3584051280361 L 458.2073357986788,307.1469621673687 L 455.9146836704053,307.85829631515895 L 453.6208665584185,308.49271093957174 L 451.32850469338626,309.0506002568651 L 449.0401961899247,309.53244849557194 L 446.7585139405262,309.93882895199806 L 444.4860025463955,310.27040293829356 L 442.2251752889126,310.5279186244878 L 439.97851114539105,310.71220977600615 L 437.7484518527437,310.8241943883128 L 435.5373990226076,310.86487322045014 L 433.34771131141554,310.8353282293678 L 431.181701648833,310.7367209070531 L 429.0416345279052,310.5702905225951 L 426.9297233601849,310.3373522714281 L 424.8481278990254,310.0392953341125 L 422.79895173414553,309.67758084712307 L 420.78423986047665,309.2537397882173 L 418.8059763242165,308.76937077906376 L 416.8660819489149,308.2261378079082 L 414.96641214431753,307.6257678751523 L 413.1087548005929,306.97004856481294 L 411.29482827046047,306.26082554492086 L 409.52627944162884,305.5 L 407.8046819018439,304.6895259988551 L 406.13153419872805,303.83140780096903 L 404.5082581964775,302.9276971048874 L 402.9361975313655,301.9804902420377 L 401.41661616787314,300.99192531949456 L 400.04930294284856,300.0358206847353 L 401.4604591006144,301.1005348702775 L 402.81583498849034,302.1999714031222 L 404.1144976984139,303.3318545407932 L 405.35559964896476,304.4938816901795 L 406.5383793942338,305.6837264942183 L 407.66216232287405,306.89904194358235 L 408.7263612465503,308.1374635094952 L 409.73047687714285,309.3966122937766 L 410.67409819219546,310.67409819219546 L 411.55690268823724,311.9675230671974 L 412.37865652174406,313.2744839260613 L 413.13921453764567,314.592576100535 L 413.8385201854214,315.919396423999 L 414.4766053229652,317.2525464022122 L 415.05358990854177,318.589635373703 L 415.56968158128905,319.9282836558816 L 416.0251751308625,321.26612567297127 L 416.4204518569517,322.60081306187556 L 416.75597881953485,323.93001775213173 L 417.03230798087236,325.2514350161294 L 417.25007524037187,326.562786485814 L 417.4099993635904,327.86182313213635 L 417.5128808067684,329.1463282035548 L 417.55960043841964,330.4141201199516 L 417.5511181596259,331.6630553183766 L 417.4884714248117,332.8910310470965 L 417.37277366489525,334.0959881044866 L 417.20521261483174,335.27591351937815 L 416.98704854768386,336.4288431695399 L 416.71961241746664,337.5528643350556 L 416.4043039131288,338.6461181834363 L 416.04258942613933,339.70680218339277 L 415.63599993425584,340.7331724442829 L 415.1861288041525,341.7235459783384 L 414.69462951568687,342.67630288287404 L 414.1632133106797,343.58988843978034 L 413.59364676917454,344.462815129703 L 412.987749316234,345.2936645584192 L 412.3473906624135,346.0810892930285 L 411.6744881811357,346.82381460568865 L 410.97100422626585,347.5206401227401 L 410.2389433932612,348.17044137718227 L 409.48034972733814,348.77217126258046 L 408.6973038821643,349.32486138660886 L 407.8919202326446,349.8276233225545 L 407.0663439454261,350.2796497572379 L 406.22274801079817,350.6802155339299 L 405.36333023971247,351.0286785889775 L 404.4903102296899,351.32448078097997 L 403.60592630341887,351.5671486114919 L 402.7124324238843,351.7562938363628 L 401.81209508989485,351.89161396695584 L 400.9071902158986,351.97289266063007 L 400.0,352.0 L 399.0928097841014,351.97289266063007 L 398.1879049101052,351.89161396695584 L 397.2875675761157,351.7562938363628 L 396.39407369658113,351.5671486114919 L 395.5096897703101,351.32448078097997 L 394.63666976028753,351.0286785889775 L 393.77725198920183,350.68021553393 L 392.9336560545739,350.27964975723785 L 392.1080797673554,349.8276233225545 L 391.3026961178357,349.32486138660886 L 390.51965027266186,348.7721712625805 L 389.76105660673875,348.1704413771822 L 389.02899577373415,347.52064012274013 L 388.3255118188643,346.82381460568865 L 387.6526093375865,346.0810892930286 L 387.012250683766,345.2936645584192 L 386.40635323082546,344.462815129703 L 385.8367866893203,343.58988843978034 L 385.30537048431313,342.67630288287404 L 384.8138711958475,341.7235459783384 L 384.36400006574416,340.7331724442829 L 383.95741057386067,339.70680218339277 L 383.59569608687127,338.6461181834363 L 383.28038758253336,337.5528643350556 L 383.01295145231614,336.4288431695399 L 382.79478738516826,335.2759135193781 L 382.62722633510475,334.0959881044866 L 382.51152857518827,332.8910310470965 L 382.4488818403741,331.6630553183766 L 382.44039956158036,330.4141201199515 L 382.4871191932316,329.14632820355484 L 382.5900006364096,327.86182313213635 L 382.74992475962813,326.56278648581406 L 382.96769201912764,325.2514350161294 L 383.2440211804652,323.93001775213173 L 383.5795481430483,322.60081306187556 L 383.9748248691375,321.26612567297127 L 384.43031841871095,319.92828365588167 L 384.94641009145823,318.589635373703 L 385.5233946770348,317.25254640221226 L 386.1614798145786,315.919396423999 L 386.8607854623543,314.592576100535 L 387.62134347825594,313.2744839260613 L 388.44309731176276,311.96752306719736 L 389.3259018078045,310.6740981921955 L 390.26952312285715,309.3966122937766 L 391.2736387534497,308.1374635094952 L 392.33783767712595,306.89904194358235 L 393.4616206057662,305.6837264942183 L 394.64440035103524,304.4938816901795 L 395.88550230158603,303.33185454079324 L 397.18416501150966,302.1999714031222 L 398.5395408993856,301.1005348702775 L 399.95069705715144,300.0358206847353 L 398.58338383212686,300.9919253194945 L 397.0638024686345,301.9804902420377 L 395.4917418035225,302.92769710488744 L 393.868465801272,303.83140780096903 L 392.1953180981561,304.6895259988551 L 390.4737205583712,305.5 L 388.70517172953953,306.26082554492086 L 386.891245199407,306.97004856481294 L 385.03358785568247,307.62576787515223 L 383.1339180510852,308.2261378079082 L 381.19402367578346,308.76937077906376 L 379.21576013952335,309.2537397882173 L 377.20104826585447,309.67758084712307 L 375.1518721009746,310.0392953341125 L 373.0702766398152,310.3373522714281 L 370.9583654720947,310.5702905225951 L 368.818298351167,310.7367209070531 L 366.65228868858446,310.8353282293678 L 364.46260097739247,310.86487322045014 L 362.2515481472563,310.8241943883128 L 360.02148885460895,310.71220977600615 L 357.7748247110874,310.5279186244878 L 355.5139974536045,310.27040293829356 L 353.24148605947386,309.93882895199806 L 350.9598038100753,309.53244849557194 L 348.67149530661374,309.0506002568651 L 346.37913344158153,308.4927109395718 L 344.0853163295948,307.85829631515895 L 341.7926642013212,307.14696216736866 L 339.5038162642666,306.3584051280361 L 337.2214275342275,305.49241340309584 L 334.94816564125716,304.54886738778424 L 332.68670761402376,303.5277401701791 L 330.43973664646677,302.429097922354 L 328.2099388506846,301.253100178562 L 326.0,300.0 L 323.8126022661695,298.6701440258441 L 321.650420954707,297.2639724103838 L 319.5161212422994,295.7820186462234 L 317.41235492028886,294.2249092736537 L 315.34175714819423,292.59336347644245 L 313.30694322122895,290.88819256442343 L 311.3105053557631,289.11029934340684 L 309.3550094966528,287.26067737306926 L 307.4429921503381,285.3404101136176 L 305.5769572475795,283.35066996215943 L 303.7593730396704,281.29271717984324 L 301.99266903192296,279.16789871096967 L 300.2792329581807,276.9776468954015 L 298.6214078000652,274.72347807573703 L 297.021488854609,272.4069911008332 L 295.4817208538725,270.0298657273969 L 294.00429514007834,267.5938609214851 L 292.59134689973286,265.1008130618756 L 291.2449524601341,262.55263404739395 L 289.9671266515908,259.9513093103961 L 288.759820238599,257.2988957387236 L 287.6249174231409,254.59751950855755 L 286.5642334231844,251.84937383071062 L 285.5795121293717,249.05671661299894 L 284.6724238427923,246.2218680414402 L 283.8445630966381,243.34720808312474 L 283.0974465644391,240.43517391369937 L 282.4325110574718,237.4882572725012 L 281.85111161382986,234.50900174846294 L 281.3545196815319,231.5 L 280.9439213979313,228.46389091216713 L 280.62041596757695,225.40335669445477 L 280.38501414055474,222.32111992266348 L 280.2386367932193,219.21994052836715 L 280.1821136131024,216.10261273953975 L 280.2161818896592,212.97196197597873 L 280.34148541238625,209.83084170321945 L 280.5585734777148,206.6821302486803 L 280.8679000059544,203.52872758383086 L 281.2698227694265,200.37355207621272 L 281.76460273279594,197.21953721518665 L 282.3524035064716,194.06962831530677 L 283.0332909138125,190.92677920125496 L 283.80723267273675,187.79394887829176 L 284.67409819219546,184.67409819219552 L 285.63365848383114,181.57018648268232 L 286.6855861890062,178.48516823430145 L 287.8294557212433,175.42198972881062 L 289.0647435239835,172.38358570303075 L 290.3908284434269,169.37287601617908 L 291.8069922160822,166.3927623306654 L 293.31242007051355,163.44612481032348 L 294.90620144263437,160.53581884002938 L 296.58733080376226,157.6646717706322 L 298.3547086005103,154.83547969309754 L 300.2071423054572,152.0510042457244 L 302.14334757740414,149.3139694582632 L 304.1619495298953,146.62705863671263 L 306.26148410654355,143.9929112925326 L 308.4403995615803,141.4141201199516 L 310.69705804391623,138.8932280249928 L 313.02973728287645,136.43272520978235 L 315.43663237365183,134.035046315635 L 317.91585766038475,131.7025676283452 L 320.4654487146927,129.4376043490359 L 323.08336440731495,127.24240793383947 L 325.7674890704587,125.11916350560261 L 328.5156347483056,123.06998734072272 L 331.32554353303965,121.0969244341313 L 334.1948899836485,119.20194614534714 L 337.1212836246539,117.38694792842705 L 340.102271521828,115.65374714853695 L 343.13534093186036,114.00408098776782 L 346.2179220228502,112.43960444270957 L 349.3473906624135,110.96188841618931 L 352.52107127011345,109.57241790546388 L 355.73623973084204,108.2725902890451 L 358.9901263657103,107.06371371421454 L 362.2799189569333,105.94700558716525 L 365.60276582313,104.92359116758439 L 368.9557789414012,103.99450226936517 L 372.3360371124841,103.16067606900972 L 375.74058916524007,102.42295402315438 L 379.1664571966748,101.78208089651804 L 382.61063984365666,101.23870390144171 L 386.0701155824505,100.79337195005408 L 389.5418460521599,100.44653501996032 L 393.02277939813507,100.198543634218 L 396.50985363138346,100.04964845622399 L 399.99999999999994,100.0 Z" fill="rgba(66, 133, 244, 0.4)" stroke="#4285f4" stroke-width="4"/><text x="50%" y="50" text-anchor="middle" fill="white" font-family="Arial" font-size="24">Supercardioid Pattern</text></svg>