<svg xmlns="http://www.w3.org/2000/svg" viewBox="0 0 400 300">
  <rect width="400" height="300" fill="#1a1a1a" rx="10"/>
  
  <!-- Ceiling/Floor Lines -->
  <line x1="0" y1="90" x2="400" y2="90" stroke="#ff3333" stroke-width="1" stroke-dasharray="4,4"/>
  <text x="10" y="85" fill="#ff3333" font-family="Arial" font-size="12">0dB Limit</text>
  
  <line x1="0" y1="210" x2="400" y2="210" stroke="#ff3333" stroke-width="1" stroke-dasharray="4,4"/>
  
  <!-- Waveform -->
  <polyline points="0,150.0 2,141.01499250178546 4,132.11976022844448 6,123.40318140047944 8,114.95234919222145 10,106.85170152562173 12,99.1821773944468 14,92.0204081486078 16,90 18,90 20,90 22,90 24,90 26,90 28,90 30,90 32,90 34,90 36,90 38,90 40,90 42,90 44,90 46,90 48,90 50,96.13750703064392 52,103.60487653606822 54,111.53581077895532 56,119.85106648596857 58,128.46756037074164 60,137.29919927461196 62,146.25774038100386 64,155.2536729084822 66,164.19711247289237 68,172.99869918241484 70,181.5704904920658 72,189.8268398965367 74,197.6852526817644 76,205.06721018484473 78,210 80,210 82,210 84,210 86,210 88,210 90,210 92,210 94,210 96,210 98,210 100,210 102,210 104,210 106,210 108,210 110,210 112,206.8139974085089 114,199.56169883378737 116,191.81419614723808 118,183.64889983472125 120,175.14739483790333 122,166.39462538448856 124,157.4780462535747 126,148.48674895640843 128,139.51057156345558 130,130.6392010720966 132,121.96127728379592 134,113.56350714450616 136,105.5297983975252 138,97.94042120506198 140,90.87120611530898 142,90 144,90 146,90 148,90 150,90 152,90 154,90 156,90 158,90 160,90 162,90 164,90 166,90 168,90 170,90 172,90 174,90.33276929260361 176,97.35745263974144 178,104.90812291879038 180,112.9093363282419 182,121.28114738855831 184,129.93990773097786 186,138.79910188436446 188,147.7702117091978 190,156.76360084156283 192,165.68941031006833 194,174.45845637698497 196,182.98312163267354 198,191.17823043977893 200,198.96189998004328 202,206.25635840035952 204,210 206,210 208,210 210,210 212,210 214,210 216,210 218,210 220,210 222,210 224,210 226,210 228,210 230,210 232,210 234,210 236,210 238,205.632340101333 240,198.29156262003914 242,190.468271808114 244,182.24063540131442 246,173.69086122292208 248,164.90437579034784 250,155.96897076160806 252,146.97392575009755 254,138.00911627220503 256,129.1641157408615 258,120.52730047760762 260,112.18496668560232 262,104.22046820648623 264,96.71338367634979 266,90 268,90 270,90 272,90 274,90 276,90 278,90 280,90 282,90 284,90 286,90 288,90 290,90 292,90 294,90 296,90 298,90 300,91.47409438585949 302,98.59228173060116 304,106.22411800315817 306,114.29334841824492 308,122.7193478928868 310,131.4179266255983 312,140.3021712930502 314,149.2833134592658 316,158.27161652049134 318,167.17727232367704 320,175.9112984998559 322,184.3864275465608 324,192.51797877586196 326,200.22470441581015 328,207.4296014113155 330,210 332,210 334,210 336,210 338,210 340,210 342,210 344,210 346,210 348,210 350,210 352,210 354,210 356,210 358,210 360,210 362,210 364,204.43495401656557 366,197.00777306640583 368,189.1109059864704 370,180.82325566226513 372,172.22762955629588 374,163.4099123232779 376,154.45820767905306 378,145.46195809738668 380,136.5110511303343 382,127.69492128153362 384,119.10165640620912 386,110.8171175664396 388,102.92408113580706 390,95.5014117252359 392,90 394,90 396,90 398,90 " fill="none" stroke="#00ccff" stroke-width="3"/>

  <!-- Clipping Highlights -->
  <rect x="25" y="85" width="40" height="10" fill="none" stroke="#ff0000" stroke-width="2" rx="2"/>
  <rect x="150" y="85" width="40" height="10" fill="none" stroke="#ff0000" stroke-width="2" rx="2"/>
  <rect x="275" y="85" width="40" height="10" fill="none" stroke="#ff0000" stroke-width="2" rx="2"/>
  
  <text x="200" y="250" fill="#ff3333" font-family="Arial" font-size="20" font-weight="bold" text-anchor="middle">DIGITAL CLIPPING</text>
  <text x="200" y="275" fill="#ccc" font-family="Arial" font-size="14" text-anchor="middle">Squared-off tops = Distortion</text>
</svg>