<svg xmlns="http://www.w3.org/2000/svg" viewBox="0 0 800 300" style="background-color:#1e1e1e; font-family:sans-serif;">
    
    <!-- Dynamic Panel -->
    <g transform="translate(50, 50)">
        <rect x="0" y="0" width="200" height="200" rx="10" fill="#333"/>
        <text x="100" y="30" text-anchor="middle" fill="#fff" font-weight="bold" font-size="18">Dynamic</text>
        <!-- Icon: Ball mic -->
        <circle cx="100" cy="90" r="40" fill="#555" stroke="#888" stroke-width="2"/>
        <rect x="85" y="125" width="30" height="60" fill="#444"/>
        <text x="100" y="180" text-anchor="middle" fill="#aaa" font-size="12">Rugged, No Power</text>
    </g>

    <!-- Condenser Panel -->
    <g transform="translate(300, 50)">
        <rect x="0" y="0" width="200" height="200" rx="10" fill="#333"/>
        <text x="100" y="30" text-anchor="middle" fill="#fff" font-weight="bold" font-size="18">Condenser</text>
        <!-- Icon: Side address -->
        <rect x="80" y="60" width="40" height="80" rx="5" fill="#eab308" opacity="0.2" stroke="#eab308" stroke-width="2"/>
        <line x1="100" y1="140" x2="100" y2="180" stroke="#666" stroke-width="4"/>
        <!-- Lightning symbol for phantom -->
        <path d="M 140 60 L 130 90 L 140 90 L 130 120" fill="#eab308"/>
        <text x="100" y="180" text-anchor="middle" fill="#aaa" font-size="12">Detailed, +48V</text>
    </g>

    <!-- Ribbon Panel -->
    <g transform="translate(550, 50)">
        <rect x="0" y="0" width="200" height="200" rx="10" fill="#333"/>
        <text x="100" y="30" text-anchor="middle" fill="#fff" font-weight="bold" font-size="18">Ribbon</text>
        <!-- Icon: Rectangular with ribbon -->
        <rect x="70" y="60" width="60" height="90" fill="#none" stroke="#ec4899" stroke-width="2"/>
        <line x1="100" y1="65" x2="100" y2="145" stroke="#ec4899" stroke-width="3" stroke-dasharray="5,2"/>
        <text x="100" y="180" text-anchor="middle" fill="#aaa" font-size="12">Smooth, Delicate</text>
    </g>
    
</svg>