<svg xmlns="http://www.w3.org/2000/svg" viewBox="0 0 800 400" style="background-color:#1e1e1e; font-family:sans-serif;">
    <text x="400" y="40" text-anchor="middle" fill="#ffffff" font-size="24" font-weight="bold">Pitch Perception</text>
    
    <!-- Musical Staff -->
    <g transform="translate(200, 150)" stroke="#888" stroke-width="2">
        <line x1="0" y1="0" x2="400" y2="0"/>
        <line x1="0" y1="20" x2="400" y2="20"/>
        <line x1="0" y1="40" x2="400" y2="40"/>
        <line x1="0" y1="60" x2="400" y2="60"/>
        <line x1="0" y1="80" x2="400" y2="80"/>
    </g>

    <!-- Treble Clef (Simplified) -->
    <path d="M 230 220 Q 210 200 230 130 Q 250 80 230 60 L 230 250" fill="none" stroke="#facc15" stroke-width="4"/>

    <!-- Note A4 -->
    <ellipse cx="350" cy="200" rx="12" ry="10" fill="#3b82f6"/>
    <line x1="360" y1="200" x2="360" y2="140" stroke="#3b82f6" stroke-width="3"/>
    
    <!-- Annotation -->
    <text x="350" y="240" text-anchor="middle" fill="#3b82f6" font-size="18">"A4" (Musical Note)</text>
    <text x="350" y="265" text-anchor="middle" fill="#888" font-size="14">= 440 Hz (Physical Frequency)</text>

    <!-- Ear / Brain Icon -->
    <path d="M 600 150 Q 650 150 650 200 Q 650 250 600 250" fill="none" stroke="#ec4899" stroke-width="4"/>
    <text x="630" y="280" text-anchor="middle" fill="#ec4899" font-size="14">Perception</text>
</svg>