<svg xmlns="http://www.w3.org/2000/svg" viewBox="0 0 400 200">
  <rect width="400" height="200" fill="#1a1a1a" rx="10"/>
  
  <!-- Quiet Section -->
  <text x="90" y="30" fill="#00ff99" font-family="Arial" font-size="16" font-weight="bold" text-anchor="middle">QUIET</text>
  <polyline points="0,150.0 2,144.03992007614818 4,138.3174497307405 6,133.06072579814895 8,128.47931727301432 10,124.7558704557631 12,122.03882742098321 14,120.43650810034619 16,120.01279190875485 18,120.78457107365415 20,122.72107719522955 22,125.7451078854123 24,129.73610458346548 26,134.53495884535607 28,139.95035549532287 30,145.766399758204 32,151.7512243028274 34,157.66623306080496 36,163.27561329884557 38,168.35573672828158 40,172.70407485923783 42,176.14727317240764 44,178.54806221668548 46,179.81073010900394 48,179.88493826507522 50,178.76772823989415 52,176.5036396716046 54,173.1829346266796 56,168.93799913616962 58,163.9380653824127 60,158.38246494596777 62,152.4926820845249 64,146.5035238544852 66,140.65375909459863 68,135.17659946584172 70,130.29040203843633 72,126.1899640845254 74,123.03875712565119 76,120.9624098390554 78,120.04369963876185 80,120.31925260129854 82,121.77808329960682 84,124.36203275735159 86,127.9680870637766 88,132.45248421324715 90,137.6364454427473 92,143.3133025769926 94,149.25673723639926 96,155.22980343668945 98,160.99437387755785 100,166.3206333266811 102,170.99624062780632 104,174.83479407256962 106,177.68326264838421 108,179.42808690199473 110,179.99970619652112 112,179.3753318745395 114,177.57985576994028 116,174.68485784906125 118,170.80575254331367 120,166.09718754001304 122,160.7468784671048 124,154.96812526344928 126,148.99130858336585 128,143.05470524695383 130,137.39498889520078 132,132.23779455878326 134,127.78872330142654 136,124.2251455543051 138,121.68912991667686 140,120.28177932915389 142,120.05920041850915 144,121.03026670352168 146,123.1562648357849 148,126.35243797874051 150,130.4913647952865 152,135.40803933438605 154,140.90644929762894 156,146.76739043101674 158,152.75720550683045 160,158.63709949995194 162,164.172659591954 164,169.1432004704385 166,173.35056235602895 168,176.62701100744513 170,178.8419247563867 172,179.90700198124787 174,179.779781414119 176,178.46533493754373 178,176.01606538456744 " fill="none" stroke="#00ff99" stroke-width="2"/>
  <text x="90" y="190" fill="#888" font-family="Arial" font-size="12" text-anchor="middle">Low Amplitude</text>
  
  <!-- Divider -->
  <line x1="200" y1="20" x2="200" y2="180" stroke="#555" stroke-dasharray="5,5"/>
  
  <!-- Loud Section -->
  <text x="310" y="30" fill="#ff3366" font-family="Arial" font-size="16" font-weight="bold" text-anchor="middle">LOUD</text>
  <polyline points="220,150.0 222,132.11976022844448 224,114.95234919222145 226,99.1821773944468 228,85.43795181904295 230,74.26761136728932 232,66.11648226294962 234,61.30952430103858 236,60.03837572626453 238,62.35371322096243 240,68.16323158568865 242,77.23532365623689 244,89.20831375039644 246,103.60487653606822 248,119.85106648596857 250,137.29919927461196 252,155.2536729084822 254,172.99869918241484 256,189.8268398965367 258,205.06721018484473 260,218.11222457771356 262,228.44181951722294 264,235.64418665005644 266,239.43219032701182 268,239.65481479522566 270,236.30318471968246 272,229.5109190148138 274,219.54880388003886 276,206.8139974085089 278,191.81419614723808 280,175.14739483790333 282,157.4780462535747 284,139.51057156345558 286,121.96127728379592 288,105.5297983975252 290,90.87120611530898 292,78.56989225357621 294,69.11627137695358 296,62.887229517166205 298,60.13109891628555 300,60.957757803895646 302,65.33424989882047 304,73.08609827205476 306,83.9042611913298 308,97.35745263974144 310,112.9093363282419 312,129.93990773097786 314,147.7702117091978 316,165.68941031006833 318,182.98312163267354 320,198.96189998004328 322,212.98872188341892 324,224.50438221770884 326,233.04978794515267 328,238.28426070598425 330,239.9991185895633 332,238.1259956236185 334,232.7395673098208 336,224.0545735471837 338,212.41725762994102 340,198.29156262003914 342,182.24063540131442 344,164.90437579034784 346,146.97392575009755 348,129.1641157408615 350,112.18496668560232 352,96.71338367634979 354,83.36616990427963 356,72.6754366629153 358,65.06738975003057 360,60.84533798746166 362,60.17760125552746 364,63.09080011056503 366,69.46879450735469 368,79.05731393622153 370,91.47409438585949 372,106.22411800315817 374,122.7193478928868 376,140.3021712930502 378,158.27161652049134 380,175.9112984998559 382,192.51797877586196 384,207.4296014113155 386,220.05168706808686 388,229.88103302233543 390,236.5257742691601 392,239.72100594374365 394,239.33934424235696 396,235.39600481263116 398,228.04819615370232 " fill="none" stroke="#ff3366" stroke-width="3"/>
  <text x="310" y="190" fill="#888" font-family="Arial" font-size="12" text-anchor="middle">High Amplitude</text>
</svg>