<svg xmlns="http://www.w3.org/2000/svg" viewBox="0 0 800 400" style="background-color:#1e1e1e;">
    <defs>
        <clipPath id="screen">
            <rect x="50" y="50" width="700" height="300"/>
        </clipPath>
        <linearGradient id="waveGradient" x1="0%" y1="0%" x2="100%" y2="0%">
            <stop offset="0%" style="stop-color:#06b6d4;stop-opacity:1" />
            <stop offset="100%" style="stop-color:#3b82f6;stop-opacity:1" />
        </linearGradient>
    </defs>

    <!-- Grid -->
    <g stroke="#333" stroke-width="1">
        <line x1="50" y1="200" x2="750" y2="200"/>
        <line x1="400" y1="50" x2="400" y2="350"/>
    </g>

    <!-- Text -->
    <text x="400" y="40" text-anchor="middle" fill="#aaa" font-family="sans-serif" font-size="16">Waveform (Time Domain)</text>

    <!-- Animated Wave -->
    <g clip-path="url(#screen)">
        <path d="M -800 200 Q -700 50 -600 200 T -400 200 T -200 200 T 0 200 T 200 200 T 400 200 T 600 200 T 800 200 T 1000 200 T 1200 200 T 1400 200" 
              fill="none" stroke="url(#waveGradient)" stroke-width="8" stroke-linecap="round">
            <animateTransform 
                attributeName="transform" 
                type="translate" 
                from="0 0" 
                to="-400 0" 
                dur="2s" 
                repeatCount="indefinite" />
        </path>
        
        <!-- Second ghost wave to show 'phasing' effect visually (fainter, slightly different speed/phase) -->
        <path d="M -800 200 Q -700 50 -600 200 T -400 200 T -200 200 T 0 200 T 200 200 T 400 200 T 600 200 T 800 200 T 1000 200 T 1200 200 T 1400 200" 
              fill="none" stroke="#ec4899" stroke-width="4" stroke-opacity="0.5" stroke-linecap="round">
             <animateTransform 
                attributeName="transform" 
                type="translate" 
                from="-50 0" 
                to="-450 0" 
                dur="2.1s" 
                repeatCount="indefinite" />
        </path>
    </g>
    
    <text x="50" y="380" fill="#666" font-family="sans-serif" font-size="12">Amplitude vs Time</text>
</svg>