<svg xmlns="http://www.w3.org/2000/svg" viewBox="0 0 800 600"><rect width="100%" height="100%" fill="#1a1a1a"/><circle cx="400" cy="300" r="200" fill="none" stroke="#333" stroke-width="2"/><circle cx="400" cy="300" r="150.0" fill="none" stroke="#333" stroke-width="1"/><circle cx="400" cy="300" r="100.0" fill="none" stroke="#333" stroke-width="1"/><line x1="200" y1="300" x2="600" y2="300" stroke="#333" stroke-width="1"/><line x1="400" y1="100" x2="400" y2="500" stroke="#333" stroke-width="1"/><path d="M 400.0,100.0 L 403.4899496702501,100.0609172980904 L 406.9756473744125,100.24359497401758 L 410.4528463267653,100.54781046317268 L 413.91731009600653,100.97319312584298 L 417.364817766693,101.51922469877917 L 420.79116908177593,102.18523992661946 L 424.1921895599668,102.97042737240037 L 427.5637355816999,103.87383040616811 L 430.90169943749476,104.89434837048464 L 434.2020143325669,106.03073792140918 L 437.4606593415912,107.28161454332124 L 440.67366430758,108.64545423573989 L 443.83711467890777,110.1205953700833 L 446.9471562785891,111.7052407141073 L 450.0,113.39745962155612 L 452.9919264233205,115.1951903843574 L 455.9192903470747,117.09624274449587 L 458.7785252292473,119.09830056250527 L 461.5661475325658,121.19892463932777 L 464.27876096865396,123.39555568810218 L 466.9130606358858,125.68551745226057 L 469.4658370458997,128.06601996613486 L 471.9339800338651,130.53416295410025 L 474.31448254773943,133.0869393641142 L 476.6044443118978,135.7212390313461 L 478.8010753606722,138.43385246743415 L 480.90169943749476,141.22147477075268 L 482.90375725550416,144.0807096529253 L 484.8048096156426,147.00807357667952 L 486.60254037844385,149.99999999999997 L 488.29475928589267,153.0528437214109 L 489.8794046299167,156.16288532109226 L 491.3545457642601,159.32633569241997 L 492.7183854566788,162.53934065840878 L 493.9692620785908,165.79798566743312 L 495.10565162951536,169.09830056250524 L 496.1261695938319,172.43626441830008 L 497.02957262759963,175.80781044003325 L 497.81476007338057,179.20883091822407 L 498.4807753012208,182.63518223330698 L 499.02680687415705,186.08268990399347 L 499.45218953682735,189.54715367323465 L 499.7564050259824,193.02435262558748 L 499.93908270190957,196.51005032974987 L 500.0,200.0 L 499.93908270190957,203.4899496702501 L 499.7564050259824,206.97564737441252 L 499.45218953682735,210.45284632676533 L 499.02680687415705,213.91731009600653 L 498.48077530122083,217.36481776669302 L 497.81476007338057,220.79116908177593 L 497.02957262759963,224.19218955996678 L 496.1261695938319,227.56373558169992 L 495.10565162951536,230.90169943749476 L 493.9692620785908,234.20201433256688 L 492.71838545667873,237.46065934159122 L 491.3545457642601,240.67366430758003 L 489.8794046299167,243.83711467890777 L 488.2947592858927,246.9471562785891 L 486.6025403784439,249.99999999999997 L 484.8048096156426,252.99192642332048 L 482.90375725550416,255.91929034707468 L 480.90169943749476,258.7785252292473 L 478.8010753606722,261.5661475325658 L 476.6044443118978,264.27876096865396 L 474.31448254773943,266.9130606358858 L 471.9339800338651,269.4658370458997 L 469.4658370458997,271.9339800338651 L 466.9130606358858,274.31448254773943 L 464.27876096865396,276.6044443118978 L 461.5661475325658,278.8010753606722 L 458.7785252292473,280.90169943749476 L 455.9192903470747,282.90375725550416 L 452.9919264233205,284.8048096156426 L 450.0,286.60254037844385 L 446.9471562785891,288.2947592858927 L 443.8371146789077,289.87940462991673 L 440.67366430758005,291.3545457642601 L 437.4606593415912,292.71838545667873 L 434.2020143325669,293.9692620785908 L 430.90169943749476,295.10565162951536 L 427.5637355816999,296.1261695938319 L 424.1921895599668,297.02957262759963 L 420.79116908177593,297.81476007338057 L 417.364817766693,298.48077530122083 L 413.91731009600653,299.02680687415705 L 410.4528463267654,299.45218953682735 L 406.9756473744126,299.7564050259824 L 403.4899496702501,299.93908270190957 L 400.0,300.0 L 403.4899496702501,300.06091729809043 L 406.9756473744125,300.2435949740176 L 410.4528463267653,300.54781046317265 L 413.91731009600653,300.97319312584295 L 417.364817766693,301.51922469877917 L 420.79116908177593,302.18523992661943 L 424.1921895599668,302.97042737240037 L 427.5637355816999,303.8738304061681 L 430.90169943749476,304.89434837048464 L 434.2020143325669,306.0307379214092 L 437.4606593415912,307.28161454332127 L 440.67366430758,308.6454542357399 L 443.83711467890777,310.1205953700833 L 446.9471562785891,311.70524071410733 L 450.0,313.39745962155615 L 452.9919264233205,315.1951903843574 L 455.91929034707465,317.09624274449584 L 458.7785252292473,319.09830056250524 L 461.5661475325658,321.1989246393278 L 464.27876096865396,323.3955556881022 L 466.9130606358858,325.68551745226057 L 469.4658370458998,328.0660199661349 L 471.9339800338651,330.5341629541003 L 474.31448254773943,333.0869393641142 L 476.6044443118978,335.72123903134604 L 478.8010753606722,338.4338524674342 L 480.90169943749476,341.2214747707527 L 482.90375725550416,344.08070965292535 L 484.8048096156426,347.0080735766795 L 486.60254037844385,350.0 L 488.2947592858927,353.0528437214109 L 489.8794046299167,356.16288532109223 L 491.35454576426014,359.32633569242 L 492.71838545667873,362.5393406584088 L 493.9692620785908,365.7979856674331 L 495.10565162951536,369.09830056250524 L 496.1261695938319,372.4362644183001 L 497.02957262759963,375.8078104400332 L 497.81476007338057,379.208830918224 L 498.48077530122083,382.635182233307 L 499.02680687415705,386.0826899039934 L 499.45218953682735,389.5471536732347 L 499.7564050259824,393.0243526255874 L 499.93908270190957,396.5100503297499 L 500.0,400.0 L 499.93908270190957,403.48994967025016 L 499.7564050259824,406.9756473744125 L 499.45218953682735,410.45284632676527 L 499.02680687415705,413.91731009600653 L 498.48077530122083,417.364817766693 L 497.81476007338057,420.79116908177593 L 497.02957262759963,424.1921895599668 L 496.1261695938319,427.5637355816999 L 495.10565162951536,430.9016994374947 L 493.9692620785908,434.20201433256693 L 492.71838545667873,437.46065934159117 L 491.35454576426014,440.67366430758 L 489.87940462991673,443.8371146789077 L 488.2947592858927,446.9471562785891 L 486.60254037844385,450.0 L 484.8048096156426,452.9919264233205 L 482.90375725550416,455.9192903470747 L 480.90169943749476,458.7785252292473 L 478.8010753606722,461.5661475325659 L 476.6044443118978,464.2787609686539 L 474.31448254773943,466.9130606358858 L 471.9339800338651,469.4658370458998 L 469.4658370458998,471.93398003386505 L 466.9130606358858,474.31448254773943 L 464.27876096865396,476.60444431189774 L 461.5661475325658,478.80107536067226 L 458.7785252292473,480.9016994374947 L 455.91929034707465,482.90375725550416 L 452.9919264233205,484.8048096156426 L 450.00000000000006,486.60254037844385 L 446.9471562785891,488.2947592858927 L 443.83711467890777,489.8794046299167 L 440.67366430758,491.35454576426014 L 437.4606593415912,492.7183854566787 L 434.2020143325669,493.9692620785908 L 430.90169943749476,495.10565162951536 L 427.5637355816999,496.1261695938319 L 424.1921895599668,497.02957262759963 L 420.791169081776,497.8147600733805 L 417.364817766693,498.48077530122083 L 413.9173100960066,499.02680687415705 L 410.4528463267653,499.4521895368273 L 406.9756473744126,499.7564050259824 L 403.4899496702501,499.93908270190957 L 400.0,500.0 L 396.5100503297499,499.93908270190957 L 393.0243526255875,499.7564050259824 L 389.54715367323473,499.4521895368273 L 386.08268990399347,499.02680687415705 L 382.63518223330703,498.48077530122083 L 379.20883091822407,497.8147600733805 L 375.8078104400333,497.0295726275997 L 372.4362644183001,496.12616959383183 L 369.0983005625053,495.10565162951536 L 365.7979856674331,493.9692620785908 L 362.53934065840883,492.7183854566788 L 359.32633569241995,491.35454576426 L 356.1628853210923,489.87940462991673 L 353.05284372141097,488.2947592858927 L 350.0,486.6025403784439 L 347.0080735766795,484.8048096156426 L 344.0807096529253,482.90375725550416 L 341.2214747707527,480.90169943749476 L 338.4338524674342,478.80107536067214 L 335.72123903134604,476.60444431189785 L 333.0869393641142,474.3144825477394 L 330.5341629541003,471.93398003386517 L 328.06601996613495,469.4658370458998 L 325.68551745226057,466.9130606358858 L 323.3955556881022,464.27876096865396 L 321.1989246393278,461.56614753256576 L 319.0983005625053,458.7785252292473 L 317.09624274449584,455.91929034707465 L 315.19519038435743,452.9919264233205 L 313.3974596215561,450.0 L 311.70524071410733,446.9471562785891 L 310.1205953700833,443.8371146789078 L 308.6454542357399,440.67366430758 L 307.28161454332127,437.4606593415913 L 306.0307379214091,434.2020143325669 L 304.89434837048464,430.90169943749476 L 303.8738304061681,427.5637355816999 L 302.97042737240037,424.1921895599668 L 302.18523992661943,420.7911690817759 L 301.5192246987792,417.364817766693 L 300.97319312584295,413.9173100960066 L 300.54781046317265,410.4528463267653 L 300.2435949740176,406.9756473744126 L 300.06091729809043,403.4899496702501 L 300.0,400.00000000000006 L 300.06091729809043,396.5100503297499 L 300.2435949740176,393.0243526255875 L 300.54781046317265,389.5471536732346 L 300.97319312584295,386.08268990399347 L 301.5192246987792,382.635182233307 L 302.18523992661943,379.2088309182242 L 302.97042737240037,375.80781044003317 L 303.8738304061681,372.4362644183001 L 304.89434837048464,369.0983005625053 L 306.0307379214091,365.7979856674332 L 307.28161454332127,362.5393406584087 L 308.6454542357399,359.32633569241995 L 310.12059537008327,356.1628853210923 L 311.7052407141073,353.05284372141097 L 313.3974596215561,350.0000000000001 L 315.19519038435743,347.00807357667946 L 317.09624274449584,344.0807096529253 L 319.09830056250524,341.2214747707527 L 321.19892463932774,338.43385246743424 L 323.39555568810226,335.72123903134604 L 325.68551745226057,333.0869393641142 L 328.0660199661349,330.5341629541003 L 330.5341629541002,328.06601996613495 L 333.08693936411413,325.6855174522606 L 335.7212390313461,323.39555568810215 L 338.4338524674342,321.1989246393278 L 341.22147477075265,319.0983005625053 L 344.08070965292524,317.0962427444959 L 347.0080735766796,315.1951903843574 L 350.0,313.3974596215561 L 353.0528437214109,311.70524071410733 L 356.16288532109223,310.1205953700833 L 359.3263356924199,308.64545423574 L 362.53934065840883,307.28161454332127 L 365.7979856674331,306.0307379214092 L 369.09830056250524,304.89434837048464 L 372.4362644183,303.8738304061681 L 375.8078104400333,302.97042737240037 L 379.20883091822407,302.18523992661943 L 382.635182233307,301.51922469877917 L 386.0826899039934,300.97319312584295 L 389.54715367323456,300.54781046317265 L 393.02435262558754,300.2435949740176 L 396.5100503297499,300.06091729809043 L 399.99999999999994,300.0 L 396.51005032974996,299.93908270190957 L 393.0243526255874,299.7564050259824 L 389.5471536732346,299.45218953682735 L 386.08268990399347,299.02680687415705 L 382.63518223330703,298.48077530122083 L 379.2088309182242,297.81476007338057 L 375.80781044003317,297.02957262759963 L 372.4362644183001,296.1261695938319 L 369.0983005625053,295.10565162951536 L 365.7979856674332,293.9692620785909 L 362.5393406584087,292.71838545667873 L 359.32633569241995,291.3545457642601 L 356.1628853210923,289.87940462991673 L 353.05284372141097,288.2947592858927 L 350.0000000000001,286.6025403784439 L 347.00807357667946,284.80480961564257 L 344.0807096529253,282.90375725550416 L 341.2214747707527,280.90169943749476 L 338.43385246743424,278.80107536067226 L 335.72123903134604,276.6044443118978 L 333.0869393641142,274.31448254773943 L 330.5341629541003,271.9339800338651 L 328.06601996613495,269.4658370458998 L 325.6855174522606,266.91306063588587 L 323.39555568810215,264.2787609686539 L 321.1989246393278,261.5661475325658 L 319.0983005625053,258.77852522924735 L 317.0962427444959,255.91929034707476 L 315.1951903843574,252.99192642332045 L 313.3974596215561,249.99999999999997 L 311.7052407141073,246.9471562785891 L 310.1205953700833,243.8371146789078 L 308.64545423574,240.6736643075801 L 307.2816145433212,237.46065934159117 L 306.0307379214092,234.20201433256688 L 304.89434837048464,230.90169943749478 L 303.8738304061681,227.5637355817 L 302.9704273724003,224.19218955996672 L 302.18523992661943,220.79116908177593 L 301.5192246987792,217.36481776669305 L 300.97319312584295,213.9173100960066 L 300.5478104631727,210.45284632676544 L 300.2435949740176,206.97564737441246 L 300.06091729809043,203.4899496702501 L 300.0,200.00000000000006 L 300.06091729809043,196.51005032975 L 300.2435949740176,193.02435262558743 L 300.54781046317265,189.54715367323462 L 300.97319312584295,186.08268990399347 L 301.51922469877917,182.63518223330703 L 302.18523992661943,179.20883091822418 L 302.97042737240037,175.80781044003317 L 303.8738304061681,172.43626441830008 L 304.89434837048464,169.0983005625053 L 306.0307379214091,165.79798566743318 L 307.28161454332127,162.53934065840875 L 308.6454542357399,159.32633569241997 L 310.1205953700833,156.1628853210923 L 311.7052407141073,153.05284372141097 L 313.3974596215561,150.0000000000001 L 315.19519038435743,147.0080735766795 L 317.09624274449584,144.0807096529253 L 319.09830056250524,141.22147477075274 L 321.19892463932774,138.43385246743424 L 323.39555568810226,135.72123903134604 L 325.68551745226057,133.0869393641142 L 328.06601996613483,130.53416295410028 L 330.5341629541002,128.06601996613492 L 333.0869393641141,125.68551745226068 L 335.7212390313461,123.39555568810218 L 338.4338524674342,121.19892463932777 L 341.22147477075265,119.09830056250527 L 344.08070965292524,117.0962427444959 L 347.0080735766795,115.1951903843574 L 350.0,113.39745962155612 L 353.0528437214109,111.7052407141073 L 356.1628853210922,110.12059537008332 L 359.3263356924199,108.64545423573995 L 362.53934065840883,107.28161454332124 L 365.7979856674331,106.03073792140918 L 369.0983005625052,104.89434837048466 L 372.43626441829997,103.87383040616814 L 375.8078104400333,102.97042737240034 L 379.20883091822407,102.18523992661946 L 382.6351822333069,101.51922469877917 L 386.0826899039934,100.97319312584298 L 389.54715367323456,100.54781046317268 L 393.0243526255875,100.24359497401758 L 396.5100503297499,100.0609172980904 L 399.99999999999994,100.0 Z" fill="rgba(66, 133, 244, 0.4)" stroke="#4285f4" stroke-width="4"/><text x="50%" y="50" text-anchor="middle" fill="white" font-family="Arial" font-size="24">Figure 8 Pattern</text></svg>