<svg xmlns="http://www.w3.org/2000/svg" viewBox="0 0 800 400" style="background-color: #1a1a1a; font-family: sans-serif;">
  <!-- 16-bit (Left) -->
  <g transform="translate(50, 50)">
    <text x="150" y="0" fill="#fff" text-anchor="middle" font-size="18">16-BIT (65,536 Steps)</text>
    <rect x="0" y="20" width="300" height="250" fill="#222" stroke="#444"/>
    <!-- Staircase effect (Zoomed in visualization) -->
    <path d="M0 250 L30 250 L30 220 L60 220 L60 190 L90 190 L90 160 L120 160 L120 130 L150 130 L150 100 L180 100 L180 70 L210 70 L210 40 L240 40 L240 10 L270 10" fill="none" stroke="#00ccff" stroke-width="2"/>
    <text x="150" y="290" fill="#aaa" text-anchor="middle" font-size="14">Visible Steps (Zoomed)</text>
    <text x="150" y="310" fill="#555" text-anchor="middle" font-size="12">Quantization Error = Noise</text>
  </g>

  <!-- 24-bit (Right) -->
  <g transform="translate(450, 50)">
    <text x="150" y="0" fill="#fff" text-anchor="middle" font-size="18">24-BIT (16.7 Million Steps)</text>
    <rect x="0" y="20" width="300" height="250" fill="#222" stroke="#444"/>
    <!-- Smooth line (Microscopic steps) -->
    <line x1="0" y1="250" x2="270" y2="10" stroke="#00ffcc" stroke-width="2"/>
    <text x="150" y="290" fill="#aaa" text-anchor="middle" font-size="14">Steps are Microscopic</text>
    <text x="150" y="310" fill="#00ffcc" text-anchor="middle" font-size="12">Extremely Accurate</text>
  </g>
</svg>