<svg xmlns="http://www.w3.org/2000/svg" viewBox="0 0 800 600"><rect x="0" y="0" width="800" height="600" fill="#f8fafc" /><line x1="100" y1="500" x2="700" y2="500" stroke="#334155" stroke-width="2" opacity="1.0"  /><path d="M 100,200.0 L 101,200.3749218815101 L 102,201.49875041659226 L 103,203.36867661918734 L 104,205.98002664762754 L 105,209.3262734868066 L 106,213.3990532623182 L 107,218.18818614578635 L 108,223.6817017991345 L 109,229.86586929419695 L 110,236.72523143288817 L 111,244.2426433821483 L 112,252.39931552709655 L 113,261.1748604352832 L 114,270.54734381465346 L 115,280.49333933785374 L 116,290.9879871958504 L 117,302.0050562345054 L 118,313.5170095188007 L 119,325.495073160835 L 120,337.9093082395581 L 121,350.72868563248187 L 122,363.9211635723268 L 123,377.45376773475283 L 124,391.292673656998 L 125,405.4032912814194 L 126,419.7503514126238 L 127,434.29799387208755 L 128,449.00985712992775 L 129,463.8491691897901 L 130,478.7788394996891 L 131,493.76155165907227 L 132,491.24014330961336 L 133,476.2637333579798 L 134,461.34665171134253 L 135,446.52618330515236 L 136,431.83937159207386 L 137,417.32292595264613 L 138,403.01312994094894 L 139,388.94575059461386 L 140,375.15594903585725 L 141,361.67819258698603 L 142,348.54616862004275 L 143,335.79270035591867 L 144,323.44966482339623 L 145,311.54791318317825 L 146,300.11719361605265 L 147,289.1860769679338 L 148,278.78188533762625 L 149,268.93062378580777 L 150,259.6569153359199 L 151,250.9839394294333 L 152,242.93337398931578 L 153,235.52534123651418 L 154,228.77835739488165 L 155,222.70928641026092 L 156,217.3332977994025 L 157,212.66382873407287 L 158,208.71255045512282 L 159,205.48933910046378 L 160,203.00225101986638 L 161,201.25750263828166 L 162,200.25945491801616 L 163,200.01060245859742 L 164,200.51156726157404 L 165,201.76109717583614 L 166,203.75606902734052 L 167,206.49149642541977 L 168,209.96054222616175 L 169,214.1545356217086 L 170,219.06299381276108 L 171,224.67364821011722 L 172,230.9724750997559 L 173,237.94373069481867 L 174,245.5699904868776 L 175,253.83219279813179 L 176,262.70968642567505 L 177,272.18028225874764 L 178,282.220308739958 L 179,292.80467103184776 L 180,303.9069137409164 L 181,315.49928704232764 L 182,327.5528160400195 L 183,340.03737318885373 L 184,352.92175359779014 L 185,366.17375302586214 L 186,379.7602483760074 L 187,393.64728048556066 L 188,407.8001390064742 L 189,422.1834491631122 L 190,436.7612601707661 L 191,451.49713509389403 L 192,466.3542419194838 L 193,481.2954456179025 L 194,496.2834009611328 L 195,488.71935413360706 L 196,473.75030496816584 L 197,458.84686636972754 L 198,444.04628917322725 L 199,429.38556711366465 L 200,414.9013443610321 L 201,400.6298239289737 L 202,386.6066771861057 L 203,372.86695469617155 L 204,359.44499860988685 L 205,346.37435682744774 L 206,333.68769914625153 L 207,321.416735603418 L 208,309.5921372172096 L 209,298.2434593254602 L 210,287.399067712622 L 211,277.08606771007686 L 212,267.3302364469249 L 213,258.1559584205853 L 214,249.58616454825207 L 215,241.64227485154373 L 216,234.34414491760418 L 217,227.71001627047593 L 218,221.75647077678923 L 219,216.49838919973172 L 220,211.94891400489018 L 221,208.1194165109307 L 222,205.0194684672246 L 223,202.65681812945928 L 224,201.03737089303473 L 225,200.16517453265016 L 226,200.04240908497547 L 227,200.66938139969477 L 228,202.04452437254224 L 229,204.16440086224623 L 230,207.02371228159296 L 231,210.61531184113466 L 232,214.9302224124412 L 233,219.95765896624647 L 234,225.68505552940417 L 235,232.09809659327698 L 236,239.18075289505254 L 237,246.9153214825523 L 238,255.28246996239292 L 239,264.26128482090166 L 240,273.8293236970086 L 241,283.96267147646194 L 242,294.6360000671582 L 243,305.8226317061829 L 244,317.49460564032364 L 245,329.6227480133915 L 246,342.17674478566863 L 247,355.1252175032189 L 248,368.43580172768293 L 249,382.07522793051777 L 250,396.00940464949224 L 251,410.20350369958817 L 252,424.6220472253235 L 253,439.2289963769167 L 254,453.9878413886407 L 255,468.86169283422413 L 256,483.81337383120535 L 257,498.8055129637763 L 258,486.1993623081389 L 259,471.23873198705064 L 260,456.34998985741595 L 261,441.5703500206516 L 262,426.93675387926265 L 263,412.48577780257204 L 264,398.2535417048491 L 265,384.27561876433344 L 266,370.58694650881375 L 267,357.2217394900071 L 268,344.2134037649943 L 269,331.5944533984781 L 270,319.3964291945529 L 271,307.64981986111945 L 272,296.38398580399627 L 273,285.62708574119245 L 274,275.40600632078 L 275,265.7462949182752 L 276,256.67209578150323 L 277,248.20608968255488 L 278,240.3694372276663 L 279,233.18172596672537 L 280,226.6609214345969 L 281,220.82332224664145 L 282,215.68351936066642 L 283,211.25435960712878 L 284,207.54691357875078 L 285,204.5704479598029 L 286,202.33240236421898 L 287,200.8383707404364 L 288,200.09208738943806 L 289,200.09541763094455 L 290,200.84835314108648 L 291,202.3490119732097 L 292,204.593643261762 L 293,207.57663659750324 L 294,211.2905360506071 L 295,215.72605880660205 L 296,220.87211836857404 L 297,226.71585226763398 L 298,233.24265421239176 L 299,240.43621059707868 L 300,248.27854127706428 L 301,256.750044509856 L 302,265.82954594924524 L 303,275.494351570146 L 304,285.72030439184033 L 305,296.48184485784645 L 306,307.752074721502 L 307,319.50282427756986 L 308,331.70472277183137 L 309,344.3272718126777 L 310,357.33892160120223 L 311,370.70714978927083 L 312,384.3985427684516 L 313,398.3788791866356 L 314,412.61321548359683 L 315,427.06597323169103 L 316,441.7010280633996 L 317,456.48179996343197 L 318,471.3713446997148 L 319,486.3324461647334 L 320,498.67229060358477 L 321,483.6803459539358 L 322,468.72919194029043 L 323,453.85619866127286 L 324,439.0985408543744 L 325,424.49310497847364 L 326,410.0763970168955 L 327,395.884451231468 L 328,381.95274009563275 L 329,368.31608563173336 L 330,355.0085723740982 L 331,342.0634621754516 L 332,329.5131110696075 L 333,317.38888839823437 L 334,305.7210984038368 L 335,294.538904484934 L 336,283.8702563027484 L 337,273.7418199216113 L 338,264.1789111576882 L 339,255.20543230262157 L 340,246.84381238025236 L 341,239.11495108573837 L 342,232.038166547203 L 343,225.63114704047473 L 344,219.90990677760863 L 345,214.88874587969798 L 346,210.58021463401707 L 347,206.99508212484068 L 348,204.1423093163409 L 349,202.02902665484345 L 350,200.6605162464258 L 351,200.0401986544025 L 352,200.1696243496986 L 353,201.0484698354793 L 354,202.67453845572413 L 355,205.04376588572245 L 356,208.1502302907694 L 357,211.98616712766756 L 358,216.5419885520418 L 359,221.80630738295747 L 360,227.76596556494115 L 361,234.40606705626823 L 362,241.7100150613083 L 363,249.65955351387103 L 364,258.2348127078651 L 365,267.4143589612136 L 366,277.17524818889916 L 367,287.493083251225 L 368,298.34207493395957 L 369,309.6951064079425 L 370,321.5238010070324 L 371,333.79859315499755 L 372,346.4888022640557 L 373,359.56270942036707 L 374,372.98763666480085 L 375,386.730028670812 L 376,400.7555366152859 L 377,415.0291040327042 L 378,429.5150544380531 L 379,444.1771804994573 L 380,458.9788345376499 L 381,473.883020126089 L 382,488.85248456275264 L 383,496.15018801750495 L 384,481.1624831227749 L 385,466.22186220984935 L 386,451.36566905008453 L 387,436.63103638942454 L 388,422.05479313587324 L 389,407.6733723064027 L 390,393.5227199633885 L 391,379.6382053681698 L 392,366.05453257631984 L 393,352.8056536955786 L 394,339.92468402326426 L 395,327.4438192752792 L 396,315.39425511358377 L 397,303.806109173291 L 398,292.7083457842623 L 399,282.1287035753659 L 400,272.0936261423536 L 401,262.6281959526401 L 402,253.7560716521992 L 403,245.49942893126928 L 404,237.87890509667568 L 405,230.91354748931332 L 406,224.62076587571204 L 407,219.01628893268867 L 408,214.11412493384591 L 409,209.92652673618272 L 410,206.46396115433475 L 411,203.73508279898687 L 412,201.7467124448554 L 413,200.50381998230228 L 414,200.009511995198 L 415,200.26502399607978 L 416,201.26971733801344 L 417,203.02108081087835 L 418,205.51473691808468 L 419,208.74445281803565 L 420,212.7021559029846 L 421,217.37795397635142 L 422,222.7601599780611 L 423,228.8353211961081 L 424,235.5882528913296 L 425,243.00207625134726 L 426,251.0582605788053 L 427,259.7366696084646 L 428,269.01561183737914 L 429,278.87189474235566 L 430,289.28088274918593 L 431,300.21655880874846 L 432,311.65158942608423 L 433,323.5573929798988 L 434,335.90421116172934 L 435,348.6611833562216 L 436,361.79642377659127 L 437,375.2771011624883 L 438,389.06952084104904 L 439,403.13920894602944 L 440,417.4509985845209 L 441,431.96911773586226 L 442,446.6572786630653 L 443,461.47876861325847 L 444,476.39654158044794 L 445,491.3733109012438 L 446,493.6283575479062 L 447,478.64595178489924 L 448,463.7169200214567 L 449,448.87857706209877 L 450,434.16801103656223 L 451,419.6219906987971 L 452,405.27687352422697 L 453,391.1685148349957 L 454,377.3321781803361 L 455,363.802447196058 L 456,350.61313916347535 L 457,337.797220483811 L 458,325.3867242793624 L 459,313.4126703273803 L 460,301.9049875267759 L 461,290.8924390914666 L 462,280.402550657316 L 463,270.46154148238134 L 464,261.0942589124231 L 465,252.32411627547827 L 466,244.1730343607381 L 467,236.66138662798784 L 468,229.80794828456902 L 469,223.62984935713882 L 470,218.14253187552322 L 471,213.35971127568706 L 472,209.293342118285 L 473,205.95358820848662 L 474,203.3487971917562 L 475,201.48547968908633 L 476,200.36829302383694 L 477,200.00002958085145 L 478,200.38160982694956 L 479,201.512080010239 L 480,203.3886145439992 L 481,206.00652306917607 L 482,209.35926217783697 L 483,213.43845176828307 L 484,218.23389599093912 L 485,223.73360873266716 L 486,229.9238435758087 L 487,236.78912815706735 L 488,244.31230284036124 L 489,252.4745636069757 L 490,261.2555090558168 L 491,270.63319139629164 L 492,280.584171306351 L 493,291.08357651858984 L 494,302.1051639879622 L 495,313.6213854857255 L 496,325.6034564556693 L 497,338.02142796050975 L 498,350.84426153863933 L 499,364.0399067841154 L 500,377.5753814559824 L 501,391.4168539167016 L 502,405.52972769361975 L 503,419.87872795213707 L 504,434.4279896644222 L 505,449.14114725330245 L 506,463.98142548727196 L 507,478.91173139941236 L 508,493.8947470004962 L 509,491.10697744547554 L 510,476.13092981643797 L 511,461.21454243208683 L 512,446.3950984925796 L 513,431.70963888994794 L 514,417.19486962515884 L 515,402.8870700622296 L 516,388.8220022487076 L 517,375.03482152918184 L 518,361.55998867522624 L 519,348.4311837514185 L 520,335.6812219327195 L 521,323.3419714836224 L 522,311.4442741040936 L 523,300.0178678413808 L 524,289.09131276038346 L 525,278.6919195583648 L 526,268.84568130242934 L 527,259.5772084603958 L 528,250.90966738744186 L 529,242.86472242228177 L 530,235.46248173760273 L 531,228.7214470801029 L 532,222.6584675257635 L 533,217.28869736593174 L 534,212.62555822948502 L 535,208.68070553574864 L 536,205.46399936201698 L 537,202.98347979849638 L 538,201.2453468522661 L 539,200.25394495048943 L 540,200.01175208160885 L 541,200.51937360166482 L 542,201.7755407212215 L 543,203.77711367667905 L 544,206.519089578048 L 545,209.994614913568 L 546,214.19500267991947 L 547,219.10975409520586 L 548,224.72658484044206 L 549,231.0314557639539 L 550,238.0086079719453 L 551,245.64060221752803 L 552,253.9083624897533 L 553,262.7912236937069 L 554,272.2669833024837 L 555,282.3119568519412 L 556,292.9010371395283 L 557,304.00775697921154 L 558,315.6043553556599 L 559,327.66184681232374 L 560,340.15009389998073 L 561,353.03788250466687 L 562,366.29299986670003 L 563,379.8823150958069 L 564,393.7718619810933 L 565,407.9269238888811 L 566,422.31212053621664 L 567,436.8914964231461 L 568,451.62861070274437 L 569,466.4866282642533 L 570,481.42841180167386 L 571,496.41661463769515 L 572,488.58622592906886 L 573,473.61759498683153 L 574,458.7149063174362 L 575,443.9154088813872 L 576,429.25609371484325 L 577,414.773601471298 L 578,400.5041308390241 L 579,386.4833480632058 L 580,372.7462977989009 L 581,359.3273155176508 L 582,346.25994168668876 L 583,333.57683793523535 L 584,321.3097054174366 L 585,309.48920557598854 L 586,298.14488350449597 L 587,287.3050941001297 L 588,276.9969311911474 L 589,267.2461598164341 L 590,258.07715182632364 L 591,249.51282496566293 L 592,241.5745855913891 L 593,234.28227516778276 L 594,227.65412067314094 L 595,221.70668904182463 L 596,216.45484575554866 L 597,211.91171768742214 L 598,208.08866029159992 L 599,204.9952292205619 L 600,202.63915644095795 L 601,201.02633090771775 L 602,200.16078384473138 L 603,200.04467866888803 L 604,200.67830558266098 L 605,202.06008084875208 L 606,204.186550748611 L 607,207.05240021493222 L 608,210.65046611655544 L 609,214.971755162563 L 610,220.0054663808234 L 611,225.73901811479783 L 612,232.1580794711271 L 613,239.24660613940284 L 614,246.98688049458767 L 615,255.35955588185004 L 616,264.34370497312796 L 617,273.91687207454714 L 618,284.05512925396306 L 619,294.7331361483293 L 620,305.9242033014079 L 621,317.6003588735126 L 622,329.73241855653686 L 623,342.29005851952746 L 624,355.24189120246945 L 625,368.5555437688387 L 626,382.1977390208373 L 627,396.1343785750522 L 628,410.3306280906595 L 629,424.7510043371341 L 630,439.3594638838454 L 631,454.1194931898674 L 632,468.9941998688087 L 633,483.94640490056946 L 634,498.9387355595281 L 635,486.066281173109 L 636,471.10612494627185 L 637,456.2181883594297 L 638,441.4396835005623 L 639,426.80754893532014 L 640,412.35835737984917 L 641,398.1282242880423 L 642,384.1527175817202 L 643,370.4667687493454 L 644,357.1045855354945 L 645,344.0995664393125 L 646,331.484217235655 L 647,319.2900697275853 L 648,307.5476029332843 L 649,296.2861669043792 L 650,285.5339093661005 L 651,275.3177053626249 L 652,265.6630900834657 L 653,256.5941950387944 L 654,248.13368774323334 L 655,240.30271505887504 L 656,233.12085033913746 L 657,226.60604450557776 L 658,220.7745811799345 L 659,215.6410359835544 L 660,211.21824010593002 L 661,207.51724823340726 L 662,204.5473109182285 L 663,202.31585145696812 L 664,200.82844733615775 L 665,200.08881629147436 L 666,200.09880701533706 L 667,200.85839453613943 L 668,202.36568028066495 L 669,204.61689681953152 L 670,207.60641728380267 L 671,211.32676942923035 L 672,215.76865431297273 L 673,220.92096953610934 L 674,226.77083699385622 L 675,233.30363506412073 L 676,240.50303515394342 L 677,248.3510425124745 L 678,256.82804120848084 L 679,265.9128431599579 L 680,275.5827410932999 L 681,285.8135652996601 L 682,296.5797440466324 L 683,307.85436749426674 L 684,319.6092549556544 L 685,331.81502533396815 L 686,344.44117055990625 L 687,357.4561318459723 L 688,370.827378567012 L 689,384.5214895698333 L 690,398.50423670868344 L 691,412.7406703977911 L 692,427.19520696712397 L 693,441.8317176030357 L 694,456.61361865148405 L 695,471.50396305811205 L 696,486.4655327166466 L 697,498.53906850522475 L 698,483.5473212949946 L 699,468.5966972131376" fill="none" stroke="purple" stroke-width="2" opacity="1.0"  /><text x="150" y="180" font-family="Inter, system-ui, sans-serif" font-size="20" fill="purple" text-anchor="start" font-weight="normal" font-style="normal" >Cancel (Null)</text><line x1="180" y1="190" x2="192" y2="480" stroke="purple" stroke-width="2" opacity="1.0" stroke-dasharray="2,2" /><text x="400" y="50" font-family="Inter, system-ui, sans-serif" font-size="24" fill="#1e293b" text-anchor="middle" font-weight="bold" font-style="normal" >Comb Filtering Response</text></svg>