<svg xmlns="http://www.w3.org/2000/svg" viewBox="0 0 800 600"><rect width="100%" height="100%" fill="#1a1a1a"/><circle cx="400" cy="300" r="200" fill="none" stroke="#333" stroke-width="2"/><circle cx="400" cy="300" r="150.0" fill="none" stroke="#333" stroke-width="1"/><circle cx="400" cy="300" r="100.0" fill="none" stroke="#333" stroke-width="1"/><line x1="200" y1="300" x2="600" y2="300" stroke="#333" stroke-width="1"/><line x1="400" y1="100" x2="400" y2="500" stroke="#333" stroke-width="1"/><path d="M 400.0,100.0 L 403.4902154788534,100.04568913340609 L 406.9777733574564,100.1827147850992 L 410.46001878767703,100.41095175612898 L 413.9343024224158,100.73019153693909 L 417.3979831581123,101.14014254021504 L 420.8484308676533,101.6404304264824 L 424.28302912049816,102.23059852206796 L 427.6991778868565,102.91010832892701 L 431.0942962227705,103.67834012572854 L 434.4658249329765,104.53459365948379 L 437.8112292084501,105.47808892689423 L 441.12800123556593,106.50796704448936 L 444.4136627738404,107.62329120651813 L 447.6657676992613,108.82304772945403 L 450.88190451025207,110.10614718187125 L 454.05969879336016,111.4714255983468 L 457.196815645811,112.91764577594438 L 460.2909620521184,114.44349865173729 L 463.3398892119986,116.0476047597322 L 466.34139481689385,117.72851576546026 L 469.29332527247294,119.48471607641011 L 472.19357786454106,121.31462452638871 L 475.0401028658599,123.21659613180609 L 477.8309055814497,125.18892391779701 L 480.56404833001886,127.22984081200804 L 483.23765235924384,129.33752160380038 L 485.849899692702,131.51008496653955 L 488.39903490634117,133.74559554056995 L 490.883366832455,136.0420660744002 L 493.3012701892219,138.39745962155612 L 495.6511871339518,140.8096917904942 L 497.93162873827885,143.27663304490355 L 500.14117638363274,145.79611105166757 L 502.27848307541404,148.36591307370023 L 504.3422746744,150.98378840481737 L 506.33135104400503,153.64745084375787 L 508.24458711212077,156.35458120442075 L 510.0809338463656,159.10282985934444 L 511.83941914167406,161.88981931341493 L 513.5191486192643,164.7131468047557 L 515.1193063361293,167.57038692971952 L 516.6391554042995,170.4590942888779 L 518.0780385192411,173.3768061508767 L 519.4353783968545,176.32104513100984 L 520.7106781186548,179.28932188134524 L 521.9035213848199,182.27913778922533 L 523.0135726749082,185.2879876809564 L 524.0405773161531,188.31336252749685 L 524.9843614593557,191.35275214895256 L 525.8448319625082,194.40364791469258 L 526.6219761823874,197.46354543590425 L 527.315861674472,200.52994724741757 L 527.9266358016453,203.60036547564513 L 528.4545252522524,206.67232448950006 L 528.8998354681946,209.74336353117883 L 529.2629499838436,212.81103932372093 L 529.5443296766724,215.87292865228733 L 529.744511930601,218.92663091613338 L 529.8641097131576,221.9697706482891 L 529.9038105676658,225.0 L 529.8643755217608,228.01500118702654 L 529.7466379136447,231.01248889494826 L 529.5515021375842,233.99021264066897 L 529.2799423102527,236.94595908737517 L 528.9330008596139,239.87755431025704 L 528.5117870381298,242.78286601036288 L 528.0174753621766,245.6598056740225 L 527.4513039796286,248.50633067534136 L 526.8145729676631,251.32044631933968 L 526.1086425629178,254.10020782338202 L 525.3349313262146,256.84372223462043 L 524.4949142441391,259.54915028125265 L 523.5901207698408,262.21470815547843 L 522.6221328054921,264.8386692261214 L 521.5925826289068,267.4193656789699 L 520.5031507668941,269.9551900829796 L 519.3555638179773,272.44459688057185 L 518.1515922271706,274.8861038003541 L 516.893048015562,277.27829319068485 L 515.5817824675042,279.61981327260236 L 514.2196837782611,281.9093793107346 L 512.808674665007,284.1457747009094 L 511.3507099441156,286.3278519732851 L 509.8477740777153,288.45453370992493 L 508.3018786925211,290.5248133758446 L 506.7150600739857,292.537756062666 L 505.08937663884006,294.4924991441193 L 503.42690638911586,296.3882528427411 L 501.7297443507642,298.2243007072264 L 500.0,300.0 L 498.2397946805141,301.7147819946831 L 496.4512590147033,303.3681521832413 L 494.6365303120747,304.95969039270807 L 492.79774997797915,306.48905081149104 L 490.937060925828,307.95596192537624 L 489.0566049959393,309.36022636345564 L 487.1585203841488,310.70172065431456 L 485.2449390833071,311.9803948929225 L 483.31798434076643,313.19627231878076 L 481.37976813493736,314.34944880598846 L 479.43238867397076,315.4400922659938 L 477.47792791959057,316.468441963906 L 475.5184491390696,317.4348077493448 L 473.5559944883051,318.33956920291314 L 471.5925826289068,319.183174699474 L 469.63020638217165,319.96614038952123 L 467.67083042276624,320.6890491000257 L 465.7163890148917,321.3525491562421 L 463.76878379364877,321.95735312605177 L 461.8298815942639,322.5042364885158 L 459.90151233177727,322.99403622839975 L 457.98546693372884,323.42764935852375 L 456.08349532831147,323.8060313718772 L 454.19730449039037,324.1301946255229 L 452.3285565477161,324.4012066583969 L 450.4788669495806,324.62018844519065 L 448.6498027000894,324.7883125885783 L 446.8428806581406,324.9068014521264 L 445.0595659061183,324.97692523629394 L 443.30127018922195,325.0 L 441.5693504272649,324.9773856303 L 439.86510730068426,324.9104837627744 L 438.18978391241234,324.8007356552927 L 436.5445645271648,324.6496200178703 L 434.93057338960375,324.45865080138805 L 433.3488736227371,324.2293749479947 L 431.8004662078133,323.9633701060548 L 430.28628904687235,323.6622423125492 L 428.80721610900684,323.3276236458717 L 427.3640566612874,322.96116985200047 L 425.9575545851987,322.564557947054 L 424.5883877793257,322.1394837992685 L 423.2571676489259,321.6876596934561 L 421.9644386829103,321.21081188102477 L 420.71067811865476,320.71067811865476 L 419.49629569494493,320.18900519874006 L 418.3216334932586,319.6475464747108 L 417.18696586747217,319.08805938435677 L 416.09249946197224,318.51230297427395 L 415.03837331804357,317.9220354285513 L 414.0246590682935,317.31901160480913 L 413.05136121876603,316.7049805806888 L 412.1184175182889,316.08168321387933 L 411.22569941448967,315.45084971874735 L 410.3730125958092,314.8141972626157 L 409.5600976187353,314.1734275847086 L 408.78663061937266,313.5302246407524 L 408.05222410836217,312.8862522761887 L 407.35642784805907,312.2431519309167 L 406.69872981077805,311.60254037844385 L 406.0785572168124,310.96600750227935 L 405.495277650837,310.33511411235537 L 404.9482002552073,309.7113898042131 L 404.43657699857164,309.0963308636338 L 403.95960401812107,308.491398219338 L 403.51642303371034,307.8980154463172 L 403.1061228319948,307.31756682229417 L 402.72774081864134,306.7513954397462 L 402.3802646365871,306.20080137585046 L 402.0626338482399,305.66703992264195 L 401.77374167943276,305.1513198795956 L 401.5124368228711,304.654801910768 L 401.27752529873635,304.17859696855146 L 401.0677723700397,303.7237647860106 L 400.88190451025207,303.29131243968493 L 400.71861142067223,302.8821929846533 L 400.5765480949326,302.49730416356516 L 400.45433692798593,302.1374871912505 L 400.3505698668589,301.803525616427 L 400.2638106004096,301.4961442619254 L 400.1925967852757,301.2160082447561 L 400.1354423051566,300.9637220772411 L 400.0908395605314,300.7398288503324 L 400.05726178587736,300.54480950013703 L 400.0331653914193,300.37908215856413 L 400.01699232640925,300.2430015889039 L 400.0071724609117,300.1368587070437 L 400.0021259830438,300.06088018891836 L 400.00026580860333,300.01522816468434 L 400.0,300.0 L 399.99973419139667,300.01522816468434 L 399.9978740169562,300.06088018891836 L 399.9928275390883,300.1368587070437 L 399.98300767359075,300.2430015889039 L 399.9668346085807,300.37908215856413 L 399.94273821412264,300.54480950013703 L 399.9091604394686,300.7398288503324 L 399.8645576948434,300.9637220772411 L 399.8074032147243,301.2160082447561 L 399.7361893995904,301.4961442619254 L 399.6494301331411,301.803525616427 L 399.54566307201407,302.1374871912505 L 399.4234519050674,302.49730416356516 L 399.28138857932777,302.8821929846533 L 399.11809548974793,303.2913124396849 L 398.9322276299603,303.7237647860106 L 398.72247470126365,304.17859696855146 L 398.4875631771289,304.65480191076796 L 398.22625832056724,305.1513198795956 L 397.9373661517601,305.66703992264195 L 397.6197353634129,306.20080137585046 L 397.27225918135866,306.7513954397462 L 396.8938771680052,307.31756682229417 L 396.4835769662897,307.8980154463172 L 396.040395981879,308.491398219338 L 395.56342300142836,309.0963308636338 L 395.0517997447927,309.7113898042131 L 394.504722349163,310.33511411235537 L 393.9214427831876,310.96600750227935 L 393.30127018922195,311.60254037844385 L 392.64357215194093,312.24315193091667 L 391.9477758916379,312.8862522761887 L 391.21336938062734,313.5302246407524 L 390.4399023812647,314.1734275847086 L 389.6269874041908,314.8141972626157 L 388.7743005855104,315.45084971874735 L 387.8815824817111,316.08168321387933 L 386.948638781234,316.7049805806888 L 385.9753409317065,317.31901160480913 L 384.9616266819565,317.9220354285513 L 383.9075005380278,318.5123029742739 L 382.81303413252783,319.08805938435677 L 381.6783665067414,319.6475464747108 L 380.50370430505507,320.18900519874006 L 379.28932188134524,320.71067811865476 L 378.0355613170897,321.21081188102477 L 376.7428323510742,321.6876596934561 L 375.4116122206742,322.1394837992685 L 374.0424454148013,322.564557947054 L 372.6359433387126,322.96116985200047 L 371.1927838909932,323.3276236458717 L 369.7137109531276,323.6622423125492 L 368.1995337921867,323.9633701060548 L 366.6511263772629,324.2293749479947 L 365.06942661039625,324.45865080138805 L 363.4554354728352,324.6496200178703 L 361.8102160875876,324.8007356552927 L 360.13489269931574,324.9104837627744 L 358.43064957273515,324.9773856303 L 356.6987298107781,325.0 L 354.94043409388166,324.97692523629394 L 353.15711934185936,324.90680145212644 L 351.35019729991063,324.7883125885783 L 349.52113305041945,324.62018844519065 L 347.6714434522839,324.4012066583969 L 345.80269550960963,324.1301946255229 L 343.91650467168853,323.8060313718772 L 342.01453306627116,323.42764935852375 L 340.0984876682228,322.99403622839975 L 338.1701184057361,322.50423648851574 L 336.23121620635123,321.95735312605177 L 334.28361098510834,321.3525491562421 L 332.3291695772338,320.6890491000258 L 330.36979361782835,319.96614038952123 L 328.4074173710932,319.183174699474 L 326.4440055116949,318.33956920291314 L 324.4815508609304,317.4348077493449 L 322.5220720804095,316.468441963906 L 320.5676113260292,315.4400922659938 L 318.62023186506264,314.34944880598846 L 316.6820156592336,313.19627231878076 L 314.75506091669297,311.9803948929225 L 312.84147961585114,310.70172065431456 L 310.9433950040606,309.36022636345564 L 309.062939074172,307.95596192537624 L 307.20225002202085,306.4890508114911 L 305.3634696879253,304.95969039270807 L 303.54874098529666,303.3681521832413 L 301.7602053194859,301.71478199468316 L 300.0,300.0 L 298.2702556492359,298.22430070722646 L 296.57309361088414,296.38825284274105 L 294.91062336115994,294.4924991441193 L 293.2849399260143,292.537756062666 L 291.69812130747897,290.52481337584464 L 290.15222592228474,288.454533709925 L 288.6492900558844,286.3278519732851 L 287.191325334993,284.1457747009094 L 285.7803162217389,281.9093793107346 L 284.41821753249576,279.6198132726024 L 283.106951984438,277.27829319068485 L 281.84840777282943,274.8861038003541 L 280.6444361820226,272.44459688057185 L 279.4968492331058,269.95519008297964 L 278.4074173710932,267.41936567896994 L 277.37786719450787,264.83866922612134 L 276.4098792301591,262.21470815547843 L 275.505085755861,259.54915028125265 L 274.6650686737854,256.8437222346205 L 273.8913574370822,254.100207823382 L 273.1854270323369,251.32044631933968 L 272.5486960203714,248.50633067534136 L 271.9825246378234,245.65980567402252 L 271.4882129618702,242.78286601036297 L 271.0669991403861,239.87755431025698 L 270.7200576897472,236.94595908737517 L 270.4484978624158,233.990212640669 L 270.2533620863552,231.01248889494832 L 270.13562447823915,228.01500118702648 L 270.0961894323342,225.0 L 270.13589028684237,221.9697706482891 L 270.255488069399,218.92663091613343 L 270.4556703233276,215.8729286522874 L 270.73705001615645,212.81103932372088 L 271.1001645318054,209.74336353117883 L 271.54547474774756,206.6723244895001 L 272.07336419835474,203.60036547564522 L 272.684138325528,200.5299472474175 L 273.37802381761264,197.46354543590422 L 274.15516803749176,194.4036479146926 L 275.01563854064426,191.35275214895262 L 275.95942268384687,188.31336252749696 L 276.98642732509177,185.28798768095638 L 278.0964786151801,182.27913778922533 L 279.28932188134524,179.28932188134527 L 280.56462160314544,176.3210451310099 L 281.9219614807589,173.37680615087663 L 283.3608445957005,170.45909428887785 L 284.8806936638707,167.57038692971955 L 286.48085138073566,164.71314680475572 L 288.16058085832594,161.88981931341505 L 289.91906615363433,159.10282985934435 L 291.75541288787923,156.35458120442075 L 293.66864895599497,153.6474508437579 L 295.6577253255999,150.98378840481743 L 297.721516924586,148.36591307370017 L 299.85882361636726,145.79611105166757 L 302.06837126172115,143.27663304490355 L 304.3488128660482,140.80969179049427 L 306.698729810778,138.3974596215562 L 309.11663316754505,136.04206607440014 L 311.60096509365883,133.74559554056995 L 314.1501003072979,131.51008496653958 L 316.7623476407561,129.33752160380044 L 319.4359516699812,127.229840812008 L 322.1690944185503,125.18892391779701 L 324.9598971341401,123.21659613180611 L 327.8064221354589,121.31462452638874 L 330.70667472752694,119.48471607641017 L 333.6586051831062,117.72851576546026 L 336.6601107880014,116.0476047597322 L 339.70903794788154,114.44349865173729 L 342.8031843541889,112.91764577594441 L 345.9403012066399,111.4714255983468 L 349.11809548974793,110.10614718187125 L 352.3342323007387,108.82304772945403 L 355.58633722615957,107.62329120651816 L 358.87199876443395,106.50796704448939 L 362.1887707915499,105.47808892689423 L 365.5341750670235,104.53459365948379 L 368.9057037772295,103.67834012572857 L 372.3008221131434,102.91010832892707 L 375.7169708795019,102.23059852206794 L 379.1515691323467,101.6404304264824 L 382.60201684188763,101.14014254021504 L 386.06569757758416,100.73019153693909 L 389.53998121232286,100.41095175612898 L 393.02222664254367,100.1827147850992 L 396.50978452114657,100.04568913340609 L 399.99999999999994,100.0 Z" fill="rgba(66, 133, 244, 0.4)" stroke="#4285f4" stroke-width="4"/><text x="50%" y="50" text-anchor="middle" fill="white" font-family="Arial" font-size="24">Cardioid Pattern</text></svg>