<svg xmlns="http://www.w3.org/2000/svg" viewBox="0 0 800 600"><rect width="100%" height="100%" fill="#1a1a1a"/><circle cx="400" cy="300" r="200" fill="none" stroke="#333" stroke-width="2"/><circle cx="400" cy="300" r="150.0" fill="none" stroke="#333" stroke-width="1"/><circle cx="400" cy="300" r="100.0" fill="none" stroke="#333" stroke-width="1"/><line x1="200" y1="300" x2="600" y2="300" stroke="#333" stroke-width="1"/><line x1="400" y1="100" x2="400" y2="500" stroke="#333" stroke-width="1"/><path d="M 400.0,100.0 L 403.4904812874567,100.03046096872174 L 406.9798993405002,100.12183459618086 L 410.4671912485888,100.27409304908522 L 413.95129474882503,100.48718994803517 L 417.43114854953166,100.76106038165088 L 420.9056926535307,101.09562092634533 L 424.3738686810295,101.49076967173559 L 427.83462019201306,101.94638625168594 L 431.28689300804615,102.46233188097244 L 434.72963553338604,103.0384493975584 L 438.161799075309,103.67456331046719 L 441.58233816355187,104.37047985323886 L 444.990210868773,105.12598704295294 L 448.38437911993356,105.9408547448007 L 451.76380902050414,106.81483474218635 L 455.12747116339983,107.74766081233622 L 458.47434094454735,108.73904880739292 L 461.80339887498945,109.7886967409693 L 465.11363089143134,110.89628488013662 L 468.40402866513375,112.06147584281831 L 471.67358990906007,113.28391470055965 L 474.9213186831824,114.56322908664251 L 478.1462256978548,115.89902930951192 L 481.34732861516005,117.29090847147984 L 484.5236523481399,118.73844259267003 L 487.6742293578155,120.24119074016659 L 490.79809994790935,121.79869516232642 L 493.8943125571782,123.41048142821461 L 496.9619240492674,125.07605857212084 L 500.0,126.79491924311225 L 503.00761498201086,128.56653985957755 L 505.98385284664096,130.3903807687148 L 508.9278070030054,132.2658864109152 L 511.8385806941494,134.19248548899165 L 514.7152872702093,136.16959114220165 L 517.5570504584946,138.19660112501052 L 520.3630046304097,140.27289799054142 L 523.1322950651316,142.39784927865563 L 525.8640782099675,144.57080770860583 L 528.5575219373079,146.79111137620438 L 531.2118057981015,149.0580839554456 L 533.8261212717716,151.37103490452114 L 536.3996720124997,153.7292596761659 L 538.9316740917994,156.13203993226975 L 541.4213562373095,158.5786437626905 L 543.8679600677302,161.06832590820056 L 546.2707403238342,163.6003279875003 L 548.6289650954789,166.17387872822835 L 550.9419160445544,168.78819420189853 L 553.2088886237956,171.44247806269212 L 555.4291922913942,174.1359217900325 L 557.6021507213444,176.86770493486836 L 559.7271020094586,179.63699536959035 L 561.8033988749895,182.44294954150536 L 563.8304088577984,185.28471272979078 L 565.8075145110083,188.16141930585064 L 567.7341135890848,191.0721929969946 L 569.6096192312853,194.01614715335901 L 571.4334601404224,196.99238501798916 L 573.2050807568877,199.99999999999997 L 574.9239414278792,203.03807595073258 L 576.5895185717853,206.10568744282182 L 578.2013048376735,209.20190005209062 L 579.7588092598334,212.32577064218452 L 581.26155740733,215.47634765186012 L 582.7090915285202,218.65267138483995 L 584.1009706904881,221.85377430214527 L 585.4367709133575,225.0786813168176 L 586.7160852994404,228.32641009093993 L 587.9385241571816,231.59597133486625 L 589.1037151198634,234.88636910856866 L 590.2113032590307,238.19660112501052 L 591.2609511926071,241.52565905545265 L 592.2523391876638,244.87252883660017 L 593.1851652578137,248.23619097949586 L 594.0591452551993,251.61562088006647 L 594.8740129570471,255.00978913122702 L 595.6295201467611,258.41766183644813 L 596.3254366895328,261.838200924691 L 596.9615506024415,265.2703644666139 L 597.5376681190276,268.7131069919538 L 598.0536137483141,272.1653798079869 L 598.5092303282644,275.6261313189705 L 598.9043790736547,279.0943073464693 L 599.2389396183491,282.5688514504684 L 599.5128100519648,286.04870525117497 L 599.7259069509148,289.5328087514112 L 599.8781654038191,293.0201006594998 L 599.9695390312783,296.5095187125433 L 600.0,300.0 L 599.9695390312783,303.4904812874567 L 599.8781654038191,306.9798993405002 L 599.7259069509148,310.4671912485888 L 599.5128100519648,313.9512947488251 L 599.2389396183491,317.43114854953166 L 598.9043790736547,320.9056926535307 L 598.5092303282644,324.3738686810295 L 598.0536137483141,327.83462019201306 L 597.5376681190276,331.28689300804615 L 596.9615506024415,334.72963553338604 L 596.3254366895328,338.161799075309 L 595.6295201467611,341.58233816355187 L 594.8740129570471,344.99021086877303 L 594.0591452551993,348.38437911993356 L 593.1851652578137,351.76380902050414 L 592.2523391876638,355.12747116339983 L 591.2609511926071,358.47434094454735 L 590.2113032590307,361.80339887498945 L 589.1037151198634,365.11363089143134 L 587.9385241571817,368.40402866513375 L 586.7160852994404,371.67358990906007 L 585.4367709133575,374.92131868318245 L 584.1009706904881,378.1462256978548 L 582.7090915285202,381.34732861516005 L 581.26155740733,384.5236523481399 L 579.7588092598334,387.67422935781553 L 578.2013048376735,390.79809994790935 L 576.5895185717853,393.8943125571782 L 574.9239414278792,396.9619240492674 L 573.2050807568878,400.0 L 571.4334601404224,403.00761498201086 L 569.6096192312853,405.98385284664096 L 567.7341135890848,408.92780700300546 L 565.8075145110083,411.83858069414936 L 563.8304088577984,414.7152872702092 L 561.8033988749895,417.5570504584946 L 559.7271020094586,420.3630046304097 L 557.6021507213444,423.13229506513164 L 555.4291922913942,425.8640782099675 L 553.2088886237956,428.5575219373079 L 550.9419160445544,431.2118057981014 L 548.6289650954789,433.8261212717716 L 546.2707403238342,436.39967201249965 L 543.8679600677302,438.93167409179944 L 541.4213562373095,441.4213562373095 L 538.9316740917994,443.8679600677302 L 536.3996720124997,446.2707403238341 L 533.8261212717716,448.6289650954788 L 531.2118057981015,450.94191604455443 L 528.5575219373079,453.2088886237956 L 525.8640782099675,455.4291922913942 L 523.1322950651316,457.6021507213444 L 520.3630046304096,459.7271020094586 L 517.5570504584946,461.80339887498945 L 514.7152872702092,463.8304088577984 L 511.8385806941494,465.8075145110083 L 508.92780700300546,467.7341135890848 L 505.983852846641,469.6096192312852 L 503.00761498201086,471.4334601404224 L 500.0,473.20508075688775 L 496.96192404926745,474.9239414278792 L 493.8943125571781,476.5895185717854 L 490.79809994790935,478.20130483767355 L 487.6742293578155,479.7588092598334 L 484.5236523481399,481.26155740733 L 481.3473286151601,482.70909152852016 L 478.1462256978548,484.1009706904881 L 474.92131868318245,485.43677091335746 L 471.67358990906007,486.71608529944035 L 468.40402866513375,487.93852415718163 L 465.1136308914313,489.1037151198634 L 461.8033988749895,490.21130325903073 L 458.4743409445473,491.2609511926071 L 455.12747116339983,492.2523391876638 L 451.7638090205042,493.18516525781365 L 448.38437911993356,494.05914525519927 L 444.99021086877303,494.87401295704706 L 441.58233816355187,495.62952014676114 L 438.161799075309,496.3254366895328 L 434.72963553338604,496.9615506024416 L 431.2868930080462,497.53766811902756 L 427.83462019201306,498.0536137483141 L 424.37386868102953,498.5092303282644 L 420.90569265353076,498.9043790736547 L 417.43114854953166,499.23893961834915 L 413.9512947488251,499.51281005196483 L 410.46719124858873,499.7259069509148 L 406.97989934050025,499.87816540381914 L 403.4904812874567,499.96953903127826 L 400.0,500.0 L 396.5095187125433,499.96953903127826 L 393.0201006594998,499.87816540381914 L 389.53280875141127,499.7259069509148 L 386.04870525117497,499.51281005196483 L 382.5688514504684,499.23893961834915 L 379.0943073464693,498.9043790736547 L 375.6261313189705,498.5092303282644 L 372.1653798079869,498.0536137483141 L 368.71310699195385,497.53766811902756 L 365.2703644666139,496.9615506024416 L 361.8382009246911,496.3254366895328 L 358.4176618364481,495.62952014676114 L 355.009789131227,494.87401295704706 L 351.6156208800665,494.05914525519927 L 348.23619097949586,493.18516525781365 L 344.8725288366002,492.2523391876638 L 341.52565905545265,491.2609511926071 L 338.19660112501055,490.21130325903073 L 334.88636910856866,489.10371511986335 L 331.59597133486625,487.9385241571817 L 328.32641009093993,486.71608529944035 L 325.0786813168176,485.43677091335746 L 321.8537743021453,484.1009706904881 L 318.65267138483995,482.70909152852016 L 315.4763476518601,481.26155740733 L 312.3257706421845,479.75880925983336 L 309.20190005209065,478.20130483767355 L 306.1056874428218,476.58951857178533 L 303.0380759507326,474.9239414278792 L 300.0,473.2050807568877 L 296.99238501798914,471.4334601404224 L 294.01614715335904,469.60961923128525 L 291.0721929969946,467.7341135890848 L 288.16141930585064,465.8075145110084 L 285.2847127297908,463.8304088577984 L 282.4429495415054,461.8033988749895 L 279.6369953695903,459.7271020094586 L 276.86770493486836,457.6021507213444 L 274.1359217900325,455.42919229139414 L 271.44247806269215,453.2088886237956 L 268.7881942018986,450.94191604455443 L 266.1738787282284,448.62896509547886 L 263.60032798750035,446.2707403238341 L 261.06832590820056,443.8679600677302 L 258.5786437626905,441.4213562373095 L 256.1320399322698,438.93167409179944 L 253.72925967616592,436.3996720124997 L 251.37103490452114,433.8261212717716 L 249.0580839554456,431.21180579810147 L 246.7911113762044,428.5575219373079 L 244.57080770860588,425.8640782099676 L 242.39784927865557,423.13229506513164 L 240.27289799054142,420.36300463040965 L 238.19660112501055,417.55705045849464 L 236.16959114220168,414.7152872702093 L 234.19248548899162,411.8385806941493 L 232.26588641091516,408.9278070030054 L 230.3903807687148,405.983852846641 L 228.56653985957757,403.00761498201086 L 226.79491924311233,400.0000000000001 L 225.07605857212081,396.9619240492674 L 223.4104814282146,393.8943125571782 L 221.79869516232645,390.7980999479094 L 220.24119074016664,387.67422935781553 L 218.73844259267,384.5236523481398 L 217.2909084714798,381.34732861516 L 215.89902930951195,378.1462256978548 L 214.56322908664254,374.92131868318245 L 213.2839147005597,371.6735899090601 L 212.0614758428183,368.4040286651337 L 210.89628488013662,365.11363089143134 L 209.7886967409693,361.8033988749895 L 208.73904880739295,358.4743409445474 L 207.7476608123362,355.1274711633998 L 206.81483474218635,351.76380902050414 L 205.9408547448007,348.38437911993356 L 205.12598704295297,344.99021086877303 L 204.3704798532389,341.582338163552 L 203.6745633104672,338.1617990753089 L 203.0384493975584,334.72963553338604 L 202.46233188097247,331.2868930080462 L 201.94638625168594,327.8346201920132 L 201.4907696717356,324.3738686810294 L 201.09562092634533,320.90569265353065 L 200.76106038165088,317.43114854953166 L 200.48718994803517,313.9512947488251 L 200.27409304908522,310.46719124858885 L 200.12183459618086,306.97989934050014 L 200.03046096872174,303.4904812874567 L 200.0,300.00000000000006 L 200.03046096872174,296.50951871254335 L 200.12183459618086,293.02010065949975 L 200.27409304908522,289.5328087514112 L 200.48718994803514,286.04870525117497 L 200.76106038165088,282.5688514504684 L 201.09562092634533,279.0943073464694 L 201.4907696717356,275.62613131897047 L 201.94638625168594,272.1653798079869 L 202.46233188097244,268.71310699195385 L 203.03844939755837,265.270364466614 L 203.67456331046722,261.83820092469097 L 204.3704798532389,258.41766183644813 L 205.12598704295294,255.00978913122702 L 205.94085474480067,251.6156208800665 L 206.81483474218632,248.23619097949594 L 207.74766081233625,244.8725288366001 L 208.73904880739292,241.52565905545265 L 209.78869674096927,238.19660112501055 L 210.89628488013662,234.88636910856874 L 212.06147584281834,231.5959713348662 L 213.28391470055965,228.32641009093993 L 214.5632290866425,225.0786813168176 L 215.8990293095119,221.8537743021453 L 217.29090847147978,218.65267138484006 L 218.73844259267003,215.47634765186007 L 220.2411907401666,212.32577064218452 L 221.79869516232642,209.20190005209068 L 223.41048142821458,206.10568744282193 L 225.07605857212087,203.03807595073255 L 226.79491924311228,199.99999999999997 L 228.56653985957755,196.99238501798916 L 230.39038076871478,194.01614715335907 L 232.26588641091516,191.07219299699466 L 234.19248548899168,188.1614193058506 L 236.16959114220165,185.28471272979078 L 238.1966011250105,182.4429495415054 L 240.27289799054137,179.6369953695904 L 242.39784927865566,176.8677049348683 L 244.57080770860586,174.1359217900325 L 246.79111137620438,171.44247806269215 L 249.05808395544554,168.7881942018986 L 251.37103490452108,166.17387872822843 L 253.72925967616592,163.60032798750026 L 256.1320399322698,161.06832590820056 L 258.5786437626905,158.57864376269052 L 261.06832590820045,156.13203993226983 L 263.60032798750035,153.72925967616587 L 266.1738787282284,151.37103490452114 L 268.78819420189853,149.05808395544562 L 271.4424780626921,146.79111137620444 L 274.1359217900324,144.57080770860588 L 276.86770493486836,142.39784927865557 L 279.63699536959035,140.27289799054142 L 282.4429495415053,138.19660112501055 L 285.2847127297907,136.16959114220168 L 288.1614193058507,134.19248548899162 L 291.0721929969946,132.2658864109152 L 294.016147153359,130.39038076871483 L 296.99238501798914,128.56653985957757 L 299.9999999999999,126.79491924311233 L 303.0380759507326,125.07605857212084 L 306.1056874428218,123.41048142821461 L 309.2019000520906,121.79869516232645 L 312.32577064218447,120.24119074016664 L 315.4763476518601,118.73844259267 L 318.65267138484,117.29090847147984 L 321.8537743021452,115.89902930951195 L 325.07868131681755,114.56322908664254 L 328.3264100909398,113.2839147005597 L 331.59597133486625,112.06147584281831 L 334.88636910856866,110.89628488013662 L 338.1966011250105,109.7886967409693 L 341.5256590554526,108.73904880739295 L 344.8725288366002,107.74766081233622 L 348.23619097949586,106.81483474218635 L 351.61562088006644,105.9408547448007 L 355.0097891312269,105.12598704295297 L 358.417661836448,104.37047985323889 L 361.8382009246911,103.67456331046719 L 365.2703644666139,103.0384493975584 L 368.7131069919538,102.46233188097247 L 372.1653798079868,101.94638625168594 L 375.6261313189706,101.49076967173559 L 379.0943073464693,101.09562092634533 L 382.56885145046834,100.76106038165088 L 386.04870525117485,100.48718994803517 L 389.53280875141115,100.27409304908522 L 393.02010065949986,100.12183459618086 L 396.5095187125433,100.03046096872174 L 399.99999999999994,100.0 Z" fill="rgba(66, 133, 244, 0.4)" stroke="#4285f4" stroke-width="4"/><text x="50%" y="50" text-anchor="middle" fill="white" font-family="Arial" font-size="24">Omni Pattern</text></svg>