<svg xmlns="http://www.w3.org/2000/svg" viewBox="0 0 800 600"><rect x="0" y="0" width="800" height="600" fill="#f8fafc" /><rect x="100" y="150" width="600" height="300" rx="10" fill="#333" stroke="#999" stroke-width="4" opacity="1.0"  /><rect x="145" y="180" width="10" height="240" rx="0" fill="#111" stroke="none" stroke-width="0" opacity="1.0"  /><line x1="150" y1="180" x2="150" y2="420" stroke="#555" stroke-width="2" opacity="1.0"  /><rect x="140" y="218.0" width="20" height="20" rx="0" fill="#ddd" stroke="black" stroke-width="0" opacity="1.0"  /><text x="150" y="440" font-family="Inter, system-ui, sans-serif" font-size="12" fill="white" text-anchor="middle" font-weight="normal" >31</text><rect x="195" y="180" width="10" height="240" rx="0" fill="#111" stroke="none" stroke-width="0" opacity="1.0"  /><line x1="200" y1="180" x2="200" y2="420" stroke="#555" stroke-width="2" opacity="1.0"  /><rect x="190" y="266.0" width="20" height="20" rx="0" fill="#ddd" stroke="black" stroke-width="0" opacity="1.0"  /><text x="200" y="440" font-family="Inter, system-ui, sans-serif" font-size="12" fill="white" text-anchor="middle" font-weight="normal" >63</text><rect x="245" y="180" width="10" height="240" rx="0" fill="#111" stroke="none" stroke-width="0" opacity="1.0"  /><line x1="250" y1="180" x2="250" y2="420" stroke="#555" stroke-width="2" opacity="1.0"  /><rect x="240" y="314.0" width="20" height="20" rx="0" fill="#ddd" stroke="black" stroke-width="0" opacity="1.0"  /><text x="250" y="440" font-family="Inter, system-ui, sans-serif" font-size="12" fill="white" text-anchor="middle" font-weight="normal" >125</text><rect x="295" y="180" width="10" height="240" rx="0" fill="#111" stroke="none" stroke-width="0" opacity="1.0"  /><line x1="300" y1="180" x2="300" y2="420" stroke="#555" stroke-width="2" opacity="1.0"  /><rect x="290" y="338.0" width="20" height="20" rx="0" fill="#ddd" stroke="black" stroke-width="0" opacity="1.0"  /><text x="300" y="440" font-family="Inter, system-ui, sans-serif" font-size="12" fill="white" text-anchor="middle" font-weight="normal" >250</text><rect x="345" y="180" width="10" height="240" rx="0" fill="#111" stroke="none" stroke-width="0" opacity="1.0"  /><line x1="350" y1="180" x2="350" y2="420" stroke="#555" stroke-width="2" opacity="1.0"  /><rect x="340" y="362.0" width="20" height="20" rx="0" fill="#ddd" stroke="black" stroke-width="0" opacity="1.0"  /><text x="350" y="440" font-family="Inter, system-ui, sans-serif" font-size="12" fill="white" text-anchor="middle" font-weight="normal" >500</text><rect x="395" y="180" width="10" height="240" rx="0" fill="#111" stroke="none" stroke-width="0" opacity="1.0"  /><line x1="400" y1="180" x2="400" y2="420" stroke="#555" stroke-width="2" opacity="1.0"  /><rect x="390" y="362.0" width="20" height="20" rx="0" fill="#ddd" stroke="black" stroke-width="0" opacity="1.0"  /><text x="400" y="440" font-family="Inter, system-ui, sans-serif" font-size="12" fill="white" text-anchor="middle" font-weight="normal" >1k</text><rect x="445" y="180" width="10" height="240" rx="0" fill="#111" stroke="none" stroke-width="0" opacity="1.0"  /><line x1="450" y1="180" x2="450" y2="420" stroke="#555" stroke-width="2" opacity="1.0"  /><rect x="440" y="338.0" width="20" height="20" rx="0" fill="#ddd" stroke="black" stroke-width="0" opacity="1.0"  /><text x="450" y="440" font-family="Inter, system-ui, sans-serif" font-size="12" fill="white" text-anchor="middle" font-weight="normal" >2k</text><rect x="495" y="180" width="10" height="240" rx="0" fill="#111" stroke="none" stroke-width="0" opacity="1.0"  /><line x1="500" y1="180" x2="500" y2="420" stroke="#555" stroke-width="2" opacity="1.0"  /><rect x="490" y="314.0" width="20" height="20" rx="0" fill="#ddd" stroke="black" stroke-width="0" opacity="1.0"  /><text x="500" y="440" font-family="Inter, system-ui, sans-serif" font-size="12" fill="white" text-anchor="middle" font-weight="normal" >4k</text><rect x="545" y="180" width="10" height="240" rx="0" fill="#111" stroke="none" stroke-width="0" opacity="1.0"  /><line x1="550" y1="180" x2="550" y2="420" stroke="#555" stroke-width="2" opacity="1.0"  /><rect x="540" y="266.0" width="20" height="20" rx="0" fill="#ddd" stroke="black" stroke-width="0" opacity="1.0"  /><text x="550" y="440" font-family="Inter, system-ui, sans-serif" font-size="12" fill="white" text-anchor="middle" font-weight="normal" >8k</text><rect x="595" y="180" width="10" height="240" rx="0" fill="#111" stroke="none" stroke-width="0" opacity="1.0"  /><line x1="600" y1="180" x2="600" y2="420" stroke="#555" stroke-width="2" opacity="1.0"  /><rect x="590" y="218.0" width="20" height="20" rx="0" fill="#ddd" stroke="black" stroke-width="0" opacity="1.0"  /><text x="600" y="440" font-family="Inter, system-ui, sans-serif" font-size="12" fill="white" text-anchor="middle" font-weight="normal" >16k</text><text x="400" y="100" font-family="Inter, system-ui, sans-serif" font-size="24" fill="#1e293b" text-anchor="middle" font-weight="bold" >Graphic EQ (31 Band Style)</text></svg>