<svg xmlns="http://www.w3.org/2000/svg" viewBox="0 0 400 600"><rect x="0" y="0" width="400" height="600" fill="#f8fafc" /><rect x="150" y="50" width="100" height="500" rx="0" fill="#222" stroke="#666" stroke-width="2" opacity="1.0" /><line x1="140" y1="50.0" x2="150" y2="50.0" stroke="#334155" stroke-width="2"  /><text x="130" y="55.0" font-family="Inter, system-ui, sans-serif" font-size="12" fill="#1e293b" text-anchor="end" font-weight="normal" >-0</text><line x1="140" y1="100.0" x2="150" y2="100.0" stroke="#334155" stroke-width="2"  /><text x="130" y="105.0" font-family="Inter, system-ui, sans-serif" font-size="12" fill="#1e293b" text-anchor="end" font-weight="normal" >-6</text><line x1="140" y1="150.0" x2="150" y2="150.0" stroke="#334155" stroke-width="2"  /><text x="130" y="155.0" font-family="Inter, system-ui, sans-serif" font-size="12" fill="#1e293b" text-anchor="end" font-weight="normal" >-12</text><line x1="140" y1="200.0" x2="150" y2="200.0" stroke="#334155" stroke-width="2"  /><text x="130" y="205.0" font-family="Inter, system-ui, sans-serif" font-size="12" fill="#1e293b" text-anchor="end" font-weight="normal" >-18</text><line x1="140" y1="250.0" x2="150" y2="250.0" stroke="#334155" stroke-width="2"  /><text x="130" y="255.0" font-family="Inter, system-ui, sans-serif" font-size="12" fill="#1e293b" text-anchor="end" font-weight="normal" >-24</text><line x1="140" y1="300.0" x2="150" y2="300.0" stroke="#334155" stroke-width="2"  /><text x="130" y="305.0" font-family="Inter, system-ui, sans-serif" font-size="12" fill="#1e293b" text-anchor="end" font-weight="normal" >-30</text><line x1="140" y1="350.0" x2="150" y2="350.0" stroke="#334155" stroke-width="2"  /><text x="130" y="355.0" font-family="Inter, system-ui, sans-serif" font-size="12" fill="#1e293b" text-anchor="end" font-weight="normal" >-36</text><line x1="140" y1="400.0" x2="150" y2="400.0" stroke="#334155" stroke-width="2"  /><text x="130" y="405.0" font-family="Inter, system-ui, sans-serif" font-size="12" fill="#1e293b" text-anchor="end" font-weight="normal" >-42</text><line x1="140" y1="450.0" x2="150" y2="450.0" stroke="#334155" stroke-width="2"  /><text x="130" y="455.0" font-family="Inter, system-ui, sans-serif" font-size="12" fill="#1e293b" text-anchor="end" font-weight="normal" >-48</text><line x1="140" y1="500.0" x2="150" y2="500.0" stroke="#334155" stroke-width="2"  /><text x="130" y="505.0" font-family="Inter, system-ui, sans-serif" font-size="12" fill="#1e293b" text-anchor="end" font-weight="normal" >-54</text><line x1="140" y1="550.0" x2="150" y2="550.0" stroke="#334155" stroke-width="2"  /><text x="130" y="555.0" font-family="Inter, system-ui, sans-serif" font-size="12" fill="#1e293b" text-anchor="end" font-weight="normal" >-60</text><rect x="151" y="156.66666666666669" width="98" height="20" rx="0" fill="#44ff44" stroke="none" stroke-width="0" opacity="0.2" /><line x1="151" y1="166.66666666666669" x2="249" y2="166.66666666666669" stroke="#44ff44" stroke-width="2"  /><text x="260" y="171.66666666666669" font-family="Inter, system-ui, sans-serif" font-size="12" fill="#228822" text-anchor="start" font-weight="normal" >-14 LUFS (Target)</text><rect x="160" y="150.0" width="80" height="400.0" rx="0" fill="url(#grad1)" stroke="none" stroke-width="0" opacity="1.0" /><rect x="160" y="150.0" width="80" height="400.0" rx="0" fill="#ffcc00" stroke="none" stroke-width="0" opacity="1.0" /><text x="200" y="30" font-family="Inter, system-ui, sans-serif" font-size="20" fill="#1e293b" text-anchor="middle" font-weight="bold" >LUFS Metering</text></svg>