<svg xmlns="http://www.w3.org/2000/svg" viewBox="0 0 800 500" style="background-color: #1e1e1e; font-family: 'Segoe UI', Tahoma, Geneva, Verdana, sans-serif;">
  <!-- Background Grid -->
  <defs>
    <pattern id="grid" width="80" height="50" patternUnits="userSpaceOnUse">
      <path d="M 80 0 L 0 0 0 50" fill="none" stroke="#334155" stroke-width="2"/>
    </pattern>
    <linearGradient id="midGradient" x1="0" y1="0" x2="0" y2="1">
      <stop offset="0%" stop-color="#00ffcc" stop-opacity="0.3"/>
      <stop offset="100%" stop-color="#00ffcc" stop-opacity="0.05"/>
    </linearGradient>
  </defs>
  <rect width="800" height="500" fill="url(#grid)" />

  <!-- Labels -->
  <text x="40" y="30" fill="#888" font-size="14">20Hz</text>
  <text x="200" y="30" fill="#888" font-size="14">100Hz</text>
  <text x="400" y="30" fill="#888" font-size="14">1kHz</text>
  <text x="600" y="30" fill="#888" font-size="14">10kHz</text>
  <text x="750" y="30" fill="#888" font-size="14">20kHz</text>

  <!-- Mid Channel (Cut) -->
  <!-- Curve showing a dip around 250-500Hz -->
  <path d="M 0 250 
           Q 100 250 200 250
           C 250 250 300 350 400 350
           C 500 350 550 250 600 250
           Q 700 250 800 250" 
        fill="none" stroke="#00ffcc" stroke-width="4" stroke-dasharray="0" />
  
  <rect x="300" y="360" width="200" height="30" rx="5" fill="#003333" stroke="#00ffcc" />
  <text x="400" y="380" fill="#00ffcc" font-size="16" text-anchor="middle" font-weight="bold">MID CHANNEL (CUT MUD)</text>

  <!-- Side Channel (Flat) -->
  <path d="M 0 200 L 800 200" 
        fill="none" stroke="#ff5555" stroke-width="4" stroke-dasharray="10,5" opacity="0.7"/>
  
  <text x="700" y="180" fill="#ff5555" font-size="16" text-anchor="middle" font-weight="bold">SIDE CHANNEL (FLAT)</text>

  <!-- Title -->
  <text x="400" y="470" fill="#fff" font-size="24" text-anchor="middle" font-weight="bold">M/S EQ: CLEANING UP THE CENTER</text>
</svg>