<svg xmlns="http://www.w3.org/2000/svg" viewBox="0 0 800 600"><rect x="0" y="0" width="800" height="600" fill="#f8f9fa" /><rect x="100" y="200" width="600" height="200" rx="5" fill="#111" stroke="#333" stroke-width="4" opacity="1.0" /><rect x="140" y="240" width="100" height="80" rx="0" fill="#eee" stroke="black" stroke-width="0" opacity="1.0" /><circle cx="190" cy="310" r="40" fill="none" stroke="red" stroke-width="2" opacity="0.5" /><circle cx="300" cy="280" r="25" fill="#333" stroke="#ddd" stroke-width="2" opacity="1.0" /><line x1="300" y1="280" x2="315" y2="265" stroke="white" stroke-width="3" opacity="1.0"  /><text x="300" y="340" font-family="Arial, sans-serif" font-size="14" fill="white" text-anchor="middle" font-weight="normal" >Input</text><circle cx="400" cy="280" r="25" fill="#333" stroke="#ddd" stroke-width="2" opacity="1.0" /><line x1="400" y1="280" x2="415" y2="265" stroke="white" stroke-width="3" opacity="1.0"  /><text x="400" y="340" font-family="Arial, sans-serif" font-size="14" fill="white" text-anchor="middle" font-weight="normal" >Output</text><circle cx="500" cy="280" r="25" fill="#333" stroke="#ddd" stroke-width="2" opacity="1.0" /><line x1="500" y1="280" x2="515" y2="265" stroke="white" stroke-width="3" opacity="1.0"  /><text x="500" y="340" font-family="Arial, sans-serif" font-size="14" fill="white" text-anchor="middle" font-weight="normal" >Attack</text><circle cx="600" cy="280" r="25" fill="#333" stroke="#ddd" stroke-width="2" opacity="1.0" /><line x1="600" y1="280" x2="615" y2="265" stroke="white" stroke-width="3" opacity="1.0"  /><text x="600" y="340" font-family="Arial, sans-serif" font-size="14" fill="white" text-anchor="middle" font-weight="normal" >Release</text><text x="190" y="380" font-family="Arial, sans-serif" font-size="12" fill="white" text-anchor="middle" font-weight="normal" >Ratio Buttons</text><rect x="160" y="350" width="15" height="20" rx="0" fill="#ddd" stroke="none" stroke-width="0" opacity="1.0" /><rect x="180" y="350" width="15" height="20" rx="0" fill="#ddd" stroke="none" stroke-width="0" opacity="1.0" /><rect x="200" y="350" width="15" height="20" rx="0" fill="#ddd" stroke="none" stroke-width="0" opacity="1.0" /><rect x="220" y="350" width="15" height="20" rx="0" fill="#ddd" stroke="none" stroke-width="0" opacity="1.0" /><text x="400" y="50" font-family="Arial, sans-serif" font-size="24" fill="black" text-anchor="middle" font-weight="bold" >FET Compressor (1176 Style)</text><text x="400" y="150" font-family="Arial, sans-serif" font-size="16" fill="#666" text-anchor="middle" font-weight="normal" >Fixed Threshold - Input drives compression amount</text></svg>