<svg xmlns="http://www.w3.org/2000/svg" viewBox="0 0 800 600"><rect x="0" y="0" width="800" height="600" fill="#f8f9fa" /><line x1="100" y1="500" x2="700" y2="500" stroke="#333" stroke-width="1" opacity="1.0"  /><path d="M 100,300.0 L 101,295.0020830729322 L 102,290.0166583353172 L 103,285.0561867526401 L 104,280.1330669204939 L 105,275.2596040745477 L 106,270.44797933386604 L 107,265.71021925445484 L 108,261.0581657691349 L 109,256.50344658887695 L 110,252.0574461395797 L 111,247.73127710693407 L 112,243.53575266049646 L 113,239.48135942639604 L 114,235.5782312762309 L 115,231.8361239976666 L 116,228.26439091004772 L 117,224.87195948597073 L 118,221.66730903725164 L 119,218.6584495210626 L 120,215.85290151921035 L 121,213.2576774405983 L 122,210.87926399385645 L 123,208.72360597394788 L 124,206.79609140327736 L 125,205.1015380644414 L 126,203.64418145828068 L 127,202.4276642173341 L 128,201.45502700115398 L 129,200.72870089624115 L 130,200.25050133959456 L 131,200.02162358106432 L 132,200.0426396958495 L 133,200.31349715460811 L 134,200.83351895475315 L 135,201.6014053126063 L 136,202.61523691218048 L 137,203.87247970247 L 138,205.36999123125855 L 139,207.1040284996131 L 140,209.0702573174318 L 141,211.26376313666248 L 142,213.67906333511263 L 143,216.3101209201502 L 144,219.150359618041 L 145,222.19268031120788 L 146,225.42947878232798 L 147,228.85266472091558 L 148,232.45368194488492 L 149,236.22352978654965 L 150,240.15278558960435 L 151,244.23162826085834 L 152,248.44986281785359 L 153,252.79694587101176 L 154,257.26201197661703 L 155,261.8339007947668 L 156,266.5011849844095 L 157,271.25219876574556 L 158,276.0750670786018 L 159,280.9577352638973 L 160,285.8879991940133 L 161,290.8535357767563 L 162,295.8419337566709 L 163,300.8407247367149 L 164,305.837414342758 L 165,310.8195134530108 L 166,315.77456941432484 L 167,320.69019716734 L 168,325.55411020268315 L 169,330.3541512708429 L 170,335.078322768962 L 171,339.714816728596 L 172,344.2520443294852 L 173,348.67866486557 L 174,352.98361409084936 L 175,357.15613187423435 L 176,361.1857890942719 L 177,365.0625137065167 L 178,368.7766159183974 L 179,372.3188124086512 L 180,375.6802495307928 L 181,378.8525254426195 L 182,381.8277111064411 L 183,384.59837010754467 L 184,387.1575772413588 L 185,389.49893582285836 L 186,391.6165936749455 L 187,393.5052577558449 L 188,395.1602073889516 L 189,396.5773060620639 L 190,397.7530117665097 L 191,398.6843858503237 L 192,399.36910036334643 L 193,399.80544387588793 L 194,399.9923257564101 L 195,399.9292788975378 L 196,399.61646088358407 L 197,399.0546535966713 L 198,398.24526126243325 L 199,397.1903069401821 L 200,395.89242746631385 L 201,394.35486686359064 L 202,392.5814682327732 L 203,390.5766641468704 L 204,388.3454655720153 L 205,385.8934493426592 L 206,383.2267442223901 L 207,380.35201558521555 L 208,377.2764487555987 L 209,374.00773104888947 L 210,370.5540325570392 L 211,366.92398572762613 L 212,363.1266637872321 L 213,359.1715580631009 L 214,355.06855425976374 L 215,350.8279077499258 L 216,346.4602179413757 L 217,341.9764017839859 L 218,337.3876664830236 L 219,332.70548148697407 L 220,327.9415498198926 L 221,323.10777882993915 L 222,318.2162504272095 L 223,313.2791908852517 L 224,308.30894028174964 L 225,303.3179216547557 L 226,298.31860995156495 L 227,293.32350084784434 L 228,288.3450795149506 L 229,283.3957894135043 L 230,278.4880011912185 L 231,273.6339817627221 L 232,268.84586364866215 L 233,264.13561465071996 L 234,259.51500793834015 L 235,254.99559262193824 L 236,250.5886648861391 L 237,246.30523975519884 L 238,242.15602356117998 L 239,238.1513871836976 L 240,234.3013401281211 L 241,230.61550550702356 L 242,227.10309598741236 L 243,223.77289076385887 L 244,220.63321361508468 L 245,217.69191209884946 L 246,214.9563379371435 L 247,212.43332864071172 L 248,210.1291904188373 L 249,208.04968241710293 L 250,206.2000023225261 L 251,204.5847733720485 L 252,203.20803279685134 L 253,202.07322173138 L 254,201.18317661229997 L 255,200.54012208888238 L 256,200.1456654625395 L 257,200.00079266940813 L 258,200.1058658160228 L 259,200.460622274238 L 260,201.06417533766182 L 261,201.91501643796005 L 262,203.01101891549138 L 263,204.34944333484907 L 264,205.92694433202274 L 265,207.73957897606596 L 266,209.78281662437067 L 267,212.0515502469135 L 268,214.54010919117195 L 269,217.2422733558017 L 270,220.151288737651 L 271,223.25988431325126 L 272,226.56029021258865 L 273,230.0442571397332 L 274,233.7030769917818 L 275,237.52760462458076 L 276,241.50828071082384 L 277,245.63515563339115 L 278,249.89791435421154 L 279,254.28590219648459 L 280,258.78815147582435 L 281,263.3934089137589 L 282,268.0901637650648 L 283,272.8666765886367 L 284,277.7110085899754 L 285,282.61105146195666 L 286,287.5545576492938 L 287,292.52917096104653 L 288,297.5224574546642 L 289,302.5219365143661 L 290,307.51511204618095 L 291,312.48950371167524 L 292,317.4326781222981 L 293,322.3322799163784 L 294,327.1760626410944 L 295,331.9519193622274 L 296,336.6479129251928 L 297,341.25230579170943 L 298,345.75358937753214 L 299,350.1405128179199 L 300,354.402111088937 L 301,358.5277324143036 L 302,362.50706488928836 L 303,366.3301622550998 L 304,369.9874687593544 L 305,373.46984304047953 L 306,376.76858097635824 L 307,379.87543744010014 L 308,382.78264690856537 L 309,385.4829428721284 L 310,387.969575997167 L 311,390.2363309958824 L 312,392.27754216128073 L 313,394.0881075284908 L 314,395.66350162701883 L 315,396.9997867920679 L 316,398.0936230066492 L 317,398.94227624988514 L 318,399.5436253306377 L 319,399.8961671893817 L 320,399.99902065507035 L 321,399.85192864760455 L 322,399.4552588203989 L 323,398.81000264143984 L 324,397.9177729151317 L 325,396.78079975112615 L 326,395.4019249902089 L 327,393.7845951011782 L 328,391.93285256646755 L 329,389.8513257780448 L 330,387.54521746884285 L 331,385.02029170863665 L 332,382.2828594968708 L 333,379.3397629884477 L 334,376.1983583919032 L 335,372.866497582717 L 336,369.35250847771226 L 337,365.6651742196014 L 338,361.8137112237033 L 339,357.80774614170434 L 340,353.6572918000435 L 341,349.37272217305974 L 342,344.96474645346 L 343,340.444382284914 L 344,335.8229282236827 L 345,331.11193549811276 L 346,326.3231791365801 L 347,321.4686285360527 L 348,316.56041754483095 L 349,311.6108141342457 L 350,306.63218973512005 L 351,301.63698831563414 L 352,296.63769527788617 L 353,291.6468062508892 L 354,286.6767958580056 L 355,281.7400865368866 L 356,276.8490174898461 L 357,272.0158138422824 L 358,267.2525560862307 L 359,262.5711498854242 L 360,257.9832963173359 L 361,253.50046262657787 L 362,249.13385356276248 L 363,244.89438337446336 L 364,240.79264852927756 L 365,236.83890122817613 L 366,233.04302378033975 L 367,229.41450390253345 L 368,225.96241100475515 L 369,222.69537352143385 L 370,219.62155734483792 L 371,216.748645414596 L 372,214.08381851435033 L 373,211.63373732353648 L 374,209.40452576915374 L 375,207.40175571913727 L 376,205.63043305558952 L 377,204.0949851626824 L 378,202.7992498605024 L 379,201.74646581249903 L 380,200.93926443051296 L 381,200.37966329761684 L 382,200.06906112520824 L 383,200.0082342569597 L 384,200.19733472836384 L 385,200.63588988672376 L 386,201.32280357253865 L 387,202.25635885933178 L 388,203.43422234507227 L 389,204.85344998446527 L 390,206.5104944475317 L 391,208.40121398608608 L 392,210.52088278594965 L 393,212.86420277902488 L 394,215.42531688570665 L 395,218.19782365453057 L 396,221.17479326246837 L 397,224.3487848358759 L 398,227.7118650488024 L 399,231.25562795217408 L 400,234.97121598428834 L 401,238.8493421101059 L 402,242.8803130340013 L 403,247.05405342795356 L 404,251.36013111462017 L 405,255.78778314234606 L 406,260.3259426869388 L 407,264.9632667129646 L 408,269.6881643254298 L 409,274.48882574098275 L 410,279.3532518062203 L 411,284.269283989324 L 412,289.2246347700558 L 413,294.2069183521605 L 414,299.2036816214064 L 415,304.2024352718841 L 416,309.19068502276815 L 417,314.15596284751155 L 418,319.08585813741894 L 419,323.9680487217057 L 420,328.7903316665065 L 421,333.54065377585613 L 422,338.2071417184009 L 423,342.7781317045444 L 424,347.2421986398466 L 425,351.58818468181096 L 426,355.8052271286779 L 427,359.8827855705237 L 428,363.810668234795 L 429,367.5790574604327 L 430,371.1785342369123 L 431,374.6001017468637 L 432,377.83520785342984 L 433,380.8757664761551 L 434,383.71417780197464 L 435,386.34334728079057 L 436,388.75670335815045 L 437,390.9482139007125 L 438,392.91240127343696 L 439,394.6443560308209 L 440,396.13974918795566 L 441,397.3948430407341 L 442,398.40650050816436 L 443,399.17219297343894 L 444,399.69000660415963 L 445,399.95864713592175 L 446,399.9774431073011 L 447,399.7463475381581 L 448,399.2659380470633 L 449,398.53741540755203 L 450,397.56260054681576 L 451,396.3439299943326 L 452,394.8844497918124 L 453,393.18780787967887 L 454,391.25824497911844 L 455,389.1005839924853 L 456,386.7202179485581 L 457,384.123096522776 L 458,381.3157111661486 L 459,378.3050788800099 L 460,375.09872467716764 L 461,371.70466277329217 L 462,368.13137655555 L 463,364.38779737855396 L 464,360.4832822406284 L 465,356.4275903961855 L 466,352.23085896267315 L 467,347.9035775830596 L 468,343.45656220718934 L 469,338.90092805754153 L 470,334.24806184696126 L 471,329.5095933178094 L 472,324.6973661736621 L 473,319.8234084762203 L 474,314.8999025814199 L 475,309.93915468988484 L 476,304.95356408783675 L 477,299.95559215533535 L 478,294.95773121931853 L 479,289.9724733292909 L 480,285.0122790337048 L 481,280.0895462350802 L 482,275.216579201704 L 483,270.4055578133676 L 484,265.6685071180101 L 485,261.01726727536214 L 486,256.4634639627107 L 487,252.01847931676278 L 488,247.69342348423007 L 489,243.4991068522483 L 490,239.44601302803989 L 491,235.54427263535433 L 492,231.80363799318644 L 493,228.23345874005685 L 494,224.84265846478493 L 495,221.63971240216446 L 496,218.63262624928944 L 497,215.82891615548215 L 498,213.2355899358331 L 499,210.8591295553132 L 500,208.70547492723722 L 501,206.78000906657348 L 502,205.08754463521052 L 503,203.63231191280835 L 504,202.41794822330237 L 505,201.44748884348803 L 506,200.72335941640927 L 507,200.24736988851458 L 508,200.02070998573305 L 509,200.04394623977956 L 510,200.31702057212007 L 511,200.8392504391382 L 512,201.60933053813838 L 513,202.62533606992315 L 514,203.88472754978847 L 515,205.38435715491292 L 516,207.12047659227596 L 517,209.0887464674376 L 518,211.28424713076504 L 519,213.70149097399465 L 520,216.3344361463944 L 521,219.17650165624497 L 522,222.22058381989072 L 523,225.45907401724983 L 524,228.883877709402 L 525,232.48643467071992 L 526,236.2577403849761 L 527,240.1883685519428 L 528,244.26849464823417 L 529,248.487920483498 L 530,252.8360996905804 L 531,257.3021640859522 L 532,261.87495083450597 L 533,266.54303035083177 L 534,271.2947348672275 L 535,276.1181875970417 L 536,281.0013324204562 L 537,285.9319640185048 L 538,290.89775838001555 L 539,295.8863036052205 L 540,300.8851309290404 L 541,305.8817458865053 L 542,310.86365954240796 L 543,315.8184197071392 L 544,320.73364206067623 L 545,325.5970411069333 L 546,330.3964608811047 L 547,335.11990533324416 L 548,339.7555683121436 L 549,344.29186307456246 L 550,348.7174512460509 L 551,353.0212711609828 L 552,357.1925655109564 L 553,361.2209082324649 L 554,365.09623056662497 L 555,368.8088462258297 L 556,372.34947560442447 L 557,375.7092689728868 L 558,378.87982859754186 L 559,381.8532297305237 L 560,384.62204041751704 L 561,387.1793400737735 L 562,389.5187367819682 L 563,391.6343832686648 L 564,393.520991519454 L 565,395.17384599623534 L 566,396.58881542360706 L 567,397.76236311490237 L 568,398.69155581206496 L 569,399.37407101726603 L 570,399.80820279793966 L 571,399.99286605072564 L 572,399.92759921366275 L 573,399.6125654198534 L 574,399.0485520897156 L 575,398.2369689628423 L 576,397.1798445743863 L 577,395.8798211847791 L 578,394.3401481754554 L 579,392.56467392709254 L 580,390.5578362006624 L 581,388.3246510453398 L 582,385.870700260993 L 583,383.2021174465898 L 584,380.3255726693952 L 585,377.24825579327705 L 586,373.97785850778934 L 587,370.52255510295606 L 588,366.89098203780213 L 589,363.09221635370375 L 590,359.13575298651244 L 591,355.03148103415936 L 592,350.7896590390622 L 593,346.42088934711046 L 594,341.9360916073228 L 595,337.3464754784115 L 596,332.66351261047225 L 597,327.89890797183534 L 598,323.06457059273924 L 599,318.1725837989574 L 600,313.2351750097773 L 601,308.2646851758183 L 602,303.2735379330845 L 603,298.2742085503437 L 604,293.27919274745216 L 605,288.3009754625636 L 606,283.35199964628407 L 607,278.44463516077786 L 608,273.5911478615527 L 609,268.8036689392094 L 610,264.09416459778316 L 611,259.47440614546457 L 612,254.9559405724611 L 613,250.55006168953372 L 614,246.2677818993525 L 615,242.11980467122498 L 616,238.11649778799608 L 617,234.26786743199224 L 618,230.58353317477554 L 619,227.07270393322486 L 620,223.74415495203974 L 621,220.60620587019787 L 622,217.66669992619182 L 623,214.93298435401655 L 624,212.4118920189109 L 625,210.10972433875327 L 626,208.03223553379803 L 627,206.18461824412242 L 628,204.57149055073018 L 629,203.19688443275416 L 630,202.0642356896083 L 631,201.17637535327822 L 632,200.5355226122162 L 633,200.14327926452512 L 634,200.00062571429794 L 635,200.1079185211176 L 636,200.4648895088441 L 637,201.07064643591502 L 638,201.92367522548477 L 639,203.0218437498283 L 640,204.3624071595497 L 641,205.9420147442768 L 642,207.75671830769141 L 643,209.8019820359644 L 644,212.07269383492775 L 645,214.5631781076478 L 646,217.26720994046212 L 647,220.1780306620212 L 648,223.28836473644722 L 649,226.59043794838476 L 650,230.07599683449024 L 651,233.7363293127928 L 652,237.56228645836086 L 653,241.54430537085037 L 654,245.67243307677552 L 655,249.9363514067585 L 656,254.3254027855807 L 657,258.82861687056857 L 658,263.4347379717382 L 659,268.1322531851581 L 660,272.9094211692131 L 661,277.75430149184467 L 662,282.6547844754108 L 663,287.59862146457476 L 664,292.57345544156425 L 665,297.5668519122798 L 666,302.56632998605596 L 667,307.5593935713858 L 668,312.53356260964324 L 669,317.4764042687298 L 670,322.37556401867965 L 671,327.21879651155155 L 672,331.9939961884198 L 673,336.68922753696813 L 674,341.29275492405435 L 675,345.7930719286811 L 676,350.1789301020574 L 677,354.43936708286014 L 678,358.56373399743006 L 679,362.5417220764094 L 680,366.36338842129675 L 681,370.0191808565157 L 682,373.4999618048778 L 683,376.7970311267678 L 684,379.9021478659616 L 685,382.80755084772443 L 686,385.505978077707 L 687,387.9906848931479 L 688,390.2554608210187 L 689,392.2946451009723 L 690,394.10314083429535 L 691,395.67642772350115 L 692,397.01057337071853 L 693,398.1022431066391 L 694,398.9487083254536 L 695,399.54785330494553 L 696,399.89818049469494 L 697,399.9988142591743 L 698,399.84950306638143 L 699,399.4506201165386" fill="none" stroke="#ddd" stroke-width="4" opacity="1.0"  /><path d="M 100,300.0 L 101,293.002916302105 L 102,286.02332166944404 L 103,279.0786614536961 L 104,272.1862936886914 L 105,265.36344570436677 L 106,258.62717106741246 L 107,251.9943069562368 L 108,245.48143207678893 L 109,239.10482522442777 L 110,232.88042459541157 L 111,226.8237879497077 L 112,220.95005372469504 L 113,215.27390319695445 L 114,209.80952378672325 L 115,204.57057359673323 L 116,199.91402945481337 L 117,198.9641486560718 L 118,198.06684653043047 L 119,197.22436586589754 L 120,196.4388124253789 L 121,195.71214968336753 L 122,195.0461939182798 L 123,194.44260967270543 L 124,193.90290559291765 L 125,193.42843065804357 L 126,193.0203708083186 L 127,192.67974598085354 L 128,192.40740756032312 L 129,192.20403625094752 L 130,192.07014037508648 L 131,192.006054602698 L 132,192.01193911483784 L 133,192.08777920329027 L 134,192.23338530733088 L 135,192.44839348752976 L 136,192.73226633541054 L 137,193.0842943166916 L 138,193.50359754475238 L 139,193.98912797989166 L 140,194.5396720488809 L 141,195.15385367826548 L 142,195.83013773383152 L 143,196.56683385764205 L 144,197.36210069305147 L 145,198.21395048713822 L 146,199.12025405905183 L 147,200.3937306092818 L 148,205.43515472283892 L 149,210.71294170116948 L 150,216.2138998254461 L 151,221.9242795652017 L 152,227.82980794499503 L 153,233.9157242194165 L 154,240.16681676726384 L 155,246.56746111267356 L 156,253.10165897817336 L 157,259.7530782720438 L 158,266.50509391004255 L 159,273.34082936945623 L 160,280.2431988716186 L 161,287.19495008745884 L 162,294.1787072593393 L 163,301.1770146314009 L 164,308.1723800798612 L 165,315.1473188342152 L 166,322.0843971800548 L 167,328.96627603427595 L 168,335.77575428375644 L 169,342.4958117791801 L 170,349.10965187654676 L 171,355.6007434200344 L 172,361.95286206127935 L 173,368.15013081179796 L 174,374.1770597271891 L 175,380.0185846239281 L 176,385.6601047319807 L 177,391.08751918912344 L 178,396.28726228575636 L 179,400.24926747442237 L 180,401.190469868622 L 181,402.07870712393344 L 182,402.9117591098035 L 183,403.6875436301125 L 184,404.4041216275805 L 185,405.05970203040033 L 186,405.65264622898474 L 187,406.1814721716366 L 188,406.64485806890644 L 189,407.0416456973779 L 190,407.3708432946227 L 191,407.63162803809064 L 192,407.823348101737 L 193,407.9455242852486 L 194,407.9978512117948 L 195,407.98019809131057 L 196,407.89260904740354 L 197,407.73530300706796 L 198,407.5086731534813 L 199,407.213285943251 L 200,406.8498796905679 L 201,406.4193627218054 L 202,405.9228111051765 L 203,405.3614659611237 L 204,404.7367303601643 L 205,404.0501658159446 L 206,403.3034883822692 L 207,402.49856436386034 L 208,401.63740565156763 L 209,400.722164693689 L 210,398.7756455798549 L 211,393.6935800186766 L 212,388.37732930212496 L 213,382.84018128834134 L 214,377.0959759636693 L 215,371.1590708498962 L 216,365.0443051179259 L 217,358.76696249758027 L 218,352.34273307623306 L 219,345.78767408176367 L 220,339.1181697478496 L 221,332.3508903619148 L 222,325.5027505980933 L 223,318.59086723935235 L 224,311.6325163944495 L 225,304.64509031665796 L 226,297.6460539321909 L 227,290.6529011869821 L 228,283.6831113209309 L 229,276.754105178906 L 230,269.8832016677058 L 231,263.0875744678109 L 232,256.384209108127 L 233,249.78986051100796 L 234,243.32101111367624 L 235,236.99382967071352 L 236,230.82413084059476 L 237,224.82733565727835 L 238,219.01843298565197 L 239,213.41194205717665 L 240,208.02187617936954 L 241,202.861707709833 L 242,199.58886687647546 L 243,198.65640941388048 L 244,197.7772998122237 L 245,196.95373538767785 L 246,196.18777462240018 L 247,195.4813320193993 L 248,194.83617331727444 L 249,194.25391107678882 L 250,193.73600065030732 L 251,193.28373654417356 L 252,192.89824918311837 L 253,192.58050208478642 L 254,192.33128945144398 L 255,192.15123418488707 L 256,192.04078632951106 L 257,192.00022194743428 L 258,192.0296424284864 L 259,192.12897423678663 L 260,192.2979690945453 L 261,192.5362046026288 L 262,192.8430852963376 L 263,193.21784413375775 L 264,193.65954441296637 L 265,194.16708211329848 L 266,194.73918865482378 L 267,195.3744340691358 L 268,196.07123057352817 L 269,196.82783653962446 L 270,197.64236084654226 L 271,198.51276760771037 L 272,199.43688125952482 L 273,202.06195999562647 L 274,207.18430778849452 L 275,212.53864647441304 L 276,218.11159299515336 L 277,223.88921788674762 L 278,229.85708009589615 L 279,236.0002630750784 L 280,242.30341206615407 L 281,248.75077247926245 L 282,255.3262292710907 L 283,262.01334722409143 L 284,268.79541202596556 L 285,275.6554720467393 L 286,282.57638070901135 L 287,289.54083934546514 L 288,296.5314404365299 L 289,303.53071112011247 L 290,310.5211568646533 L 291,317.48530519634534 L 292,324.4057493712174 L 293,331.26519188292974 L 294,338.0464876975322 L 295,344.7326871071183 L 296,351.30707809526996 L 297,357.7532281083932 L 298,364.055025128545 L 299,370.1967179450878 L 300,376.16295552451174 L 301,381.9388253800251 L 302,387.50989084500367 L 303,392.8622271571397 L 304,397.9824562630961 L 305,400.57155605133426 L 306,401.4952026733803 L 307,402.36512248322805 L 308,403.1791411343983 L 309,403.93522400419596 L 310,404.63148127920675 L 311,405.26617267884706 L 312,405.8377118051586 L 313,406.34467010797744 L 314,406.78578045556526 L 315,407.159940301779 L 316,407.4662144418618 L 317,407.70383734996784 L 318,407.8722150925786 L 319,407.9709268130269 L 320,407.9997257834197 L 321,407.95854002132927 L 322,407.8474724697117 L 323,407.66680073960316 L 324,407.4169764162369 L 325,407.0986239303153 L 326,406.7125389972585 L 327,406.2596866283299 L 328,405.7411987186109 L 329,405.15837121785256 L 330,404.512660891276 L 331,403.80568167841824 L 332,403.0392006591238 L 333,402.21513363676536 L 334,401.3355403497329 L 335,400.40261932316076 L 336,397.0935118687971 L 337,391.93124390744197 L 338,386.53919571318465 L 339,380.9308445983861 L 340,375.1202085200609 L 341,369.12181104228364 L 342,362.950645034844 L 343,356.6221351988796 L 344,350.1520995131558 L 345,343.5567096973578 L 346,336.8524507912121 L 347,330.05607995047376 L 348,323.1845845627633 L 349,316.25513978794396 L 350,309.2850656291681 L 351,302.2917836418878 L 352,295.29277338904063 L 353,288.3055287512449 L 354,281.34751420120784 L 355,274.43612115164126 L 356,267.5886244857845 L 357,260.82213937919533 L 358,254.153578520723 L 359,247.59960983959382 L 360,241.17661484427026 L 361,234.900647677209 L 362,228.78739498786746 L 363,222.85213672424868 L 364,217.10970794098859 L 365,211.5744617194466 L 366,206.26023329247568 L 367,201.1803054635468 L 368,199.26947508133145 L 369,198.35470458600147 L 370,197.49403605655462 L 371,196.6896207160869 L 372,195.9434691840181 L 373,195.25744645059024 L 374,194.63326721536305 L 375,194.07249160135842 L 376,193.57652125556507 L 377,193.14659584555108 L 378,192.78378996094068 L 379,192.48901042749972 L 380,192.26299404054362 L 381,192.1063057233327 L 382,192.0193371150583 L 383,192.0023055919487 L 384,192.05525372394186 L 385,192.17804916828266 L 386,192.37038500031082 L 387,192.6317804806129 L 388,192.96158225662023 L 389,193.35896599565027 L 390,193.82293844530886 L 391,194.35233991610409 L 392,194.94584718006593 L 393,195.60197677812698 L 394,196.31908872799787 L 395,197.09539062326857 L 396,197.92894211349113 L 397,198.81765975404525 L 398,199.7593222136647 L 399,203.75787913304373 L 400,208.95970237800364 L 401,214.3890789541483 L 402,220.0324382476018 L 403,225.875674799135 L 404,231.90418356046825 L 405,238.10289639928448 L 406,244.45631976171433 L 407,250.9485733981504 L 408,257.56343005560166 L 409,264.2843560373758 L 410,271.0945525287085 L 411,277.9769975850536 L 412,284.9144886780781 L 413,291.8896856930247 L 414,298.885154269969 L 415,305.8834093806377 L 416,312.8669590318754 L 417,319.8183479865162 L 418,326.7202013923865 L 419,333.555268210388 L 420,340.30646433310915 L 421,346.9569152861986 L 422,353.4899984057613 L 423,359.8893843863622 L 424,366.1390780957853 L 425,372.22345855453534 L 426,378.1273179801491 L 427,383.8358997987332 L 428,389.334935528713 L 429,394.61068044460575 L 430,399.6499479316772 L 431,400.88802848912184 L 432,401.7938581989604 L 433,402.64521461332345 L 434,403.4399697845529 L 435,404.1761372386213 L 436,404.8518769402821 L 437,405.4654998921995 L 438,406.0154723565623 L 439,406.50041968862985 L 440,406.91912977262757 L 441,407.27055605140555 L 442,407.553820142286 L 443,407.7682140325629 L 444,407.9132018491647 L 445,407.98842119805806 L 446,407.9936840700443 L 447,407.9289773106843 L 448,407.79446265317773 L 449,407.59047631411454 L 450,407.3175281531084 L 451,406.9763003984131 L 452,406.5676459417075 L 453,406.0925862063101 L 454,405.55230859415315 L 455,404.94816351789586 L 456,404.2816610255963 L 457,403.55446702637727 L 458,402.7683991265216 L 459,401.92542208640276 L 460,401.0276429096069 L 461,400.0773055765218 L 462,395.38392717777 L 463,390.1429163299755 L 464,384.67659513687977 L 465,378.9986265546597 L 466,373.12320254774244 L 467,367.0650086162834 L 468,360.8391870900651 L 469,354.46129928055814 L 470,347.94728658574576 L 471,341.31343064493313 L 472,334.5763126431269 L 473,327.75277186670843 L 474,320.85986361398784 L 475,313.91481656583875 L 476,306.93498972297147 L 477,299.93782901746954 L 478,292.9408237070459 L 479,285.96146266100726 L 480,279.0171906471867 L 481,272.1253647291122 L 482,265.30321088238566 L 483,258.5677809387146 L 484,251.9359099652142 L 485,245.424174185507 L 486,239.04884954779496 L 487,232.82587104346788 L 488,226.77079287792208 L 489,220.8987495931476 L 490,215.22441823925584 L 491,209.76198168949605 L 492,204.525093190461 L 493,199.90536844721592 L 494,198.95594437013978 L 495,198.05911947260603 L 496,197.21713534980105 L 497,196.432096523535 L 498,195.70596518203325 L 499,195.0405562754877 L 500,194.43753297962644 L 501,193.8984025386406 L 502,193.42451249785896 L 503,193.01704733558634 L 504,192.67702550252466 L 505,192.40529687617664 L 506,192.20254063659462 L 507,192.0692635687841 L 508,192.00579879600525 L 509,192.01230494713826 L 510,192.0887657601936 L 511,192.2349901229587 L 512,192.45061255067876 L 513,192.73509409957848 L 514,193.08772371394076 L 515,193.50762000337562 L 516,193.99373344583728 L 517,194.54484901088253 L 518,195.1595891966142 L 519,195.8364174727185 L 520,196.57364212099043 L 521,197.3694204637486 L 522,198.2217634695694 L 523,199.12854072482995 L 524,200.4374287931628 L 525,205.48100853900786 L 526,210.76083653896654 L 527,216.26371597271992 L 528,221.97589250752782 L 529,227.88308867689722 L 530,233.97053956681253 L 531,240.22302972033305 L 532,246.62493116830836 L 533,253.16024249116447 L 534,259.8126288141185 L 535,266.5654626358584 L 536,273.4018653886387 L 537,280.3047496259067 L 538,287.2568617320218 L 539,294.2408250473087 L 540,301.2391833006565 L 541,308.2344442411074 L 542,315.2091233593712 L 543,322.1457875899948 L 544,329.0270988849467 L 545,335.83585754970665 L 546,342.5550452335466 L 547,349.1678674665418 L 548,355.6577956370011 L 549,362.00860830438745 L 550,368.2044317444713 L 551,374.2297796253759 L 552,380.0695917153389 L 553,385.7092715254509 L 554,391.13472279327493 L 555,396.3323847161616 L 556,400.25785316923884 L 557,401.1985953124083 L 558,402.0863520073117 L 559,402.91890432454665 L 560,403.6941713169048 L 561,404.4102152206566 L 562,405.0652462989511 L 563,405.65762731522614 L 564,406.1858776254471 L 565,406.64867687894593 L 566,407.04486831861 L 567,407.37346167217265 L 568,407.63363562737817 L 569,407.82473988483446 L 570,407.9462967834231 L 571,407.9980024942032 L 572,407.97972777982557 L 573,407.89151831755896 L 574,407.7335945851204 L 575,407.50635130959586 L 576,407.2103564808282 L 577,406.84634993173813 L 578,406.41524148912754 L 579,405.9181086995859 L 580,405.3561941361855 L 581,404.73090229269513 L 582,404.04379607307806 L 583,403.29659288504513 L 584,402.49116034743065 L 585,401.62951162211755 L 586,400.71380038218103 L 587,398.73157714413856 L 588,393.647374852923 L 589,388.32910289518526 L 590,382.7900541811174 L 591,377.04407344782317 L 592,371.1055226546871 L 593,364.9892450859547 L 594,358.71052825025197 L 595,352.28506566977603 L 596,345.72891765466113 L 597,339.05847116056947 L 598,332.2903988298349 L 599,325.4416173185404 L 600,318.52924501368824 L 601,311.5705592461456 L 602,304.58295310631837 L 603,297.58389197048115 L 604,290.590869846433 L 605,283.621365647589 L 606,276.6927995047977 L 607,269.82248922508904 L 608,263.0276070061738 L 609,256.3251365148931 L 610,249.73183043689644 L 611,243.26416860365043 L 612,236.9383168014455 L 613,230.7700863653472 L 614,224.77489465909352 L 615,218.967726539715 L 616,213.3630969031945 L 617,207.97501440478914 L 618,202.81694644468575 L 619,199.58035710130295 L 620,198.64836338657113 L 621,197.7697376436554 L 622,196.94667597933372 L 623,196.18123561912464 L 624,195.47532976529504 L 625,194.8307228148509 L 626,194.24902594946343 L 627,193.73169310835428 L 628,193.28001735420446 L 629,192.89512764117117 L 630,192.57798599309032 L 631,192.3293850989179 L 632,192.14994633142055 L 633,192.04011819406702 L 634,192.0001752000034 L 635,192.03021718591293 L 636,192.13016906247634 L 637,192.2997810020562 L 638,192.53862906313574 L 639,192.84611624995193 L 640,193.22147400467392 L 641,193.6637641283975 L 642,194.1718811261536 L 643,194.74455497007003 L 644,195.38035427377977 L 645,196.07768987014137 L 646,196.8348187833294 L 647,197.64984858536593 L 648,198.52074212620522 L 649,199.44532262554773 L 650,202.1063955682863 L 651,207.23086103790996 L 652,212.5872010417052 L 653,218.16202751919053 L 654,223.9414063074857 L 655,229.9108919694619 L 656,236.055563899813 L 657,242.360063618796 L 658,248.8086331604335 L 659,255.38515445922138 L 660,262.07318963689835 L 661,268.8560220885825 L 662,275.71669826557513 L 663,282.6380700504047 L 664,289.60283761818994 L 665,296.5935926771917 L 666,303.59286198047835 L 667,310.58315099994013 L 668,317.5469876535006 L 669,324.4669659762218 L 670,331.3257896261515 L 671,338.1063151161722 L 672,344.79159466378775 L 673,351.36491855175535 L 674,357.80985689367606 L 675,364.11030070015363 L 676,370.25050214288035 L 677,376.2151139160042 L 678,381.9892275964021 L 679,387.5584109069732 L 680,392.90874378981545 L 681,398.02685319912194 L 682,400.57998930536576 L 683,401.503168715495 L 684,402.37260140246923 L 685,403.18611423736286 L 686,403.941673861758 L 687,404.6373917700814 L 688,405.27152902988524 L 689,405.84250062827226 L 690,406.3488794336027 L 691,406.78939976258033 L 692,407.1629605438012 L 693,407.46862806985894 L 694,407.70563833112703 L 695,407.8733989253848 L 696,407.97149053851456 L 697,407.9996679925688 L 698,407.9578608585868 L 699,407.8461736326308" fill="none" stroke="red" stroke-width="2" opacity="1.0"  /><text x="200" y="150" font-family="Arial, sans-serif" font-size="20" fill="#999" text-anchor="start" font-weight="normal" >Clean 808</text><text x="200" y="170" font-family="Arial, sans-serif" font-size="20" fill="red" text-anchor="start" font-weight="normal" >Saturated 808 (Harmonics)</text><text x="400" y="50" font-family="Arial, sans-serif" font-size="24" fill="black" text-anchor="middle" font-weight="bold" >Harmonic Saturation</text></svg>