<svg xmlns="http://www.w3.org/2000/svg" viewBox="0 0 800 500">
  <defs>
    <style>
      @import url('https://fonts.googleapis.com/css2?family=Inter:wght@400;600&display=swap');
      text { font-family: 'Inter', system-ui, -apple-system, sans-serif; }
      .bg { fill: #f8fafc; }
      .grid { stroke: #e2e8f0; stroke-width: 1; }
      .axis { stroke: #94a3b8; stroke-width: 2; }
      .line-primary { fill: none; stroke: #3b82f6; stroke-width: 4; stroke-linecap: round; stroke-linejoin: round; }
      .line-secondary { fill: none; stroke: #64748b; stroke-width: 3; stroke-linecap: round; stroke-dasharray: 6 4; }
      .line-accent { fill: none; stroke: #ef4444; stroke-width: 3; stroke-linecap: round; }
      .text-title { font-size: 24px; font-weight: 600; fill: #1e293b; text-anchor: middle; }
      .text-label { font-size: 14px; font-weight: 400; fill: #475569; text-anchor: middle; }
      .box { fill: #eff6ff; stroke: #3b82f6; stroke-width: 2; rx: 8; }
      .box-text { font-size: 16px; font-weight: 600; fill: #1e293b; text-anchor: middle; dominant-baseline: middle; }
    </style>
  </defs>
  <rect width="800" height="500" class="bg" />
  <text x="400.0" y="40" class="text-title">808 Harmonic Saturation</text>
<line x1="128.0" y1="440" x2="128.0" y2="60" class="grid" /><line x1="60" y1="98.0" x2="740" y2="98.0" class="grid" /><line x1="196.0" y1="440" x2="196.0" y2="60" class="grid" /><line x1="60" y1="136.0" x2="740" y2="136.0" class="grid" /><line x1="264.0" y1="440" x2="264.0" y2="60" class="grid" /><line x1="60" y1="174.0" x2="740" y2="174.0" class="grid" /><line x1="332.0" y1="440" x2="332.0" y2="60" class="grid" /><line x1="60" y1="212.0" x2="740" y2="212.0" class="grid" /><line x1="400.0" y1="440" x2="400.0" y2="60" class="grid" /><line x1="60" y1="250.0" x2="740" y2="250.0" class="grid" /><line x1="468.0" y1="440" x2="468.0" y2="60" class="grid" /><line x1="60" y1="288.0" x2="740" y2="288.0" class="grid" /><line x1="536.0" y1="440" x2="536.0" y2="60" class="grid" /><line x1="60" y1="326.0" x2="740" y2="326.0" class="grid" /><line x1="604.0" y1="440" x2="604.0" y2="60" class="grid" /><line x1="60" y1="364.0" x2="740" y2="364.0" class="grid" /><line x1="672.0" y1="440" x2="672.0" y2="60" class="grid" /><line x1="60" y1="402.0" x2="740" y2="402.0" class="grid" /><line x1="60" y1="440" x2="740" y2="440" class="axis" /><line x1="60" y1="440" x2="60" y2="60" class="axis" /><path d="M 60 440 L 400.0 250.0 L 740 212.0" class="line-primary" /></svg>