<svg xmlns="http://www.w3.org/2000/svg" viewBox="0 0 800 600"><rect x="0" y="0" width="800" height="600" fill="#f8f9fa" /><line x1="100" y1="500" x2="700" y2="500" stroke="#333" stroke-width="1" opacity="1.0"  /><text x="400.0" y="540" font-family="Arial, sans-serif" font-size="20" fill="black" text-anchor="middle" font-weight="normal" font-style="normal" >Time (Held Note)</text><line x1="100" y1="500" x2="100" y2="100" stroke="#333" stroke-width="1" opacity="1.0"  /><text x="60" y="300.0" font-family="Arial, sans-serif" font-size="20" fill="black" text-anchor="start" font-weight="normal" font-style="normal" transform="rotate(-90, 60, 300.0)">Pressure</text><line x1="150" y1="500" x2="150" y2="300" stroke="green" stroke-width="2" opacity="1.0"  /><text x="150" y="290" font-family="Arial, sans-serif" font-size="20" fill="green" text-anchor="start" font-weight="normal" font-style="normal" >Note On</text><path d="M 150,300 L 150,300.0 L 151,294.8083291676586 L 152,289.6665334602469 L 153,284.623989666933 L 154,279.72908288456745 L 155,275.02872306978986 L 156,270.5678763302482 L 157,266.3891156381154 L 158,262.53219545502384 L 159,259.0336545186258 L 160,255.9264507596052 L 161,253.23963199692824 L 162,250.9980457016387 L 163,249.22209072914035 L 164,247.927513500577 L 165,247.12525066979728 L 166,246.82131984792477 L 167,247.01675947737655 L 168,247.70761845609024 L 169,248.88499561562926 L 170,250.5351286587159 L 171,252.63953166755633 L 172,255.17517980902048 L 173,258.114739391164 L 174,261.42684097244245 L 175,265.0763927948022 L 176,269.0249314089268 L 177,273.23100598830854 L 178,277.65059249220474 L 179,282.2375335393009 L 180,286.9439995970066 L 181,291.7209668783355 L 182,296.518707171379 L 183,301.2872847071624 L 184,305.97705510134153 L 185,310.53916138448096 L 186,314.9260221647426 L 187,319.0918070454247 L 188,322.99289454713596 L 189,326.5883079591987 L 190,329.8401247653964 L 191,332.7138555532206 L 192,335.17878862067937 L 193,337.20829683747274 L 194,338.78010369447577 L 195,339.8765058832548 L 196,340.4845501816732 L 197,340.59616287820506 L 198,340.208230441792 L 199,339.3226306312166 L 200,337.9462137331569 L 201,336.0907341163866 L 202,333.7727327860076 L 203,331.01337211119505 L 204,327.83822437779935 L 205,324.27701627851957 L 206,320.3633318936161 L 207,316.13427712988187 L 208,311.63010897068784 L 209,306.8938332415118 L 210,301.9707749099463 L 211,296.90812521360476 L 212,291.7544701408748 L 213,286.5593049757825 L 214,281.3725397574753 L 215,276.24400059560924 L 216,271.2229318243311 L 217,266.35750396917007 L 218,261.6943324430696 L 219,257.27801178058996 L 220,253.15067006406053 L 221,249.3515479937062 L 222,245.91660680754234 L 223,242.87816896857174 L 224,240.26459520941864 L 225,238.10000116126304 L 226,236.40401639842565 L 227,235.19158830614998 L 228,234.47283273126976 L 229,234.25293290801142 L 230,234.5320876688309 L 231,235.3055094577457 L 232,236.56347216601137 L 233,238.2914083121853 L 234,240.47005459558596 L 235,243.07564436882546 L 236,246.08014510629434 L 237,249.4515384958909 L 238,253.15414035541193 L 239,257.1489571771058 L 240,261.3940757379122 L 241,265.84508188253244 L 242,270.4555042949877 L 243,275.1772788246469 L 244,279.9612287273321 L 245,284.7575560230905 L 246,289.51633906114904 L 247,294.1880313205472 L 248,298.72395646259645 L 249,303.0767946887661 L 250,307.2010555444685 L 251,311.0535324446442 L 252,314.5937343796772 L 253,317.7842904881791 L 254,320.5913234542827 L 255,322.9847879985835 L 256,324.9387710806404 L 257,326.43175081350944 L 258,327.4468115033246 L 259,327.97181266531885 L 260,327.9995103275352 L 261,327.52762941019944 L 262,326.55888645756585 L 263,325.10096249510445 L 264,323.16642628323376 L 265,320.7726087344214 L 266,317.9414297484354 L 267,314.6991791959516 L 268,311.0762542388561 L 269,307.10685561185164 L 270,302.82864590002174 L 271,298.28237322673 L 272,293.51146411184135 L 273,288.56158956829006 L 274,283.4802087724155 L 275,278.31609486756 L 276,273.11884763894307 L 277,267.9383979290028 L 278,262.82450874492304 L 279,257.82627804311534 L 280,252.99164815866794 L 281,248.3669267813812 L 282,243.99632426463882 L 283,239.92151189016988 L 284,236.18120550237757 L 285,232.81077867241896 L 286,229.8419092571752 L 287,227.30226288457686 L 288,225.21521652779472 L 289,223.5996249302512 L 290,222.46963221525647 L 291,221.83453056260413 L 292,221.69866736418192 L 293,222.0614017862693 L 294,222.91711117253612 L 295,224.25524722376588 L 296,226.06044139297484 L 297,228.31265844285332 L 298,230.98739663123416 L 299,234.05593252440121 L 300,237.4856079921442 L 301,241.24015651700063 L 302,245.28006555731008 L 303,249.5629713434694 L 304,254.0440821627149 L 305,258.67662590311016 L 306,263.4123173850279 L 307,268.2018408107032 L 308,272.9953425113841 L 309,277.7429290687095 L 310,282.39516583325326 L 311,286.90357085920044 L 312,291.22109931992327 L 313,295.30261356433897 L 314,299.1053341173975 L 315,302.5892671184562 L 316,305.7176039267149 L 317,308.4570889009873 L 318,310.77835167907523 L 319,312.6562006367185 L 320,314.06987459397783 L 321,315.00325025408216 L 322,315.44500330207984 L 323,315.38872155365056 L 324,314.83296902353163 L 325,313.78130027340785 L 326,312.2422248959062 L 327,310.22912248955924 L 328,307.7601089742791 L 329,304.8578555830743 L 330,301.5493623385838 L 331,297.865688277775 L 332,293.8416411203142 L 333,289.5154294813366 L 334,284.92828110359466 L 335,280.12403092348063 L 336,275.14868308683106 L 337,270.04995129070994 L 338,264.8767820439184 L 339,259.6788656096593 L 340,254.5061395168524 L 341,249.40828960085202 L 342,244.43425355900504 L 343,239.63173198135536 L 344,235.046711742115 L 345,230.72300651401997 L 346,226.7018189965932 L 347,223.02132923239242 L 348,219.71631312464473 L 349,216.81779496791654 L 350,214.3527374636186 L 351,212.34377231760527 L 352,210.8089741116512 L 353,209.7616797082046 L 354,209.21035499286654 L 355,209.15851028606005 L 356,209.6046652690692 L 357,210.54236377489423 L 358,211.96023829613796 L 359,213.8421235653825 L 360,216.1672180731972 L 361,218.91029190994539 L 362,222.04193885470102 L 363,225.52887019248806 L 364,229.3342473241171 L 365,233.41804984529017 L 366,237.737475417253 L 367,242.2473674336137 L 368,246.9006662102281 L 369,251.64887919000776 L 370,256.44256546452016 L 371,261.231829771204 L 372,265.9668210303381 L 373,270.59823044055236 L 374,275.0777841560718 L 375,279.35872562302546 L 376,283.3962827554782 L 377,287.14811528331245 L 378,290.5747378022122 L 379,293.6399142987709 L 380,296.3110202087585 L 381,298.5593683909841 L 382,300.360495759727 L 383,301.69440771180354 L 384,302.54577790603247 L 385,302.90410139896983 L 386,302.76379960683136 L 387,302.12427604485777 L 388,300.98992228719317 L 389,299.3700740877277 L 390,297.2789181003312 L 391,294.7353501304965 L 392,291.7627863346976 L 393,288.3889292538947 L 394,284.64549101890105 L 395,280.5678764932562 L 396,276.1948295195311 L 397,271.5680458036614 L 398,266.7317563052361 L 399,261.7322852963696 L 400,256.61758750488866 L 401,251.43676896654227 L 402,246.23959637372607 L 403,241.075999823142 L 404,235.99557393077635 L 405,231.0470822988916 L 406,226.27797028623053 L 407,221.73389094967627 L 408,217.45824889399802 L 409,213.49176658738776 L 410,209.87207747601985 L 411,206.6333499630959 L 412,203.8059460094554 L 413,201.416117766899 L 414,199.4857452753651 L 415,198.03211784480413 L 416,197.06776130610808 L 417,196.600312857149 L 418,196.632444754422 L 419,197.16183761274237 L 420,198.18120357977483 L 421,199.6783591538457 L 422,201.63634691746387 L 423,204.03360497023107 L 424,206.84418236822358 L 425,210.03799841724515 L 426,213.58114322918044 L 427,217.43621653838773 L 428,221.56270139279036 L 429,225.91736898586908 L 430,230.45471058460657 L 431,235.1273922377054 L 432,239.88672772078212 L 433,244.683164993028 L 434,249.4667813048216 L 435,254.18778200933983 L 436,258.7969980942099 L 437,263.24637746202717 L 438,267.4894650510287 L 439,271.481866998715 L 440,275.1816942106484 L 441,278.5499809024389 L 442,281.5510739329808 L 443,284.15298903885355 L 444,286.32773041050933 L 445,288.0515704171477 L 446,289.30528668535925 L 447,290.07435416272676 L 448,290.3490902473475 L 449,290.1247515331907 L 450,289.4015812046431 L 451,288.18480660669024 L 452,286.484587015014 L 453,284.3159121278677 L 454,281.6984522939663 L 455,278.65636197286426 L 456,275.2180383915797 L 457,271.41583780888936 L 458,267.2857522222866 L 459,262.86704974783873 L 460,258.20188226615323 L 461,253.33486425471858 L 462,248.3126270147942 L 463,243.18335274686183 L 464,237.99629313000491 L 465,232.80127721541265 L 466,227.64821355097058 L 467,222.58659151154882 L 468,217.66498681752688 L 469,212.93057618225208 L 470,208.42866593791547 L 471,204.20223934965577 L 472,200.29152714098325 L 473,196.73360552168873 L 474,193.56202573461098 L 475,190.80647882270847 L 476,188.4924989659736 L 477,186.64120835234598 L 478,185.26910613179297 L 479,184.38790356225684 L 480,184.0044069946366 L 481,184.12044986598028 L 482,184.7328743803871 L 483,185.83356306066094 L 484,187.40951985545905 L 485,189.44299999154117 L 486,191.9116872736779 L 487,194.7889170606968 L 488,198.043942689763 L 489,201.6422426868702 L 490,205.5458656939988 L 491,209.7138096665388 L 492,214.10243155216688 L 493,218.66588335779858 L 494,223.3565702475795 L 495,228.12562609475378 L 496,232.92340173584756 L 497,237.69996104870006 L 498,242.40557989768905 L 499,246.9912429608571 L 500,251.40913347480756 L 501,255.61311100399632 L 502,259.5591724607133 L 503,263.2058917693885 L 504,266.51483378224583 L 505,269.45093831059535 L 506,271.9828704346478 L 507,274.08333359167636 L 508,275.72934231424813 L 509,276.9024518934163 L 510,277.5889426721558 L 511,277.77995712764016 L 512,277.4715883726824 L 513,276.6649191920601 L 514,275.366011223688 L 515,273.5858443927353 L 516,271.3402072038431 L 517,268.64953898760507 L 518,265.5387256775325 L 519,262.03685115803285 L 520,258.17690666784995 L 521,253.99546116251315 L 522,249.53229592942074 L 523,244.83000710636685 L 524,239.93358007501286 L 525,234.8899399818231 L 526,229.74748287751447 L 527,224.55559215971414 L 528,219.3641451503746 L 529,214.2230147380606 L 530,209.18157106453077 L 531,204.28818823460267 L 532,199.58976097808704 L 533,195.13123609314857 L 534,190.95516335275636 L 535,187.1012703614178 L 536,183.60606561008535 L 537,180.50247369538477 L 538,177.8195063479278 L 539,175.5819725566904 L 540,173.8102306857956 L 541,172.51998506046834 L 542,171.7221290546097 L 543,171.42263624780543 L 544,171.622500739293 L 545,172.31772721525113 L 546,173.49937086865458 L 547,175.15362677282928 L 548,177.26196781571622 L 549,179.80132981665093" fill="none" stroke="purple" stroke-width="3" opacity="1.0"  /><text x="400" y="50" font-family="Arial, sans-serif" font-size="24" fill="black" text-anchor="middle" font-weight="bold" font-style="normal" >MIDI Aftertouch Data</text></svg>