<svg xmlns="http://www.w3.org/2000/svg" viewBox="0 0 800 600"><rect x="0" y="0" width="800" height="600" fill="#f8fafc" /><line x1="100" y1="250" x2="700" y2="250" stroke="#ef4444" stroke-width="4" opacity="1.0"  /><text x="50" y="255" font-family="Inter, system-ui, sans-serif" font-size="20" fill="#1e293b" text-anchor="start" font-weight="normal" font-style="normal" >Hot (+)</text><line x1="100" y1="300" x2="700" y2="300" stroke="#3b82f6" stroke-width="4" opacity="1.0"  /><text x="50" y="305" font-family="Inter, system-ui, sans-serif" font-size="20" fill="#1e293b" text-anchor="start" font-weight="normal" font-style="normal" >Cold (-)</text><line x1="100" y1="350" x2="700" y2="350" stroke="#334155" stroke-width="8" opacity="1.0" stroke-dasharray="10,5" /><text x="50" y="355" font-family="Inter, system-ui, sans-serif" font-size="20" fill="#1e293b" text-anchor="start" font-weight="normal" font-style="normal" >Gnd</text><line x1="200" y1="100" x2="200" y2="250" stroke="orange" stroke-width="2" opacity="1.0" stroke-dasharray="2,2" /><line x1="200" y1="100" x2="200" y2="300" stroke="orange" stroke-width="2" opacity="1.0" stroke-dasharray="2,2" /><line x1="240" y1="100" x2="240" y2="250" stroke="orange" stroke-width="2" opacity="1.0" stroke-dasharray="2,2" /><line x1="240" y1="100" x2="240" y2="300" stroke="orange" stroke-width="2" opacity="1.0" stroke-dasharray="2,2" /><line x1="280" y1="100" x2="280" y2="250" stroke="orange" stroke-width="2" opacity="1.0" stroke-dasharray="2,2" /><line x1="280" y1="100" x2="280" y2="300" stroke="orange" stroke-width="2" opacity="1.0" stroke-dasharray="2,2" /><line x1="320" y1="100" x2="320" y2="250" stroke="orange" stroke-width="2" opacity="1.0" stroke-dasharray="2,2" /><line x1="320" y1="100" x2="320" y2="300" stroke="orange" stroke-width="2" opacity="1.0" stroke-dasharray="2,2" /><line x1="360" y1="100" x2="360" y2="250" stroke="orange" stroke-width="2" opacity="1.0" stroke-dasharray="2,2" /><line x1="360" y1="100" x2="360" y2="300" stroke="orange" stroke-width="2" opacity="1.0" stroke-dasharray="2,2" /><line x1="400" y1="100" x2="400" y2="250" stroke="orange" stroke-width="2" opacity="1.0" stroke-dasharray="2,2" /><line x1="400" y1="100" x2="400" y2="300" stroke="orange" stroke-width="2" opacity="1.0" stroke-dasharray="2,2" /><line x1="440" y1="100" x2="440" y2="250" stroke="orange" stroke-width="2" opacity="1.0" stroke-dasharray="2,2" /><line x1="440" y1="100" x2="440" y2="300" stroke="orange" stroke-width="2" opacity="1.0" stroke-dasharray="2,2" /><line x1="480" y1="100" x2="480" y2="250" stroke="orange" stroke-width="2" opacity="1.0" stroke-dasharray="2,2" /><line x1="480" y1="100" x2="480" y2="300" stroke="orange" stroke-width="2" opacity="1.0" stroke-dasharray="2,2" /><line x1="520" y1="100" x2="520" y2="250" stroke="orange" stroke-width="2" opacity="1.0" stroke-dasharray="2,2" /><line x1="520" y1="100" x2="520" y2="300" stroke="orange" stroke-width="2" opacity="1.0" stroke-dasharray="2,2" /><line x1="560" y1="100" x2="560" y2="250" stroke="orange" stroke-width="2" opacity="1.0" stroke-dasharray="2,2" /><line x1="560" y1="100" x2="560" y2="300" stroke="orange" stroke-width="2" opacity="1.0" stroke-dasharray="2,2" /><text x="400" y="100" font-family="Inter, system-ui, sans-serif" font-size="20" fill="orange" text-anchor="middle" font-weight="normal" font-style="normal" >Noise (Common Mode)</text><text x="750" y="300" font-family="Inter, system-ui, sans-serif" font-size="20" fill="#1e293b" text-anchor="middle" font-weight="bold" font-style="normal" >Noise Cancels
at Diff Amp</text><text x="400" y="50" font-family="Inter, system-ui, sans-serif" font-size="24" fill="#1e293b" text-anchor="middle" font-weight="bold" font-style="normal" >Balanced Circuit (CMRR)</text></svg>