<svg xmlns="http://www.w3.org/2000/svg" viewBox="0 0 800 600"><rect x="0" y="0" width="800" height="600" fill="#f8f9fa" /><line x1="100" y1="200" x2="700" y2="200" stroke="#ccc" stroke-width="1" opacity="1.0"  /><path d="M 100,207.1569266718871 L 101,188.59172228337658 L 102,189.95859078062912 L 103,196.7441289449364 L 104,199.85522950072823 L 105,190.6164325851476 L 106,190.42616480855287 L 107,177.84623567543917 L 108,176.07239119826784 L 109,178.2156620930495 L 110,166.1521245567386 L 111,172.94679457472145 L 112,166.80459945629934 L 113,164.7085076449536 L 114,168.29429459079952 L 115,170.9767449346077 L 116,159.89392580077975 L 117,157.49867586498317 L 118,157.34239391889076 L 119,152.6339867467087 L 120,150.1856732548668 L 121,159.1868626183211 L 122,146.42247323754728 L 123,150.2452996654976 L 124,148.60953834017116 L 125,161.88126805625006 L 126,143.451670356789 L 127,152.78762602554414 L 128,144.11403975598475 L 129,151.26672539590183 L 130,140.9033309547282 L 131,157.5792971892509 L 132,151.94573545493782 L 133,141.23877956578832 L 134,157.17735739491127 L 135,159.36321181262431 L 136,150.296773606602 L 137,152.95359220032265 L 138,142.87552767273488 L 139,158.67367064972922 L 140,150.95833836769123 L 141,159.9426820772282 L 142,149.51052608575674 L 143,163.06848324683426 L 144,162.94932454894428 L 145,154.3325188822667 L 146,161.0343274614841 L 147,157.8293614309844 L 148,159.57626066663974 L 149,164.511903579163 L 150,177.39438129913256 L 151,166.00462986991084 L 152,179.13817137057117 L 153,180.03976266307814 L 154,172.3353774003683 L 155,182.1819443245252 L 156,174.38687585757452 L 157,182.75949007227368 L 158,186.07115054338314 L 159,192.97055352714338 L 160,184.50152190633062 L 161,193.96811127825808 L 162,199.57615980131075 L 163,196.41231673136895 L 164,196.71699986152763 L 165,196.68371620724966 L 166,210.6139134919501 L 167,205.38667096884333 L 168,203.89063539791005 L 169,213.245791158877 L 170,220.9315557922355 L 171,218.65102101245546 L 172,232.1251393524696 L 173,224.95829601602853 L 174,235.7030999370947 L 175,224.37667761164386 L 176,231.89669948082704 L 177,232.6069346074429 L 178,226.96742439192755 L 179,241.38756941223173 L 180,242.26522527804096 L 181,245.7202363056789 L 182,241.52491045760047 L 183,245.02398608155897 L 184,237.49519952187984 L 185,240.34821637389516 L 186,242.2377430850134 L 187,237.19958339726497 L 188,239.8022363543002 L 189,253.88894793643934 L 190,256.9209615360529 L 191,243.29550234681335 L 192,257.978035654929 L 193,240.0322439917478 L 194,248.17641568553807 L 195,253.13180554010893 L 196,243.02860439942788 L 197,242.75179922154558 L 198,256.4162422241767 L 199,244.58742050726917 L 200,257.6199934679371 L 201,240.96741863974526 L 202,244.54253136134432 L 203,243.11153180961364 L 204,244.0731184637154 L 205,252.40719756238187 L 206,232.58423833377316 L 207,234.82128829021144 L 208,233.46701718736873 L 209,227.40635619860075 L 210,237.2126694159727 L 211,236.62004472218993 L 212,228.64331022998178 L 213,233.75540000408776 L 214,227.19699295113455 L 215,227.82722427645535 L 216,232.50538165471602 L 217,220.11994865442378 L 218,212.81632041612556 L 219,210.50950063630458 L 220,204.41884380087217 L 221,215.6638379329361 L 222,217.73330238463856 L 223,216.13460974518134 L 224,206.01251851644687 L 225,199.43611662459801 L 226,199.6080746884918 L 227,201.48958019131348 L 228,191.7720400528291 L 229,186.9490874836528 L 230,184.4533027815233 L 231,179.8486487361943 L 232,188.04105784194078 L 233,182.80520856511856 L 234,178.2136147402955 L 235,167.79017360249583 L 236,180.79123568367459 L 237,177.5071589672607 L 238,171.82862413134185 L 239,163.98723909933358 L 240,173.0661107222436 L 241,164.16444140379843 L 242,165.24229073951307 L 243,157.50030135729665 L 244,158.4236693004476 L 245,152.9572384067642 L 246,155.63903734045633 L 247,157.3199809111933 L 248,155.62421324996882 L 249,144.9154656398931 L 250,156.24144351974 L 251,157.85570491808093 L 252,155.6326823998104 L 253,153.33677948599163 L 254,160.1362778184214 L 255,145.76152345730193 L 256,156.57453824854895 L 257,154.97239664452493 L 258,148.33691896491226 L 259,151.24969944614912 L 260,155.8461174703143 L 261,152.36383045483504 L 262,157.8897030392935 L 263,156.71454921173222 L 264,152.8595642248028 L 265,145.48009961338357 L 266,156.48818561557792 L 267,157.40082401322852 L 268,161.3627254591285 L 269,158.22246770277187 L 270,159.4973233747516 L 271,164.0736368208133 L 272,162.80107204162607 L 273,167.24194931695786 L 274,175.14717045452267 L 275,163.2695330913298 L 276,164.05363670601162 L 277,172.55888126624637 L 278,169.09463088139782 L 279,170.32916084014616 L 280,180.96251942743189 L 281,181.2541847729979 L 282,181.53134681605786 L 283,176.79337039278192 L 284,197.1738093878472 L 285,183.12310223124425 L 286,199.4597361145992 L 287,200.69067276666098 L 288,204.63299542707514 L 289,202.8228495876804 L 290,200.5052295003045 L 291,196.55564339198716 L 292,212.956481141083 L 293,209.58155705653806 L 294,211.35247830118098 L 295,221.5754184885393 L 296,213.01540621226422 L 297,223.22054331250771 L 298,213.76557947091652 L 299,229.91169125159703 L 300,222.23917505623808 L 301,219.37012087840878 L 302,227.17021684947395 L 303,224.40595421242227 L 304,228.85986501957058 L 305,242.70348604258882 L 306,236.33189483547102 L 307,230.32631777513208 L 308,239.1404919499184 L 309,252.52734903347883 L 310,242.90384310957234 L 311,247.61990807204484 L 312,241.57466595238017 L 313,248.54319319559212 L 314,243.41508693464817 L 315,252.36003664272062 L 316,249.01098350455655 L 317,252.99670030126117 L 318,246.34163524291625 L 319,240.8077196391166 L 320,258.7689315871036 L 321,256.5173447873291 L 322,244.64325834445495 L 323,249.632419137037 L 324,244.04121238751486 L 325,252.45861133625152 L 326,246.10730058664842 L 327,239.0341486011062 L 328,244.55922688696464 L 329,238.71224319579233 L 330,253.3296285861987 L 331,233.14842082564383 L 332,245.91343201137357 L 333,232.8513026055698 L 334,233.58789754734806 L 335,245.02419737506142 L 336,227.1775001913242 L 337,232.24818286736942 L 338,232.29278512024842 L 339,226.78707789429325 L 340,219.362287098929 L 341,232.740510674786 L 342,216.74879613936014 L 343,217.25199775029003 L 344,211.07157874025208 L 345,209.58791295419752 L 346,218.09209388086157 L 347,213.94501541971613 L 348,201.7348961743288 L 349,206.21276416856384 L 350,205.697202624683 L 351,209.12581010018476 L 352,208.31636010795714 L 353,202.67892299657905 L 354,191.41058874171935 L 355,184.36121940250248 L 356,188.441981805082 L 357,177.62564876476767 L 358,184.5469721794432 L 359,190.05034938305076 L 360,186.4784176084348 L 361,172.88669909340473 L 362,178.43758260814514 L 363,166.399379943007 L 364,178.84794905283493 L 365,173.79521211024868 L 366,174.36091360701718 L 367,163.98389890545283 L 368,163.9884803163551 L 369,158.0047783132157 L 370,157.46219994096265 L 371,163.53425574736337 L 372,152.85333860330545 L 373,145.86098091169922 L 374,145.59424369538306 L 375,147.5336101109713 L 376,147.365278909213 L 377,152.70932862471716 L 378,144.99186282397216 L 379,160.85309793751725 L 380,146.55972073624253 L 381,145.68264357245948 L 382,145.60724233996186 L 383,154.1105792914909 L 384,158.95156189723485 L 385,158.78566503121965 L 386,153.51556133175092 L 387,158.41218161111874 L 388,144.78428066288035 L 389,146.8075201432228 L 390,151.29992953672945 L 391,162.26508372337597 L 392,155.95678180724076 L 393,159.43317183074848 L 394,149.20662790195422 L 395,157.09025342707113 L 396,151.0453260619759 L 397,155.82480853391627 L 398,159.50230434708342 L 399,158.30272872805676 L 400,167.15358088370178 L 401,162.42413508320487 L 402,181.11400337709546 L 403,176.5046360094996 L 404,168.8294121213503 L 405,186.3250689880584 L 406,179.04328072937955 L 407,183.29296409698702 L 408,186.68769112160183 L 409,190.3588416241294 L 410,193.89174108017102 L 411,199.42215478727817 L 412,204.17501271597064 L 413,190.84670246480766 L 414,202.39907135946834 L 415,199.94656386549758 L 416,211.60277974302463 L 417,208.31188693371416 L 418,203.7545214594335 L 419,221.64229174140084 L 420,224.01012938280383 L 421,215.01453273625435 L 422,216.2895044980027 L 423,220.06833564834932 L 424,226.4547034630248 L 425,234.5112243444957 L 426,232.0275408780024 L 427,224.0654959277285 L 428,239.9251678262903 L 429,224.71070488427122 L 430,231.99545100556605 L 431,244.45636616152927 L 432,233.25640917379366 L 433,231.14640317125645 L 434,232.64924961700817 L 435,235.49972048860124 L 436,246.10897076514286 L 437,239.845004234614 L 438,239.63849022551 L 439,247.82719748971255 L 440,256.05606797666314 L 441,255.12830778505247 L 442,243.16174055390053 L 443,249.90873844468695 L 444,256.82818791280465 L 445,258.91467102047926 L 446,256.31094496366455 L 447,248.1400626127089 L 448,257.22324921568656 L 449,254.21998314922558 L 450,240.81648912794523 L 451,241.73237174362106 L 452,246.15513884100554 L 453,246.43657485762705 L 454,247.9352935127676 L 455,242.8343317802102 L 456,233.9489990542982 L 457,241.82807807552055 L 458,231.9969270203277 L 459,234.99116033653922 L 460,245.86338966415747 L 461,233.97612050795198 L 462,241.07062233678442 L 463,230.388665690441 L 464,233.7050376689562 L 465,221.26457536205106 L 466,217.43131878144516 L 467,232.14111033340325 L 468,221.8900909471088 L 469,211.20236812820264 L 470,225.42750747773152 L 471,207.89805219093446 L 472,215.9068351577948 L 473,219.31729325880866 L 474,200.9245823962762 L 475,200.7243335250292 L 476,192.84585188080203 L 477,197.32170301851872 L 478,187.88724448569513 L 479,200.81867121756008 L 480,198.5204818922987 L 481,183.9660918754938 L 482,188.8615752214565 L 483,189.29635976131593 L 484,175.23087557715434 L 485,172.6513968367635 L 486,172.97355187984797 L 487,184.90543439584872 L 488,174.4075964656998 L 489,175.02882948664796 L 490,174.518884737132 L 491,167.62984854200366 L 492,162.0615405849617 L 493,161.7989211708769 L 494,165.21784560489152 L 495,155.04936426714966 L 496,158.8373513431594 L 497,154.57736983729242 L 498,152.53872891070108 L 499,153.149743437963 L 500,153.76622171629506 L 501,158.17202929257905 L 502,146.61325041336934 L 503,156.14967703821802 L 504,159.60240231279386 L 505,158.77180725785166 L 506,153.7341772076915 L 507,141.53886444570924 L 508,154.45975589896182 L 509,150.44526709579054 L 510,152.0257154965276 L 511,148.63578726320878 L 512,142.78839252651778 L 513,151.29464813627504 L 514,159.3769379915077 L 515,161.78721606546662 L 516,153.8964422271813 L 517,155.99873304796472 L 518,147.25871902946608 L 519,161.0553127232215 L 520,149.73695425721218 L 521,153.42776419390515 L 522,155.3473235087632 L 523,156.396247222177 L 524,163.4855681332178 L 525,157.69016154777455 L 526,171.80120244885478 L 527,175.52046939155133 L 528,162.502781152804 L 529,181.40538516065794 L 530,182.52471673954398 L 531,185.31209973346 L 532,177.99324956237436 L 533,175.32181580605175 L 534,191.94530485411727 L 535,188.6920816902767 L 536,186.73574439777306 L 537,195.09036343705125 L 538,186.36641341418834 L 539,190.4821789093246 L 540,199.29781099399312 L 541,193.27632980984197 L 542,207.51134087920187 L 543,216.61964608555954 L 544,211.8529833468414 L 545,220.12076624426507 L 546,212.88105888496008 L 547,207.61525568046233 L 548,214.09162613459645 L 549,226.69592559490653 L 550,216.37839490202086 L 551,235.18639549740553 L 552,238.07313722100727 L 553,232.46585372193695 L 554,237.79590487526363 L 555,243.19288498730452 L 556,228.03972979506466 L 557,241.23225825496434 L 558,249.17215876207425 L 559,242.4075615161492 L 560,243.17805976927602 L 561,242.61054483267037 L 562,246.81035874448358 L 563,238.7238233270948 L 564,238.52044634578823 L 565,248.16946471894101 L 566,258.2326225752314 L 567,240.85553032726637 L 568,249.0275139783476 L 569,255.54789162664753 L 570,250.59041998774916 L 571,246.21890566979062 L 572,250.31726543342842 L 573,249.06901829048385 L 574,254.83891626839565 L 575,253.11978509784493 L 576,248.1597767691643 L 577,239.45383954245574 L 578,250.26607019518656 L 579,251.54434735504702 L 580,251.85595223122027 L 581,244.58992637632664 L 582,252.7957485387262 L 583,249.3594910966133 L 584,249.19708669508708 L 585,244.59258684759226 L 586,228.0922535989525 L 587,230.48692490508418 L 588,231.84868829298148 L 589,226.15186422016305 L 590,230.2468957631958 L 591,228.10750593503354 L 592,215.7070965990402 L 593,215.4456798231883 L 594,219.7849401545323 L 595,225.5131604110138 L 596,220.85607339998967 L 597,223.72371051562448 L 598,206.88901271703807 L 599,214.37544094987703 L 600,200.49333601790883 L 601,206.0643787166036 L 602,209.74008163245244 L 603,197.56830211341335 L 604,190.2784399591313 L 605,185.08485222322554 L 606,186.9037476906046 L 607,182.18720424404947 L 608,190.0259435833642 L 609,191.42800735130007 L 610,178.58854091021672 L 611,189.33897662121416 L 612,172.89763089483577 L 613,166.48375619729688 L 614,163.6498503136888 L 615,168.22132755632524 L 616,178.62145217587425 L 617,158.1437354625409 L 618,171.8758325799434 L 619,153.99076886457595 L 620,160.7298910026546 L 621,161.6125601311752 L 622,152.86678164521817 L 623,165.95882648695414 L 624,165.04935789146967 L 625,156.1394731328615 L 626,151.58617665057562 L 627,150.40565087462397 L 628,153.83869490106758 L 629,153.7289260932427 L 630,156.01494913718548 L 631,141.60811670686735 L 632,144.93407405484328 L 633,143.97578154515685 L 634,142.24629767274473 L 635,145.41091180348644 L 636,142.69284436632842 L 637,140.82287033899667 L 638,158.50759439682514 L 639,154.73105628423508 L 640,143.0798942299069 L 641,154.5295946631826 L 642,148.20839202725975 L 643,160.59415416446382 L 644,148.92578269952247 L 645,148.517876199669 L 646,149.06671250392517 L 647,157.12724617294032 L 648,163.2282247830567 L 649,164.87248358759618 L 650,170.27588205907585 L 651,163.90888854753405 L 652,161.13638768392684 L 653,171.75625170052774 L 654,163.0610083070269 L 655,170.6123571004223 L 656,172.61647243444222 L 657,184.8585658860711 L 658,181.5226804286558 L 659,191.1800736395894 L 660,178.78700966733516 L 661,194.9249431728063 L 662,193.81506956341178 L 663,197.75883811846063 L 664,206.2698026185213 L 665,189.45103915033366 L 666,198.23199545696383 L 667,197.10917745634006 L 668,209.26179756285413 L 669,207.12815259678592 L 670,214.28616406018693 L 671,219.28120845299912 L 672,220.56192254642937 L 673,218.39663734525462 L 674,219.31594785139174 L 675,219.4678463530214 L 676,234.27991511563997 L 677,227.38286361665087 L 678,238.5630180049585 L 679,232.69546805410226 L 680,229.79637734720842 L 681,243.50257729100497 L 682,243.04817051725547 L 683,238.9468306879615 L 684,242.9644444969905 L 685,239.24520641062148 L 686,236.3949797232203 L 687,240.49634138717477 L 688,251.74035245115013 L 689,254.3160380333357 L 690,254.4601886487094 L 691,244.60897302565448 L 692,241.06125660299531 L 693,258.8134040727512 L 694,252.0978573053643 L 695,258.277800357426 L 696,258.73896740831805 L 697,257.0930925265191 L 698,259.65411512527015 L 699,244.27414086045303" fill="none" stroke="red" stroke-width="2" opacity="1.0"  /><text x="100" y="120" font-family="Arial, sans-serif" font-size="20" fill="red" text-anchor="start" font-weight="normal" font-style="normal" >Unbalanced (Noise Added)</text><line x1="100" y1="450" x2="700" y2="450" stroke="#ccc" stroke-width="1" opacity="1.0"  /><path d="M 100,450.0 L 101,447.50104153646606 L 102,445.0083291676586 L 103,442.52809337632004 L 104,440.06653346024694 L 105,437.62980203727386 L 106,435.223989666933 L 107,432.8551096272274 L 108,430.52908288456746 L 109,428.2517232944385 L 110,426.02872306978986 L 111,423.865638553467 L 112,421.7678763302482 L 113,419.740679713198 L 114,417.78911563811545 L 115,415.9180619988333 L 116,414.13219545502386 L 117,412.43597974298535 L 118,410.83365451862585 L 119,409.3292247605313 L 120,407.9264507596052 L 121,406.62883872029914 L 122,405.43963199692826 L 123,404.36180298697394 L 124,403.3980457016387 L 125,402.55076903222067 L 126,401.82209072914037 L 127,401.213832108667 L 128,400.727513500577 L 129,400.3643504481206 L 130,400.12525066979725 L 131,400.01081179053216 L 132,400.02131984792476 L 133,400.15674857730403 L 134,400.41675947737656 L 135,400.80070265630314 L 136,401.30761845609027 L 137,401.93623985123503 L 138,402.6849956156293 L 139,403.5520142498065 L 140,404.5351286587159 L 141,405.6318815683312 L 142,406.83953166755634 L 143,408.1550604600751 L 144,409.5751798090205 L 145,411.0963401556039 L 146,412.714739391164 L 147,414.42633236045776 L 148,416.22684097244246 L 149,418.1117648932748 L 150,420.0763927948022 L 151,422.11581413042916 L 152,424.2249314089268 L 153,426.3984729355059 L 154,428.6310059883085 L 155,430.9169503973834 L 156,433.25059249220476 L 157,435.6260993828728 L 158,438.0375335393009 L 159,440.4788676319487 L 160,442.94399959700667 L 161,445.42676788837815 L 162,447.9209668783355 L 163,450.4203623683575 L 164,452.918707171379 L 165,455.4097567265054 L 166,457.88728470716245 L 167,460.34509858367 L 168,462.7770551013416 L 169,465.1770756354215 L 170,467.53916138448096 L 171,469.857408364298 L 172,472.1260221647426 L 173,474.339332432785 L 174,476.49180704542465 L 175,478.5780659371172 L 176,480.592894547136 L 177,482.53125685325836 L 178,484.3883079591987 L 179,486.1594062043256 L 180,487.8401247653964 L 181,489.42626272130974 L 182,490.9138555532205 L 183,492.2991850537723 L 184,493.5787886206794 L 185,494.7494679114292 L 186,495.80829683747277 L 187,496.75262887792246 L 188,497.58010369447584 L 189,498.2886530310319 L 190,498.8765058832548 L 191,499.34219292516184 L 192,499.6845501816732 L 193,499.90272193794397 L 194,499.99616287820504 L 195,499.9646394487689 L 196,499.80823044179203 L 197,499.52732679833565 L 198,499.1226306312166 L 199,498.595153470091 L 200,497.9462137331569 L 201,497.1774334317953 L 202,496.2907341163866 L 203,495.28833207343524 L 204,494.17273278600766 L 205,492.9467246713296 L 206,491.613372111195 L 207,490.1760077926078 L 208,488.63822437779936 L 209,487.00386552444473 L 210,485.27701627851957 L 211,483.46199286381307 L 212,481.56333189361607 L 213,479.5857790315505 L 214,477.5342771298819 L 215,475.41395387496294 L 216,473.2301089706878 L 217,470.98820089199296 L 218,468.6938332415118 L 219,466.35274074348706 L 220,463.9707749099463 L 221,461.55388941496955 L 222,459.10812521360475 L 223,456.6395954426258 L 224,454.1544701408748 L 225,451.6589608273778 L 226,449.15930497578245 L 227,446.6617504239222 L 228,444.1725397574753 L 229,441.69789470675215 L 230,439.24400059560924 L 231,436.81699088136105 L 232,434.42293182433104 L 233,432.06780732536 L 234,429.7575039691701 L 235,427.49779631096914 L 236,425.29433244306955 L 237,423.1526198775994 L 238,421.07801178059 L 239,419.0756935918488 L 240,417.15067006406053 L 241,415.3077527535118 L 242,413.55154799370615 L 243,411.88644538192943 L 244,410.31660680754237 L 245,408.84595604942473 L 246,407.47816896857177 L 247,406.21666432035585 L 248,405.06459520941866 L 249,404.0248412085515 L 250,403.10000116126304 L 251,402.29238668602426 L 252,401.60401639842564 L 253,401.03661086569 L 254,400.59158830614996 L 255,400.2700610444412 L 256,400.0728327312697 L 257,400.0003963347041 L 258,400.05293290801137 L 259,400.230311137119 L 260,400.5320876688309 L 261,400.95750821898 L 262,401.5055094577457 L 263,402.17472166742454 L 264,402.96347216601134 L 265,403.869789488033 L 266,404.8914083121853 L 267,406.02577512345675 L 268,407.270054595586 L 269,408.62113667790084 L 270,410.07564436882546 L 271,411.62994215662565 L 272,413.2801451062943 L 273,415.0221285698666 L 274,416.8515384958909 L 275,418.7638023122904 L 276,420.7541403554119 L 277,422.8175778166956 L 278,424.94895717710574 L 279,427.1429510982423 L 280,429.39407573791215 L 281,431.69670445687944 L 282,434.0450818825324 L 283,436.4333382943184 L 284,438.8555042949877 L 285,441.30552573097833 L 286,443.77727882464694 L 287,446.26458548052324 L 288,448.76122872733214 L 289,451.26096825718304 L 290,453.75755602309044 L 291,456.2447518558376 L 292,458.7163390611491 L 293,461.1661399581892 L 294,463.5880313205472 L 295,465.9759596811137 L 296,468.3239564625964 L 297,470.6261528958547 L 298,472.87679468876604 L 299,475.07025640895995 L 300,477.2010555444685 L 301,479.2638662071518 L 302,481.2535324446442 L 303,483.1650811275499 L 304,484.99373437967716 L 305,486.73492152023977 L 306,488.38429048817915 L 307,489.93771872005004 L 308,491.39132345428266 L 309,492.7414714360642 L 310,493.9847879985835 L 311,495.11816549794116 L 312,496.13877108064037 L 313,497.0440537642454 L 314,497.8317508135094 L 315,498.49989339603394 L 316,499.0468115033246 L 317,499.47113812494257 L 318,499.77181266531886 L 319,499.94808359469084 L 320,499.9995103275352 L 321,499.92596432380225 L 322,499.7276294101995 L 323,499.4050013207199 L 324,498.9588864575658 L 325,498.39039987556305 L 326,497.7009624951045 L 327,496.8922975505891 L 328,495.9664262832338 L 329,494.9256628890224 L 330,493.7726087344214 L 331,492.5101458543183 L 332,491.14142974843537 L 333,489.66988149422383 L 334,488.0991791959516 L 335,486.4332487913585 L 336,484.67625423885613 L 337,482.83258710980067 L 338,480.90685561185165 L 339,478.90387307085217 L 340,476.82864590002174 L 341,474.68636108652987 L 342,472.48237322673 L 343,470.222191142457 L 344,467.9114641118413 L 345,465.5559677490564 L 346,463.16158956829 L 347,460.73431426802637 L 348,458.28020877241545 L 349,455.8054070671228 L 350,453.31609486756 L 351,450.81849415781704 L 352,448.31884763894305 L 353,445.8234031254446 L 354,443.3383979290028 L 355,440.8700432684433 L 356,438.42450874492306 L 357,436.00790692114117 L 358,433.62627804311535 L 359,431.28557494271206 L 360,428.99164815866794 L 361,426.75023131328896 L 362,424.56692678138126 L 363,422.4471916872317 L 364,420.3963242646388 L 365,418.4194506140881 L 366,416.5215118901699 L 367,414.7072519512667 L 368,412.9812055023776 L 369,411.34768676071695 L 370,409.81077867241896 L 371,408.374322707298 L 372,407.0419092571752 L 373,405.81686866176824 L 374,404.70226288457684 L 375,403.70087785956866 L 376,402.81521652779475 L 377,402.0474925813412 L 378,401.3996249302512 L 379,400.8732329062495 L 380,400.46963221525647 L 381,400.1898316488084 L 382,400.0345305626041 L 383,400.00411712847983 L 384,400.0986673641819 L 385,400.31794494336185 L 386,400.6614017862693 L 387,401.12817942966586 L 388,401.71711117253614 L 389,402.4267249922326 L 390,403.2552472237659 L 391,404.20060699304304 L 392,405.2604413929748 L 393,406.43210138951247 L 394,407.71265844285335 L 395,409.0989118272653 L 396,410.5873966312342 L 397,412.17439241793795 L 398,413.85593252440117 L 399,415.62781397608705 L 400,417.48560799214414 L 401,419.42467105505295 L 402,421.4401565170006 L 403,423.5270267139768 L 404,425.6800655573101 L 405,427.893891571173 L 406,430.1629713434694 L 407,432.4816333564823 L 408,434.84408216271487 L 409,437.2444128704914 L 410,439.67662590311016 L 411,442.134641994662 L 412,444.6123173850279 L 413,447.10345917608026 L 414,449.6018408107032 L 415,452.101217635942 L 416,454.5953425113841 L 417,457.0779814237558 L 418,459.54292906870944 L 419,461.98402436085286 L 420,464.39516583325326 L 421,466.7703268879281 L 422,469.10357085920043 L 423,471.3890658522722 L 424,473.6210993199233 L 425,475.7940923409055 L 426,477.902613564339 L 427,479.9413927852619 L 428,481.9053341173975 L 429,483.7895287302164 L 430,485.5892671184562 L 431,487.3000508734318 L 432,488.91760392671495 L 433,490.4378832380775 L 434,491.8570889009873 L 435,493.1716736403953 L 436,494.37835167907525 L 437,495.47410695035626 L 438,496.4562006367185 L 439,497.32217801541043 L 440,498.06987459397783 L 441,498.697421520367 L 442,499.20325025408215 L 443,499.5860964867195 L 444,499.8450033020798 L 445,499.9793235679609 L 446,499.9887215536506 L 447,499.873173769079 L 448,499.63296902353164 L 449,499.268707703776 L 450,498.78130027340785 L 451,498.1719649971663 L 452,497.4422248959062 L 453,496.59390393983944 L 454,495.6291224895592 L 455,494.55029199624266 L 456,493.36010897427906 L 457,492.061548261388 L 458,490.6578555830743 L 459,489.15253944000494 L 460,487.5493623385838 L 461,485.8523313866461 L 462,484.065688277775 L 463,482.193898689277 L 464,480.2416411203142 L 465,478.2137951980928 L 466,476.1154294813366 L 467,473.9517887915298 L 468,471.72828110359467 L 469,469.4504640287708 L 470,467.12403092348063 L 471,464.7547966589047 L 472,462.34868308683104 L 473,459.91170423811013 L 474,457.4499512907099 L 475,454.9695773449424 L 476,452.4767820439184 L 477,449.9777960776677 L 478,447.47886560965924 L 479,444.98623666464545 L 480,442.5061395168524 L 481,440.0447731175401 L 482,437.608289600852 L 483,435.20277890668376 L 484,432.83425355900505 L 485,430.5086336376811 L 486,428.2317319813553 L 487,426.0092396583814 L 488,423.846711742115 L 489,421.7495534261242 L 490,419.72300651401997 L 491,417.77213631767717 L 492,415.9018189965932 L 493,414.11672937002845 L 494,412.42132923239245 L 495,410.81985620108225 L 496,409.31631312464475 L 497,407.9144580777411 L 498,406.61779496791655 L 499,405.4295647776566 L 500,404.3527374636186 L 501,403.39000453328674 L 502,402.54377231760526 L 503,401.81615595640415 L 504,401.2089741116512 L 505,400.723744421744 L 506,400.36167970820463 L 507,400.12368494425726 L 508,400.01035499286655 L 509,400.02197311988976 L 510,400.15851028606005 L 511,400.41962521956907 L 512,400.8046652690692 L 513,401.3126680349616 L 514,401.9423637748942 L 515,402.69217857745645 L 516,403.560238296138 L 517,404.54437323371883 L 518,405.6421235653825 L 519,406.8507454869973 L 520,408.1672180731972 L 521,409.5882508281225 L 522,411.1102919099454 L 523,412.7295370086249 L 524,414.441938854701 L 525,416.24321733535993 L 526,418.1288701924881 L 527,420.09418427597143 L 528,422.1342473241171 L 529,424.243960241749 L 530,426.41804984529017 L 531,428.6510820429761 L 532,430.937475417253 L 533,433.27151517541586 L 534,435.64736743361374 L 535,438.05909379852085 L 536,440.50066621022813 L 537,442.9659820092524 L 538,445.4488791900078 L 539,447.94315180261026 L 540,450.4425654645202 L 541,452.94087294325266 L 542,455.431829771204 L 543,457.90920985356956 L 544,460.3668210303381 L 545,462.79852055346663 L 546,465.1982304405524 L 547,467.55995266662205 L 548,469.8777841560718 L 549,472.14593153728123 L 550,474.35872562302546 L 551,476.5106355804914 L 552,478.59628275547817 L 553,480.61045411623246 L 554,482.5481152833125 L 555,484.40442311291486 L 556,486.17473780221223 L 557,487.8546344864434 L 558,489.43991429877093 L 559,490.92661486526185 L 560,492.3110202087585 L 561,493.5896700368868 L 562,494.7593683909841 L 563,495.8171916343324 L 564,496.760495759727 L 565,497.5869229981177 L 566,498.2944077118035 L 567,498.8811815574512 L 568,499.3457779060325 L 569,499.687035508633 L 570,499.90410139896983 L 571,499.9964330253628 L 572,499.9637996068314 L 573,499.8062827099267 L 574,499.5242760448578 L 575,499.11848448142115 L 576,498.5899222871932 L 577,497.93991059238954 L 578,497.1700740877277 L 579,496.2823369635463 L 580,495.2789181003312 L 581,494.1623255226699 L 582,492.9353501304965 L 583,491.6010587232949 L 584,490.1627863346976 L 585,488.6241278966385 L 586,486.98892925389464 L 587,485.26127755147803 L 588,483.44549101890107 L 589,481.5461081768519 L 590,479.5678764932562 L 591,477.5157405170797 L 592,475.39482951953113 L 593,473.21044467355523 L 594,470.9680458036614 L 595,468.6732377392057 L 596,466.3317563052361 L 597,463.94945398591767 L 598,461.5322852963696 L 599,459.08629189947874 L 600,456.61758750488866 L 601,454.13234258790914 L 602,451.63676896654226 L 603,449.13710427517185 L 604,446.6395963737261 L 605,444.15048773128177 L 606,441.67599982314204 L 607,439.22231758038896 L 608,436.79557393077636 L 609,434.4018344696047 L 610,432.0470822988916 L 611,429.7372030727323 L 612,427.4779702862305 L 613,425.2750308447669 L 614,423.13389094967624 L 615,421.0599023356125 L 616,419.05824889399804 L 617,417.13393371599614 L 618,415.29176658738777 L 619,413.5363519666124 L 620,411.87207747601985 L 621,410.30310293509893 L 622,408.83334996309594 L 623,407.46649217700826 L 624,406.20594600945543 L 625,405.05486216937663 L 626,404.016117766899 L 627,403.09230912206124 L 628,402.2857452753651 L 629,401.59844221637707 L 630,401.03211784480413 L 631,400.5881876766391 L 632,400.26776130610807 L 633,400.0716396322626 L 634,400.00031285714897 L 635,400.05395926055877 L 636,400.23244475442203 L 637,400.5353232179575 L 638,400.9618376127424 L 639,401.5109218749142 L 640,402.18120357977483 L 641,402.9710073721384 L 642,403.87835915384574 L 643,404.90099101798216 L 644,406.03634691746385 L 645,407.2815890538239 L 646,408.6336049702311 L 647,410.0890153310106 L 648,411.6441823682236 L 649,413.2952189741924 L 650,415.0379984172451 L 651,416.8681646563964 L 652,418.78114322918043 L 653,420.77215268542517 L 654,422.83621653838776 L 655,424.96817570337925 L 656,427.1627013927904 L 657,429.4143084352843 L 658,431.7173689858691 L 659,434.06612659257905 L 660,436.4547105846066 L 661,438.87715074592234 L 662,441.3273922377054 L 663,443.7993107322874 L 664,446.2867277207821 L 665,448.78342595613987 L 666,451.283164993028 L 667,453.7796967856929 L 668,456.2667813048216 L 669,458.73820213436494 L 670,461.1877820093398 L 671,463.6093982557758 L 672,465.9969980942099 L 673,468.34461376848407 L 674,470.64637746202715 L 675,472.89653596434056 L 676,475.0894650510287 L 677,477.2196835414301 L 678,479.28186699871503 L 679,481.2708610382047 L 680,483.1816942106484 L 681,485.00959042825787 L 682,486.7499809024389 L 683,488.3985155633839 L 684,489.9510739329808 L 685,491.4037754238622 L 686,492.7529890388535 L 687,493.99534244657394 L 688,495.12773041050934 L 689,496.14732255048614 L 690,497.0515704171477 L 691,497.83821386175055 L 692,498.50528668535924 L 693,499.05112155331955 L 694,499.4743541627268 L 695,499.77392665247277 L 696,499.9490902473475 L 697,499.99940712958715 L 698,499.9247515331907 L 699,499.7253100582693" fill="none" stroke="blue" stroke-width="2" opacity="1.0"  /><text x="100" y="370" font-family="Arial, sans-serif" font-size="20" fill="blue" text-anchor="start" font-weight="normal" font-style="normal" >Balanced (Noise Rejected)</text><text x="400" y="50" font-family="Arial, sans-serif" font-size="24" fill="black" text-anchor="middle" font-weight="bold" font-style="normal" >Signal Quality Comparison</text></svg>