<svg xmlns="http://www.w3.org/2000/svg" viewBox="0 0 800 600"><rect x="0" y="0" width="800" height="600" fill="#f8f9fa" /><text x="400.0" y="40.0" font-family="Arial, sans-serif" font-size="24" fill="black" text-anchor="middle" font-weight="bold" >Parametric EQ (Bell)</text><line x1="60" y1="540" x2="740" y2="540" stroke="#333" stroke-width="2" opacity="1"  /><line x1="60" y1="540" x2="60" y2="60" stroke="#333" stroke-width="2" opacity="1"  /><text x="400.0" y="580" font-family="Arial, sans-serif" font-size="16" fill="black" text-anchor="middle" font-weight="normal" >Frequency (Hz)</text><text x="20" y="300.0" font-family="Arial, sans-serif" font-size="16" fill="black" text-anchor="middle" font-weight="normal" transform="rotate(-90, 20, 300.0)">Gain (dB)</text><line x1="60" y1="300.0" x2="740" y2="300.0" stroke="#ccc" stroke-width="1" opacity="1"  /><path d="M 60.0 299.98222898821155 L 66.8 299.97461981938835 L 73.6 299.96401261074703 L 80.4 299.9493383821985 L 87.2 299.92919224146254 L 94.0 299.90174476040306 L 100.8 299.864635846726 L 107.6 299.81484957948715 L 114.4 299.7485690048936 L 121.19999999999999 299.6610106881023 L 128.0 299.546239929824 L 134.8 299.39696901595994 L 141.6 299.20434268961225 L 148.4 298.957717208426 L 155.2 298.644441834763 L 162.0 298.24965432049225 L 168.8 297.7561047656158 L 175.60000000000002 297.144024975329 L 182.39999999999998 296.39106289019156 L 189.2 295.47230355294363 L 196.0 294.36039910574584 L 202.79999999999998 293.0258301718088 L 209.6 291.43731936370034 L 216.4 289.56241431404595 L 223.2 287.3682523517099 L 230.0 284.8225116630915 L 236.8 281.8945445384024 L 243.60000000000002 278.55667732783473 L 250.4 274.7856494279837 L 257.2 270.56415057913 L 264.0 265.8824027497745 L 270.8 260.73972083183855 L 277.6 255.14597627797338 L 284.4 249.1228807163614 L 291.20000000000005 242.7050034550265 L 298.0 235.9404384638965 L 304.79999999999995 228.89104348319816 L 311.6 221.63218660917013 L 318.4 214.25195391754517 L 325.2 206.8497948342533 L 332.0 199.5346090457715 L 338.8 192.42230834824383 L 345.59999999999997 185.6329172232173 L 352.4 179.28730513571037 L 359.2 173.5036695336099 L 366.0 168.39390932094315 L 372.8 164.06004245983166 L 379.59999999999997 160.59082700401495 L 386.4 158.0587414863682 L 393.2 156.51746799873695 L 400.0 156.0 L 406.8 156.51746799873695 L 413.6 158.0587414863682 L 420.40000000000003 160.59082700401495 L 427.20000000000005 164.0600424598317 L 434.00000000000006 168.39390932094315 L 440.8 173.50366953360992 L 447.59999999999997 179.28730513571037 L 454.4 185.63291722321725 L 461.2 192.4223083482438 L 468.0 199.5346090457715 L 474.8 206.8497948342533 L 481.6 214.25195391754517 L 488.4 221.63218660917013 L 495.2 228.89104348319816 L 502.0 235.9404384638965 L 508.8 242.70500345502654 L 515.6 249.1228807163614 L 522.4000000000001 255.1459762779734 L 529.2 260.7397208318385 L 536.0 265.8824027497744 L 542.8 270.56415057912994 L 549.5999999999999 274.7856494279837 L 556.4 278.55667732783473 L 563.2 281.8945445384024 L 570.0 284.8225116630915 L 576.8 287.3682523517099 L 583.6 289.56241431404595 L 590.4 291.43731936370034 L 597.2 293.0258301718088 L 604.0 294.36039910574584 L 610.8000000000001 295.4723035529437 L 617.6 296.39106289019156 L 624.4 297.144024975329 L 631.1999999999999 297.7561047656158 L 638.0 298.24965432049225 L 644.8 298.644441834763 L 651.6 298.957717208426 L 658.4 299.20434268961225 L 665.2 299.39696901595994 L 672.0 299.546239929824 L 678.8000000000001 299.6610106881023 L 685.6 299.7485690048936 L 692.4 299.81484957948715 L 699.1999999999999 299.864635846726 L 706.0 299.90174476040306 L 712.8 299.92919224146254 L 719.6 299.9493383821985 L 726.4 299.96401261074703 L 733.2 299.97461981938835 L 740.0 299.98222898821155" fill="none" stroke="#10b981" stroke-width="4" opacity="1" /></svg>