<svg xmlns="http://www.w3.org/2000/svg" viewBox="0 0 800 600"><rect x="0" y="0" width="800" height="600" fill="#f8f9fa" /><circle cx="400" cy="200" r="80" fill="#e0f7fa" stroke="#00bcd4" stroke-width="2" opacity="1.0" /><circle cx="340" cy="220" r="60" fill="#e0f7fa" stroke="#00bcd4" stroke-width="2" opacity="1.0" /><circle cx="460" cy="220" r="60" fill="#e0f7fa" stroke="#00bcd4" stroke-width="2" opacity="1.0" /><text x="400" y="220" font-family="Arial, sans-serif" font-size="20" fill="#006064" text-anchor="middle" font-weight="normal" >Cloud</text><rect x="200" y="400" width="80" height="50" rx="5" fill="red" stroke="none" stroke-width="0" opacity="1.0"  /><text x="240" y="430" font-family="Arial, sans-serif" font-size="20" fill="white" text-anchor="middle" font-weight="bold" >Drums</text><line x1="240" y1="400" x2="400" y2="280" stroke="red" stroke-width="2" opacity="1.0" stroke-dasharray="5,5" /><rect x="330" y="400" width="80" height="50" rx="5" fill="orange" stroke="none" stroke-width="0" opacity="1.0"  /><text x="370" y="430" font-family="Arial, sans-serif" font-size="20" fill="white" text-anchor="middle" font-weight="bold" >Bass</text><line x1="370" y1="400" x2="400" y2="280" stroke="orange" stroke-width="2" opacity="1.0" stroke-dasharray="5,5" /><rect x="460" y="400" width="80" height="50" rx="5" fill="green" stroke="none" stroke-width="0" opacity="1.0"  /><text x="500" y="430" font-family="Arial, sans-serif" font-size="20" fill="white" text-anchor="middle" font-weight="bold" >Keys</text><line x1="500" y1="400" x2="400" y2="280" stroke="green" stroke-width="2" opacity="1.0" stroke-dasharray="5,5" /><rect x="590" y="400" width="80" height="50" rx="5" fill="blue" stroke="none" stroke-width="0" opacity="1.0"  /><text x="630" y="430" font-family="Arial, sans-serif" font-size="20" fill="white" text-anchor="middle" font-weight="bold" >Vocals</text><line x1="630" y1="400" x2="400" y2="280" stroke="blue" stroke-width="2" opacity="1.0" stroke-dasharray="5,5" /><text x="400" y="50" font-family="Arial, sans-serif" font-size="24" fill="black" text-anchor="middle" font-weight="bold" >Cloud Collaboration (Stems)</text></svg>