<svg xmlns="http://www.w3.org/2000/svg" viewBox="0 0 800 600"><rect x="0" y="0" width="800" height="600" fill="#f8f9fa" /><rect x="100" y="252" width="25" height="48" rx="0" fill="#aaa" stroke="none" stroke-width="0" opacity="1.0" /><rect x="130" y="242" width="25" height="58" rx="0" fill="#aaa" stroke="none" stroke-width="0" opacity="1.0" /><rect x="160" y="282" width="25" height="18" rx="0" fill="#aaa" stroke="none" stroke-width="0" opacity="1.0" /><rect x="190" y="232" width="25" height="68" rx="0" fill="#aaa" stroke="none" stroke-width="0" opacity="1.0" /><rect x="220" y="283" width="25" height="17" rx="0" fill="#aaa" stroke="none" stroke-width="0" opacity="1.0" /><rect x="250" y="225" width="25" height="75" rx="0" fill="#aaa" stroke="none" stroke-width="0" opacity="1.0" /><rect x="280" y="267" width="25" height="33" rx="0" fill="#aaa" stroke="none" stroke-width="0" opacity="1.0" /><rect x="310" y="232" width="25" height="68" rx="0" fill="#aaa" stroke="none" stroke-width="0" opacity="1.0" /><rect x="340" y="259" width="25" height="41" rx="0" fill="#aaa" stroke="none" stroke-width="0" opacity="1.0" /><rect x="370" y="242" width="25" height="58" rx="0" fill="#aaa" stroke="none" stroke-width="0" opacity="1.0" /><rect x="400" y="290" width="25" height="10" rx="0" fill="#aaa" stroke="none" stroke-width="0" opacity="1.0" /><rect x="430" y="207" width="25" height="93" rx="0" fill="#aaa" stroke="none" stroke-width="0" opacity="1.0" /><rect x="460" y="223" width="25" height="77" rx="0" fill="#aaa" stroke="none" stroke-width="0" opacity="1.0" /><rect x="490" y="270" width="25" height="30" rx="0" fill="#aaa" stroke="none" stroke-width="0" opacity="1.0" /><rect x="520" y="224" width="25" height="76" rx="0" fill="#aaa" stroke="none" stroke-width="0" opacity="1.0" /><rect x="550" y="268" width="25" height="32" rx="0" fill="#aaa" stroke="none" stroke-width="0" opacity="1.0" /><rect x="580" y="258" width="25" height="42" rx="0" fill="#aaa" stroke="none" stroke-width="0" opacity="1.0" /><rect x="610" y="237" width="25" height="63" rx="0" fill="#aaa" stroke="none" stroke-width="0" opacity="1.0" /><rect x="640" y="229" width="25" height="71" rx="0" fill="#aaa" stroke="none" stroke-width="0" opacity="1.0" /><rect x="670" y="209" width="25" height="91" rx="0" fill="#aaa" stroke="none" stroke-width="0" opacity="1.0" /><line x1="100" y1="350" x2="200" y2="450" stroke="blue" stroke-width="2" opacity="1.0"  /><line x1="300" y1="450" x2="400" y2="350" stroke="red" stroke-width="2" opacity="1.0" stroke-dasharray="5,5" /><line x1="320" y1="460" x2="420" y2="360" stroke="red" stroke-width="2" opacity="1.0" stroke-dasharray="5,5" /><text x="400" y="50" font-family="Arial, sans-serif" font-size="24" fill="black" text-anchor="middle" font-weight="bold" >Diffusion Scattering</text></svg>