<svg xmlns="http://www.w3.org/2000/svg" viewBox="0 0 800 600"><rect x="0" y="0" width="800" height="600" fill="#f8fafc" /><text x="400" y="50" font-family="Inter, system-ui, sans-serif" font-size="24" fill="#1e293b" text-anchor="middle" font-weight="bold" >Dither vs Truncation</text><text x="200" y="180" font-family="Inter, system-ui, sans-serif" font-size="20" fill="#1e293b" text-anchor="middle" font-weight="bold" >Truncation (Distortion)</text><path d="M 100,200 L 101,200 L 102,200 L 103,200 L 104,200 L 105,200 L 106,200 L 107,200 L 108,210 L 109,210 L 110,210 L 111,210 L 112,210 L 113,210 L 114,210 L 115,210 L 116,220 L 117,220 L 118,220 L 119,220 L 120,220 L 121,220 L 122,220 L 123,220 L 124,220 L 125,220 L 126,230 L 127,230 L 128,230 L 129,230 L 130,230 L 131,230 L 132,230 L 133,230 L 134,230 L 135,230 L 136,230 L 137,230 L 138,230 L 139,230 L 140,230 L 141,230 L 142,230 L 143,230 L 144,230 L 145,230 L 146,230 L 147,230 L 148,230 L 149,230 L 150,230 L 151,230 L 152,230 L 153,230 L 154,230 L 155,230 L 156,230 L 157,230 L 158,230 L 159,230 L 160,230 L 161,230 L 162,230 L 163,230 L 164,230 L 165,230 L 166,230 L 167,230 L 168,230 L 169,220 L 170,220 L 171,220 L 172,220 L 173,220 L 174,220 L 175,220 L 176,220 L 177,220 L 178,220 L 179,210 L 180,210 L 181,210 L 182,210 L 183,210 L 184,210 L 185,210 L 186,210 L 187,200 L 188,200 L 189,200 L 190,200 L 191,200 L 192,200 L 193,200 L 194,200 L 195,200 L 196,200 L 197,200 L 198,200 L 199,200 L 200,200 L 201,200 L 202,190 L 203,190 L 204,190 L 205,190 L 206,190 L 207,190 L 208,190 L 209,190 L 210,180 L 211,180 L 212,180 L 213,180 L 214,180 L 215,180 L 216,180 L 217,180 L 218,180 L 219,180 L 220,170 L 221,170 L 222,170 L 223,170 L 224,170 L 225,170 L 226,170 L 227,170 L 228,170 L 229,170 L 230,170 L 231,170 L 232,170 L 233,170 L 234,170 L 235,170 L 236,170 L 237,170 L 238,170 L 239,170 L 240,170 L 241,170 L 242,170 L 243,170 L 244,170 L 245,170 L 246,170 L 247,170 L 248,170 L 249,170 L 250,170 L 251,170 L 252,170 L 253,170 L 254,170 L 255,170 L 256,170 L 257,170 L 258,170 L 259,170 L 260,170 L 261,170 L 262,170 L 263,170 L 264,180 L 265,180 L 266,180 L 267,180 L 268,180 L 269,180 L 270,180 L 271,180 L 272,180 L 273,190 L 274,190 L 275,190 L 276,190 L 277,190 L 278,190 L 279,190 L 280,190 L 281,200 L 282,200 L 283,200 L 284,200 L 285,200 L 286,200 L 287,200 L 288,200 L 289,200 L 290,200 L 291,200 L 292,200 L 293,200 L 294,200 L 295,200 L 296,200 L 297,210 L 298,210 L 299,210" fill="none" stroke="#ef4444" stroke-width="2" opacity="1.0"  /><line x1="100" y1="200" x2="300" y2="200" stroke="#ccc" stroke-width="2" opacity="1.0"  /><text x="600" y="180" font-family="Inter, system-ui, sans-serif" font-size="20" fill="#1e293b" text-anchor="middle" font-weight="bold" >Dithered (Noise)</text><path d="M 500,199.38505729864218 L 501,204.11927953536048 L 502,201.46924839717073 L 503,203.0162326073366 L 504,204.1121235052447 L 505,203.40271517833108 L 506,211.3474218288169 L 507,209.44981845252062 L 508,213.3271643521622 L 509,209.4235377084443 L 510,210.60193724140805 L 511,211.2880013893049 L 512,217.12671611203535 L 513,213.3137801982177 L 514,217.54019496906878 L 515,218.93189296146895 L 516,219.48645568592687 L 517,222.46963445339543 L 518,218.20571730224256 L 519,227.99417463085683 L 520,229.1964827490125 L 521,228.1120355422643 L 522,222.30603757718262 L 523,229.15387192475455 L 524,232.8338041532199 L 525,233.02625170360187 L 526,235.36380308451984 L 527,233.48816324872428 L 528,232.102904513097 L 529,230.08297510270216 L 530,229.8607527651909 L 531,233.17361719831962 L 532,239.18319719812496 L 533,232.92055387233768 L 534,240.84221113429402 L 535,239.4380417335969 L 536,233.82344381060423 L 537,240.571094934649 L 538,237.33309177245974 L 539,240.04344632893572 L 540,238.2065819368098 L 541,241.44431267781732 L 542,239.0668184982014 L 543,237.16420155935583 L 544,243.67161607217335 L 545,237.00775528792832 L 546,244.85636758451344 L 547,241.11173940005588 L 548,239.47566533805386 L 549,238.54622899125172 L 550,236.5392629263713 L 551,241.6949384101377 L 552,234.5931012257816 L 553,234.55641436054077 L 554,241.68391452844233 L 555,240.66166291119444 L 556,243.18447427535332 L 557,242.3415696894306 L 558,235.48344959901112 L 559,236.12830927787107 L 560,231.97240726987368 L 561,238.05950789073648 L 562,232.2132577566448 L 563,239.48286473466953 L 564,232.29081395031844 L 565,228.8010974555461 L 566,235.5352743060763 L 567,233.34089978457416 L 568,229.32796276365852 L 569,233.8596417748365 L 570,225.81709174169595 L 571,223.24061152399094 L 572,222.5000891812869 L 573,222.82002697737835 L 574,228.99579609846842 L 575,226.6456372014001 L 576,221.3418072331197 L 577,223.68097148598042 L 578,217.39375621249795 L 579,224.28511485881924 L 580,218.8059019452781 L 581,222.01141611639565 L 582,218.18026385898958 L 583,210.36208837361238 L 584,216.00325511734042 L 585,207.22743539321493 L 586,211.18029309718375 L 587,207.70643298407637 L 588,203.64648245949283 L 589,202.54457571077967 L 590,210.43504411892272 L 591,206.0510365452377 L 592,204.2050877311202 L 593,201.88478002763912 L 594,198.09667008971667 L 595,197.300085991169 L 596,201.76079305968696 L 597,198.39068848866293 L 598,193.22192630891038 L 599,197.65696373516607 L 600,189.132635735453 L 601,188.9464936526725 L 602,194.33618408003068 L 603,187.55111514496446 L 604,184.78901556827375 L 605,183.7864336293074 L 606,180.4065413221745 L 607,182.25927227592445 L 608,181.96409820764137 L 609,180.9630029590801 L 610,182.29865508655698 L 611,177.28119734045856 L 612,181.2846775850487 L 613,174.95327233735281 L 614,176.9751371285563 L 615,175.40649451826664 L 616,172.4204279629246 L 617,172.6936924399325 L 618,174.742874735222 L 619,174.11202567805583 L 620,167.20739550815034 L 621,170.79604600144216 L 622,166.67033771091954 L 623,171.66797437540362 L 624,170.6406189812299 L 625,166.69979912866327 L 626,165.9575423480895 L 627,164.33331335485354 L 628,167.05903555572752 L 629,160.34986644806452 L 630,161.63999950972283 L 631,162.09014345886266 L 632,165.09513696510118 L 633,164.68690444678555 L 634,164.40882416067606 L 635,157.4404627531448 L 636,159.34681524989216 L 637,156.7171866120076 L 638,158.49265923456497 L 639,162.35490867265656 L 640,157.9624636783563 L 641,159.75342323570916 L 642,160.23521029859288 L 643,160.71108464881547 L 644,156.29861229053213 L 645,163.86696799258095 L 646,156.7453404266374 L 647,165.4250940518486 L 648,164.31905058306336 L 649,157.29567412228855 L 650,162.20036812021306 L 651,157.31189540985076 L 652,165.60352013830533 L 653,158.4621620571593 L 654,165.9379647166682 L 655,164.73921557230773 L 656,160.20675414290187 L 657,169.76384566678297 L 658,162.1727068075017 L 659,165.6789046593746 L 660,164.5193189434928 L 661,166.43025034216407 L 662,169.63507171309445 L 663,166.74983915583738 L 664,172.36882524613077 L 665,170.4084361158716 L 666,173.10522783308306 L 667,171.33671862810067 L 668,172.1186450446167 L 669,174.5471840445187 L 670,177.98326652460565 L 671,176.47033815738757 L 672,177.9939248189629 L 673,178.3415355916468 L 674,180.22628235876795 L 675,179.8439205343346 L 676,187.61318846071148 L 677,187.58725346800725 L 678,184.1711490772881 L 679,188.50873071827573 L 680,184.65042781062428 L 681,192.04239287638353 L 682,187.07096865316848 L 683,196.97505574611512 L 684,191.8450655120223 L 685,192.4380243184555 L 686,193.4049623621443 L 687,195.0890005257835 L 688,204.05216786093206 L 689,201.40647240605995 L 690,198.5842293202743 L 691,205.8223303330717 L 692,205.58784749073587 L 693,205.9155302017856 L 694,205.90092065883383 L 695,208.0470792220164 L 696,206.11123918637313 L 697,214.89605757502957 L 698,216.6786227155363 L 699,215.1217517069368" fill="none" stroke="green" stroke-width="2" opacity="1.0"  /></svg>