<svg xmlns="http://www.w3.org/2000/svg" viewBox="0 0 800 600"><rect x="0" y="0" width="800" height="600" fill="#f8f9fa" /><line x1="100" y1="500" x2="700" y2="500" stroke="#333" stroke-width="1" opacity="1.0"  /><text x="400.0" y="540" font-family="Arial, sans-serif" font-size="20" fill="black" text-anchor="middle" font-weight="normal" >Frequency</text><line x1="100" y1="500" x2="100" y2="100" stroke="#333" stroke-width="1" opacity="1.0"  /><path d="M 100.0,200.0 L 106.0,200.0000000001524 L 112.0,200.00000003901843 L 118.0,200.000001 L 124.0,200.00000998872048 L 130.0,200.0000595373915 L 136.0,200.0002559995085 L 142.0,200.00087864091006 L 148.0,200.0025570635951 L 154.0,200.00656067716727 L 160.0,200.01523983695586 L 166.0,200.03266367464013 L 172.0,200.06550380532738 L 178.0,200.12421442741265 L 184.0,200.2245548018551 L 190.0,200.3894843034223 L 196.0,200.65142430423992 L 202.0,201.0548118036107 L 208.0,201.65874953693066 L 214.0,202.5393683097044 L 220.0,203.79125155934761 L 226.0,205.52695362857446 L 232.0,207.87336216159787 L 238.0,210.96360247033942 L 244.0,214.92364528738787 L 250.0,219.85403270747403 L 256.0,225.80917699380703 L 262.0,232.77891302782592 L 268.0,240.67815495094825 L 274.0,249.34934099810386 L 280.0,258.5786437626905 L 286.0,268.1222027935164 L 292.0,277.7353834238652 L 298.0,287.1979146145361 L 304.0,296.3303531492552 L 310.0,305.00086495802975 L 316.0,313.12405126710746 L 322.0,320.6547427157287 L 328.0,327.5795790765667 L 334.0,333.908424680765 L 340.0,339.6667920478093 L 346.0,344.88975040293116 L 352.0,349.6173559002649 L 358.0,353.89141699688923 L 364.0,357.7533294190267 L 370.0,361.242716357402 L 376.0,364.3966467549825 L 382.0,367.24925210934185 L 388.0,369.8316073569484 L 394.0,372.1717791235956 L 400.0,374.2949739399862 L 406.0,376.2237407637014 L 412.0,377.9781977469517 L 418.0,379.5762640963491 L 424.0,381.03388533418985 L 430.0,382.3652452753557 L 436.00000000000006,383.5829613194987 L 441.99999999999994,384.6982617620341 L 448.0,385.72114513120397 L 454.0,386.6605223284492 L 460.0,387.5243427689639 L 466.0,388.31970591344583 L 472.0,389.0529596347794 L 478.0,389.7297868306512 L 484.0,390.3552816116994 L 490.0,390.9340162885346 L 496.0,391.4701002649334 L 502.0,391.967231827959 L 508.00000000000006,392.4287437141653 L 514.0,392.8576432273463 L 520.0,393.256647588867 L 526.0,393.62821511684103 L 532.0,393.9745727550672 L 538.0,394.2977404061625 L 544.0,394.599552464982 L 550.0,394.88167689741636 L 556.0,395.145632165194 L 562.0,395.3928022586347 L 568.0,395.62445006568726 L 574.0,395.84172927640554 L 580.0,396.04569499668924 L 586.0,396.2373132231412 L 592.0,396.4174693118189 L 598.0,396.5869755570937 L 604.0,396.74657798244664 L 610.0,396.89696243251694 L 616.0,397.03876004484096 L 622.0,397.17255217023774 L 628.0,397.2988748025395 L 634.0,397.4182225711561 L 640.0,397.53105234366615 L 646.0,397.6377864801243 L 652.0,397.73881577595245 L 658.0,397.8345021260613 L 664.0,397.92518093914185 L 670.0,398.0111633278127 L 676.0,398.0927380974453 L 682.0,398.1701735539698 L 688.0,398.2437191487436 L 694.0,398.31360697660256 L 700.0,398.38005314148506" fill="none" stroke="red" stroke-width="3" opacity="1.0"  /><text x="200" y="180" font-family="Arial, sans-serif" font-size="20" fill="red" text-anchor="start" font-weight="normal" >LPF</text><path d="M 100.0,399.99999999999994 L 106.0,399.99999133191164 L 112.0,399.99986403658465 L 118.0,399.9993162398 L 124.0,399.99784615063726 L 130.0,399.9947520614761 L 136.0,399.9891323480043 L 142.0,399.97988546925615 L 148.0,399.96570996775085 L 154.0,399.9451044699062 L 160.0,399.9163676871119 L 166.0,399.87759841822486 L 172.0,399.82669555487627 L 178.0,399.7613580919823 L 184.0,399.6790851473512 L 190.0,399.5771759964716 L 196.0,399.45273013164797 L 202.0,399.30264735887715 L 208.0,399.12362795152495 L 214.0,398.9121728873038 L 220.0,398.6645842046581 L 226.0,398.3769655268701 L 232.0,398.04522281749325 L 238.0,397.66506544964125 L 244.0,397.23200769478905 L 250.0,396.74137076470487 L 256.0,396.18828557358074 L 262.0,395.56769642701425 L 268.0,394.8743658908719 L 274.0,394.1028811467895 L 280.0,393.2476622026163 L 286.0,392.3029723957157 L 292.0,391.26293170465374 L 298.0,390.12153346990306 L 304.0,388.8726652156049 L 310.0,387.5101343601152 L 316.0,386.027699699796 L 322.0,384.4191096435695 L 328.0,382.67814825850417 L 334.0,380.79869025019053 L 340.0,378.77476603420445 L 346.0,376.60063804175064 L 352.0,374.27088932551743 L 358.0,371.780525369488 L 364.0,369.1250897347692 L 370.0,366.3007937666066 L 376.0,363.3046600201352 L 382.0,360.134678311991 L 388.0,356.789972357382 L 394.0,353.2709738067998 L 400.0,349.57959917284467 L 406.0,345.7194236830232 L 412.0,341.6958445910507 L 418.0,337.51622504892197 L 424.0,333.19000844676486 L 430.0,328.7287923631692 L 436.00000000000006,324.14635115000743 L 441.99999999999994,319.45859691074685 L 448.0,314.683470386267 L 454.0,309.8407561207548 L 460.0,304.9518202025769 L 466.0,300.0392736676798 L 472.0,295.1265699593115 L 478.0,290.23755015772406 L 484.0,285.39595443715484 L 490.0,280.6249217776425 L 496.0,275.9465018501459 L 502.0,271.3812028845804 L 508.00000000000006,266.94759715472844 L 514.0,262.6620016811952 L 520.0,258.5382463210069 L 526.0,254.58753520910122 L 532.0,250.8184012377557 L 538.0,247.23674755452402 L 544.0,243.84596543861673 L 550.0,240.64711469481006 L 556.0,237.63915098568958 L 562.0,234.8191842199739 L 568.0,232.18275299766918 L 574.0,229.72410187101272 L 580.0,227.43645047935408 L 586.0,225.31224614567418 L 592.0,223.34339402625992 L 598.0,221.52146119620616 L 604.0,219.83785301520737 L 610.0,218.28396169583826 L 616.0,216.85128818424474 L 622.0,215.53153928895404 L 628.0,214.31670250586313 L 634.0,213.1991012440841 L 640.0,212.17143321691336 L 646.0,211.226794679008 L 652.0,210.35869301172804 L 658.0,209.56104992170498 L 664.0,208.8281972525905 L 670.0,208.15486713833658 L 676.0,207.53617796332725 L 682.0,206.9676173498844 L 688.0,206.4450231726227 L 694.0,205.9645634042948 L 700.0,205.5227154294472" fill="none" stroke="blue" stroke-width="3" opacity="1.0"  /><text x="600" y="180" font-family="Arial, sans-serif" font-size="20" fill="blue" text-anchor="start" font-weight="normal" >HPF</text><path d="M 100.0,399.9999999972224 L 106.0,399.99999999252486 L 112.0,399.99999998028096 L 118.0,399.99999994901236 L 124.0,399.9999998707714 L 130.0,399.9999996789544 L 136.0,399.99999921821234 L 142.0,399.9999981339425 L 148.0,399.9999956340844 L 154.0,399.99998998756394 L 160.0,399.99997749296506 L 166.0,399.99995040807966 L 172.0,399.9998928930439 L 178.0,399.99977325457223 L 184.0,399.99952948496 L 190.0,399.9990429765216 L 196.0,399.9980919674254 L 202.0,399.9962712515337 L 208.0,399.9928574300717 L 214.0,399.98658903513945 L 220.0,399.97531803918264 L 226.0,399.9554740286162 L 232.0,399.921266191869 L 238.0,399.8635343894487 L 244.0,399.7681541652191 L 250.0,399.61390917275446 L 256.0,399.36977768031113 L 262.0,398.9916479480618 L 268.0,398.4185891896813 L 274.0,397.56896433401704 L 280.0,396.3368722222532 L 286.0,394.5896306267299 L 292.0,392.16722098020256 L 298.0,388.8847574777034 L 304.0,384.53905191134004 L 310.0,378.92015508762717 L 316.0,371.82831581579103 L 322.0,363.09609520140214 L 328.0,352.61444826357564 L 334.0,340.3605441140225 L 340.0,326.4241117657115 L 346.0,311.0283867554118 L 352.0,294.5415151913903 L 358.0,277.4747211631168 L 364.0,260.4647347857938 L 370.0,244.239843385719 L 376.0,229.57124220675772 L 382.0,217.21376294575438 L 388.0,207.84211216953537 L 394.0,201.9900332501664 L 400.0,200.0 L 406.0,201.9900332501664 L 412.0,207.84211216953537 L 418.0,217.21376294575438 L 424.0,229.57124220675777 L 430.0,244.2398433857191 L 436.00000000000006,260.4647347857939 L 441.99999999999994,277.4747211631167 L 448.0,294.5415151913902 L 454.0,311.0283867554117 L 460.0,326.4241117657115 L 466.0,340.3605441140225 L 472.0,352.61444826357564 L 478.0,363.09609520140214 L 484.0,371.82831581579103 L 490.0,378.92015508762717 L 496.0,384.53905191134004 L 502.0,388.8847574777034 L 508.00000000000006,392.1672209802026 L 514.0,394.5896306267299 L 520.0,396.33687222225313 L 526.0,397.568964334017 L 532.0,398.4185891896813 L 538.0,398.9916479480618 L 544.0,399.36977768031113 L 550.0,399.61390917275446 L 556.0,399.7681541652191 L 562.0,399.8635343894487 L 568.0,399.921266191869 L 574.0,399.9554740286162 L 580.0,399.97531803918264 L 586.0,399.98658903513945 L 592.0,399.9928574300717 L 598.0,399.9962712515337 L 604.0,399.9980919674254 L 610.0,399.9990429765216 L 616.0,399.99952948496 L 622.0,399.99977325457223 L 628.0,399.9998928930439 L 634.0,399.99995040807966 L 640.0,399.99997749296506 L 646.0,399.99998998756394 L 652.0,399.9999956340844 L 658.0,399.9999981339425 L 664.0,399.99999921821234 L 670.0,399.9999996789544 L 676.0,399.9999998707714 L 682.0,399.99999994901236 L 688.0,399.99999998028096 L 694.0,399.99999999252486 L 700.0,399.9999999972224" fill="none" stroke="green" stroke-width="3" opacity="1.0"  /><text x="400" y="180" font-family="Arial, sans-serif" font-size="20" fill="green" text-anchor="start" font-weight="normal" >BPF</text><text x="400" y="50" font-family="Arial, sans-serif" font-size="24" fill="black" text-anchor="middle" font-weight="bold" >Filter Types Compared</text></svg>