<svg xmlns="http://www.w3.org/2000/svg" viewBox="0 0 800 600"><rect x="0" y="0" width="800" height="600" fill="#f8f9fa" /><line x1="100" y1="500" x2="700" y2="500" stroke="#333" stroke-width="1" opacity="1.0"  /><line x1="100" y1="500" x2="100" y2="100" stroke="#333" stroke-width="1" opacity="1.0"  /><path d="M 100.0,150.0 L 106.0,150.00000000683593 L 112.0,150.00000175 L 118.0,150.0000448505773 L 124.0,150.00044799913988 L 130.0,150.0026702575273 L 136.0,150.01148118504273 L 142.0,150.03940116497228 L 148.0,150.11463165932295 L 154.0,150.29389410626004 L 160.0,150.68159753098902 L 166.0,151.4562052328674 L 172.0,152.90281168962866 L 178.0,155.44646291694883 L 184.0,159.67216885000533 L 190.0,166.3052202150437 L 196.0,176.1163792529288 L 202.0,189.72929984450693 L 208.0,207.36309779869526 L 214.0,228.62675452255525 L 220.0,252.51262658470839 L 226.0,277.6356721563579 L 232.0,302.59635057543807 L 238.0,326.277009971799 L 244.0,347.96708971743806 L 250.0,367.3372689419996 L 256.0,384.3397431913387 L 262.0,399.09984210691323 L 268.0,411.8303728254636 L 274.0,422.7748840345506 L 280.0,432.17475362545343 L 286.0,440.25255206606147 L 292.0,447.2053128746596 L 298.0,453.2033018861094 L 304.0,458.39154633647746 L 310.0,462.8925440507189 L 316.0,466.80929933483225 L 322.0,470.22825872215043 L 328.0,473.22195808355974 L 334.0,475.8513195049937 L 340.0,478.1675998456868 L 346.0,480.2140215957922 L 352.0,482.0271269536397 L 358.0,483.6378971018892 L 364.0,485.07267546363346 L 370.0,486.35392889498064 L 376.0,487.50087564785593 L 382.0,488.53000413742586 L 388.0,489.45550232136765 L 394.0,490.28961390241443 L 400.0,491.0429345704787 L 406.0,491.7246590381401 L 412.0,492.34278761495267 L 418.0,492.90429943598593 L 424.0,493.4152981404971 L 430.0,493.8811347296339 L 436.00000000000006,494.3065114692816 L 441.99999999999994,494.6955700059616 L 448.0,495.051966297916 L 454.0,495.3789345042471 L 460.0,495.67934160141573 L 466.0,495.95573419185774 L 472.0,496.21037872060725 L 478.0,496.4452961119315 L 484.0,496.66229167052927 L 490.0,496.8629809539508 L 496.0,497.0488122090545 L 502.0,497.2210858710803 L 508.00000000000006,497.38097154571545 L 514.0,497.52952282946086 L 520.0,497.6676902693313 L 526.0,497.7963327175415 L 532.0,497.9162272987835 L 538.0,498.0280781757396 L 544.0,498.13252427154964 L 550.0,498.2301460852245 L 556.0,498.3214717167705 L 562.0,498.40698220247924 L 568.0,498.48711624698535 L 574.0,498.5622744268919 L 580.0,498.63282293069346 L 586.0,498.6990968911184 L 592.0,498.76140335863226 L 598.0,498.8200239585138 L 604.0,498.8752172684674 L 610.0,498.92722094904354 L 616.0,498.9762536550881 L 622.0,499.02251675293894 L 628.0,499.06619586505377 L 634.0,499.10746226112155 L 640.0,499.14647411242197 L 646.0,499.1833776242048 L 652.0,499.21830805912697 L 658.0,499.2513906632671 L 664.0,499.28274150491245 L 670.0,499.31246823515227 L 676.0,499.34067077829246 L 682.0,499.36744195921216 L 688.0,499.3928680739976 L 694.0,499.4170294094926 L 700.0,499.44000071679864" fill="none" stroke="#99f" stroke-width="3" opacity="1.0"  /><path d="M 100.0,150.0 L 106.0,150.00000000000443 L 112.0,150.00000000114684 L 118.0,150.00000002939328 L 124.0,150.00000029360126 L 130.0,150.00000175 L 136.0,150.00000752467943 L 142.0,150.00002582630563 L 148.0,150.00007516190348 L 154.0,150.00019284915064 L 160.0,150.00044799913988 L 166.0,150.0009603238345 L 172.0,150.00192630209526 L 178.0,150.00365441639462 L 184.0,150.006611347638 L 190.0,150.01148118504273 L 196.0,150.0192398669163 L 202.0,150.03124720831738 L 208.0,150.04935898009288 L 214.0,150.07606156083287 L 220.0,150.11463165932295 L 226.0,150.16932345734574 L 232.0,150.2455851910356 L 238.0,150.35030659116228 L 244.0,150.4920976296078 L 250.0,150.68159753098902 L 256.0,150.93181083271799 L 262.0,151.25846421301821 L 268.0,151.68037363790467 L 274.0,152.21980589992427 L 280.0,152.90281168962866 L 286.0,153.75949895166286 L 292.0,154.82420568288623 L 298.0,156.13552118920748 L 304.0,157.7360953720934 L 310.0,159.67216885000533 L 316.0,161.9927554404698 L 322.0,164.7484162456131 L 328.0,167.98958506460622 L 334.0,171.76444122223134 L 340.0,176.1163792529288 L 346.0,181.08119263053368 L 352.0,186.68416318143716 L 358.0,192.93731573086498 L 364.0,199.83714164394442 L 370.0,207.36309779869535 L 376.0,215.477137258857 L 382.0,224.1244238755519 L 388.0,233.23523908824677 L 394.0,242.72793204027943 L 400.0,252.51262658470839 L 406.0,262.49530992401117 L 412.0,272.581903955308 L 418.0,282.6819613638098 L 424.0,292.71171839128016 L 430.0,302.5963505754382 L 436.00000000000006,312.27139157646155 L 441.99999999999994,321.68336931318413 L 448.0,330.7897778144039 L 454.0,339.5585359022537 L 460.0,347.96708971743806 L 466.0,356.00130289618465 L 472.0,363.6542540494023 L 478.0,370.92503292528147 L 484.0,377.8175991100231 L 490.0,384.3397431913387 L 496.0,390.5021712134797 L 502.0,396.31771911683416 L 508.00000000000006,401.8006941593686 L 514.0,406.9663342506724 L 520.0,411.83037282546354 L 526.0,416.40869555222656 L 532.0,420.71707516022775 L 538.0,424.77097146959795 L 544.0,428.5853849565802 L 550.0,432.1747536254535 L 556.0,435.5528844246141 L 562.0,438.7329118365681 L 568.0,441.72727753565346 L 574.0,444.54772611934146 L 580.0,447.2053128746596 L 586.0,449.71042034791645 L 592.0,452.0727811570143 L 598.0,454.3015050373987 L 604.0,456.40510856181993 L 610.0,458.39154633647746 L 616.0,460.26824276624546 L 622.0,462.0421237122403 L 628.0,463.7196475469232 L 634.0,465.30683525445534 L 640.0,466.80929933483225 L 646.0,468.2322713557583 L 652.0,469.5806280614742 L 658.0,470.85891599701785 L 664.0,472.0713746430931 L 670.0,473.22195808355974 L 676.0,474.3143552467253 L 682.0,475.35200877485175 L 688.0,476.33813258495934 L 694.0,477.2757281892048 L 700.0,478.1675998456868" fill="none" stroke="#55f" stroke-width="3" opacity="1.0"  /><path d="M 100.0,150.0 L 106.0,150.00000000000009 L 112.0,150.00000000002666 L 118.0,150.00000000068437 L 124.0,150.00000000683593 L 130.0,150.00000004074536 L 136.0,150.00000017519756 L 142.0,150.0000006013156 L 148.0,150.00000175 L 154.0,150.00000449012288 L 160.0,150.00001043081238 L 166.0,150.00002235937154 L 172.0,150.0000448505773 L 178.0,150.00008508731372 L 184.0,150.0001539366927 L 190.0,150.00026733001795 L 196.0,150.00044799913988 L 202.0,150.0007276259335 L 208.0,150.00114946579964 L 214.0,150.0017715102239 L 220.0,150.0026702575273 L 226.0,150.00394516496377 L 232.0,150.00572385924647 L 238.0,150.00816818635585 L 244.0,150.01148118504273 L 250.0,150.01591507168874 L 256.0,150.02178032701903 L 262.0,150.029455977406 L 268.0,150.03940116497228 L 274.0,150.0521681011172 L 280.0,150.0684164971406 L 286.0,150.0889295628911 L 292.0,150.11463165932295 L 298.0,150.14660768285933 L 304.0,150.18612424778732 L 310.0,150.2346527166062 L 316.0,150.29389410626004 L 322.0,150.36580586921448 L 328.0,150.45263051094722 L 334.0,150.55692595795108 L 340.0,150.68159753098902 L 346.0,150.8299313051205 L 352.0,151.00562854890475 L 358.0,151.2128408281609 L 364.0,151.4562052328674 L 370.0,151.74087903772843 L 376.0,152.07257293677705 L 382.0,152.45758180026826 L 388.0,152.90281168962866 L 394.0,153.41580163692797 L 400.0,154.00473845536928 L 406.0,154.67846260603986 L 412.0,155.44646291694883 L 418.0,156.31885775100088 L 424.0,157.30636007275496 L 430.0,158.42022379725262 L 436.00000000000006,159.67216885000533 L 441.99999999999994,161.0742825607109 L 448.0,162.63889539071204 L 454.0,164.37842958945046 L 460.0,166.3052202150437 L 466.0,168.43130905269757 L 472.0,170.7682133168873 L 478.0,173.32667259834022 L 484.0,176.1163792529288 L 490.0,179.14569923039122 L 496.0,182.42139207638098 L 502.0,185.94834035379574 L 508.00000000000006,189.72929984450693 L 514.0,193.76468243779797 L 520.0,198.0523834380367 L 526.0,202.58766403035253 L 532.0,207.36309779869526 L 538.0,212.36858755132735 L 544.0,217.5914554220994 L 550.0,223.0166055134074 L 556.0,228.62675452255525 L 562.0,234.4027221707113 L 568.0,240.32377014565787 L 574.0,246.36797593893476 L 580.0,252.51262658470839 L 586.0,258.73461696870197 L 592.0,265.01083804007305 L 598.0,271.3185417998923 L 604.0,277.6356721563579 L 610.0,283.9411533864094 L 616.0,290.2151307737537 L 622.0,296.4391607718264 L 628.0,302.59635057543807 L 634.0,308.6714491393134 L 640.0,314.65089337532856 L 646.0,320.52281446644105 L 652.0,326.277009971799 L 658.0,331.9048877144685 L 664.0,337.39938741076594 L 670.0,342.7548856973184 L 676.0,347.96708971743806 L 682.0,353.03292381427343 L 688.0,357.95041320593134 L 694.0,362.7185678363858 L 700.0,367.3372689419996" fill="none" stroke="#00f" stroke-width="3" opacity="1.0"  /><line x1="220.0" y1="450" x2="580.0" y2="450" stroke="black" stroke-width="4" opacity="1.0"  /><path d="M 580.0 450 L 568.0 440 L 568.0 460" fill="black" stroke="none" stroke-width="0" opacity="1.0"  /><text x="400.0" y="480" font-family="Arial, sans-serif" font-size="20" fill="black" text-anchor="middle" font-weight="bold" >Time / Automation</text><text x="400" y="50" font-family="Arial, sans-serif" font-size="24" fill="black" text-anchor="middle" font-weight="bold" >Filter Sweep Automation</text></svg>