<svg xmlns="http://www.w3.org/2000/svg" viewBox="0 0 800 600"><rect x="0" y="0" width="800" height="600" fill="#f8f9fa" /><line x1="100" y1="500" x2="700" y2="500" stroke="#333" stroke-width="1" opacity="1.0"  /><rect x="200" y="200" width="20" height="300" rx="0" fill="red" stroke="none" stroke-width="0" opacity="1.0"  /><text x="210" y="190" font-family="Arial, sans-serif" font-size="20" fill="red" text-anchor="middle" font-weight="normal" >Masker (Loud)</text><rect x="250" y="400" width="20" height="100" rx="0" fill="#aaa" stroke="#666" stroke-width="0" opacity="1.0" stroke-dasharray="4,4" /><text x="290" y="390" font-family="Arial, sans-serif" font-size="20" fill="#666" text-anchor="start" font-weight="normal" >Masked (Quiet)</text><path d="M 200,200 L 201,200 L 202,200 L 203,200 L 204,200 L 205,200 L 206,200 L 207,200 L 208,200 L 209,200 L 210,200.0 L 211,202.98504987524956 L 212,205.94039800797344 L 213,208.86633993544757 L 214,211.76316825430303 L 215,214.6311726497858 L 216,217.4706399247254 L 217,220.2818540282155 L 218,223.06509608400927 L 219,225.82064441863156 L 220,228.54877458921214 L 221,231.2497594110415 L 222,233.92386898485273 L 223,236.5713707238316 L 224,239.19252938035822 L 225,241.78760707248267 L 226,244.3568633101366 L 227,246.9005550210849 L 228,249.4189365766184 L 229,251.9122598169913 L 230,254.38077407660546 L 231,256.82472620894384 L 232,259.2443606112564 L 233,261.6399192489998 L 234,264.01164168003396 L 235,266.35976507857856 L 236,268.6845242589301 L 237,270.986151698944 L 238,273.26487756328237 L 239,275.5209297264304 L 240,277.75453379548463 L 241,279.96591313271324 L 242,282.15528887789276 L 243,284.32287997042215 L 244,286.4689031712171 L 245,288.593573084386 L 246,290.69710217869067 L 247,292.77970080879356 L 248,294.84157723629323 L 249,296.8829376505506 L 250,298.90398618930817 L 251,300.90492495910416 L 252,302.885954055483 L 253,304.84727158300507 L 254,306.7890736750576 L 255,308.711554513468 L 256,310.6149063479222 L 257,312.49931951518977 L 258,314.3649824581578 L 259,316.2120817446752 L 260,318.04080208620996 L 261,319.8513263563202 L 262,321.6438356089417 L 263,323.41850909649344 L 264,325.1755242878031 L 265,326.915056885854 L 266,328.6372808453556 L 267,330.34236839013886 L 268,332.0304900303794 L 269,333.7018145796479 L 270,335.3565091717921 L 271,336.99473927765007 L 272,338.61666872159765 L 273,340.22245969793084 L 274,341.8122727870855 L 275,343.3862669716952 L 276,344.94459965249024 L 277,346.48742666403723 L 278,348.0149022903231 L 279,349.52717928018336 L 280,351.02440886257716 L 281,352.5067407617105 L 282,353.97432321200847 L 283,355.4273029729393 L 284,356.8658253436897 L 285,358.2900341776956 L 286,359.7000718970272 L 287,361.09607950663155 L 288,362.47819660843294 L 289,363.84656141529325 L 290,365.2013107648335 L 291,366.54258013311767 L 292,367.8705036482002 L 293,369.18521410353935 L 294,370.4868429712761 L 295,371.77552041538195 L 296,373.05137530467533 L 297,374.3145352257083 L 298,375.5651264955256 L 299,376.80327417429635 L 300,378.02910207782026 L 301,379.2427327899092 L 302,380.44428767464575 L 303,381.63388688851967 L 304,382.81164939244366 L 305,383.97769296364964 L 306,385.1321342074664 L 307,386.2750885689803 L 308,387.4066703445801 L 309,388.5269926933863 L 310,389.63616764856727 L 311,390.734306128543 L 312,391.8215179480765 L 313,392.8979118292558 L 314,393.963595412366 L 315,395.0186752666534 L 316,396.06325690098276 L 317,397.097444774388 L 318,398.1213423065183 L 319,399.13505188798 L 320,400.1386748905761 L 321,401.1323116774433 L 322,402.11606161308816 L 323,403.0900230733241 L 324,404.05429345510885 L 325,405.00896918628405 L 326,405.9541457352184 L 327,406.8899176203545 L 328,407.8163784196606 L 329,408.73362077998877 L 330,409.6417364263394 L 331,410.5408161710338 L 332,411.4309499227957 L 333,412.3122266957422 L 334,413.18473461828484 L 335,414.048560941943 L 336,414.9037920500689 L 337,415.75051346648604 L 338,416.58880986404176 L 339,417.41876507307427 L 340,418.2404620897962 L 341,419.05398308459394 L 342,419.8594094102449 L 343,420.6568216100528 L 344,421.4462994259022 L 345,422.22792180623253 L 346,423.00176691393324 L 347,423.76791213415993 L 348,424.5264340820731 L 349,425.27740861049955 L 350,426.0209108175181 L 351,426.75701505396887 L 352,427.4857949308891 L 353,428.2073233268736 L 354,428.9216723953635 L 355,429.6289135718607 L 356,430.32911758107235 L 357,431.02235444398286 L 358,431.7086934848562 L 359,432.3882033381684 L 360,433.06095195547107 L 361,433.7270066121865 L 362,434.38643391433556 L 363,435.03929980519786 L 364,435.6856695719066 L 365,436.3256078519771 L 366,436.9591786397706 L 367,437.58644529289387 L 368,438.20747053853495 L 369,438.82231647973595 L 370,439.4310446016034 L 371,440.0337157774567 L 372,440.6303902749156 L 373,441.2211277619272 L 374,441.80598731273244 L 375,442.3850274137738 L 376,442.95830596954386 L 377,443.525880308376 L 378,444.087807188177 L 379,444.6441428021032 L 380,445.1949427841796 L 381,445.7402622148634 L 382,446.280155626552 L 383,446.81467700903664 L 384,447.34387981490096 L 385,447.86781696486645 L 386,448.38654085308485 L 387,448.9001033523772 L 388,449.40855581942134 L 389,449.9119490998878 L 390,450.41033353352407 L 391,450.9037589591888 L 392,451.39227471983577 L 393,451.8759296674482 L 394,452.3547721679238 L 395,452.8288501059117 L 396,453.2982108896008 L 397,453.76290145546056 L 398,454.22296827293485 L 399,454.6784573490888 L 400,455.1294142332095 L 401,455.5758840213613 L 402,456.01791136089497 L 403,456.45554045491286 L 404,456.8888150666891 L 405,457.31777852404593 L 406,457.7424737236865 L 407,458.16294313548474 L 408,458.57922880673215 L 409,458.99137236634283 L 410,459.3994150290162 L 411,459.8033975993585 L 412,460.2033604759635 L 413,460.5993436554521 L 414,460.99138673647224 L 415,461.3795289236587 L 416,461.76380903155376 L 417,462.1442654884884 L 418,462.5209363404253 L 419,462.8938592547635 L 420,463.26307152410544 L 421,463.6286100699855 L 422,463.990511446563 L 423,464.3488118442771 L 424,464.7035470934662 L 425,465.0547526679509 L 426,465.40246368858124 L 427,465.74671492674906 L 428,466.087540807865 L 429,466.42497541480134 L 430,466.7590524912998 L 431,467.0898054453466 L 432,467.4172673525126 L 433,467.7414709592615 L 434,468.0624486862242 L 435,468.3802326314407 L 436,468.6948545735705 L 437,469.00634597506996 L 438,469.31473798533875 L 439,469.62006144383497 L 440,469.92234688315887 L 441,470.2216245321063 L 442,470.51792431869154 L 443,470.8112758731402 L 444,471.1017085308521 L 445,471.38925133533513 L 446,471.6739330411093 L 447,471.95578211658244 L 448,472.234826746897 L 449,472.51109483674855 L 450,472.7846140131762 L 451,473.0554116283257 L 452,473.3235147621841 L 453,473.5889502252882 L 454,473.8517445614056 L 455,474.11192405018886 L 456,474.36951470980364 L 457,474.6245422995306 L 458,474.8770323223412 L 459,475.1270100274482 L 460,475.37450041283034 L 461,475.6195282277325 L 462,475.8621179751403 L 463,476.1022939142306 L 464,476.34008006279754 L 465,476.5755001996541 L 466,476.80857786701006 L 467,477.03933637282654 L 468,477.26779879314637 L 469,477.49398797440193 L 470,477.71792653569986 L 471,477.9396368710829 L 472,478.15914115176935 L 473,478.37646132837017 L 474,478.5916191330842 L 475,478.80463608187114 L 476,479.0155334766034 L 477,479.2243324071962 L 478,479.43105375371664 L 479,479.63571818847157 L 480,479.8383461780751 L 481,480.03895798549496 L 482,480.2375736720791 L 483,480.43421309956176 L 484,480.62889593204943 L 485,480.82164163798774 L 486,481.0124694921078 L 487,481.20139857735404 L 488,481.38844778679254 L 489,481.5736358255 L 490,481.7569812124346 L 491,481.9385022822879 L 492,482.1182171873182 L 493,482.29614389916566 L 494,482.47230021064973 L 495,482.6467037375485 L 496,482.8193719203598 L 497,482.99032202604593 L 498,483.15957114975987 L 499,483.32713621655506 L 500,483.49303398307785 L 501,483.65728103924306 L 502,483.8198938098932 L 503,483.98088855644085 L 504,484.1402813784949 L 505,484.2980882154703 L 506,484.45432484818224 L 507,484.6090069004243 L 508,484.76214984053047 L 509,484.9137689829224 L 510,485.06387948964084 L 511,485.21249637186133 L 512,485.3596344913961 L 513,485.50530856217966 L 514,485.6495331517405 L 515,485.79232268265775 L 516,485.93369143400344 L 517,486.0736535427706 L 518,486.2122230052867 L 519,486.34941367861353 L 520,486.48523928193265 L 521,486.6197133979176 L 522,486.75284947409216 L 523,486.8846608241747 L 524,487.0151606294102 L 525,487.144361939888 L 526,487.27227767584657 L 527,487.3989206289663 L 528,487.52430346364804 L 529,487.6484387182797 L 530,487.7713388064901 L 531,487.89301601839065 L 532,488.01348252180384 L 533,488.1327503634804 L 534,488.25083147030386 L 535,488.3677376504834 L 536,488.4834805947344 L 537,488.5980718774477 L 538,488.71152295784714 L 539,488.82384518113525 L 540,488.935049779628 L 541,489.04514787387785 L 542,489.1541504737861 L 543,489.26206847970343 L 544,489.3689126835204 L 545,489.47469376974647 L 546,489.5794223165784 L 547,489.6831087969582 L 548,489.7857635796202 L 549,489.88739693012826 L 550,489.98801901190217 L 551,490.08763988723393 L 552,490.18626951829407 L 553,490.2839177681279 L 554,490.38059440164176 L 555,490.4763090865796 L 556,490.5710713944897 L 557,490.66489080168174 L 558,490.7577766901747 L 559,490.84973834863473 L 560,490.94078497330446 L 561,491.0309256689221 L 562,491.1201694496324 L 563,491.20852523988776 L 564,491.2960018753409 L 565,491.38260810372816 L 566,491.46835258574464 L 567,491.55324389591 L 568,491.6372905234259 L 569,491.72050087302523 L 570,491.8028832658122 L 571,491.88444594009485 L 572,491.96519705220857 L 573,492.04514467733173 L 574,492.12429681029363 L 575,492.2026613663734 L 576,492.280246182092 L 577,492.3570590159957 L 578,492.43310754943184 L 579,492.5083993873171 L 580,492.5829420588982 L 581,492.6567430185042 L 582,492.72980964629267 L 583,492.80214924898723 L 584,492.8737690606085 L 585,492.94467624319725 L 586,493.01487788753093 L 587,493.08438101383234 L 588,493.1531925724721 L 589,493.22131944466344 L 590,493.28876844315033 L 591,493.3555463128888 L 592,493.4216597317215 L 593,493.48711531104544 L 594,493.551919596473 L 595,493.61607906848684 L 596,493.67960014308755 L 597,493.74248917243557 L 598,493.8047524454862 L 599,493.8663961886187" fill="none" stroke="black" stroke-width="2" opacity="1.0" stroke-dasharray="5,5" /><text x="400" y="50" font-family="Arial, sans-serif" font-size="24" fill="black" text-anchor="middle" font-weight="bold" >Frequency Masking</text><text x="400" y="80" font-family="Arial, sans-serif" font-size="16" fill="#666" text-anchor="middle" font-weight="normal" >Loud sounds hide quieter nearby sounds</text></svg>