<svg xmlns="http://www.w3.org/2000/svg" viewBox="0 0 800 600"><rect x="0" y="0" width="800" height="600" fill="#f8f9fa" /><line x1="100" y1="400" x2="700" y2="400" stroke="#333" stroke-width="1" opacity="1.0"  /><rect x="100" y="250" width="90.0" height="150" rx="0" fill="#333" stroke="none" stroke-width="0" opacity="0.3"  /><text x="145.0" y="240" font-family="Arial, sans-serif" font-size="20" fill="black" text-anchor="middle" font-weight="bold" >Sub</text><rect x="190.0" y="250" width="119.99999999999999" height="150" rx="0" fill="#555" stroke="none" stroke-width="0" opacity="0.3"  /><text x="250.0" y="240" font-family="Arial, sans-serif" font-size="20" fill="black" text-anchor="middle" font-weight="bold" >Bass</text><rect x="310.0" y="250" width="210.0" height="150" rx="0" fill="#777" stroke="none" stroke-width="0" opacity="0.3"  /><text x="415.0" y="240" font-family="Arial, sans-serif" font-size="20" fill="black" text-anchor="middle" font-weight="bold" >Mids</text><rect x="520.0" y="250" width="180.00000000000003" height="150" rx="0" fill="#999" stroke="none" stroke-width="0" opacity="0.3"  /><text x="610.0" y="240" font-family="Arial, sans-serif" font-size="20" fill="black" text-anchor="middle" font-weight="bold" >Highs</text><line x1="100" y1="400" x2="100" y2="410" stroke="black" stroke-width="1" opacity="1.0"  /><text x="100" y="430" font-family="Arial, sans-serif" font-size="14" fill="black" text-anchor="middle" font-weight="normal" >20Hz</text><line x1="250.0" y1="400" x2="250.0" y2="410" stroke="black" stroke-width="1" opacity="1.0"  /><text x="250.0" y="430" font-family="Arial, sans-serif" font-size="14" fill="black" text-anchor="middle" font-weight="normal" >100Hz</text><line x1="400.0" y1="400" x2="400.0" y2="410" stroke="black" stroke-width="1" opacity="1.0"  /><text x="400.0" y="430" font-family="Arial, sans-serif" font-size="14" fill="black" text-anchor="middle" font-weight="normal" >1kHz</text><line x1="550.0" y1="400" x2="550.0" y2="410" stroke="black" stroke-width="1" opacity="1.0"  /><text x="550.0" y="430" font-family="Arial, sans-serif" font-size="14" fill="black" text-anchor="middle" font-weight="normal" >10kHz</text><line x1="700.0" y1="400" x2="700.0" y2="410" stroke="black" stroke-width="1" opacity="1.0"  /><text x="700.0" y="430" font-family="Arial, sans-serif" font-size="14" fill="black" text-anchor="middle" font-weight="normal" >20kHz</text><text x="400" y="50" font-family="Arial, sans-serif" font-size="24" fill="black" text-anchor="middle" font-weight="bold" >Frequency Spectrum</text></svg>