<svg xmlns="http://www.w3.org/2000/svg" viewBox="0 0 800 600"><rect x="0" y="0" width="800" height="600" fill="#f8fafc" /><line x1="100" y1="500" x2="700" y2="500" stroke="#334155" stroke-width="2" opacity="1.0"  /><text x="100" y="200" font-family="Inter, system-ui, sans-serif" font-size="14" fill="#1e293b" text-anchor="end" font-weight="normal" >1980s (Dynamic)</text><path d="M 100,200.0 L 101,196.5262009060781 L 102,198.35339576852544 L 103,195.2299766156258 L 104,189.1224394635477 L 105,186.46192357272918 L 106,180.07565122163416 L 107,177.66141447116036 L 108,187.03542790173614 L 109,183.22919685095164 L 110,183.19333362676048 L 111,191.1262097568424 L 112,177.21265617430709 L 113,179.50241436443085 L 114,178.15781939263715 L 115,185.12985039283797 L 116,169.98059007380556 L 117,179.27647088257427 L 118,172.17469831028322 L 119,184.98583927310602 L 120,185.53257739584356 L 121,176.97284361414822 L 122,192.8231981686597 L 123,176.86634567360875 L 124,183.90078909204294 L 125,181.60790716464808 L 126,186.11002532009775 L 127,194.04390304808015 L 128,195.0541479190484 L 129,198.76120870982166 L 130,198.79849726684154 L 131,198.88691338626379 L 132,200.33673081757544 L 133,202.08385430411624 L 134,208.5367465183378 L 135,206.97870419670662 L 136,216.16809132442916 L 137,220.30383033253264 L 138,212.64910077862584 L 139,223.82825799037278 L 140,225.37265739535954 L 141,210.91439638376164 L 142,217.49298738190421 L 143,235.2379724402943 L 144,207.22412802002634 L 145,236.06637189484772 L 146,207.2918102830396 L 147,227.40631515211086 L 148,222.83735679666944 L 149,231.12396479953247 L 150,229.63570815400485 L 151,219.54835140855687 L 152,233.42411815081104 L 153,211.584671976106 L 154,225.62686293558582 L 155,207.89432431347066 L 156,222.09449795752582 L 157,219.2473802292443 L 158,207.82033801237415 L 159,212.51885972173062 L 160,207.16370695755415 L 161,200.96918667216622 L 162,202.4126133362796 L 163,199.70778741134876 L 164,199.200921944026 L 165,198.15915374453448 L 166,194.2850617779302 L 167,189.49439557901616 L 168,185.86527841551597 L 169,183.60419936070193 L 170,177.15855602859978 L 171,184.19022862659483 L 172,175.0542851164845 L 173,172.11641786880642 L 174,188.10629085562456 L 175,167.88772315382644 L 176,194.20536825994847 L 177,173.3229633688338 L 178,192.09116776177765 L 179,177.06055124872918 L 180,172.54115135630084 L 181,176.16105764063568 L 182,180.16533513951964 L 183,186.62875492981883 L 184,170.42366531506391 L 185,194.14299347174986 L 186,176.92555623272114 L 187,183.267474453697 L 188,182.9402604282714 L 189,193.47231302207484 L 190,190.09075370243417 L 191,187.58640096013326 L 192,196.99950801586135 L 193,197.8171532869575 L 194,199.60242941837288 L 195,200.97738132125846 L 196,203.25181529686853 L 197,204.29191877534467 L 198,202.42770573340178 L 199,205.3967198654158 L 200,220.3007190850189 L 201,219.45941433165456 L 202,204.65920129627213 L 203,223.93733625179965 L 204,221.26360823357354 L 205,232.03975532159555 L 206,213.46513851156868 L 207,218.6056201347536 L 208,205.88826072338216 L 209,216.26979781748423 L 210,231.55813872731702 L 211,207.31453958875105 L 212,205.1578452380827 L 213,237.4808760129494 L 214,214.54240104172544 L 215,215.4788673939589 L 216,223.63209333958758 L 217,223.31328473080174 L 218,211.9113417718635 L 219,220.59767668073943 L 220,218.89383049732862 L 221,204.95452190247192 L 222,202.83424212072023 L 223,208.3091338134108 L 224,203.28211770802918 L 225,200.5399903748697 L 226,199.65238298243958 L 227,196.44485062503244 L 228,193.20727498144763 L 229,190.57960625006564 L 230,191.18227325889436 L 231,186.08020146290102 L 232,188.0468498674482 L 233,189.88060389512827 L 234,173.46973329267797 L 235,183.99891602609796 L 236,189.88464628070435 L 237,169.9238897216286 L 238,188.29260626266637 L 239,174.09993121016913 L 240,183.38975615478947 L 241,179.07566607974073 L 242,176.77373440017143 L 243,186.9333188338332 L 244,179.10238802328 L 245,183.43024758697456 L 246,178.32535431586666 L 247,170.6482987448042 L 248,192.7256090303323 L 249,172.0437815773204 L 250,182.13040937218767 L 251,181.6494852464363 L 252,188.2091223284508 L 253,195.0573062522984 L 254,193.64611981158816 L 255,193.30985768306138 L 256,196.93172796945123 L 257,199.79980628231837 L 258,203.10839909523904 L 259,201.81878738567147 L 260,208.75892270648862 L 261,205.8385228973176 L 262,216.65792116848493 L 263,214.63608476600422 L 264,205.43345769047622 L 265,204.17711923347244 L 266,221.29672389772784 L 267,217.51280828293167 L 268,223.05035510049203 L 269,206.75852294656542 L 270,225.3164872124903 L 271,228.99081321135714 L 272,227.05850677761487 L 273,231.90954472181207 L 274,225.01044768383866 L 275,227.8257803953379 L 276,232.7140618258453 L 277,214.20419441464057 L 278,206.45479812603475 L 279,221.29693203036345 L 280,221.1483065510538 L 281,226.27661012444378 L 282,207.13504402691896 L 283,218.396072879498 L 284,211.72139078727272 L 285,209.32935323286952 L 286,207.49223271909437 L 287,201.30047820369202 L 288,200.91899926780883 L 289,199.66012237059817 L 290,194.44682719049143 L 291,196.52434238788342 L 292,198.12884098234963 L 293,192.4194559243994 L 294,179.40239661998592 L 295,195.1297223545145 L 296,187.86151170458487 L 297,173.04776221552117 L 298,178.11803191424983 L 299,169.59990951059882 L 300,163.57875129789804 L 301,177.67060385871494 L 302,184.67538817877914 L 303,170.29109858630622 L 304,177.94906017230065 L 305,188.80785456080284 L 306,161.56789225695042 L 307,180.7986476611235 L 308,180.67105702153327 L 309,178.56089922182275 L 310,183.9168845601261 L 311,186.13472827628817 L 312,182.71401949584873 L 313,187.82667922970285 L 314,184.5525844440627 L 315,191.2718379490042 L 316,195.80535609937638 L 317,196.37771260935446 L 318,192.759238452264 L 319,198.8733115227269 L 320,200.33717112995387 L 321,202.93025243187057 L 322,208.14818895295193 L 323,210.87207855096048 L 324,215.55741875888242 L 325,213.7115740916188 L 326,215.27359885449403 L 327,212.87574777833112 L 328,228.3263489604934 L 329,205.1918558094397 L 330,205.9666326205814 L 331,224.80841117749168 L 332,232.10921257611108 L 333,228.95571147843626 L 334,229.1801022379958 L 335,205.79210010652452 L 336,214.78784943652866 L 337,227.54762227506876 L 338,218.9326078063731 L 339,212.39560137562344 L 340,235.24221293784663 L 341,225.33260894908614 L 342,224.75234340943317 L 343,228.13708357236237 L 344,212.03233357571196 L 345,206.9816351997142 L 346,217.30363622428663 L 347,206.37875189929304 L 348,204.0479766879115 L 349,205.06269222563688 L 350,204.71805462306702 L 351,200.37217378968728 L 352,198.18849460836634 L 353,194.85346100573642 L 354,190.44282949598298 L 355,192.01819284772245 L 356,196.6991158905931 L 357,191.67597548637477 L 358,182.80595808646584 L 359,178.3083604531558 L 360,194.3254076316779 L 361,173.61355993275555 L 362,170.44396596213215 L 363,187.45703798731444 L 364,184.25505751818062 L 365,169.051233031492 L 366,187.8345762549615 L 367,182.52655449135858 L 368,174.02194130977804 L 369,192.49356538075784 L 370,171.77608675826977 L 371,165.43768809254257 L 372,193.63339132381256 L 373,182.5400632840318 L 374,186.26848454712695 L 375,182.85901391535242 L 376,188.78819713188545 L 377,180.14014811151492 L 378,191.75246607485366 L 379,187.4941058392232 L 380,198.6397342562412 L 381,197.95809355384424 L 382,199.10493171205346 L 383,200.19327067971204 L 384,200.6847302998585 L 385,201.21285044738048 L 386,206.44267065089653 L 387,205.13742288988993 L 388,212.85592008196357 L 389,210.1736541718258 L 390,205.21813903981274 L 391,213.63553937408386 L 392,228.79383702142124 L 393,207.0765967221871 L 394,218.7903100972844 L 395,237.54457949456162 L 396,207.2156662692379 L 397,216.23215639998563 L 398,234.4204164330795 L 399,208.58877052362092 L 400,211.83439701331542 L 401,213.06501426113743 L 402,226.12213602475288 L 403,205.78808117362368 L 404,207.54623185904435 L 405,205.48876964653536 L 406,213.7682682519852 L 407,222.45626868071705 L 408,213.6333580629092 L 409,213.06763967597058 L 410,211.81869582508892 L 411,206.37498557342548 L 412,206.96082007280214 L 413,202.72313856014932 L 414,200.31123776643904 L 415,198.971979374236 L 416,195.38735558282855 L 417,189.79557569088553 L 418,193.85222541001892 L 419,184.49178765269812 L 420,183.8724127489684 L 421,181.67027452338266 L 422,195.4982739457565 L 423,171.0190430556146 L 424,186.74180186029437 L 425,194.10384255126684 L 426,189.23875242221223 L 427,178.16334886109848 L 428,178.4429819876263 L 429,189.27803382105907 L 430,191.98336255037077 L 431,173.25551817525144 L 432,162.75470807970743 L 433,175.03233514157654 L 434,179.11074341448153 L 435,190.7680107436454 L 436,191.30817150885906 L 437,189.28357985064412 L 438,185.161241946833 L 439,185.57034591283553 L 440,185.19126653369162 L 441,188.91564584481455 L 442,196.56442283146757 L 443,194.8528606265847 L 444,194.7270967801077 L 445,197.7156345912045 L 446,201.06383728958787 L 447,204.08503129041245 L 448,201.54291948524636 L 449,206.19865132676787 L 450,213.97908476839564 L 451,219.39174782611653 L 452,204.97834691655888 L 453,211.01613847043578 L 454,227.5146493875182 L 455,231.97620530861406 L 456,222.55671229607373 L 457,227.43714357472027 L 458,233.45038109731234 L 459,224.00958775668445 L 460,216.13370554152564 L 461,237.79213822202297 L 462,229.33282662570986 L 463,218.27386806253818 L 464,230.30165660433371 L 465,207.551823414782 L 466,210.6552150358558 L 467,213.4563547562472 L 468,228.87703245840814 L 469,215.13419514613133 L 470,210.21747874615164 L 471,204.40289429043517 L 472,213.0583658188298 L 473,207.29200343523326 L 474,202.36448907634107 L 475,206.2539364908563 L 476,200.6494954347678 L 477,199.98959876821593 L 478,196.6098218330962 L 479,192.34121502695524 L 480,196.08261792254694 L 481,194.3325674377956 L 482,184.36584410650025 L 483,187.27410095258432 L 484,177.35765782378556 L 485,187.51152942942176 L 486,182.47725014912876 L 487,191.8896048465966 L 488,172.16709000183693 L 489,179.95389340296103 L 490,187.28554209489567 L 491,176.54786021138952 L 492,191.52081714049788 L 493,192.60660393520578 L 494,182.93695315708447 L 495,171.6619512252659 L 496,176.3531226626661 L 497,174.48644789434132 L 498,168.0875970982634 L 499,191.36716735444753 L 500,190.57263030638157 L 501,188.9815223122753 L 502,194.62625458231034 L 503,181.044286133004 L 504,183.9968713831994 L 505,190.89038153504896 L 506,191.98691143588013 L 507,198.5806887935372 L 508,199.24148158197698 L 509,201.500753835978 L 510,204.19043498731983 L 511,207.34761087638995 L 512,204.22163522502018 L 513,211.49798440159879 L 514,218.97370972970083 L 515,205.64384054055168 L 516,213.63009868426835 L 517,221.31694237497715 L 518,219.1054721644386 L 519,228.54727475819334 L 520,214.42518626320202 L 521,216.02163558891846 L 522,233.76248971855512 L 523,224.91315650650756 L 524,205.57428898603678 L 525,206.89736199177403 L 526,218.78248029099086 L 527,234.14054057169307 L 528,205.18232496903352 L 529,223.78588066365316 L 530,214.59141786248207 L 531,215.33270972402522 L 532,208.46330298740818 L 533,211.15846449568335 L 534,208.36451830867148 L 535,203.76742883003396 L 536,204.33235706963956 L 537,206.03988984545268 L 538,203.15885417967243 L 539,200.53629212189438 L 540,199.79757583381175 L 541,195.5809058512058 L 542,197.56954635337289 L 543,188.90001725829765 L 544,191.58627101609787 L 545,192.25471008026645 L 546,189.95765763754525 L 547,181.2493875069349 L 548,176.74029410191548 L 549,192.40578161873543 L 550,185.86509297604235 L 551,169.0702274382339 L 552,190.59888923164664 L 553,191.39033048593782 L 554,192.51963549584642 L 555,166.4404719472639 L 556,184.0615495646676 L 557,195.01934544049965 L 558,171.59276386844746 L 559,172.1573609219168 L 560,168.32460590614693 L 561,178.79580554276978 L 562,193.55075090532404 L 563,184.29692961280145 L 564,195.62398956612037 L 565,183.5098137100375 L 566,194.17382731635323 L 567,185.1516570720223 L 568,197.08376011576533 L 569,191.13866978057874 L 570,196.41982560665295 L 571,199.2564883787511 L 572,200.40189840988506 L 573,206.76284257915796 L 574,207.8378153659284 L 575,208.3503826478469 L 576,215.82875567029956 L 577,203.4116263547659 L 578,218.68915250011128 L 579,218.70831960983062 L 580,204.04406492480618 L 581,216.96169938153366 L 582,230.0062294493306 L 583,234.91959514818322 L 584,208.6569381648529 L 585,236.1584066453645 L 586,224.09157800200796 L 587,231.02698255746367 L 588,233.98109926219556 L 589,234.7420933738973 L 590,213.81176824577656 L 591,213.35399215218266 L 592,219.46374811244593 L 593,206.76504725182258 L 594,213.90631609771222 L 595,226.53671245476056 L 596,217.2380453766193 L 597,214.5746688523006 L 598,207.22765420166485 L 599,207.3833596745871 L 600,209.8661912118868 L 601,202.7194826278735 L 602,202.12705636712192 L 603,199.5088346070472 L 604,195.71546226407168 L 605,191.7569190563355 L 606,191.37109880506293 L 607,194.962222192779 L 608,182.73472699818353 L 609,190.7018745655212 L 610,185.80647557324087 L 611,171.51676480523676 L 612,183.54285245078674 L 613,176.5416862870895 L 614,183.20803042401437 L 615,173.65092041029453 L 616,177.09092177321634 L 617,164.1778788246494 L 618,166.4645037443936 L 619,163.5916345200212 L 620,177.59919849275673 L 621,186.88437922615918 L 622,176.69225470068906 L 623,184.06784603095358 L 624,183.6080542454319 L 625,172.44646649303053 L 626,188.51562032262802 L 627,195.58826302157388 L 628,181.91413460552963 L 629,194.99405597764402 L 630,195.3956140179394 L 631,190.16071653328382 L 632,194.60744824117197 L 633,196.79339199172762 L 634,199.77034834220058 L 635,201.71513820653007 L 636,204.62353564958167 L 637,209.34536530236142 L 638,210.06506753012926 L 639,213.0166869876035 L 640,213.93717471288488 L 641,212.49882222100976 L 642,220.69416923016442 L 643,220.64694347558893 L 644,222.73944203462065 L 645,205.87010257241386 L 646,205.96336327261872 L 647,231.9150522621504 L 648,237.70500542956864 L 649,229.1396195179655 L 650,207.28971726486523 L 651,219.28107946417862 L 652,225.0579984857226 L 653,221.3799085072455 L 654,224.24600452897573 L 655,205.13340965260002 L 656,215.99338874811963 L 657,220.17846850816065 L 658,218.96957803145108 L 659,207.3186079868666 L 660,210.3397172151732 L 661,211.26239986589536 L 662,209.28803683866238 L 663,204.25367638964138 L 664,203.15421401346305 L 665,201.93385475339164 L 666,199.45322870344418 L 667,197.51182080267117 L 668,192.29964007353982 L 669,190.52402114645267 L 670,187.68860258707014 L 671,181.15165826597968 L 672,193.5519382087141 L 673,179.76246688144477 L 674,191.3114066615795 L 675,183.4584148010163 L 676,192.8431945984549 L 677,183.5557512934073 L 678,173.61279864984124 L 679,173.53546266434836 L 680,190.0884251745473 L 681,185.63109167673676 L 682,168.27126970225885 L 683,176.03403232228067 L 684,185.70345008381486 L 685,189.51086463870044 L 686,183.66854663686826 L 687,176.67053624729948 L 688,192.46912572424637 L 689,179.26302360989388 L 690,191.4981591472031 L 691,178.83680452565196 L 692,189.4361833270198 L 693,193.8767861195605 L 694,189.59315457371855 L 695,196.537088375416 L 696,198.53106722072653 L 697,200.068024894925 L 698,203.87080037551922 L 699,202.3023612178597" fill="none" stroke="green" stroke-width="2" opacity="1.0"  /><text x="100" y="400" font-family="Inter, system-ui, sans-serif" font-size="14" fill="#1e293b" text-anchor="end" font-weight="normal" >2000s (Loud)</text><rect x="100" y="350" width="600" height="100" rx="0" fill="#fee" stroke="none" stroke-width="0" opacity="0.5"  /><path d="M 100,400.0 L 101,393.011660834722 L 102,386.0931468443457 L 103,379.3135855337062 L 104,372.74071603839445 L 105,366.4402122977058 L 106,360.47502686234753 L 107,354.90476189336164 L 108,350 L 109,350 L 110,350 L 111,350 L 112,350 L 113,350 L 114,350 L 115,350 L 116,350 L 117,350 L 118,350 L 119,350 L 120,350 L 121,350 L 122,350 L 123,350 L 124,352.71757736141944 L 125,358.10694991272305 L 126,363.9149039724975 L 127,370.08340838363193 L 128,376.55082948908665 L 129,383.2525469550213 L 130,390.1215994358093 L 131,397.0893536296697 L 132,404.0861900399306 L 133,411.0421985900274 L 134,417.8878771418782 L 135,424.5548259382734 L 136,430.9764310306397 L 137,437.08852986359454 L 138,442.83005236599035 L 139,448.1436311428782 L 140,450 L 141,450 L 142,450 L 143,450 L 144,450 L 145,450 L 146,450 L 147,450 L 148,450 L 149,450 L 150,450 L 151,450 L 152,450 L 153,450 L 154,450 L 155,449.38782278992744 L 156,444.1886646510625 L 157,438.54798798183464 L 158,432.52215255896294 L 159,426.1713665381165 L 160,419.5590848739248 L 161,412.75137529904663 L 162,405.8162581972247 L 163,398.8230269660955 L 164,391.8415556604655 L 165,384.94160083385293 L 166,378.19210455406346 L 167,371.66050555683813 L 168,365.4120654202974 L 169,359.509216492826 L 170,354.01093808968477 L 171,350 L 172,350 L 173,350 L 174,350 L 175,350 L 176,350 L 177,350 L 178,350 L 179,350 L 180,350 L 181,350 L 182,350 L 183,350 L 184,350 L 185,350 L 186,350 L 187,353.59215389424725 L 188,359.0557964975767 L 189,364.9285400479481 L 190,371.15170603307706 L 191,377.66311463554536 L 192,384.3977060129828 L 193,391.2881903545057 L 194,398.26572021826496 L 195,405.26057843232667 L 196,412.2028746856087 L 197,419.02324384876607 L 198,425.653539047635 L 199,432.0275125642725 L 200,438.0814777622559 L 201,443.75494542250186 L 202,448.99122813154804 L 203,450 L 204,450 L 205,450 L 206,450 L 207,450 L 208,450 L 209,450 L 210,450 L 211,450 L 212,450 L 213,450 L 214,450 L 215,450 L 216,450 L 217,450 L 218,448.54675593439856 L 219,443.2695978565923 L 220,437.56010426003047 L 221,431.475322517422 L 222,425.0760497565779 L 223,418.4262253956061 L 224,411.5922922813817 L 225,404.64253281458406 L 226,397.6463866945203 L 227,390.6737571006039 L 228,383.79431224289226 L 229,377.07678926036147 L 230,370.58830742213513 L 231,364.3936974939337 L 232,358.55485397049426 L 233,353.13011664623787 L 234,350 L 235,350 L 236,350 L 237,350 L 238,350 L 239,350 L 240,350 L 241,350 L 242,350 L 243,350 L 244,350 L 245,350 L 246,350 L 247,350 L 248,350 L 249,350 L 250,354.4798511890018 L 251,360.0162191238009 L 252,365.9520917802341 L 253,372.22815988085716 L 254,378.78171502780083 L 255,385.54727626435425 L 256,392.45724433903905 L 257,399.4425771349845 L 258,406.43347951593773 L 259,413.3601006961933 L 260,420.1532321665546 L 261,426.74499920288065 L 262,433.06953904789265 L 263,439.06365899007454 L 264,444.6674677643565 L 265,449.82497396583864 L 266,450 L 267,450 L 268,450 L 269,450 L 270,450 L 271,450 L 272,450 L 273,450 L 274,450 L 275,450 L 276,450 L 277,450 L 278,450 L 279,450 L 280,450 L 281,447.691963588885 L 282,442.3382975684399 L 283,436.5616012738712 L 284,430.41959354503257 L 285,423.9736432928729 L 286,417.28815632156346 L 287,410.4299318069939 L 288,403.4674948614857 L 289,396.470411853523 L 290,389.50859532359334 L 291,382.6516054411928 L 292,375.96795498260707 L 293,369.52442477389747 L 294,363.38539643896104 L 295,357.61220911962795 L 296,352.2625465952305 L 297,350 L 298,350 L 299,350 L 300,350 L 301,350 L 302,350 L 303,350 L 304,350 L 305,350 L 306,350 L 307,350 L 308,350 L 309,350 L 310,350 L 311,350 L 312,350.2187143965814 L 313,355.3804182694833 L 314,360.9879462537639 L 315,366.98526978340624 L 316,373.3124655841542 L 317,379.90631440705926 L 318,386.70093269431936 L 319,393.6284308660109 L 320,400.6195916503283 L 321,407.60456167968556 L 322,414.51354944247333 L 323,421.2775226167733 L 324,427.82889781850054 L 325,434.10221587223566 L 326,440.03479585766945 L 327,445.56736139663747 L 328,450 L 329,450 L 330,450 L 331,450 L 332,450 L 333,450 L 334,450 L 335,450 L 336,450 L 337,450 L 338,450 L 339,450 L 340,450 L 341,450 L 342,450 L 343,450 L 344,446.8236874264615 L 345,441.3950270905587 L 346,435.55276132734355 L 347,429.355264125126 L 348,422.86445882733057 L 349,416.14519941491744 L 350,409.2646225068441 L 351,402.29147655315916 L 352,395.29543492321653 L 353,388.34639975239884 L 354,381.5138035030869 L 355,374.8659152184482 L 356,368.46915840072273 L 357,362.3874473295468 L 358,356.6815484515972 L 359,351.4084732223429 L 360,350 L 361,350 L 362,350 L 363,350 L 364,350 L 365,350 L 366,350 L 367,350 L 368,350 L 369,350 L 370,350 L 371,350 L 372,350 L 373,350 L 374,350 L 375,351.05319778414315 L 376,356.2936005208526 L 377,361.9707031537429 L 378,368.0277819499065 L 379,374.40431658021674 L 380,381.03659481844915 L 381,387.85834913278757 L 382,394.80141880909497 L 383,401.7964309902392 L 384,408.77349382675027 L 385,415.66289481307575 L 386,422.39579733189385 L 387,428.904928446838 L 388,435.1252510714402 L 389,440.99461379820104 L 390,446.45437189490775 L 391,450 L 392,450 L 393,450 L 394,450 L 395,450 L 396,450 L 397,450 L 398,450 L 399,450 L 400,450 L 401,450 L 402,450 L 403,450 L 404,450 L 405,450 L 406,450 L 407,445.94217293244515 L 408,440.4400531112012 L 409,434.53386964697427 L 410,428.28263517261456 L 411,421.74880995660607 L 412,414.9976778207119 L 413,408.0966938456066 L 414,401.11481038200685 L 415,394.12178810157775 L 416,387.1874989713588 L 417,380.3812281161684 L 418,373.7709815445377 L 419,367.4228066551529 L 420,361.40013231308166 L 421,355.7631350895181 L 422,350.5681379973766 L 423,350 L 424,350 L 425,350 L 426,350 L 427,350 L 428,350 L 429,350 L 430,350 L 431,350 L 432,350 L 433,350 L 434,350 L 435,350 L 436,350 L 437,350 L 438,351.90151976566824 L 439,357.2191397616183 L 440,362.96421197159833 L 441,369.07933353315434 L 442,375.50340417303363 L 443,382.172236700918 L 444,389.0191983466113 L 445,395.97587653265526 L 446,402.9727624301866 L 447,409.9399454681801 L 448,416.8078118567647 L 449,423.50774014519993 L 450,429.97278686473055 L 451,436.1383554055949 L 452,441.9428414449986 L 453,447.32824847714386 L 454,450 L 455,450 L 456,450 L 457,450 L 458,450 L 459,450 L 460,450 L 461,450 L 462,450 L 463,450 L 464,450 L 465,450 L 466,450 L 467,450 L 468,450 L 469,450 L 470,445.04766933498996 L 471,439.47364562751835 L 472,433.505214301189 L 473,427.2020099489136 L 474,420.627012105018 L 475,413.8459159745524 L 476,406.92647602852026 L 477,399.93782902359976 L 478,392.94980321052446 L 479,386.0322206332849 L 480,379.254199490343 L 481,372.6834635284438 L 482,366.3856653693219 L 483,360.42373053040797 L 484,354.85722869385893 L 485,350 L 486,350 L 487,350 L 488,350 L 489,350 L 490,350 L 491,350 L 492,350 L 493,350 L 494,350 L 495,350 L 496,350 L 497,350 L 498,350 L 499,350 L 500,350 L 501,352.7634404974293 L 502,358.15677431663215 L 503,363.96819181533175 L 504,370.1396272308803 L 505,376.60941762061054 L 506,383.31291897757757 L 507,390.18315213210496 L 508,397.15147198550994 L 509,404.14825338923754 L 510,411.10358681632965 L 511,417.9479768743113 L 512,424.6130366801771 L 513,431.03217115952293 L 514,437.1412424425147 L 515,442.87921070828287 L 516,448.18874407463693 L 517,450 L 518,450 L 519,450 L 520,450 L 521,450 L 522,450 L 523,450 L 524,450 L 525,450 L 526,450 L 527,450 L 528,450 L 529,450 L 530,450 L 531,450 L 532,449.34374461899733 L 533,444.14042953462257 L 534,438.49607786922394 L 535,432.46708611886794 L 536,426.11369397620354 L 537,419.4993824353685 L 538,412.69023951087814 L 539,405.75429990803053 L 540,398.76086524262104 L 541,391.7798116021033 L 542,384.8808913668243 L 543,378.13303626729515 L 544,371.60366864112603 L 545,365.358027771316 L 546,359.45851803690107 L 547,353.96408538902915 L 548,350 L 549,350 L 550,350 L 551,350 L 552,350 L 553,350 L 554,350 L 555,350 L 556,350 L 557,350 L 558,350 L 559,350 L 560,350 L 561,350 L 562,350 L 563,350 L 564,353.6387162909634 L 565,359.10623909107 L 566,364.9823588324989 L 567,371.2083632691803 L 568,377.7220442228263 L 569,384.4583191464847 L 570,391.34988140783435 L 571,398.3278727948083 L 572,405.32257152408476 L 573,412.2640888781008 L 574,419.08306751001567 L 575,425.7113744393934 L 576,432.0827818144236 L 577,438.1336286387218 L 578,443.8034568509635 L 579,449.0356154018482 L 580,450 L 581,450 L 582,450 L 583,450 L 584,450 L 585,450 L 586,450 L 587,450 L 588,450 L 589,450 L 590,450 L 591,450 L 592,450 L 593,450 L 594,450 L 595,448.5019467963587 L 596,443.2207100327423 L 597,437.5076262213461 L 598,431.4197786071189 L 599,425.01799495104734 L 600,418.366239759275 L 601,411.53097517089924 L 602,404.5804968902495 L 603,397.5842517987833 L 604,390.6121440648035 L 605,383.73383668411606 L 606,377.0180554304018 L 607,370.531902170006 L 608,364.34018440226953 L 609,358.5047677244177 L 610,353.08395769096376 L 611,350 L 612,350 L 613,350 L 614,350 L 615,350 L 616,350 L 617,350 L 618,350 L 619,350 L 620,350 L 621,350 L 622,350 L 623,350 L 624,350 L 625,350 L 626,350 L 627,354.5270996819663 L 628,360.06726564538394 L 629,366.0064262904659 L 630,372.2852394872716 L 631,378.8409694098391 L 632,385.6081133718179 L 633,392.5190563076603 L 634,399.50474636000536 L 635,406.4953848230116 L 636,413.42112354795563 L 637,420.21276284284204 L 638,426.80244289285383 L 639,433.12432179319 L 640,439.11523341961316 L 641,444.7153185634851 L 642,449.8686230251898 L 643,450 L 644,450 L 645,450 L 646,450 L 647,450 L 648,450 L 649,450 L 650,450 L 651,450 L 652,450 L 653,450 L 654,450 L 655,450 L 656,450 L 657,450 L 658,447.6464361524986 L 659,442.2887708590985 L 660,436.5085701460838 L 661,430.3635878682979 L 662,423.9152226573996 L 663,417.22790444703014 L 664,410.36845071021406 L 665,403.4053988412561 L 666,396.40832135275105 L 667,389.44713073003817 L 668,382.59138088875596 L 669,375.9095722151089 L 670,369.4684671326523 L 671,363.33242303422276 L 672,357.56274924414583 L 673,352.2170944357313 L 674,350 L 675,350 L 676,350 L 677,350 L 678,350 L 679,350 L 680,350 L 681,350 L 682,350 L 683,350 L 684,350 L 685,350 L 686,350 L 687,350 L 688,350 L 689,350.2624420276079 L 690,355.42833950026034 L 691,361.03958227119443 L 692,367.0401046574729 L 693,373.3699514229211 L 694,379.96587683102774 L 695,386.7619765754376 L 696,393.6903462739974 L 697,400.68175994689324 L 698,407.6663616997596 L 699,414.57436370068416" fill="none" stroke="#ef4444" stroke-width="2" opacity="1.0"  /><text x="400" y="50" font-family="Inter, system-ui, sans-serif" font-size="24" fill="#1e293b" text-anchor="middle" font-weight="bold" >Loudness War: Dynamic Range Loss</text></svg>