<svg xmlns="http://www.w3.org/2000/svg" viewBox="0 0 800 600"><rect x="0" y="0" width="800" height="600" fill="#f8f9fa" /><rect x="0.0" y="300" width="100" height="60" rx="5" fill="#e0e7ff" stroke="#3730a3" stroke-width="2" opacity="1.0" /><text x="50.0" y="335.0" font-family="Arial, sans-serif" font-size="20" fill="#3730a3" text-anchor="middle" font-weight="bold" >Mix</text><line x1="100.0" y1="330.0" x2="140.0" y2="330.0" stroke="#333" stroke-width="2" opacity="1.0"  /><path d="M 130.0 325.0 L 140.0 330.0 L 130.0 335.0" fill="#333" stroke="none" stroke-width="0" opacity="1.0"  /><rect x="140.0" y="300" width="100" height="60" rx="5" fill="#e0e7ff" stroke="#3730a3" stroke-width="2" opacity="1.0" /><text x="190.0" y="335.0" font-family="Arial, sans-serif" font-size="20" fill="#3730a3" text-anchor="middle" font-weight="bold" >EQ</text><line x1="240.0" y1="330.0" x2="280.0" y2="330.0" stroke="#333" stroke-width="2" opacity="1.0"  /><path d="M 270.0 325.0 L 280.0 330.0 L 270.0 335.0" fill="#333" stroke="none" stroke-width="0" opacity="1.0"  /><rect x="280.0" y="300" width="100" height="60" rx="5" fill="#e0e7ff" stroke="#3730a3" stroke-width="2" opacity="1.0" /><text x="330.0" y="335.0" font-family="Arial, sans-serif" font-size="20" fill="#3730a3" text-anchor="middle" font-weight="bold" >Comp</text><line x1="380.0" y1="330.0" x2="420.0" y2="330.0" stroke="#333" stroke-width="2" opacity="1.0"  /><path d="M 410.0 325.0 L 420.0 330.0 L 410.0 335.0" fill="#333" stroke="none" stroke-width="0" opacity="1.0"  /><rect x="420.0" y="300" width="100" height="60" rx="5" fill="#fee2e2" stroke="#991b1b" stroke-width="2" opacity="1.0" /><text x="470.0" y="335.0" font-family="Arial, sans-serif" font-size="20" fill="#991b1b" text-anchor="middle" font-weight="bold" >Limit</text><line x1="520.0" y1="330.0" x2="560.0" y2="330.0" stroke="#333" stroke-width="2" opacity="1.0"  /><path d="M 550.0 325.0 L 560.0 330.0 L 550.0 335.0" fill="#333" stroke="none" stroke-width="0" opacity="1.0"  /><rect x="560.0" y="300" width="100" height="60" rx="5" fill="#e0e7ff" stroke="#3730a3" stroke-width="2" opacity="1.0" /><text x="610.0" y="335.0" font-family="Arial, sans-serif" font-size="20" fill="#3730a3" text-anchor="middle" font-weight="bold" >Dither</text><line x1="660.0" y1="330.0" x2="700.0" y2="330.0" stroke="#333" stroke-width="2" opacity="1.0"  /><path d="M 690.0 325.0 L 700.0 330.0 L 690.0 335.0" fill="#333" stroke="none" stroke-width="0" opacity="1.0"  /><rect x="700.0" y="300" width="100" height="60" rx="5" fill="#dcfce7" stroke="#166534" stroke-width="2" opacity="1.0" /><text x="750.0" y="335.0" font-family="Arial, sans-serif" font-size="20" fill="#166534" text-anchor="middle" font-weight="bold" >Master</text><text x="400" y="100" font-family="Arial, sans-serif" font-size="24" fill="black" text-anchor="middle" font-weight="bold" >Typical Mastering Signal Flow</text></svg>