<svg xmlns="http://www.w3.org/2000/svg" viewBox="0 0 800 600"><rect x="0" y="0" width="800" height="600" fill="#f8fafc" /><rect x="50" y="150" width="300" height="100" rx="0" fill="white" stroke="black" stroke-width="0" opacity="1.0" /><rect x="50" y="150" width="20" height="100" rx="0" fill="white" stroke="black" stroke-width="0" opacity="1.0" /><rect x="70" y="150" width="20" height="100" rx="0" fill="white" stroke="black" stroke-width="0" opacity="1.0" /><rect x="90" y="150" width="20" height="100" rx="0" fill="white" stroke="black" stroke-width="0" opacity="1.0" /><rect x="110" y="150" width="20" height="100" rx="0" fill="white" stroke="black" stroke-width="0" opacity="1.0" /><rect x="130" y="150" width="20" height="100" rx="0" fill="white" stroke="black" stroke-width="0" opacity="1.0" /><rect x="150" y="150" width="20" height="100" rx="0" fill="white" stroke="black" stroke-width="0" opacity="1.0" /><rect x="170" y="150" width="20" height="100" rx="0" fill="white" stroke="black" stroke-width="0" opacity="1.0" /><rect x="190" y="150" width="20" height="100" rx="0" fill="white" stroke="black" stroke-width="0" opacity="1.0" /><rect x="210" y="150" width="20" height="100" rx="0" fill="white" stroke="black" stroke-width="0" opacity="1.0" /><rect x="230" y="150" width="20" height="100" rx="0" fill="white" stroke="black" stroke-width="0" opacity="1.0" /><rect x="250" y="150" width="20" height="100" rx="0" fill="white" stroke="black" stroke-width="0" opacity="1.0" /><rect x="270" y="150" width="20" height="100" rx="0" fill="white" stroke="black" stroke-width="0" opacity="1.0" /><rect x="290" y="150" width="20" height="100" rx="0" fill="white" stroke="black" stroke-width="0" opacity="1.0" /><rect x="310" y="150" width="20" height="100" rx="0" fill="white" stroke="black" stroke-width="0" opacity="1.0" /><rect x="330" y="150" width="20" height="100" rx="0" fill="white" stroke="black" stroke-width="0" opacity="1.0" /><text x="200" y="280" font-family="Inter, system-ui, sans-serif" font-size="20" fill="#1e293b" text-anchor="middle" font-weight="normal" >Keyboard (Notes/Chords)</text><rect x="450" y="150" width="160" height="160" rx="0" fill="#333" stroke="black" stroke-width="0" opacity="1.0" /><rect x="460" y="160" width="30" height="30" rx="0" fill="#666" stroke="none" stroke-width="0" opacity="1.0" /><rect x="495" y="160" width="30" height="30" rx="0" fill="#666" stroke="none" stroke-width="0" opacity="1.0" /><rect x="530" y="160" width="30" height="30" rx="0" fill="#666" stroke="none" stroke-width="0" opacity="1.0" /><rect x="565" y="160" width="30" height="30" rx="0" fill="#666" stroke="none" stroke-width="0" opacity="1.0" /><rect x="460" y="195" width="30" height="30" rx="0" fill="#666" stroke="none" stroke-width="0" opacity="1.0" /><rect x="495" y="195" width="30" height="30" rx="0" fill="#666" stroke="none" stroke-width="0" opacity="1.0" /><rect x="530" y="195" width="30" height="30" rx="0" fill="#666" stroke="none" stroke-width="0" opacity="1.0" /><rect x="565" y="195" width="30" height="30" rx="0" fill="#666" stroke="none" stroke-width="0" opacity="1.0" /><rect x="460" y="230" width="30" height="30" rx="0" fill="#666" stroke="none" stroke-width="0" opacity="1.0" /><rect x="495" y="230" width="30" height="30" rx="0" fill="#666" stroke="none" stroke-width="0" opacity="1.0" /><rect x="530" y="230" width="30" height="30" rx="0" fill="#666" stroke="none" stroke-width="0" opacity="1.0" /><rect x="565" y="230" width="30" height="30" rx="0" fill="#666" stroke="none" stroke-width="0" opacity="1.0" /><rect x="460" y="265" width="30" height="30" rx="0" fill="#666" stroke="none" stroke-width="0" opacity="1.0" /><rect x="495" y="265" width="30" height="30" rx="0" fill="#666" stroke="none" stroke-width="0" opacity="1.0" /><rect x="530" y="265" width="30" height="30" rx="0" fill="#666" stroke="none" stroke-width="0" opacity="1.0" /><rect x="565" y="265" width="30" height="30" rx="0" fill="#666" stroke="none" stroke-width="0" opacity="1.0" /><text x="530" y="340" font-family="Inter, system-ui, sans-serif" font-size="20" fill="#1e293b" text-anchor="middle" font-weight="normal" >Drum Pads (Beats)</text><rect x="250" y="400" width="300" height="150" rx="0" fill="#ddd" stroke="black" stroke-width="0" opacity="1.0" /><line x1="270" y1="420" x2="270" y2="530" stroke="black" stroke-width="2" opacity="1.0"  /><rect x="265" y="480" width="10" height="20" rx="0" fill="#333" stroke="none" stroke-width="0" opacity="1.0" /><line x1="305" y1="420" x2="305" y2="530" stroke="black" stroke-width="2" opacity="1.0"  /><rect x="300" y="480" width="10" height="20" rx="0" fill="#333" stroke="none" stroke-width="0" opacity="1.0" /><line x1="340" y1="420" x2="340" y2="530" stroke="black" stroke-width="2" opacity="1.0"  /><rect x="335" y="480" width="10" height="20" rx="0" fill="#333" stroke="none" stroke-width="0" opacity="1.0" /><line x1="375" y1="420" x2="375" y2="530" stroke="black" stroke-width="2" opacity="1.0"  /><rect x="370" y="480" width="10" height="20" rx="0" fill="#333" stroke="none" stroke-width="0" opacity="1.0" /><line x1="410" y1="420" x2="410" y2="530" stroke="black" stroke-width="2" opacity="1.0"  /><rect x="405" y="480" width="10" height="20" rx="0" fill="#333" stroke="none" stroke-width="0" opacity="1.0" /><line x1="445" y1="420" x2="445" y2="530" stroke="black" stroke-width="2" opacity="1.0"  /><rect x="440" y="480" width="10" height="20" rx="0" fill="#333" stroke="none" stroke-width="0" opacity="1.0" /><line x1="480" y1="420" x2="480" y2="530" stroke="black" stroke-width="2" opacity="1.0"  /><rect x="475" y="480" width="10" height="20" rx="0" fill="#333" stroke="none" stroke-width="0" opacity="1.0" /><line x1="515" y1="420" x2="515" y2="530" stroke="black" stroke-width="2" opacity="1.0"  /><rect x="510" y="480" width="10" height="20" rx="0" fill="#333" stroke="none" stroke-width="0" opacity="1.0" /><text x="400" y="580" font-family="Inter, system-ui, sans-serif" font-size="20" fill="#1e293b" text-anchor="middle" font-weight="normal" >Fader Bank (Mixing)</text><text x="400" y="50" font-family="Inter, system-ui, sans-serif" font-size="24" fill="#1e293b" text-anchor="middle" font-weight="bold" >MIDI Controller Types</text></svg>