<svg xmlns="http://www.w3.org/2000/svg" viewBox="0 0 800 600"><rect x="0" y="0" width="800" height="600" fill="#f8fafc" /><line x1="100.0" y1="100" x2="100.0" y2="500" stroke="#ddd" stroke-width="2" opacity="1.0"  /><line x1="137.5" y1="100" x2="137.5" y2="500" stroke="#ddd" stroke-width="2" opacity="1.0"  /><line x1="175.0" y1="100" x2="175.0" y2="500" stroke="#ddd" stroke-width="2" opacity="1.0"  /><line x1="212.5" y1="100" x2="212.5" y2="500" stroke="#ddd" stroke-width="2" opacity="1.0"  /><line x1="250.0" y1="100" x2="250.0" y2="500" stroke="#ddd" stroke-width="2" opacity="1.0"  /><line x1="287.5" y1="100" x2="287.5" y2="500" stroke="#ddd" stroke-width="2" opacity="1.0"  /><line x1="325.0" y1="100" x2="325.0" y2="500" stroke="#ddd" stroke-width="2" opacity="1.0"  /><line x1="362.5" y1="100" x2="362.5" y2="500" stroke="#ddd" stroke-width="2" opacity="1.0"  /><line x1="400.0" y1="100" x2="400.0" y2="500" stroke="#ddd" stroke-width="2" opacity="1.0"  /><line x1="437.5" y1="100" x2="437.5" y2="500" stroke="#ddd" stroke-width="2" opacity="1.0"  /><line x1="475.0" y1="100" x2="475.0" y2="500" stroke="#ddd" stroke-width="2" opacity="1.0"  /><line x1="512.5" y1="100" x2="512.5" y2="500" stroke="#ddd" stroke-width="2" opacity="1.0"  /><line x1="550.0" y1="100" x2="550.0" y2="500" stroke="#ddd" stroke-width="2" opacity="1.0"  /><line x1="587.5" y1="100" x2="587.5" y2="500" stroke="#ddd" stroke-width="2" opacity="1.0"  /><line x1="625.0" y1="100" x2="625.0" y2="500" stroke="#ddd" stroke-width="2" opacity="1.0"  /><line x1="662.5" y1="100" x2="662.5" y2="500" stroke="#ddd" stroke-width="2" opacity="1.0"  /><line x1="100" y1="100.0" x2="700" y2="100.0" stroke="#ddd" stroke-width="2" opacity="1.0"  /><line x1="100" y1="150.0" x2="700" y2="150.0" stroke="#ddd" stroke-width="2" opacity="1.0"  /><line x1="100" y1="200.0" x2="700" y2="200.0" stroke="#ddd" stroke-width="2" opacity="1.0"  /><line x1="100" y1="250.0" x2="700" y2="250.0" stroke="#ddd" stroke-width="2" opacity="1.0"  /><line x1="100" y1="300.0" x2="700" y2="300.0" stroke="#ddd" stroke-width="2" opacity="1.0"  /><line x1="100" y1="350.0" x2="700" y2="350.0" stroke="#ddd" stroke-width="2" opacity="1.0"  /><line x1="100" y1="400.0" x2="700" y2="400.0" stroke="#ddd" stroke-width="2" opacity="1.0"  /><line x1="100" y1="450.0" x2="700" y2="450.0" stroke="#ddd" stroke-width="2" opacity="1.0"  /><rect x="102.0" y="252.0" width="33.5" height="46.0" rx="2" fill="#3b82f6" stroke="none" stroke-width="0" opacity="1.0"  /><rect x="177.0" y="252.0" width="33.5" height="46.0" rx="2" fill="#3b82f6" stroke="none" stroke-width="0" opacity="1.0"  /><rect x="252.0" y="202.0" width="33.5" height="46.0" rx="2" fill="#3b82f6" stroke="none" stroke-width="0" opacity="1.0"  /><rect x="327.0" y="302.0" width="33.5" height="46.0" rx="2" fill="#3b82f6" stroke="none" stroke-width="0" opacity="1.0"  /><rect x="402.0" y="252.0" width="33.5" height="46.0" rx="2" fill="#3b82f6" stroke="none" stroke-width="0" opacity="1.0"  /><rect x="477.0" y="252.0" width="33.5" height="46.0" rx="2" fill="#3b82f6" stroke="none" stroke-width="0" opacity="1.0"  /><rect x="552.0" y="202.0" width="33.5" height="46.0" rx="2" fill="#3b82f6" stroke="none" stroke-width="0" opacity="1.0"  /><rect x="627.0" y="302.0" width="33.5" height="46.0" rx="2" fill="#3b82f6" stroke="none" stroke-width="0" opacity="1.0"  /><text x="400" y="50" font-family="Inter, system-ui, sans-serif" font-size="24" fill="#1e293b" text-anchor="middle" font-weight="bold" >Step Sequencer / Piano Roll</text></svg>