<svg xmlns="http://www.w3.org/2000/svg" viewBox="0 0 800 600"><rect x="0" y="0" width="800" height="600" fill="#f8f9fa" /><rect x="200" y="200" width="400" height="200" rx="10" fill="#555" stroke="none" stroke-width="0" opacity="1.0"  /><rect x="260" y="250" width="10" height="100" rx="0" fill="#bcaaa4" stroke="orange" stroke-width="0" opacity="1.0"  /><text x="265" y="380" font-family="Arial, sans-serif" font-size="12" fill="white" text-anchor="middle" font-weight="normal" >1</text><rect x="300" y="250" width="10" height="100" rx="0" fill="#bcaaa4" stroke="orange" stroke-width="0" opacity="1.0"  /><text x="305" y="380" font-family="Arial, sans-serif" font-size="12" fill="white" text-anchor="middle" font-weight="normal" >2</text><rect x="340" y="250" width="10" height="100" rx="0" fill="#bcaaa4" stroke="orange" stroke-width="0" opacity="1.0"  /><text x="345" y="380" font-family="Arial, sans-serif" font-size="12" fill="white" text-anchor="middle" font-weight="normal" >3</text><rect x="380" y="250" width="10" height="100" rx="0" fill="#bcaaa4" stroke="orange" stroke-width="0" opacity="1.0"  /><text x="385" y="380" font-family="Arial, sans-serif" font-size="12" fill="white" text-anchor="middle" font-weight="normal" >4</text><rect x="420" y="250" width="10" height="100" rx="0" fill="#bcaaa4" stroke="orange" stroke-width="0" opacity="1.0"  /><text x="425" y="380" font-family="Arial, sans-serif" font-size="12" fill="white" text-anchor="middle" font-weight="normal" >5</text><rect x="460" y="250" width="10" height="100" rx="0" fill="#bcaaa4" stroke="orange" stroke-width="0" opacity="1.0"  /><text x="465" y="380" font-family="Arial, sans-serif" font-size="12" fill="white" text-anchor="middle" font-weight="normal" >6</text><rect x="500" y="250" width="10" height="100" rx="0" fill="#bcaaa4" stroke="orange" stroke-width="0" opacity="1.0"  /><text x="505" y="380" font-family="Arial, sans-serif" font-size="12" fill="white" text-anchor="middle" font-weight="normal" >7</text><rect x="540" y="250" width="10" height="100" rx="0" fill="#bcaaa4" stroke="orange" stroke-width="0" opacity="1.0"  /><text x="545" y="380" font-family="Arial, sans-serif" font-size="12" fill="white" text-anchor="middle" font-weight="normal" >8</text><text x="400" y="100" font-family="Arial, sans-serif" font-size="24" fill="black" text-anchor="middle" font-weight="bold" >Multitrack Tape Head (8 Track)</text></svg>