<svg xmlns="http://www.w3.org/2000/svg" viewBox="0 0 800 500">
  <defs>
    <style>
      @import url('https://fonts.googleapis.com/css2?family=Inter:wght@400;600&display=swap');
      text { font-family: 'Inter', system-ui, -apple-system, sans-serif; }
      .bg { fill: #f8fafc; }
      .grid { stroke: #e2e8f0; stroke-width: 1; }
      .axis { stroke: #94a3b8; stroke-width: 2; }
      .line-primary { fill: none; stroke: #3b82f6; stroke-width: 4; stroke-linecap: round; stroke-linejoin: round; }
      .line-secondary { fill: none; stroke: #64748b; stroke-width: 3; stroke-linecap: round; stroke-dasharray: 6 4; }
      .line-accent { fill: none; stroke: #ef4444; stroke-width: 3; stroke-linecap: round; }
      .text-title { font-size: 24px; font-weight: 600; fill: #1e293b; text-anchor: middle; }
      .text-label { font-size: 14px; font-weight: 400; fill: #475569; text-anchor: middle; }
      .box { fill: #eff6ff; stroke: #3b82f6; stroke-width: 2; rx: 8; }
      .box-text { font-size: 16px; font-weight: 600; fill: #1e293b; text-anchor: middle; dominant-baseline: middle; }
    </style>
  </defs>
  <rect width="800" height="500" class="bg" />
  <text x="400.0" y="40" class="text-title">Optical Response Curve</text>
<line x1="128.0" y1="440" x2="128.0" y2="60" class="grid" /><line x1="60" y1="98.0" x2="740" y2="98.0" class="grid" /><line x1="196.0" y1="440" x2="196.0" y2="60" class="grid" /><line x1="60" y1="136.0" x2="740" y2="136.0" class="grid" /><line x1="264.0" y1="440" x2="264.0" y2="60" class="grid" /><line x1="60" y1="174.0" x2="740" y2="174.0" class="grid" /><line x1="332.0" y1="440" x2="332.0" y2="60" class="grid" /><line x1="60" y1="212.0" x2="740" y2="212.0" class="grid" /><line x1="400.0" y1="440" x2="400.0" y2="60" class="grid" /><line x1="60" y1="250.0" x2="740" y2="250.0" class="grid" /><line x1="468.0" y1="440" x2="468.0" y2="60" class="grid" /><line x1="60" y1="288.0" x2="740" y2="288.0" class="grid" /><line x1="536.0" y1="440" x2="536.0" y2="60" class="grid" /><line x1="60" y1="326.0" x2="740" y2="326.0" class="grid" /><line x1="604.0" y1="440" x2="604.0" y2="60" class="grid" /><line x1="60" y1="364.0" x2="740" y2="364.0" class="grid" /><line x1="672.0" y1="440" x2="672.0" y2="60" class="grid" /><line x1="60" y1="402.0" x2="740" y2="402.0" class="grid" /><line x1="60" y1="440" x2="740" y2="440" class="axis" /><line x1="60" y1="440" x2="60" y2="60" class="axis" /><path d="M 60.0 438.82476027760026 L 66.8 438.53556112905574 L 73.6 438.1832890399182 L 80.4 437.756271900547 L 87.2 437.2411733040419 L 94.0 436.6228650523743 L 100.8 435.8843141984577 L 107.6 435.0064912822588 L 114.4 433.96830719771145 L 121.19999999999999 432.7465867886684 L 128.0 431.3160877614967 L 134.8 429.6495737606818 L 141.6 427.7179504222544 L 148.4 425.4904728399981 L 155.2 422.93503209842333 L 162.0 420.01852730057476 L 168.8 416.70732781712996 L 175.60000000000002 412.96782829234655 L 182.39999999999998 408.76709626964174 L 189.2 404.0736091767387 L 196.0 398.85807389606975 L 202.79999999999998 393.09431832752324 L 209.6 386.7602403430741 L 216.4 379.8387954785811 L 223.2 372.31900077281716 L 230.0 364.196928531702 L 236.8 355.476660662229 L 243.60000000000002 346.17117178406784 L 250.4 336.303107778636 L 257.2 325.9054259491745 L 264.0 315.021863685815 L 270.8 303.7072045619533 L 277.6 292.0273141881686 L 284.4 280.05892291558916 L 291.20000000000005 267.88913854677196 L 298.0 255.61467944735944 L 304.79999999999995 243.3408266588369 L 311.6 231.18010253295412 L 318.4 219.250692729598 L 325.2 207.67463778786689 L 332.0 196.57582951329036 L 338.8 186.0778557309733 L 345.59999999999997 176.30174415224315 L 352.4 167.3636618369519 L 359.2 159.37263069846273 L 366.0 152.4283214523433 L 372.8 146.61898819193715 L 379.59999999999997 142.0196033147464 L 386.4 138.69024785156137 L 393.2 136.67480549397567 L 400.0 136.0 L 406.8 136.67480549397567 L 413.6 138.69024785156137 L 420.40000000000003 142.0196033147464 L 427.20000000000005 146.61898819193715 L 434.00000000000006 152.4283214523433 L 440.8 159.37263069846273 L 447.59999999999997 167.3636618369519 L 454.4 176.30174415224315 L 461.2 186.0778557309733 L 468.0 196.57582951329036 L 474.8 207.67463778786689 L 481.6 219.250692729598 L 488.4 231.18010253295412 L 495.2 243.3408266588369 L 502.0 255.61467944735944 L 508.8 267.88913854677196 L 515.6 280.05892291558916 L 522.4000000000001 292.0273141881686 L 529.2 303.7072045619533 L 536.0 315.021863685815 L 542.8 325.9054259491745 L 549.5999999999999 336.303107778636 L 556.4 346.17117178406784 L 563.2 355.476660662229 L 570.0 364.196928531702 L 576.8 372.31900077281716 L 583.6 379.8387954785811 L 590.4 386.7602403430741 L 597.2 393.09431832752324 L 604.0 398.85807389606975 L 610.8000000000001 404.0736091767387 L 617.6 408.76709626964174 L 624.4 412.96782829234655 L 631.1999999999999 416.70732781712996 L 638.0 420.01852730057476 L 644.8 422.93503209842333 L 651.6 425.4904728399981 L 658.4 427.7179504222544 L 665.2 429.6495737606818 L 672.0 431.3160877614967 L 678.8000000000001 432.7465867886684 L 685.6 433.96830719771145 L 692.4 435.0064912822588 L 699.1999999999999 435.8843141984577 L 706.0 436.6228650523743 L 712.8 437.2411733040419 L 719.6 437.756271900547 L 726.4 438.1832890399182 L 733.2 438.53556112905574 L 740.0 438.82476027760026" class="line-primary" /></svg>