<svg xmlns="http://www.w3.org/2000/svg" viewBox="0 0 800 600"><rect x="0" y="0" width="800" height="600" fill="#f8fafc" /><rect x="350" y="100" width="100" height="50" rx="0" fill="#ddd" stroke="#334155" stroke-width="0" opacity="1.0" /><text x="400" y="130" font-family="Inter, system-ui, sans-serif" font-size="20" fill="#1e293b" text-anchor="middle" font-weight="normal" >Input</text><line x1="400" y1="150" x2="250" y2="200" stroke="black" stroke-width="2" opacity="1.0"  /><line x1="400" y1="150" x2="550" y2="200" stroke="black" stroke-width="2" opacity="1.0"  /><rect x="200" y="200" width="100" height="150" rx="0" fill="#eee" stroke="#334155" stroke-width="0" opacity="1.0" /><text x="250" y="280" font-family="Inter, system-ui, sans-serif" font-size="20" fill="#1e293b" text-anchor="middle" font-weight="normal" >Dry (Unprocessed)</text><rect x="500" y="200" width="100" height="100" rx="0" fill="#ffcccc" stroke="#ef4444" stroke-width="2" opacity="1.0" /><text x="550" y="250" font-family="Inter, system-ui, sans-serif" font-size="20" fill="#ef4444" text-anchor="middle" font-weight="normal" >Heavy Comp</text><rect x="500" y="320" width="100" height="30" rx="0" fill="#eee" stroke="#334155" stroke-width="0" opacity="1.0" /><text x="550" y="340" font-family="Inter, system-ui, sans-serif" font-size="20" fill="#1e293b" text-anchor="middle" font-weight="normal" >Wet Level</text><line x1="550" y1="300" x2="550" y2="320" stroke="black" stroke-width="2" opacity="1.0"  /><line x1="250" y1="350" x2="400" y2="450" stroke="black" stroke-width="2" opacity="1.0"  /><line x1="550" y1="350" x2="400" y2="450" stroke="black" stroke-width="2" opacity="1.0"  /><rect x="350" y="450" width="100" height="50" rx="0" fill="#ddd" stroke="#334155" stroke-width="0" opacity="1.0" /><text x="400" y="480" font-family="Inter, system-ui, sans-serif" font-size="20" fill="#1e293b" text-anchor="middle" font-weight="normal" >Master Bus</text><text x="400" y="50" font-family="Inter, system-ui, sans-serif" font-size="24" fill="#1e293b" text-anchor="middle" font-weight="bold" >Parallel Compression Routing</text></svg>