<svg xmlns="http://www.w3.org/2000/svg" viewBox="0 0 800 600"><rect x="0" y="0" width="800" height="600" fill="#f8f9fa" /><rect x="100" y="200" width="600" height="100" rx="0" fill="#333" stroke="#999" stroke-width="0" opacity="1.0"  /><circle cx="150" cy="230" r="20" fill="#111" stroke="#555" stroke-width="0" opacity="1.0" /><circle cx="150" cy="270" r="20" fill="#111" stroke="#555" stroke-width="0" opacity="1.0" /><circle cx="220" cy="230" r="20" fill="#111" stroke="#555" stroke-width="0" opacity="1.0" /><circle cx="220" cy="270" r="20" fill="#111" stroke="#555" stroke-width="0" opacity="1.0" /><circle cx="290" cy="230" r="20" fill="#111" stroke="#555" stroke-width="0" opacity="1.0" /><circle cx="290" cy="270" r="20" fill="#111" stroke="#555" stroke-width="0" opacity="1.0" /><circle cx="360" cy="230" r="20" fill="#111" stroke="#555" stroke-width="0" opacity="1.0" /><circle cx="360" cy="270" r="20" fill="#111" stroke="#555" stroke-width="0" opacity="1.0" /><circle cx="430" cy="230" r="20" fill="#111" stroke="#555" stroke-width="0" opacity="1.0" /><circle cx="430" cy="270" r="20" fill="#111" stroke="#555" stroke-width="0" opacity="1.0" /><circle cx="500" cy="230" r="20" fill="#111" stroke="#555" stroke-width="0" opacity="1.0" /><circle cx="500" cy="270" r="20" fill="#111" stroke="#555" stroke-width="0" opacity="1.0" /><circle cx="570" cy="230" r="20" fill="#111" stroke="#555" stroke-width="0" opacity="1.0" /><circle cx="570" cy="270" r="20" fill="#111" stroke="#555" stroke-width="0" opacity="1.0" /><circle cx="640" cy="230" r="20" fill="#111" stroke="#555" stroke-width="0" opacity="1.0" /><circle cx="640" cy="270" r="20" fill="#111" stroke="#555" stroke-width="0" opacity="1.0" /><path d="M 750 230 Q 800 250 750 270" fill="none" stroke="green" stroke-width="4" opacity="1.0"  /><text x="820" y="250" font-family="Arial, sans-serif" font-size="20" fill="green" text-anchor="start" font-weight="normal" font-style="normal" >Normalled</text><text x="400" y="50" font-family="Arial, sans-serif" font-size="24" fill="black" text-anchor="middle" font-weight="bold" font-style="normal" >Patchbay Normalisation</text></svg>