<svg xmlns="http://www.w3.org/2000/svg" viewBox="0 0 800 500" style="background-color: #1a1a1a; font-family: 'Courier New', monospace;">
  <!-- Vintage aesthetic background -->
  <rect width="800" height="500" fill="#1a1a1a"/>
  
  <!-- Base -->
  <rect x="150" y="350" width="500" height="50" rx="5" fill="#8B4513" stroke="#5d2e0c" stroke-width="2"/>
  <rect x="160" y="360" width="480" height="30" rx="2" fill="#A0522D" opacity="0.5"/>

  <!-- Cylinder Mechanism -->
  <!-- Mandrel -->
  <rect x="250" y="250" width="300" height="80" rx="2" fill="#C0C0C0" stroke="#888" stroke-width="2"/>
  <!-- Wax Cylinder (Grooved) -->
  <rect x="270" y="245" width="260" height="90" rx="3" fill="#D2B48C" stroke="#8B4513" stroke-width="1"/>
  <line x1="270" y1="260" x2="530" y2="260" stroke="#8B4513" stroke-width="1" stroke-opacity="0.5"/>
  <line x1="270" y1="275" x2="530" y2="275" stroke="#8B4513" stroke-width="1" stroke-opacity="0.5"/>
  <line x1="270" y1="290" x2="530" y2="290" stroke="#8B4513" stroke-width="1" stroke-opacity="0.5"/>
  <line x1="270" y1="305" x2="530" y2="305" stroke="#8B4513" stroke-width="1" stroke-opacity="0.5"/>
  <line x1="270" y1="320" x2="530" y2="320" stroke="#8B4513" stroke-width="1" stroke-opacity="0.5"/>

  <!-- Stylus Arm -->
  <path d="M 400 245 L 400 200 L 200 200" fill="none" stroke="#FFD700" stroke-width="8"/>
  <circle cx="200" cy="200" r="10" fill="#DAA520"/>
  
  <!-- Needle -->
  <path d="M 400 245 L 400 255" stroke="#fff" stroke-width="2"/>

  <!-- Horn -->
  <path d="M 200 200 L 100 100 C 50 150 50 250 100 300 L 200 200" fill="#333" stroke="#FFD700" stroke-width="3"/>
  <ellipse cx="80" cy="200" rx="30" ry="100" fill="#111" stroke="#FFD700" stroke-width="2"/>

  <!-- Crank Handle -->
  <path d="M 550 290 L 600 290 L 600 330 L 620 330" fill="none" stroke="#888" stroke-width="5"/>
  <rect x="620" y="320" width="20" height="20" rx="2" fill="#555"/>

  <!-- Labels -->
  <text x="400" y="440" fill="#FFD700" font-size="28" text-anchor="middle" font-weight="bold">EDISON PHONOGRAPH (1877)</text>
  <text x="400" y="470" fill="#aaa" font-size="16" text-anchor="middle">"Mary had a little lamb..."</text>
  
  <text x="350" y="230" fill="#fff" font-size="14">Stylus</text>
  <line x1="350" y1="235" x2="395" y2="245" stroke="#fff" stroke-width="1"/>

  <text x="540" y="260" fill="#fff" font-size="14">Wax Cylinder</text>
  <line x1="535" y1="260" x2="500" y2="270" stroke="#fff" stroke-width="1"/>

</svg>