<svg xmlns="http://www.w3.org/2000/svg" viewBox="0 0 800 600"><rect x="0" y="0" width="800" height="600" fill="#f8f9fa" /><line x1="100" y1="500" x2="700" y2="500" stroke="#333" stroke-width="1" opacity="1.0"  /><line x1="100" y1="500" x2="100" y2="100" stroke="#333" stroke-width="1" opacity="1.0"  /><path d="M 100.0,221.05210619209555 L 106.0,217.3365693659988 L 112.0,214.0009620949128 L 118.0,211.1433255757031 L 124.0,208.8613574176556 L 130.0,207.24779667993147 L 136.0,206.38507197905795 L 142.0,206.33945846564086 L 148.0,207.15509698822913 L 154.0,208.84832353746054 L 160.0,211.40282421955075 L 166.0,214.766156049311 L 172.0,218.84814495221508 L 178.0,223.52158270707866 L 184.0,228.62549433340314 L 190.0,233.97104504202875 L 196.0,239.34991805769857 L 202.0,244.5447452163545 L 208.0,249.34093962904922 L 214.0,253.53909325932327 L 220.0,256.9669881922153 L 226.0,259.49024767468086 L 232.0,261.02073017933617 L 238.0,261.521942905907 L 244.0,261.0110039359282 L 250.0,259.5569876857686 L 256.0,257.27581218285934 L 262.0,254.32213231431163 L 268.0,250.87895638103487 L 274.0,247.14587701041148 L 280.0,243.326885365663 L 286.0,239.61871573563985 L 292.0,236.20055446651835 L 298.0,233.22576176908626 L 304.0,230.81602337894392 L 310.0,229.0581006991681 L 316.0,228.00311127320083 L 322.0,227.6680700176941 L 328.0,228.03927229597542 L 334.0,229.07701102037885 L 340.0,230.72109170444358 L 346.0,232.8966349145282 L 352.0,235.5197230594626 L 358.0,238.50254340826467 L 364.0,241.75778676679056 L 370.0,245.202168035412 L 376.0,248.75903043079632 L 382.0,252.36007253106294 L 388.0,255.94629312153933 L 394.0,259.46828285667954 L 400.0,262.8860062040221 L 406.0,266.1682157329205 L 412.0,269.2916279861352 L 418.0,272.2399703457401 L 424.0,275.0029853708545 L 430.0,277.5754561136945 L 436.00000000000006,279.95629505069576 L 441.99999999999994,282.14772174567406 L 448.0,284.154540691226 L 454.0,285.98352089050337 L 460.0,287.6428722159047 L 466.0,289.1418097943036 L 472.0,290.49019594606847 L 478.0,291.6982489139551 L 484.0,292.77630822091754 L 490.0,293.7346475754292 L 496.0,294.5833275009826 L 502.0,295.3320811101093 L 508.00000000000006,295.9902275634524 L 514.0,296.5666087031921 L 520.0,297.0695451200132 L 526.0,297.50680852001955 L 532.0,297.8856077299434 L 538.0,298.21258604588166 L 544.0,298.49382792062505 L 550.0,298.73487322074277 L 556.0,298.94073748478314 L 562.0,299.115936790864 L 568.0,299.26451600376015 L 574.0,299.3900793231068 L 580.0,299.4958221978279 L 586.0,299.5845638080363 L 592.0,299.6587794441537 L 598.0,299.7206322331136 L 604.0,299.7720037723714 L 610.0,299.8145233332906 L 616.0,299.8495953857459 L 622.0,299.87842527522804 L 628.0,299.90204295235475 L 634.0,299.92132471277614 L 640.0,299.93701295351207 L 646.0,299.9497339904566 L 652.0,299.96001401194405 L 658.0,299.9682932657833 L 664.0,299.97493859297356 L 670.0,299.98025443134634 L 676.0,299.98449241755657 L 682.0,299.9878597170305 L 688.0,299.99052620947054 L 694.0,299.9926306530414 L 700.0,299.99428594405737" fill="none" stroke="#d97706" stroke-width="4" opacity="1.0"  /><text x="220.0" y="200" font-family="Arial, sans-serif" font-size="20" fill="#d97706" text-anchor="start" font-weight="bold" >Resonant Shelf Dip</text><text x="400" y="50" font-family="Arial, sans-serif" font-size="24" fill="black" text-anchor="middle" font-weight="bold" >Pultec 'Low End Trick'</text><text x="400" y="80" font-family="Arial, sans-serif" font-size="16" fill="#666" text-anchor="middle" font-weight="normal" >Boosting and Cutting at the same frequency creates a resonant dip</text></svg>