<svg xmlns="http://www.w3.org/2000/svg" viewBox="0 0 800 600"><rect x="0" y="0" width="800" height="600" fill="#f8fafc" /><line x1="100" y1="500" x2="700" y2="500" stroke="#334155" stroke-width="2" opacity="1.0"  /><line x1="100" y1="500" x2="100" y2="100" stroke="#334155" stroke-width="2" opacity="1.0"  /><path d="M 100,300.0 L 101,271.6529830202808 L 102,247.14595689143957 L 103,227.10115789807793 L 104,211.90177612091347 L 105,201.6992607149616 L 106,196.4292694091917 L 107,195.8347968390915 L 108,199.49486645898128 L 109,206.85710027428402 L 110,217.2724847748629 L 111,230.03072296844732 L 112,244.39469201406723 L 113,259.63270288891414 L 114,275.0474711532462 L 115,290.00094424049644 L 116,303.9343790096317 L 117,316.3833124099351 L 118,326.9873079087971 L 119,335.494582042785 L 120,341.76181185765506 L 121,345.74958959673415 L 122,347.51412203774146 L 123,347.19586637272937 L 124,345.00585214397074 L 125,341.2104606775001 L 126,336.11542220814897 L 127,330.0497500757854 L 128,323.350265450541 L 129,316.3472800611137 L 130,309.35190372916196 L 131,302.6453336091732 L 132,296.47036820484595 L 133,291.0252764408506 L 134,286.4600447598739 L 135,282.8749271919811 L 136,280.32113767328 L 137,278.80345285071957 L 138,278.28443867037373 L 139,278.6899758896905 L 140,279.9157382206119 L 141,281.8342713725592 L 142,284.3023305189916 L 143,287.16815588742503 L 144,290.27839914707437 L 145,293.4844546841863 L 146,296.64799724022515 L 147,299.64557826464693 L 148,302.372185319412 L 149,304.74371976604726 L 150,306.69839582080886 L 151,308.1971072399011 L 152,309.2228450999294 L 153,309.77928043789416 L 154,309.88864834599235 L 155,309.589085269866 L 156,308.93157885463654 L 157,307.97669013419096 L 158,306.79120182745015 L 159,305.44483485076444 L 160,304.0071588829248 L 161,302.544803023822 L 162,301.1190504025484 L 163,299.7838771372235 L 164,298.5844723929323 L 165,297.5562533985068 L 166,296.72436801648195 L 167,296.103658516377 L 168,295.69904412197855 L 169,295.5062670639405 L 170,295.51293747886695 L 171,295.6998066053094 L 172,296.0421952401747 L 173,296.5115051122204 L 174,297.076744372042 L 175,297.7060043762898 L 176,298.36783288507706 L 177,299.0324581888226 L 178,299.6728290168289 L 179,300.2654458488374 L 180,300.7909699774359 L 181,301.23460692524515 L 182,301.5862702377371 L 183,301.84053995068 L 184,301.99643694530926 L 185,302.05703980555427 L 186,302.0289746063029 L 187,301.92181028699844 L 188,301.74739296241455 L 189,301.5191518094993 L 190,301.25140720869763 L 191,300.95870880786447 L 192,300.6552273379997 L 193,300.3542195761281 L 194,300.0675810570298 L 195,299.8054962096153 L 196,299.576190746649 L 197,299.38578655609064 L 198,299.23825518777215 L 199,299.13546242736106 L 200,163.05821239085586 L 201,160.76562157027956 L 202,164.30249604963348 L 203,172.97154898256153 L 204,185.93501678230507 L 205,202.261790032052 L 206,220.9738212343436 L 207,241.0900079347738 L 208,261.66602293241255 L 209,281.82887206196847 L 210,300.8052885694844 L 211,317.94340628310607 L 212,332.72747773385305 L 213,344.7857059306838 L 214,353.89152948325847 L 215,359.95893227690004 L 216,363.0325353639776 L 217,363.27336691699156 L 218,360.94129501649076 L 219,356.3751488247713 L 220,349.97154926279205 L 221,342.16342514398906 L 222,333.39911052082795 L 223,324.1228103339884 L 224,314.7570914084932 L 225,305.68791169137796 L 226,297.2525495232407 L 227,289.73064343240515 L 228,283.3384075523454 L 229,278.2259535868156 L 230,274.4775316232922 L 231,272.1144023245438 L 232,271.0999743371585 L 233,271.3467843099976 L 234,272.724862872746 L 235,275.07101752501035 L 236,278.1985710698917 L 237,281.9071197718116 L 238,285.9919160972379 L 239,290.2525336293458 L 240,294.5005332613375 L 241,298.56591675341883 L 242,302.30222296569303 L 243,305.5901905497248 L 244,308.3399759078261 L 245,310.49197451835374 L 246,312.0163454340147 L 247,312.9113815258184 L 248,313.200900995436 L 249,312.93085841947305 L 250,312.1653861756047 L 251,310.982479991725 L 252,309.46953636133213 L 253,307.7189357689392 L 254,305.82384536691643 L 255,303.87438937687466 L 256,301.9543065589507 L 257,300.1381831059673 L 258,298.4893177209174 L 259,297.0582447572681 L 260,295.88191231817336 L 261,294.98348611050955 L 262,294.3727274101822 L 263,294.0468752723829 L 264,293.99194944751406 L 265,294.1843814584196 L 266,294.5928768760632 L 267,295.18041174048363 L 268,295.90626990348665 L 269,296.72803529173547 L 270,297.6034630897685 L 271,298.4921659545318 L 272,299.3570649072301 L 273,300.16556882389636 L 274,300.89046081717686 L 275,301.5104836801737 L 276,302.0106294363544 L 277,302.3821494843841 L 278,302.62231151794134 L 279,302.7339371144582 L 280,302.724759500572 L 281,302.6066444894864 L 282,302.3947190082233 L 283,302.1064511300493 L 284,301.76072330265913 L 285,301.3769367695347 L 286,300.9741803088474 L 287,300.57049067000304 L 288,300.18222578685555 L 289,299.82356529565635 L 290,299.50614637276107 L 291,299.23883669085086 L 292,299.0276405952281 L 293,298.8757296038154 L 294,298.78358417071206 L 295,298.74923041195444 L 296,298.7685532163273 L 297,298.8356658535222 L 298,298.94331580759933 L 299,299.08330703293234 L 300,188.23302592809767 L 301,214.70891252990683 L 302,242.10260871856818 L 303,269.2227777016067 L 304,295.00247681471325 L 305,318.5303188016975 L 306,339.0723986549629 L 307,356.0849811141327 L 308,369.218316742522 L 309,378.3122770168625 L 310,383.384762864717 L 311,384.6140414954831 L 312,382.3163011690979 L 313,376.91978354300915 L 314,368.93686177836435 L 315,358.93538517487735 L 316,347.5105149756832 L 317,335.25813964878694 L 318,322.7507907310183 L 319,310.51679189211376 L 320,299.02317385268424 L 321,288.6626853350131 L 322,279.745033730404 L 323,272.4923059829254 L 324,267.03835643272237 L 325,263.4318087833599 L 326,261.64220728127884 L 327,261.5687695210126 L 328,263.05114055119236 L 329,265.8815244302608 L 330,269.81757323537 L 331,274.5954420022291 L 332,279.9424676772496 L 333,285.5889968864294 L 334,291.2789668498606 L 335,296.7789316734115 L 336,301.88531819016663 L 337,306.42978741395683 L 338,310.28266580743804 L 339,313.35449176232305 L 340,315.59579432821295 L 341,316.995281331287 L 342,317.5766612701967 L 343,317.3943570834979 L 344,316.52838998080506 L 345,315.07871850370043 L 346,313.15931280012416 L 347,310.8922281231836 L 348,308.4019164726119 L 349,305.8099829636239 L 350,303.23055592578487 L 351,300.7663989177938 L 352,298.5058507455692 L 353,296.5206380092936 L 354,294.86456530403484 L 355,293.5730523404998 L 356,292.6634560453475 L 357,292.13608995939086 L 358,291.9758334941639 L 359,292.15421005962673 L 360,292.6318056932189 L 361,293.36089831390046 L 362,294.288171595774 L 363,295.35739603661995 L 364,296.5119722931926 L 365,297.69724739115657 L 366,298.8625320777281 L 367,299.9627664555529 L 368,300.959800241436 L 369,301.823272727401 L 370,302.53109507405475 L 371,303.0695533423965 L 372,303.4330642032859 L 373,303.62362622183485 L 374,303.65001780043315 L 375,303.52679821279173 L 376,303.27317072678335 L 377,302.91176675744777 L 378,302.46740756508814 L 379,301.96589554023507 L 380,301.4328809724422 L 381,300.8928427901231 L 382,300.36821350294184 L 383,299.87866988983933 L 384,299.4406022459548 L 385,299.0667665862425 L 386,298.76611641172207 L 387,298.54380373072183 L 388,298.4013331872166 L 389,298.33684851465273 L 390,298.345527178427 L 391,298.420057006987 L 392,298.5511678005544 L 393,298.7281912612503 L 394,298.9396239836936 L 395,299.17367052569847 L 396,299.41874656836177 L 397,299.66392568564055 L 398,299.8993170843869 L 399,300.1163656605373 L 400,345.7215931653325 L 401,369.6228527715165 L 402,388.4437303348797 L 403,401.90918635260357 L 404,409.98618408687065 L 405,412.86199137326037 L 406,410.9156687718805 L 407,404.68454152486675 L 408,394.82748389066904 L 409,382.0867988787167 L 410,367.2503633378246 L 411,351.1155387405753 L 412,334.4561340700219 L 413,317.99346179425817 L 414,302.3722638956608 L 415,288.1420147149607 L 416,275.74384245420805 L 417,265.50306173017134 L 418,257.62708416230714 L 419,252.20827941322108 L 420,249.23120028074828 L 421,248.58346536818084 L 422,250.06951268465727 L 423,253.42639668557223 L 424,258.34079765612125 L 425,264.4664425716763 L 426,271.4411961982264 L 427,278.90316502381324 L 428,286.50525895660957 L 429,293.9277707003262 L 430,300.888654487424 L 431,307.15130886107977 L 432,312.52978737252806 L 433,316.8914719632324 L 434,320.1573427491502 L 435,322.30006206707753 L 436,323.3401579985432 L 437,323.34064203800693 L 438,322.4004268300368 L 439,320.64692343633163 L 440,318.228194548812 L 441,315.30502214012165 L 442,312.0432173761818 L 443,308.6064596553794 L 444,305.1499030158194 L 445,301.8147345546339 L 446,298.72381356502933 L 447,295.9784642946828 L 448,293.6564417992187 L 449,291.8110412343197 L 450,290.47127767039086 L 451,289.64302730936475 L 452,289.31099262185774 L 453,289.44133380113556 L 454,289.98479707500866 L 455,290.88016651901415 L 456,292.057869473851 L 457,293.4435756474591 L 458,294.96164545501153 L 459,296.53830297188733 L 460,298.1044318327208 L 461,299.5979172801859 L 462,300.96548316597614 L 463,302.16399793249883 L 464,303.16124747597354 L 465,303.93619447665446 L 466,304.47876261400216 L 467,304.78919957634315 L 468,304.8770846194218 L 469,304.7600544959564 L 470,304.46232590316345 L 471,304.0130933590909 L 472,303.4448789295992 L 473,302.79190489579855 L 474,302.08855276213586 L 475,301.367962492378 L 476,300.6608150813516 L 477,299.99433007941377 L 478,299.39149801504885 L 479,298.87055629627963 L 480,298.44470654256276 L 481,298.12206176385087 L 482,297.9058036427128 L 483,297.79452358692185 L 484,297.7827163196518 L 485,297.8613915991867 L 486,298.01876817366826 L 487,298.241014178053 L 488,298.51299971491784 L 489,298.8190301298466 L 490,299.1435322667555 L 491,299.4716705208764 L 492,299.7898745424291 L 493,300.08626573150207 L 494,300.35097496722443 L 495,300.57634911682527 L 496,300.7570485860346 L 497,300.89004234822517 L 498,300.9745104088151 L 499,301.01166644442037 L 500,449.0832980885063 L 501,442.1147620867545 L 502,430.08199094048257 L 503,413.9518440673842 L 504,394.7643007316011 L 505,373.5835894782332 L 506,351.4529909447176 L 507,329.35478597678184 L 508,308.17647354283815 L 509,288.6840232513127 L 510,271.50257099248137 L 511,257.1046273844294 L 512,245.80555929772848 L 513,237.76583443331327 L 514,232.99929490504888 L 515,231.38655265697923 L 516,232.69247945840232 L 517,236.58669696041113 L 518,242.66595554879981 L 519,250.47732035856188 L 520,259.54115321686896 L 521,269.37298373728197 L 522,279.503493847611 L 523,289.4959898838134 L 524,298.9608971952954 L 525,307.5669764588103 L 526,315.0491216420173 L 527,321.21275064934906 L 528,325.93493595155843 L 529,329.1625398649104 L 530,330.90771467556544 L 531,331.24119972715846 L 532,330.2838952528797 L 533,328.1972165252084 L 534,325.17273312964437 L 535,321.42157894038775 L 536,317.1640814080251 L 537,312.62000723987956 L 538,307.99975892516477 L 539,303.4967864096797 L 540,299.2814041010167 L 541,295.4961286507939 L 542,292.2525806852816 L 543,289.62992651866415 L 544,287.67477610086394 L 545,286.4024027336976 L 546,285.7991096165936 L 547,285.82553871225235 L 548,286.420698907772 L 549,287.50648268196875 L 550,288.9924427647867 L 551,290.7806115427273 L 552,292.77016491520914 L 553,294.86175744584256 L 554,296.9613853777453 L 555,298.98366675886916 L 556,300.85446195404853 L 557,302.5127917047923 L 558,303.91204228410453 L 559,305.02047701916234 L 560,305.8210995747588 L 561,306.31093619545703 L 562,306.49982112626134 L 563,306.40878143948805 L 564,306.06812448260274 L 565,305.5153333243067 L 566,304.7928732860614 L 567,303.94600641954696 L 568,303.02070125282796 L 569,302.06171297870696 L 570,301.1108952360377 L 571,300.2057894820584 L 572,299.3785223892908 L 573,298.6550263906939 L 574,298.0545840343237 L 575,297.58968369595425 L 576,297.2661628349673 L 577,297.083605656786 L 578,297.0359549456391 L 579,297.11229302913216 L 580,297.29774430588606 L 581,297.574451395145 L 582,297.9225785624104 L 583,298.32129938630123 L 584,298.74973036224185 L 585,299.18777796252675 L 586,299.6168732510384 L 587,300.02057514743683 L 588,300.38503052827656 L 589,300.6992862462439 L 590,300.9554545846549 L 591,301.1487394266979 L 592,301.27733533951556 L 593,301.3422157339001 L 594,301.34682919284603 L 595,301.29672494613834 L 596,301.19912932740203 L 597,301.06249494748937 L 598,300.89604334938883 L 599,300.70932019647563 L 600,375.9548461664638 L 601,346.36611748144844 L 602,317.7245238006865 L 603,291.0942205963084 L 604,267.3570383708412 L 605,247.19429444655486 L 606,231.0784164904918 L 607,219.2737816461252 L 608,211.8458604727793 L 609,208.6775068752102 L 610,209.4910574906375 L 611,213.87479706099322 L 612,221.31230772876495 L 613,231.2132450063633 L 614,242.94416434814235 L 615,255.85815116531026 L 616,269.32217402946713 L 617,282.7412753682429 L 618,295.5789256942003 L 619,307.37308615757485 L 620,317.74774049154723 L 621,326.41986274445463 L 622,333.20197433406724 L 623,338.0006071033835 L 624,340.81112391391866 L 625,341.7094521383331 L 626,340.8413569780835 L 627,338.4099210196262 L 628,334.6619053156109 L 629,329.87364809124904 L 630,324.33711337406555 L 631,318.3466375352859 L 632,312.1868414565438 L 633,306.122084550779 L 634,300.3877389248966 L 635,295.183462135506 L 636,290.66854946169633 L 637,286.9593551110931 L 638,284.1286894023458 L 639,282.2070281792347 L 640,281.1853132590525 L 641,281.01907964722574 L 642,281.63361692845183 L 643,282.92985840978076 L 644,284.79069142203855 L 645,287.08739438908447 L 646,289.6859291804778 L 647,292.4528489305209 L 648,295.2606198253788 L 649,297.99219815279343 L 650,300.5447490254596 L 651,302.8324385900304 L 652,304.78827536219774 L 653,306.3650169676687 L 654,307.53519468477924 L 655,308.29033875192556 L 656,308.63951171804746 L 657,308.6072747921393 L 658,308.2312231073856 L 659,307.55923025464557 L 660,306.6465408002565 L 661,305.55284242904384 L 662,304.3394376472698 L 663,303.06661955457656 L 664,301.79133802442806 L 665,300.5652227124879 L 666,299.4330086111704 L 667,298.431389294892 L 668,297.5883033713309 L 669,296.92264167047995 L 670,296.44434693359847 L 671,296.15486463318496 L 672,296.0478933409027 L 673,296.110375897061 L 674,296.3236685211485 L 675,296.66482381366717 L 676,297.10792510471117 L 677,297.62541348730684 L 678,298.18935475076836 L 679,298.77260087455113 L 680,299.3498093070353 L 681,299.8982924847535 L 682,300.39867951027344 L 683,300.835381197867 L 684,301.19685845715014 L 685,301.4757019134086 L 686,301.66853751902755 L 687,301.7757785191233 L 688,301.80124838876253 L 689,301.7517022164833 L 690,301.6362754869945 L 691,301.46588938659005 L 692,301.25264073552415 L 693,301.0092025966746 L 694,300.7482587006297 L 695,300.4819912624247 L 696,300.22163775057965 L 697,299.97712790945036 L 698,299.75680802617046 L 699,299.5672552521069" fill="none" stroke="#bbb" stroke-width="2" opacity="1.0"  /><line x1="100" y1="150" x2="700" y2="150" stroke="#ef4444" stroke-width="2" opacity="1.0" stroke-dasharray="5,5" /><text x="710" y="150" font-family="Inter, system-ui, sans-serif" font-size="20" fill="#ef4444" text-anchor="start" font-weight="normal" >Peak</text><line x1="100" y1="250" x2="700" y2="250" stroke="#3b82f6" stroke-width="2" opacity="1.0"  /><text x="710" y="250" font-family="Inter, system-ui, sans-serif" font-size="20" fill="#3b82f6" text-anchor="start" font-weight="normal" >RMS/Avg</text><text x="400" y="50" font-family="Inter, system-ui, sans-serif" font-size="24" fill="#1e293b" text-anchor="middle" font-weight="bold" >Peak vs RMS Level</text></svg>