<svg xmlns="http://www.w3.org/2000/svg" viewBox="0 0 800 600"><rect x="0" y="0" width="800" height="600" fill="#f8f9fa" /><rect x="100" y="250" width="200" height="20" rx="0" fill="#555" stroke="none" stroke-width="0" opacity="1.0"  /><text x="200" y="280" font-family="Arial, sans-serif" font-size="20" fill="black" text-anchor="middle" font-weight="normal" font-style="normal" >Flat Wall</text><path d="M 500 250 L 510 240 L 520 250 L 530 240 L 540 250 L 550 240 L 560 250" fill="none" stroke="#555" stroke-width="2" opacity="1.0"  /><rect x="500" y="264" width="10" height="20" rx="0" fill="#555" stroke="none" stroke-width="0" opacity="1.0"  /><rect x="513" y="252" width="10" height="20" rx="0" fill="#555" stroke="none" stroke-width="0" opacity="1.0"  /><rect x="526" y="268" width="10" height="20" rx="0" fill="#555" stroke="none" stroke-width="0" opacity="1.0"  /><rect x="539" y="250" width="10" height="20" rx="0" fill="#555" stroke="none" stroke-width="0" opacity="1.0"  /><rect x="552" y="261" width="10" height="20" rx="0" fill="#555" stroke="none" stroke-width="0" opacity="1.0"  /><rect x="565" y="267" width="10" height="20" rx="0" fill="#555" stroke="none" stroke-width="0" opacity="1.0"  /><rect x="578" y="264" width="10" height="20" rx="0" fill="#555" stroke="none" stroke-width="0" opacity="1.0"  /><rect x="591" y="266" width="10" height="20" rx="0" fill="#555" stroke="none" stroke-width="0" opacity="1.0"  /><rect x="604" y="251" width="10" height="20" rx="0" fill="#555" stroke="none" stroke-width="0" opacity="1.0"  /><rect x="617" y="257" width="10" height="20" rx="0" fill="#555" stroke="none" stroke-width="0" opacity="1.0"  /><rect x="630" y="255" width="10" height="20" rx="0" fill="#555" stroke="none" stroke-width="0" opacity="1.0"  /><rect x="643" y="264" width="10" height="20" rx="0" fill="#555" stroke="none" stroke-width="0" opacity="1.0"  /><rect x="656" y="255" width="10" height="20" rx="0" fill="#555" stroke="none" stroke-width="0" opacity="1.0"  /><rect x="669" y="260" width="10" height="20" rx="0" fill="#555" stroke="none" stroke-width="0" opacity="1.0"  /><rect x="682" y="258" width="10" height="20" rx="0" fill="#555" stroke="none" stroke-width="0" opacity="1.0"  /><text x="600" y="280" font-family="Arial, sans-serif" font-size="20" fill="black" text-anchor="middle" font-weight="normal" font-style="normal" >Diffuser</text><line x1="150" y1="150" x2="200" y2="250" stroke="blue" stroke-width="2" opacity="1.0"  /><line x1="200" y1="250" x2="250" y2="150" stroke="blue" stroke-width="2" opacity="1.0"  /><text x="200" y="120" font-family="Arial, sans-serif" font-size="20" fill="blue" text-anchor="middle" font-weight="normal" font-style="normal" >Specular (Mirror)</text><line x1="550" y1="150" x2="600" y2="250" stroke="red" stroke-width="2" opacity="1.0"  /><line x1="600" y1="250" x2="564.6446609406727" y2="214.64466094067262" stroke="red" stroke-width="1" opacity="1.0"  /><line x1="600" y1="250" x2="580.8658283817455" y2="203.80602337443565" stroke="red" stroke-width="1" opacity="1.0"  /><line x1="600" y1="250" x2="600.0" y2="200.0" stroke="red" stroke-width="1" opacity="1.0"  /><line x1="600" y1="250" x2="619.1341716182545" y2="203.80602337443565" stroke="red" stroke-width="1" opacity="1.0"  /><line x1="600" y1="250" x2="635.3553390593273" y2="214.64466094067262" stroke="red" stroke-width="1" opacity="1.0"  /><text x="600" y="120" font-family="Arial, sans-serif" font-size="20" fill="red" text-anchor="middle" font-weight="normal" font-style="normal" >Diffuse (Scattered)</text><text x="400" y="50" font-family="Arial, sans-serif" font-size="24" fill="black" text-anchor="middle" font-weight="bold" font-style="normal" >Reflection Types</text></svg>