<svg xmlns="http://www.w3.org/2000/svg" viewBox="0 0 800 600"><rect x="0" y="0" width="800" height="600" fill="#f8f9fa" /><text x="400.0" y="40.0" font-family="Arial, sans-serif" font-size="24" fill="black" text-anchor="middle" font-weight="bold" >RT60 Decay</text><line x1="60" y1="540" x2="740" y2="540" stroke="#333" stroke-width="2" opacity="1"  /><line x1="60" y1="540" x2="60" y2="60" stroke="#333" stroke-width="2" opacity="1"  /><text x="400.0" y="580" font-family="Arial, sans-serif" font-size="16" fill="black" text-anchor="middle" font-weight="normal" >Time (s)</text><text x="20" y="300.0" font-family="Arial, sans-serif" font-size="16" fill="black" text-anchor="middle" font-weight="normal" transform="rotate(-90, 20, 300.0)">Level (dB)</text><path d="M 60.0 60.0 L 66.8 74.18614389671609 L 73.6 87.95302387956059 L 80.4 101.31303106981045 L 87.2 114.27819037576444 L 94.0 126.86017131597225 L 100.8 139.07029852258944 L 107.6 150.9195619343102 L 114.4 162.41862668805436 L 121.19999999999999 173.57784271831048 L 128.0 184.4072540727754 L 134.8 194.91660795267546 L 141.6 205.1153634859051 L 148.4 215.01270024088097 L 155.2 224.61752648877274 L 162.0 233.93848722154883 L 168.8 242.98397193305237 L 175.60000000000002 251.76212217011238 L 182.39999999999998 260.28083886048495 L 189.2 268.5477894242222 L 196.0 276.5704146748673 L 202.79999999999998 284.3559355166893 L 209.6 291.9113594439844 L 216.4 299.2434868482934 L 223.2 306.3589171392136 L 230.0 313.26405468431295 L 236.8 319.9651145734927 L 243.60000000000002 326.4681282129883 L 250.4 332.7789487540417 L 257.2 338.90325636113323 L 264.0 344.84656332451243 L 270.8 350.61421902163147 L 277.6 356.2114147319462 L 284.4 361.64318830941806 L 291.20000000000005 366.91442871692243 L 298.0 372.0298804266454 L 304.79999999999995 376.99414769042926 L 311.6 381.8116986839092 L 318.4 386.48686952817417 L 325.2 391.0238681925672 L 332.0 395.426778282143 L 338.8 399.69956271318745 L 345.59999999999997 403.8460672801102 L 352.4 407.8700241169189 L 359.2 411.7750550563918 L 366.0 415.5646748899721 L 372.8 419.24229453131693 L 379.59999999999997 422.8112240863502 L 386.4 426.2746758325816 L 393.2 429.63576711037257 L 400.0 432.8975231287537 L 406.8 436.0628796883166 L 413.6 439.13468582363294 L 420.40000000000003 442.11570636757756 L 427.20000000000005 445.00862443986495 L 434.00000000000006 447.81604386203804 L 440.8 450.54049150108324 L 447.59999999999997 453.18441954378136 L 454.4 455.7502077038415 L 461.2 458.2401653638035 L 468.0 460.65653365363846 L 474.8 463.00148746791706 L 481.6 465.2771374233613 L 488.4 467.485531758542 L 495.2 469.62865817743193 L 502.0 471.7084456384735 L 508.8 473.72676609077143 L 515.6 475.68543615897363 L 522.4000000000001 477.58621877835554 L 529.2 479.4308247815814 L 536.0 481.2209144385687 L 542.8 482.95809895084335 L 549.5999999999999 484.64394190173 L 556.4 486.2799606636821 L 563.2 487.86762776402014 L 570.0 489.4083722103051 L 576.8 490.903580776542 L 583.6 492.3545992513701 L 590.4 493.7627336493633 L 597.2 495.1292513865319 L 604.0 496.455382421082 L 610.8000000000001 497.7423203604612 L 617.6 498.9912235356858 L 624.4 500.2032160439171 L 631.1999999999999 501.3793887602244 L 638.0 502.5208003194465 L 644.8 503.62847806903414 L 651.6 504.7034189937326 L 658.4 505.7465906129347 L 665.2 506.7589318515139 L 672.0 507.7413538849201 L 678.8000000000001 508.69474095929877 L 685.6 509.61995118737246 L 692.4 510.51781732079996 L 699.1999999999999 511.3891474997091 L 706.0 512.2347259800775 L 712.8 513.0553138396158 L 719.6 513.8516496627889 L 726.4 514.6244502055919 L 733.2 515.3744110406789 L 740.0 516.1022071834253" fill="none" stroke="#3b82f6" stroke-width="4" opacity="1" /><line x1="60" y1="535.2" x2="740" y2="535.2" stroke="#ef4444" stroke-width="2" opacity="1" stroke-dasharray="5,5" /><text x="750" y="535.2" font-family="Arial, sans-serif" font-size="14" fill="#ef4444" text-anchor="start" font-weight="normal" >-60dB</text></svg>