<svg xmlns="http://www.w3.org/2000/svg" viewBox="0 0 800 600"><defs>
        <filter id="shadow" x="-20%" y="-20%" width="140%" height="140%">
          <feGaussianBlur in="SourceAlpha" stdDeviation="3"/>
          <feOffset dx="2" dy="2" result="offsetblur"/>
          <feComponentTransfer>
            <feFuncA type="linear" slope="0.5"/>
          </feComponentTransfer>
          <feMerge> 
            <feMergeNode/>
            <feMergeNode in="SourceGraphic"/> 
          </feMerge>
        </filter>
        </defs><rect x="0" y="0" width="800" height="600" fill="#f8f9fa" /><text x="400.0" y="40.0" font-family="Arial, sans-serif" font-size="28" fill="#333" text-anchor="middle" font-weight="bold" >RT60 Decay Time</text><line x1="60" y1="540" x2="740" y2="540" stroke="#666" stroke-width="2" opacity="1"  /><line x1="60" y1="540" x2="60" y2="60" stroke="#666" stroke-width="2" opacity="1"  /><text x="400.0" y="580" font-family="Arial, sans-serif" font-size="18" fill="#555" text-anchor="middle" font-weight="normal" >Time (seconds)</text><text x="20" y="300.0" font-family="Arial, sans-serif" font-size="18" fill="#555" text-anchor="middle" font-weight="normal" transform="rotate(-90, 20, 300.0)">Level (dB)</text><line x1="60" y1="444.0" x2="740" y2="444.0" stroke="#ddd" stroke-width="1" opacity="1" stroke-dasharray="5,5" /><line x1="60" y1="348.0" x2="740" y2="348.0" stroke="#ddd" stroke-width="1" opacity="1" stroke-dasharray="5,5" /><line x1="60" y1="252.0" x2="740" y2="252.0" stroke="#ddd" stroke-width="1" opacity="1" stroke-dasharray="5,5" /><line x1="60" y1="156.0" x2="740" y2="156.0" stroke="#ddd" stroke-width="1" opacity="1" stroke-dasharray="5,5" /><path d="M 60.0 60.0 L 105.33333333333334 108.0 L 150.66666666666669 204.0 L 286.66666666666663 348.0 L 513.3333333333333 492.0 L 740.0 540.0" fill="none" stroke="#3b82f6" stroke-width="4" opacity="1" /><path d="M 60.0 60.0 L 105.33333333333334 108.0 L 150.66666666666669 204.0 L 286.66666666666663 348.0 L 513.3333333333333 492.0 L 740.0 540.0 L 740.0 540 L 60.0 540 Z" fill="rgba(59, 130, 246, 0.2)" stroke="none" stroke-width="0" opacity="1" /></svg>