<svg xmlns="http://www.w3.org/2000/svg" viewBox="0 0 800 600"><rect x="0" y="0" width="800" height="600" fill="#f8fafc" /><rect x="100" y="100" width="600" height="400" rx="0" fill="#eee" stroke="none" stroke-width="0" opacity="1.0" /><rect x="200" y="150" width="80" height="60" rx="0" fill="#666" stroke="black" stroke-width="0" opacity="1.0" /><rect x="300" y="150" width="80" height="60" rx="0" fill="#666" stroke="black" stroke-width="0" opacity="1.0" /><rect x="400" y="150" width="80" height="60" rx="0" fill="#666" stroke="black" stroke-width="0" opacity="1.0" /><rect x="500" y="150" width="80" height="60" rx="0" fill="#666" stroke="black" stroke-width="0" opacity="1.0" /><rect x="200" y="230" width="80" height="60" rx="0" fill="#666" stroke="black" stroke-width="0" opacity="1.0" /><rect x="300" y="230" width="80" height="60" rx="0" fill="#666" stroke="black" stroke-width="0" opacity="1.0" /><rect x="400" y="230" width="80" height="60" rx="0" fill="#666" stroke="black" stroke-width="0" opacity="1.0" /><rect x="500" y="230" width="80" height="60" rx="0" fill="#666" stroke="black" stroke-width="0" opacity="1.0" /><rect x="200" y="310" width="80" height="60" rx="0" fill="#666" stroke="black" stroke-width="0" opacity="1.0" /><rect x="300" y="310" width="80" height="60" rx="0" fill="#666" stroke="black" stroke-width="0" opacity="1.0" /><rect x="400" y="310" width="80" height="60" rx="0" fill="#666" stroke="black" stroke-width="0" opacity="1.0" /><rect x="500" y="310" width="80" height="60" rx="0" fill="#666" stroke="black" stroke-width="0" opacity="1.0" /><rect x="200" y="390" width="80" height="60" rx="0" fill="#666" stroke="black" stroke-width="0" opacity="1.0" /><rect x="300" y="390" width="80" height="60" rx="0" fill="#666" stroke="black" stroke-width="0" opacity="1.0" /><rect x="400" y="390" width="80" height="60" rx="0" fill="#666" stroke="black" stroke-width="0" opacity="1.0" /><rect x="500" y="390" width="80" height="60" rx="0" fill="#666" stroke="black" stroke-width="0" opacity="1.0" /><text x="400" y="50" font-family="Inter, system-ui, sans-serif" font-size="24" fill="#1e293b" text-anchor="middle" font-weight="bold" >MPC Style Pads</text></svg>