<svg xmlns="http://www.w3.org/2000/svg" viewBox="0 0 800 600"><rect x="0" y="0" width="800" height="600" fill="#f8fafc" /><rect x="100" y="250" width="100" height="150" rx="5" fill="hsl(0, 50%, 80%)" stroke="black" stroke-width="0" opacity="1.0"  /><text x="150" y="325" font-family="Inter, system-ui, sans-serif" font-size="20" fill="#1e293b" text-anchor="middle" font-weight="normal" font-style="normal" >Tuner</text><circle cx="125" cy="280" r="10" fill="#1e293b" stroke="none" stroke-width="0" opacity="1.0" /><circle cx="175" cy="280" r="10" fill="#1e293b" stroke="none" stroke-width="0" opacity="1.0" /><line x1="200" y1="325" x2="260" y2="325" stroke="black" stroke-width="4" opacity="1.0"  /><rect x="260" y="250" width="100" height="150" rx="5" fill="hsl(60, 50%, 80%)" stroke="black" stroke-width="0" opacity="1.0"  /><text x="310" y="325" font-family="Inter, system-ui, sans-serif" font-size="20" fill="#1e293b" text-anchor="middle" font-weight="normal" font-style="normal" >OD</text><circle cx="285" cy="280" r="10" fill="#1e293b" stroke="none" stroke-width="0" opacity="1.0" /><circle cx="335" cy="280" r="10" fill="#1e293b" stroke="none" stroke-width="0" opacity="1.0" /><line x1="360" y1="325" x2="420" y2="325" stroke="black" stroke-width="4" opacity="1.0"  /><rect x="420" y="250" width="100" height="150" rx="5" fill="hsl(120, 50%, 80%)" stroke="black" stroke-width="0" opacity="1.0"  /><text x="470" y="325" font-family="Inter, system-ui, sans-serif" font-size="20" fill="#1e293b" text-anchor="middle" font-weight="normal" font-style="normal" >Dist</text><circle cx="445" cy="280" r="10" fill="#1e293b" stroke="none" stroke-width="0" opacity="1.0" /><circle cx="495" cy="280" r="10" fill="#1e293b" stroke="none" stroke-width="0" opacity="1.0" /><line x1="520" y1="325" x2="580" y2="325" stroke="black" stroke-width="4" opacity="1.0"  /><rect x="580" y="250" width="100" height="150" rx="5" fill="hsl(180, 50%, 80%)" stroke="black" stroke-width="0" opacity="1.0"  /><text x="630" y="325" font-family="Inter, system-ui, sans-serif" font-size="20" fill="#1e293b" text-anchor="middle" font-weight="normal" font-style="normal" >Delay</text><circle cx="605" cy="280" r="10" fill="#1e293b" stroke="none" stroke-width="0" opacity="1.0" /><circle cx="655" cy="280" r="10" fill="#1e293b" stroke="none" stroke-width="0" opacity="1.0" /><line x1="50" y1="325" x2="100" y2="325" stroke="black" stroke-width="4" opacity="1.0"  /><line x1="660" y1="325" x2="750" y2="325" stroke="black" stroke-width="4" opacity="1.0"  /><text x="400" y="50" font-family="Inter, system-ui, sans-serif" font-size="24" fill="#1e293b" text-anchor="middle" font-weight="bold" font-style="normal" >Series Signal Flow</text></svg>