<svg xmlns="http://www.w3.org/2000/svg" viewBox="0 0 800 600"><rect x="0" y="0" width="800" height="600" fill="#f8f9fa" /><rect x="160.0" y="100" width="38" height="38" rx="0" fill="#aaa" stroke="none" stroke-width="0" opacity="1.0" /><text x="180.0" y="125.0" font-family="Arial, sans-serif" font-size="12" fill="#333" text-anchor="middle" font-weight="normal" >4</text><rect x="200.0" y="100" width="38" height="38" rx="0" fill="#bbb" stroke="none" stroke-width="0" opacity="1.0" /><text x="220.0" y="125.0" font-family="Arial, sans-serif" font-size="12" fill="#333" text-anchor="middle" font-weight="normal" >3</text><rect x="240.0" y="100" width="38" height="38" rx="0" fill="#999" stroke="none" stroke-width="0" opacity="1.0" /><text x="260.0" y="125.0" font-family="Arial, sans-serif" font-size="12" fill="#333" text-anchor="middle" font-weight="normal" >5</text><rect x="280.0" y="100" width="38" height="38" rx="0" fill="#999" stroke="none" stroke-width="0" opacity="1.0" /><text x="300.0" y="125.0" font-family="Arial, sans-serif" font-size="12" fill="#333" text-anchor="middle" font-weight="normal" >5</text><rect x="320.0" y="100" width="38" height="38" rx="0" fill="#bbb" stroke="none" stroke-width="0" opacity="1.0" /><text x="340.0" y="125.0" font-family="Arial, sans-serif" font-size="12" fill="#333" text-anchor="middle" font-weight="normal" >3</text><rect x="360.0" y="100" width="38" height="38" rx="0" fill="#ddd" stroke="none" stroke-width="0" opacity="1.0" /><text x="380.0" y="125.0" font-family="Arial, sans-serif" font-size="12" fill="#333" text-anchor="middle" font-weight="normal" >1</text><rect x="400.0" y="100" width="38" height="38" rx="0" fill="#ccc" stroke="none" stroke-width="0" opacity="1.0" /><text x="420.0" y="125.0" font-family="Arial, sans-serif" font-size="12" fill="#333" text-anchor="middle" font-weight="normal" >2</text><rect x="440.0" y="100" width="38" height="38" rx="0" fill="#aaa" stroke="none" stroke-width="0" opacity="1.0" /><text x="460.0" y="125.0" font-family="Arial, sans-serif" font-size="12" fill="#333" text-anchor="middle" font-weight="normal" >4</text><rect x="480.0" y="100" width="38" height="38" rx="0" fill="#bbb" stroke="none" stroke-width="0" opacity="1.0" /><text x="500.0" y="125.0" font-family="Arial, sans-serif" font-size="12" fill="#333" text-anchor="middle" font-weight="normal" >3</text><rect x="520.0" y="100" width="38" height="38" rx="0" fill="#999" stroke="none" stroke-width="0" opacity="1.0" /><text x="540.0" y="125.0" font-family="Arial, sans-serif" font-size="12" fill="#333" text-anchor="middle" font-weight="normal" >5</text><rect x="560.0" y="100" width="38" height="38" rx="0" fill="#ddd" stroke="none" stroke-width="0" opacity="1.0" /><text x="580.0" y="125.0" font-family="Arial, sans-serif" font-size="12" fill="#333" text-anchor="middle" font-weight="normal" >1</text><rect x="600.0" y="100" width="38" height="38" rx="0" fill="#eee" stroke="none" stroke-width="0" opacity="1.0" /><text x="620.0" y="125.0" font-family="Arial, sans-serif" font-size="12" fill="#333" text-anchor="middle" font-weight="normal" >0</text><rect x="160.0" y="140" width="38" height="38" rx="0" fill="#ddd" stroke="none" stroke-width="0" opacity="1.0" /><text x="180.0" y="165.0" font-family="Arial, sans-serif" font-size="12" fill="#333" text-anchor="middle" font-weight="normal" >1</text><rect x="200.0" y="140" width="38" height="38" rx="0" fill="#ddd" stroke="none" stroke-width="0" opacity="1.0" /><text x="220.0" y="165.0" font-family="Arial, sans-serif" font-size="12" fill="#333" text-anchor="middle" font-weight="normal" >1</text><rect x="240.0" y="140" width="38" height="38" rx="0" fill="#eee" stroke="none" stroke-width="0" opacity="1.0" /><text x="260.0" y="165.0" font-family="Arial, sans-serif" font-size="12" fill="#333" text-anchor="middle" font-weight="normal" >0</text><rect x="280.0" y="140" width="38" height="38" rx="0" fill="#ddd" stroke="none" stroke-width="0" opacity="1.0" /><text x="300.0" y="165.0" font-family="Arial, sans-serif" font-size="12" fill="#333" text-anchor="middle" font-weight="normal" >1</text><rect x="320.0" y="140" width="38" height="38" rx="0" fill="#ccc" stroke="none" stroke-width="0" opacity="1.0" /><text x="340.0" y="165.0" font-family="Arial, sans-serif" font-size="12" fill="#333" text-anchor="middle" font-weight="normal" >2</text><rect x="360.0" y="140" width="38" height="38" rx="0" fill="#999" stroke="none" stroke-width="0" opacity="1.0" /><text x="380.0" y="165.0" font-family="Arial, sans-serif" font-size="12" fill="#333" text-anchor="middle" font-weight="normal" >5</text><rect x="400.0" y="140" width="38" height="38" rx="0" fill="#ccc" stroke="none" stroke-width="0" opacity="1.0" /><text x="420.0" y="165.0" font-family="Arial, sans-serif" font-size="12" fill="#333" text-anchor="middle" font-weight="normal" >2</text><rect x="440.0" y="140" width="38" height="38" rx="0" fill="#eee" stroke="none" stroke-width="0" opacity="1.0" /><text x="460.0" y="165.0" font-family="Arial, sans-serif" font-size="12" fill="#333" text-anchor="middle" font-weight="normal" >0</text><rect x="480.0" y="140" width="38" height="38" rx="0" fill="#ddd" stroke="none" stroke-width="0" opacity="1.0" /><text x="500.0" y="165.0" font-family="Arial, sans-serif" font-size="12" fill="#333" text-anchor="middle" font-weight="normal" >1</text><rect x="520.0" y="140" width="38" height="38" rx="0" fill="#ddd" stroke="none" stroke-width="0" opacity="1.0" /><text x="540.0" y="165.0" font-family="Arial, sans-serif" font-size="12" fill="#333" text-anchor="middle" font-weight="normal" >1</text><rect x="560.0" y="140" width="38" height="38" rx="0" fill="#ddd" stroke="none" stroke-width="0" opacity="1.0" /><text x="580.0" y="165.0" font-family="Arial, sans-serif" font-size="12" fill="#333" text-anchor="middle" font-weight="normal" >1</text><rect x="600.0" y="140" width="38" height="38" rx="0" fill="#999" stroke="none" stroke-width="0" opacity="1.0" /><text x="620.0" y="165.0" font-family="Arial, sans-serif" font-size="12" fill="#333" text-anchor="middle" font-weight="normal" >5</text><rect x="160.0" y="180" width="38" height="38" rx="0" fill="#ccc" stroke="none" stroke-width="0" opacity="1.0" /><text x="180.0" y="205.0" font-family="Arial, sans-serif" font-size="12" fill="#333" text-anchor="middle" font-weight="normal" >2</text><rect x="200.0" y="180" width="38" height="38" rx="0" fill="#bbb" stroke="none" stroke-width="0" opacity="1.0" /><text x="220.0" y="205.0" font-family="Arial, sans-serif" font-size="12" fill="#333" text-anchor="middle" font-weight="normal" >3</text><rect x="240.0" y="180" width="38" height="38" rx="0" fill="#aaa" stroke="none" stroke-width="0" opacity="1.0" /><text x="260.0" y="205.0" font-family="Arial, sans-serif" font-size="12" fill="#333" text-anchor="middle" font-weight="normal" >4</text><rect x="280.0" y="180" width="38" height="38" rx="0" fill="#999" stroke="none" stroke-width="0" opacity="1.0" /><text x="300.0" y="205.0" font-family="Arial, sans-serif" font-size="12" fill="#333" text-anchor="middle" font-weight="normal" >5</text><rect x="320.0" y="180" width="38" height="38" rx="0" fill="#ccc" stroke="none" stroke-width="0" opacity="1.0" /><text x="340.0" y="205.0" font-family="Arial, sans-serif" font-size="12" fill="#333" text-anchor="middle" font-weight="normal" >2</text><rect x="360.0" y="180" width="38" height="38" rx="0" fill="#eee" stroke="none" stroke-width="0" opacity="1.0" /><text x="380.0" y="205.0" font-family="Arial, sans-serif" font-size="12" fill="#333" text-anchor="middle" font-weight="normal" >0</text><rect x="400.0" y="180" width="38" height="38" rx="0" fill="#aaa" stroke="none" stroke-width="0" opacity="1.0" /><text x="420.0" y="205.0" font-family="Arial, sans-serif" font-size="12" fill="#333" text-anchor="middle" font-weight="normal" >4</text><rect x="440.0" y="180" width="38" height="38" rx="0" fill="#aaa" stroke="none" stroke-width="0" opacity="1.0" /><text x="460.0" y="205.0" font-family="Arial, sans-serif" font-size="12" fill="#333" text-anchor="middle" font-weight="normal" >4</text><rect x="480.0" y="180" width="38" height="38" rx="0" fill="#bbb" stroke="none" stroke-width="0" opacity="1.0" /><text x="500.0" y="205.0" font-family="Arial, sans-serif" font-size="12" fill="#333" text-anchor="middle" font-weight="normal" >3</text><rect x="520.0" y="180" width="38" height="38" rx="0" fill="#eee" stroke="none" stroke-width="0" opacity="1.0" /><text x="540.0" y="205.0" font-family="Arial, sans-serif" font-size="12" fill="#333" text-anchor="middle" font-weight="normal" >0</text><rect x="560.0" y="180" width="38" height="38" rx="0" fill="#aaa" stroke="none" stroke-width="0" opacity="1.0" /><text x="580.0" y="205.0" font-family="Arial, sans-serif" font-size="12" fill="#333" text-anchor="middle" font-weight="normal" >4</text><rect x="600.0" y="180" width="38" height="38" rx="0" fill="#aaa" stroke="none" stroke-width="0" opacity="1.0" /><text x="620.0" y="205.0" font-family="Arial, sans-serif" font-size="12" fill="#333" text-anchor="middle" font-weight="normal" >4</text><rect x="160.0" y="220" width="38" height="38" rx="0" fill="#999" stroke="none" stroke-width="0" opacity="1.0" /><text x="180.0" y="245.0" font-family="Arial, sans-serif" font-size="12" fill="#333" text-anchor="middle" font-weight="normal" >5</text><rect x="200.0" y="220" width="38" height="38" rx="0" fill="#bbb" stroke="none" stroke-width="0" opacity="1.0" /><text x="220.0" y="245.0" font-family="Arial, sans-serif" font-size="12" fill="#333" text-anchor="middle" font-weight="normal" >3</text><rect x="240.0" y="220" width="38" height="38" rx="0" fill="#ddd" stroke="none" stroke-width="0" opacity="1.0" /><text x="260.0" y="245.0" font-family="Arial, sans-serif" font-size="12" fill="#333" text-anchor="middle" font-weight="normal" >1</text><rect x="280.0" y="220" width="38" height="38" rx="0" fill="#999" stroke="none" stroke-width="0" opacity="1.0" /><text x="300.0" y="245.0" font-family="Arial, sans-serif" font-size="12" fill="#333" text-anchor="middle" font-weight="normal" >5</text><rect x="320.0" y="220" width="38" height="38" rx="0" fill="#bbb" stroke="none" stroke-width="0" opacity="1.0" /><text x="340.0" y="245.0" font-family="Arial, sans-serif" font-size="12" fill="#333" text-anchor="middle" font-weight="normal" >3</text><rect x="360.0" y="220" width="38" height="38" rx="0" fill="#999" stroke="none" stroke-width="0" opacity="1.0" /><text x="380.0" y="245.0" font-family="Arial, sans-serif" font-size="12" fill="#333" text-anchor="middle" font-weight="normal" >5</text><rect x="400.0" y="220" width="38" height="38" rx="0" fill="#eee" stroke="none" stroke-width="0" opacity="1.0" /><text x="420.0" y="245.0" font-family="Arial, sans-serif" font-size="12" fill="#333" text-anchor="middle" font-weight="normal" >0</text><rect x="440.0" y="220" width="38" height="38" rx="0" fill="#ddd" stroke="none" stroke-width="0" opacity="1.0" /><text x="460.0" y="245.0" font-family="Arial, sans-serif" font-size="12" fill="#333" text-anchor="middle" font-weight="normal" >1</text><rect x="480.0" y="220" width="38" height="38" rx="0" fill="#aaa" stroke="none" stroke-width="0" opacity="1.0" /><text x="500.0" y="245.0" font-family="Arial, sans-serif" font-size="12" fill="#333" text-anchor="middle" font-weight="normal" >4</text><rect x="520.0" y="220" width="38" height="38" rx="0" fill="#bbb" stroke="none" stroke-width="0" opacity="1.0" /><text x="540.0" y="245.0" font-family="Arial, sans-serif" font-size="12" fill="#333" text-anchor="middle" font-weight="normal" >3</text><rect x="560.0" y="220" width="38" height="38" rx="0" fill="#ddd" stroke="none" stroke-width="0" opacity="1.0" /><text x="580.0" y="245.0" font-family="Arial, sans-serif" font-size="12" fill="#333" text-anchor="middle" font-weight="normal" >1</text><rect x="600.0" y="220" width="38" height="38" rx="0" fill="#aaa" stroke="none" stroke-width="0" opacity="1.0" /><text x="620.0" y="245.0" font-family="Arial, sans-serif" font-size="12" fill="#333" text-anchor="middle" font-weight="normal" >4</text><rect x="160.0" y="260" width="38" height="38" rx="0" fill="#eee" stroke="none" stroke-width="0" opacity="1.0" /><text x="180.0" y="285.0" font-family="Arial, sans-serif" font-size="12" fill="#333" text-anchor="middle" font-weight="normal" >0</text><rect x="200.0" y="260" width="38" height="38" rx="0" fill="#ccc" stroke="none" stroke-width="0" opacity="1.0" /><text x="220.0" y="285.0" font-family="Arial, sans-serif" font-size="12" fill="#333" text-anchor="middle" font-weight="normal" >2</text><rect x="240.0" y="260" width="38" height="38" rx="0" fill="#aaa" stroke="none" stroke-width="0" opacity="1.0" /><text x="260.0" y="285.0" font-family="Arial, sans-serif" font-size="12" fill="#333" text-anchor="middle" font-weight="normal" >4</text><rect x="280.0" y="260" width="38" height="38" rx="0" fill="#ccc" stroke="none" stroke-width="0" opacity="1.0" /><text x="300.0" y="285.0" font-family="Arial, sans-serif" font-size="12" fill="#333" text-anchor="middle" font-weight="normal" >2</text><rect x="320.0" y="260" width="38" height="38" rx="0" fill="#bbb" stroke="none" stroke-width="0" opacity="1.0" /><text x="340.0" y="285.0" font-family="Arial, sans-serif" font-size="12" fill="#333" text-anchor="middle" font-weight="normal" >3</text><rect x="360.0" y="260" width="38" height="38" rx="0" fill="#bbb" stroke="none" stroke-width="0" opacity="1.0" /><text x="380.0" y="285.0" font-family="Arial, sans-serif" font-size="12" fill="#333" text-anchor="middle" font-weight="normal" >3</text><rect x="400.0" y="260" width="38" height="38" rx="0" fill="#ddd" stroke="none" stroke-width="0" opacity="1.0" /><text x="420.0" y="285.0" font-family="Arial, sans-serif" font-size="12" fill="#333" text-anchor="middle" font-weight="normal" >1</text><rect x="440.0" y="260" width="38" height="38" rx="0" fill="#aaa" stroke="none" stroke-width="0" opacity="1.0" /><text x="460.0" y="285.0" font-family="Arial, sans-serif" font-size="12" fill="#333" text-anchor="middle" font-weight="normal" >4</text><rect x="480.0" y="260" width="38" height="38" rx="0" fill="#ddd" stroke="none" stroke-width="0" opacity="1.0" /><text x="500.0" y="285.0" font-family="Arial, sans-serif" font-size="12" fill="#333" text-anchor="middle" font-weight="normal" >1</text><rect x="520.0" y="260" width="38" height="38" rx="0" fill="#aaa" stroke="none" stroke-width="0" opacity="1.0" /><text x="540.0" y="285.0" font-family="Arial, sans-serif" font-size="12" fill="#333" text-anchor="middle" font-weight="normal" >4</text><rect x="560.0" y="260" width="38" height="38" rx="0" fill="#aaa" stroke="none" stroke-width="0" opacity="1.0" /><text x="580.0" y="285.0" font-family="Arial, sans-serif" font-size="12" fill="#333" text-anchor="middle" font-weight="normal" >4</text><rect x="600.0" y="260" width="38" height="38" rx="0" fill="#ccc" stroke="none" stroke-width="0" opacity="1.0" /><text x="620.0" y="285.0" font-family="Arial, sans-serif" font-size="12" fill="#333" text-anchor="middle" font-weight="normal" >2</text><rect x="160.0" y="300" width="38" height="38" rx="0" fill="#ccc" stroke="none" stroke-width="0" opacity="1.0" /><text x="180.0" y="325.0" font-family="Arial, sans-serif" font-size="12" fill="#333" text-anchor="middle" font-weight="normal" >2</text><rect x="200.0" y="300" width="38" height="38" rx="0" fill="#ccc" stroke="none" stroke-width="0" opacity="1.0" /><text x="220.0" y="325.0" font-family="Arial, sans-serif" font-size="12" fill="#333" text-anchor="middle" font-weight="normal" >2</text><rect x="240.0" y="300" width="38" height="38" rx="0" fill="#ddd" stroke="none" stroke-width="0" opacity="1.0" /><text x="260.0" y="325.0" font-family="Arial, sans-serif" font-size="12" fill="#333" text-anchor="middle" font-weight="normal" >1</text><rect x="280.0" y="300" width="38" height="38" rx="0" fill="#eee" stroke="none" stroke-width="0" opacity="1.0" /><text x="300.0" y="325.0" font-family="Arial, sans-serif" font-size="12" fill="#333" text-anchor="middle" font-weight="normal" >0</text><rect x="320.0" y="300" width="38" height="38" rx="0" fill="#aaa" stroke="none" stroke-width="0" opacity="1.0" /><text x="340.0" y="325.0" font-family="Arial, sans-serif" font-size="12" fill="#333" text-anchor="middle" font-weight="normal" >4</text><rect x="360.0" y="300" width="38" height="38" rx="0" fill="#bbb" stroke="none" stroke-width="0" opacity="1.0" /><text x="380.0" y="325.0" font-family="Arial, sans-serif" font-size="12" fill="#333" text-anchor="middle" font-weight="normal" >3</text><rect x="400.0" y="300" width="38" height="38" rx="0" fill="#bbb" stroke="none" stroke-width="0" opacity="1.0" /><text x="420.0" y="325.0" font-family="Arial, sans-serif" font-size="12" fill="#333" text-anchor="middle" font-weight="normal" >3</text><rect x="440.0" y="300" width="38" height="38" rx="0" fill="#aaa" stroke="none" stroke-width="0" opacity="1.0" /><text x="460.0" y="325.0" font-family="Arial, sans-serif" font-size="12" fill="#333" text-anchor="middle" font-weight="normal" >4</text><rect x="480.0" y="300" width="38" height="38" rx="0" fill="#bbb" stroke="none" stroke-width="0" opacity="1.0" /><text x="500.0" y="325.0" font-family="Arial, sans-serif" font-size="12" fill="#333" text-anchor="middle" font-weight="normal" >3</text><rect x="520.0" y="300" width="38" height="38" rx="0" fill="#ddd" stroke="none" stroke-width="0" opacity="1.0" /><text x="540.0" y="325.0" font-family="Arial, sans-serif" font-size="12" fill="#333" text-anchor="middle" font-weight="normal" >1</text><rect x="560.0" y="300" width="38" height="38" rx="0" fill="#bbb" stroke="none" stroke-width="0" opacity="1.0" /><text x="580.0" y="325.0" font-family="Arial, sans-serif" font-size="12" fill="#333" text-anchor="middle" font-weight="normal" >3</text><rect x="600.0" y="300" width="38" height="38" rx="0" fill="#ccc" stroke="none" stroke-width="0" opacity="1.0" /><text x="620.0" y="325.0" font-family="Arial, sans-serif" font-size="12" fill="#333" text-anchor="middle" font-weight="normal" >2</text><rect x="160.0" y="340" width="38" height="38" rx="0" fill="#999" stroke="none" stroke-width="0" opacity="1.0" /><text x="180.0" y="365.0" font-family="Arial, sans-serif" font-size="12" fill="#333" text-anchor="middle" font-weight="normal" >5</text><rect x="200.0" y="340" width="38" height="38" rx="0" fill="#ccc" stroke="none" stroke-width="0" opacity="1.0" /><text x="220.0" y="365.0" font-family="Arial, sans-serif" font-size="12" fill="#333" text-anchor="middle" font-weight="normal" >2</text><rect x="240.0" y="340" width="38" height="38" rx="0" fill="#bbb" stroke="none" stroke-width="0" opacity="1.0" /><text x="260.0" y="365.0" font-family="Arial, sans-serif" font-size="12" fill="#333" text-anchor="middle" font-weight="normal" >3</text><rect x="280.0" y="340" width="38" height="38" rx="0" fill="#eee" stroke="none" stroke-width="0" opacity="1.0" /><text x="300.0" y="365.0" font-family="Arial, sans-serif" font-size="12" fill="#333" text-anchor="middle" font-weight="normal" >0</text><rect x="320.0" y="340" width="38" height="38" rx="0" fill="#bbb" stroke="none" stroke-width="0" opacity="1.0" /><text x="340.0" y="365.0" font-family="Arial, sans-serif" font-size="12" fill="#333" text-anchor="middle" font-weight="normal" >3</text><rect x="360.0" y="340" width="38" height="38" rx="0" fill="#eee" stroke="none" stroke-width="0" opacity="1.0" /><text x="380.0" y="365.0" font-family="Arial, sans-serif" font-size="12" fill="#333" text-anchor="middle" font-weight="normal" >0</text><rect x="400.0" y="340" width="38" height="38" rx="0" fill="#999" stroke="none" stroke-width="0" opacity="1.0" /><text x="420.0" y="365.0" font-family="Arial, sans-serif" font-size="12" fill="#333" text-anchor="middle" font-weight="normal" >5</text><rect x="440.0" y="340" width="38" height="38" rx="0" fill="#bbb" stroke="none" stroke-width="0" opacity="1.0" /><text x="460.0" y="365.0" font-family="Arial, sans-serif" font-size="12" fill="#333" text-anchor="middle" font-weight="normal" >3</text><rect x="480.0" y="340" width="38" height="38" rx="0" fill="#aaa" stroke="none" stroke-width="0" opacity="1.0" /><text x="500.0" y="365.0" font-family="Arial, sans-serif" font-size="12" fill="#333" text-anchor="middle" font-weight="normal" >4</text><rect x="520.0" y="340" width="38" height="38" rx="0" fill="#bbb" stroke="none" stroke-width="0" opacity="1.0" /><text x="540.0" y="365.0" font-family="Arial, sans-serif" font-size="12" fill="#333" text-anchor="middle" font-weight="normal" >3</text><rect x="560.0" y="340" width="38" height="38" rx="0" fill="#eee" stroke="none" stroke-width="0" opacity="1.0" /><text x="580.0" y="365.0" font-family="Arial, sans-serif" font-size="12" fill="#333" text-anchor="middle" font-weight="normal" >0</text><rect x="600.0" y="340" width="38" height="38" rx="0" fill="#bbb" stroke="none" stroke-width="0" opacity="1.0" /><text x="620.0" y="365.0" font-family="Arial, sans-serif" font-size="12" fill="#333" text-anchor="middle" font-weight="normal" >3</text><rect x="160.0" y="380" width="38" height="38" rx="0" fill="#bbb" stroke="none" stroke-width="0" opacity="1.0" /><text x="180.0" y="405.0" font-family="Arial, sans-serif" font-size="12" fill="#333" text-anchor="middle" font-weight="normal" >3</text><rect x="200.0" y="380" width="38" height="38" rx="0" fill="#bbb" stroke="none" stroke-width="0" opacity="1.0" /><text x="220.0" y="405.0" font-family="Arial, sans-serif" font-size="12" fill="#333" text-anchor="middle" font-weight="normal" >3</text><rect x="240.0" y="380" width="38" height="38" rx="0" fill="#999" stroke="none" stroke-width="0" opacity="1.0" /><text x="260.0" y="405.0" font-family="Arial, sans-serif" font-size="12" fill="#333" text-anchor="middle" font-weight="normal" >5</text><rect x="280.0" y="380" width="38" height="38" rx="0" fill="#ccc" stroke="none" stroke-width="0" opacity="1.0" /><text x="300.0" y="405.0" font-family="Arial, sans-serif" font-size="12" fill="#333" text-anchor="middle" font-weight="normal" >2</text><rect x="320.0" y="380" width="38" height="38" rx="0" fill="#ddd" stroke="none" stroke-width="0" opacity="1.0" /><text x="340.0" y="405.0" font-family="Arial, sans-serif" font-size="12" fill="#333" text-anchor="middle" font-weight="normal" >1</text><rect x="360.0" y="380" width="38" height="38" rx="0" fill="#aaa" stroke="none" stroke-width="0" opacity="1.0" /><text x="380.0" y="405.0" font-family="Arial, sans-serif" font-size="12" fill="#333" text-anchor="middle" font-weight="normal" >4</text><rect x="400.0" y="380" width="38" height="38" rx="0" fill="#999" stroke="none" stroke-width="0" opacity="1.0" /><text x="420.0" y="405.0" font-family="Arial, sans-serif" font-size="12" fill="#333" text-anchor="middle" font-weight="normal" >5</text><rect x="440.0" y="380" width="38" height="38" rx="0" fill="#bbb" stroke="none" stroke-width="0" opacity="1.0" /><text x="460.0" y="405.0" font-family="Arial, sans-serif" font-size="12" fill="#333" text-anchor="middle" font-weight="normal" >3</text><rect x="480.0" y="380" width="38" height="38" rx="0" fill="#eee" stroke="none" stroke-width="0" opacity="1.0" /><text x="500.0" y="405.0" font-family="Arial, sans-serif" font-size="12" fill="#333" text-anchor="middle" font-weight="normal" >0</text><rect x="520.0" y="380" width="38" height="38" rx="0" fill="#bbb" stroke="none" stroke-width="0" opacity="1.0" /><text x="540.0" y="405.0" font-family="Arial, sans-serif" font-size="12" fill="#333" text-anchor="middle" font-weight="normal" >3</text><rect x="560.0" y="380" width="38" height="38" rx="0" fill="#ccc" stroke="none" stroke-width="0" opacity="1.0" /><text x="580.0" y="405.0" font-family="Arial, sans-serif" font-size="12" fill="#333" text-anchor="middle" font-weight="normal" >2</text><rect x="600.0" y="380" width="38" height="38" rx="0" fill="#ddd" stroke="none" stroke-width="0" opacity="1.0" /><text x="620.0" y="405.0" font-family="Arial, sans-serif" font-size="12" fill="#333" text-anchor="middle" font-weight="normal" >1</text><rect x="160.0" y="420" width="38" height="38" rx="0" fill="#ddd" stroke="none" stroke-width="0" opacity="1.0" /><text x="180.0" y="445.0" font-family="Arial, sans-serif" font-size="12" fill="#333" text-anchor="middle" font-weight="normal" >1</text><rect x="200.0" y="420" width="38" height="38" rx="0" fill="#ccc" stroke="none" stroke-width="0" opacity="1.0" /><text x="220.0" y="445.0" font-family="Arial, sans-serif" font-size="12" fill="#333" text-anchor="middle" font-weight="normal" >2</text><rect x="240.0" y="420" width="38" height="38" rx="0" fill="#bbb" stroke="none" stroke-width="0" opacity="1.0" /><text x="260.0" y="445.0" font-family="Arial, sans-serif" font-size="12" fill="#333" text-anchor="middle" font-weight="normal" >3</text><rect x="280.0" y="420" width="38" height="38" rx="0" fill="#aaa" stroke="none" stroke-width="0" opacity="1.0" /><text x="300.0" y="445.0" font-family="Arial, sans-serif" font-size="12" fill="#333" text-anchor="middle" font-weight="normal" >4</text><rect x="320.0" y="420" width="38" height="38" rx="0" fill="#ddd" stroke="none" stroke-width="0" opacity="1.0" /><text x="340.0" y="445.0" font-family="Arial, sans-serif" font-size="12" fill="#333" text-anchor="middle" font-weight="normal" >1</text><rect x="360.0" y="420" width="38" height="38" rx="0" fill="#999" stroke="none" stroke-width="0" opacity="1.0" /><text x="380.0" y="445.0" font-family="Arial, sans-serif" font-size="12" fill="#333" text-anchor="middle" font-weight="normal" >5</text><rect x="400.0" y="420" width="38" height="38" rx="0" fill="#ccc" stroke="none" stroke-width="0" opacity="1.0" /><text x="420.0" y="445.0" font-family="Arial, sans-serif" font-size="12" fill="#333" text-anchor="middle" font-weight="normal" >2</text><rect x="440.0" y="420" width="38" height="38" rx="0" fill="#ddd" stroke="none" stroke-width="0" opacity="1.0" /><text x="460.0" y="445.0" font-family="Arial, sans-serif" font-size="12" fill="#333" text-anchor="middle" font-weight="normal" >1</text><rect x="480.0" y="420" width="38" height="38" rx="0" fill="#eee" stroke="none" stroke-width="0" opacity="1.0" /><text x="500.0" y="445.0" font-family="Arial, sans-serif" font-size="12" fill="#333" text-anchor="middle" font-weight="normal" >0</text><rect x="520.0" y="420" width="38" height="38" rx="0" fill="#999" stroke="none" stroke-width="0" opacity="1.0" /><text x="540.0" y="445.0" font-family="Arial, sans-serif" font-size="12" fill="#333" text-anchor="middle" font-weight="normal" >5</text><rect x="560.0" y="420" width="38" height="38" rx="0" fill="#ccc" stroke="none" stroke-width="0" opacity="1.0" /><text x="580.0" y="445.0" font-family="Arial, sans-serif" font-size="12" fill="#333" text-anchor="middle" font-weight="normal" >2</text><rect x="600.0" y="420" width="38" height="38" rx="0" fill="#ddd" stroke="none" stroke-width="0" opacity="1.0" /><text x="620.0" y="445.0" font-family="Arial, sans-serif" font-size="12" fill="#333" text-anchor="middle" font-weight="normal" >1</text><rect x="160.0" y="460" width="38" height="38" rx="0" fill="#eee" stroke="none" stroke-width="0" opacity="1.0" /><text x="180.0" y="485.0" font-family="Arial, sans-serif" font-size="12" fill="#333" text-anchor="middle" font-weight="normal" >0</text><rect x="200.0" y="460" width="38" height="38" rx="0" fill="#bbb" stroke="none" stroke-width="0" opacity="1.0" /><text x="220.0" y="485.0" font-family="Arial, sans-serif" font-size="12" fill="#333" text-anchor="middle" font-weight="normal" >3</text><rect x="240.0" y="460" width="38" height="38" rx="0" fill="#bbb" stroke="none" stroke-width="0" opacity="1.0" /><text x="260.0" y="485.0" font-family="Arial, sans-serif" font-size="12" fill="#333" text-anchor="middle" font-weight="normal" >3</text><rect x="280.0" y="460" width="38" height="38" rx="0" fill="#999" stroke="none" stroke-width="0" opacity="1.0" /><text x="300.0" y="485.0" font-family="Arial, sans-serif" font-size="12" fill="#333" text-anchor="middle" font-weight="normal" >5</text><rect x="320.0" y="460" width="38" height="38" rx="0" fill="#eee" stroke="none" stroke-width="0" opacity="1.0" /><text x="340.0" y="485.0" font-family="Arial, sans-serif" font-size="12" fill="#333" text-anchor="middle" font-weight="normal" >0</text><rect x="360.0" y="460" width="38" height="38" rx="0" fill="#aaa" stroke="none" stroke-width="0" opacity="1.0" /><text x="380.0" y="485.0" font-family="Arial, sans-serif" font-size="12" fill="#333" text-anchor="middle" font-weight="normal" >4</text><rect x="400.0" y="460" width="38" height="38" rx="0" fill="#eee" stroke="none" stroke-width="0" opacity="1.0" /><text x="420.0" y="485.0" font-family="Arial, sans-serif" font-size="12" fill="#333" text-anchor="middle" font-weight="normal" >0</text><rect x="440.0" y="460" width="38" height="38" rx="0" fill="#999" stroke="none" stroke-width="0" opacity="1.0" /><text x="460.0" y="485.0" font-family="Arial, sans-serif" font-size="12" fill="#333" text-anchor="middle" font-weight="normal" >5</text><rect x="480.0" y="460" width="38" height="38" rx="0" fill="#ccc" stroke="none" stroke-width="0" opacity="1.0" /><text x="500.0" y="485.0" font-family="Arial, sans-serif" font-size="12" fill="#333" text-anchor="middle" font-weight="normal" >2</text><rect x="520.0" y="460" width="38" height="38" rx="0" fill="#ddd" stroke="none" stroke-width="0" opacity="1.0" /><text x="540.0" y="485.0" font-family="Arial, sans-serif" font-size="12" fill="#333" text-anchor="middle" font-weight="normal" >1</text><rect x="560.0" y="460" width="38" height="38" rx="0" fill="#999" stroke="none" stroke-width="0" opacity="1.0" /><text x="580.0" y="485.0" font-family="Arial, sans-serif" font-size="12" fill="#333" text-anchor="middle" font-weight="normal" >5</text><rect x="600.0" y="460" width="38" height="38" rx="0" fill="#ccc" stroke="none" stroke-width="0" opacity="1.0" /><text x="620.0" y="485.0" font-family="Arial, sans-serif" font-size="12" fill="#333" text-anchor="middle" font-weight="normal" >2</text><rect x="160.0" y="500" width="38" height="38" rx="0" fill="#bbb" stroke="none" stroke-width="0" opacity="1.0" /><text x="180.0" y="525.0" font-family="Arial, sans-serif" font-size="12" fill="#333" text-anchor="middle" font-weight="normal" >3</text><rect x="200.0" y="500" width="38" height="38" rx="0" fill="#aaa" stroke="none" stroke-width="0" opacity="1.0" /><text x="220.0" y="525.0" font-family="Arial, sans-serif" font-size="12" fill="#333" text-anchor="middle" font-weight="normal" >4</text><rect x="240.0" y="500" width="38" height="38" rx="0" fill="#bbb" stroke="none" stroke-width="0" opacity="1.0" /><text x="260.0" y="525.0" font-family="Arial, sans-serif" font-size="12" fill="#333" text-anchor="middle" font-weight="normal" >3</text><rect x="280.0" y="500" width="38" height="38" rx="0" fill="#ccc" stroke="none" stroke-width="0" opacity="1.0" /><text x="300.0" y="525.0" font-family="Arial, sans-serif" font-size="12" fill="#333" text-anchor="middle" font-weight="normal" >2</text><rect x="320.0" y="500" width="38" height="38" rx="0" fill="#eee" stroke="none" stroke-width="0" opacity="1.0" /><text x="340.0" y="525.0" font-family="Arial, sans-serif" font-size="12" fill="#333" text-anchor="middle" font-weight="normal" >0</text><rect x="360.0" y="500" width="38" height="38" rx="0" fill="#bbb" stroke="none" stroke-width="0" opacity="1.0" /><text x="380.0" y="525.0" font-family="Arial, sans-serif" font-size="12" fill="#333" text-anchor="middle" font-weight="normal" >3</text><rect x="400.0" y="500" width="38" height="38" rx="0" fill="#eee" stroke="none" stroke-width="0" opacity="1.0" /><text x="420.0" y="525.0" font-family="Arial, sans-serif" font-size="12" fill="#333" text-anchor="middle" font-weight="normal" >0</text><rect x="440.0" y="500" width="38" height="38" rx="0" fill="#ccc" stroke="none" stroke-width="0" opacity="1.0" /><text x="460.0" y="525.0" font-family="Arial, sans-serif" font-size="12" fill="#333" text-anchor="middle" font-weight="normal" >2</text><rect x="480.0" y="500" width="38" height="38" rx="0" fill="#ccc" stroke="none" stroke-width="0" opacity="1.0" /><text x="500.0" y="525.0" font-family="Arial, sans-serif" font-size="12" fill="#333" text-anchor="middle" font-weight="normal" >2</text><rect x="520.0" y="500" width="38" height="38" rx="0" fill="#ddd" stroke="none" stroke-width="0" opacity="1.0" /><text x="540.0" y="525.0" font-family="Arial, sans-serif" font-size="12" fill="#333" text-anchor="middle" font-weight="normal" >1</text><rect x="560.0" y="500" width="38" height="38" rx="0" fill="#ddd" stroke="none" stroke-width="0" opacity="1.0" /><text x="580.0" y="525.0" font-family="Arial, sans-serif" font-size="12" fill="#333" text-anchor="middle" font-weight="normal" >1</text><rect x="600.0" y="500" width="38" height="38" rx="0" fill="#aaa" stroke="none" stroke-width="0" opacity="1.0" /><text x="620.0" y="525.0" font-family="Arial, sans-serif" font-size="12" fill="#333" text-anchor="middle" font-weight="normal" >4</text><rect x="160.0" y="540" width="38" height="38" rx="0" fill="#aaa" stroke="none" stroke-width="0" opacity="1.0" /><text x="180.0" y="565.0" font-family="Arial, sans-serif" font-size="12" fill="#333" text-anchor="middle" font-weight="normal" >4</text><rect x="200.0" y="540" width="38" height="38" rx="0" fill="#999" stroke="none" stroke-width="0" opacity="1.0" /><text x="220.0" y="565.0" font-family="Arial, sans-serif" font-size="12" fill="#333" text-anchor="middle" font-weight="normal" >5</text><rect x="240.0" y="540" width="38" height="38" rx="0" fill="#aaa" stroke="none" stroke-width="0" opacity="1.0" /><text x="260.0" y="565.0" font-family="Arial, sans-serif" font-size="12" fill="#333" text-anchor="middle" font-weight="normal" >4</text><rect x="280.0" y="540" width="38" height="38" rx="0" fill="#ccc" stroke="none" stroke-width="0" opacity="1.0" /><text x="300.0" y="565.0" font-family="Arial, sans-serif" font-size="12" fill="#333" text-anchor="middle" font-weight="normal" >2</text><rect x="320.0" y="540" width="38" height="38" rx="0" fill="#eee" stroke="none" stroke-width="0" opacity="1.0" /><text x="340.0" y="565.0" font-family="Arial, sans-serif" font-size="12" fill="#333" text-anchor="middle" font-weight="normal" >0</text><rect x="360.0" y="540" width="38" height="38" rx="0" fill="#bbb" stroke="none" stroke-width="0" opacity="1.0" /><text x="380.0" y="565.0" font-family="Arial, sans-serif" font-size="12" fill="#333" text-anchor="middle" font-weight="normal" >3</text><rect x="400.0" y="540" width="38" height="38" rx="0" fill="#ccc" stroke="none" stroke-width="0" opacity="1.0" /><text x="420.0" y="565.0" font-family="Arial, sans-serif" font-size="12" fill="#333" text-anchor="middle" font-weight="normal" >2</text><rect x="440.0" y="540" width="38" height="38" rx="0" fill="#ddd" stroke="none" stroke-width="0" opacity="1.0" /><text x="460.0" y="565.0" font-family="Arial, sans-serif" font-size="12" fill="#333" text-anchor="middle" font-weight="normal" >1</text><rect x="480.0" y="540" width="38" height="38" rx="0" fill="#ccc" stroke="none" stroke-width="0" opacity="1.0" /><text x="500.0" y="565.0" font-family="Arial, sans-serif" font-size="12" fill="#333" text-anchor="middle" font-weight="normal" >2</text><rect x="520.0" y="540" width="38" height="38" rx="0" fill="#ddd" stroke="none" stroke-width="0" opacity="1.0" /><text x="540.0" y="565.0" font-family="Arial, sans-serif" font-size="12" fill="#333" text-anchor="middle" font-weight="normal" >1</text><rect x="560.0" y="540" width="38" height="38" rx="0" fill="#ddd" stroke="none" stroke-width="0" opacity="1.0" /><text x="580.0" y="565.0" font-family="Arial, sans-serif" font-size="12" fill="#333" text-anchor="middle" font-weight="normal" >1</text><rect x="600.0" y="540" width="38" height="38" rx="0" fill="#bbb" stroke="none" stroke-width="0" opacity="1.0" /><text x="620.0" y="565.0" font-family="Arial, sans-serif" font-size="12" fill="#333" text-anchor="middle" font-weight="normal" >3</text><text x="400" y="50" font-family="Arial, sans-serif" font-size="24" fill="black" text-anchor="middle" font-weight="bold" >Skyline Diffuser Pattern</text><text x="400" y="80" font-family="Arial, sans-serif" font-size="16" fill="#666" text-anchor="middle" font-weight="normal" >Varied block heights scatter sound in all directions</text></svg>