<svg xmlns="http://www.w3.org/2000/svg" viewBox="0 0 800 500">
  <defs>
    <style>
      @import url('https://fonts.googleapis.com/css2?family=Inter:wght@400;600&display=swap');
      text { font-family: 'Inter', system-ui, -apple-system, sans-serif; }
      .bg { fill: #f8fafc; }
      .grid { stroke: #e2e8f0; stroke-width: 1; }
      .axis { stroke: #94a3b8; stroke-width: 2; }
      .line-primary { fill: none; stroke: #3b82f6; stroke-width: 4; stroke-linecap: round; stroke-linejoin: round; }
      .line-secondary { fill: none; stroke: #64748b; stroke-width: 3; stroke-linecap: round; stroke-dasharray: 6 4; }
      .line-accent { fill: none; stroke: #ef4444; stroke-width: 3; stroke-linecap: round; }
      .text-title { font-size: 24px; font-weight: 600; fill: #1e293b; text-anchor: middle; }
      .text-label { font-size: 14px; font-weight: 400; fill: #475569; text-anchor: middle; }
      .box { fill: #eff6ff; stroke: #3b82f6; stroke-width: 2; rx: 8; }
      .box-text { font-size: 16px; font-weight: 600; fill: #1e293b; text-anchor: middle; dominant-baseline: middle; }
    </style>
  </defs>
  <rect width="800" height="500" class="bg" />
  <text x="400.0" y="40" class="text-title">Speed Of Sound Chart</text>
<line x1="128.0" y1="440" x2="128.0" y2="60" class="grid" /><line x1="60" y1="98.0" x2="740" y2="98.0" class="grid" /><line x1="196.0" y1="440" x2="196.0" y2="60" class="grid" /><line x1="60" y1="136.0" x2="740" y2="136.0" class="grid" /><line x1="264.0" y1="440" x2="264.0" y2="60" class="grid" /><line x1="60" y1="174.0" x2="740" y2="174.0" class="grid" /><line x1="332.0" y1="440" x2="332.0" y2="60" class="grid" /><line x1="60" y1="212.0" x2="740" y2="212.0" class="grid" /><line x1="400.0" y1="440" x2="400.0" y2="60" class="grid" /><line x1="60" y1="250.0" x2="740" y2="250.0" class="grid" /><line x1="468.0" y1="440" x2="468.0" y2="60" class="grid" /><line x1="60" y1="288.0" x2="740" y2="288.0" class="grid" /><line x1="536.0" y1="440" x2="536.0" y2="60" class="grid" /><line x1="60" y1="326.0" x2="740" y2="326.0" class="grid" /><line x1="604.0" y1="440" x2="604.0" y2="60" class="grid" /><line x1="60" y1="364.0" x2="740" y2="364.0" class="grid" /><line x1="672.0" y1="440" x2="672.0" y2="60" class="grid" /><line x1="60" y1="402.0" x2="740" y2="402.0" class="grid" /><line x1="60" y1="440" x2="740" y2="440" class="axis" /><line x1="60" y1="440" x2="60" y2="60" class="axis" /><path d="M 60.0 440.0 L 66.8 425.77793078256303 L 73.6 412.6848372236724 L 80.4 400.5545860367364 L 87.2 389.25521481931736 L 94.0 378.6801591507095 L 100.8 368.74212608214407 L 107.6 359.368710326496 L 114.4 350.4991901751314 L 121.19999999999999 342.0821415497099 L 128.0 334.073631637925 L 134.8 326.4358309643115 L 141.6 319.1359327141506 L 148.4 312.1453011375588 L 155.2 305.43879312398764 L 162.0 298.99421233674025 L 168.8 292.7918659912828 L 175.60000000000002 286.8142019531891 L 182.39999999999998 281.0455092984967 L 189.2 275.47166946772586 L 196.0 270.0799480899567 L 202.79999999999998 264.85881975251186 L 209.6 259.797819651023 L 216.4 254.88741731866912 L 223.2 250.11890860500654 L 230.0 245.48432282802776 L 236.8 240.9763426116055 L 243.60000000000002 236.5882343837472 L 250.4 232.3137878783102 L 257.2 228.14726327584998 L 264.0 224.0833448545419 L 270.8 220.1171002121325 L 277.6 216.24394427420123 L 284.4 212.45960743001626 L 291.20000000000005 208.76010724066623 L 298.0 205.14172324940478 L 304.79999999999995 201.60097449476157 L 311.6 198.13459938572112 L 318.4 194.7395376473451 L 325.2 191.41291408637503 L 332.0 188.15202396100185 L 338.8 184.95431976826836 L 345.59999999999997 181.8173992873949 L 352.4 178.73899473843892 L 359.2 175.71696293372497 L 366.0 172.74927631490868 L 372.8 169.8340147817952 L 379.59999999999997 166.96935823043583 L 386.4 164.15357972788166 L 393.2 161.38503925950363 L 400.0 158.6621779921873 L 406.8 155.98351300315915 L 413.6 153.34763242981285 L 420.40000000000003 150.75319100082203 L 427.20000000000005 148.19890591312554 L 434.00000000000006 145.68355302315115 L 440.8 143.2059633239699 L 447.59999999999997 140.76501968300227 L 454.4 138.3596538174889 L 461.2 135.98884348722896 L 468.0 133.65160988612286 L 474.8 131.3470152158597 L 481.6 129.0741604266969 L 488.4 126.8321831117114 L 495.2 124.62025554217831 L 502.0 122.43758283287826 L 508.8 120.28340122715514 L 515.6 118.15697649246692 L 522.4000000000001 116.05760241799459 L 529.2 113.98459940661701 L 536.0 111.93731315422679 L 542.8 109.91511340996624 L 549.5999999999999 107.91739281150473 L 556.4 105.94356578997235 L 563.2 103.99306753961048 L 570.0 102.06535304760212 L 576.8 100.1598961799134 L 583.6 98.27618881931056 L 590.4 96.41374005201789 L 597.2 94.5720753997607 L 604.0 92.75073609418763 L 610.8000000000001 90.94927839089604 L 617.6 89.16727292049495 L 624.4 87.40430407433138 L 631.1999999999999 85.6599694226818 L 638.0 83.93387916337065 L 644.8 82.22565559892683 L 651.6 80.53493264052395 L 658.4 78.86135533707323 L 665.2 77.2045794279561 L 672.0 75.56427091798446 L 678.8000000000001 73.94010567327774 L 685.6 72.33176903683238 L 692.4 70.73895546264424 L 699.1999999999999 69.16136816731876 L 706.0 67.59871879817644 L 712.8 66.05072711692429 L 719.6 64.5171206980263 L 726.4 62.99763464095912 L 733.2 61.492011295595375 L 740.0 60.0" class="line-primary" /></svg>