<svg xmlns="http://www.w3.org/2000/svg" viewBox="0 0 800 600"><rect x="0" y="0" width="800" height="600" fill="#f8fafc" /><line x1="100" y1="100" x2="100" y2="500" stroke="black" stroke-width="4" opacity="1.0"  /><text x="100" y="520" font-family="Inter, system-ui, sans-serif" font-size="20" fill="#1e293b" text-anchor="middle" font-weight="normal" font-style="normal" >Wall</text><line x1="700" y1="100" x2="700" y2="500" stroke="black" stroke-width="4" opacity="1.0"  /><text x="700" y="520" font-family="Inter, system-ui, sans-serif" font-size="20" fill="#1e293b" text-anchor="middle" font-weight="normal" font-style="normal" >Wall</text><path d="M 100,300.0 L 101,298.9528215883754 L 102,297.9057580116643 L 103,296.8589240921872 L 104,295.81243462708005 L 105,294.76640437570563 L 106,293.72094804706865 L 107,292.67618028723683 L 108,291.63221566676845 L 109,290.58916866814855 L 110,289.5471536732347 L 111,288.50628495071334 L 112,287.4666766435696 L 113,286.42844275656955 L 114,285.39169714375885 L 115,284.3565534959769 L 116,283.3231253283898 L 117,282.2915259680417 L 118,281.26186854142753 L 119,280.23426596208736 L 120,279.20883091822407 L 121,278.1856758603457 L 122,277.1649129889344 L 123,276.1466542421419 L 124,275.1310112835145 L 125,274.11809548974793 L 126,273.10801793847344 L 127,272.1008893960771 L 128,271.09682030555285 L 129,270.09592077439135 L 130,269.09830056250524 L 131,268.104069070193 L 132,267.1133353261417 L 133,266.12620797547083 L 134,265.1427952678185 L 135,264.16320504546997 L 136,263.1875447315322 L 137,262.2159213181533 L 138,261.2484413547897 L 139,260.28521093652193 L 140,259.32633569242 L 141,258.3719207739599 L 142,257.42207084349275 L 143,256.47689006276727 L 144,255.53648208150724 L 145,254.60095002604533 L 146,253.67039648801384 L 147,252.7449235130946 L 148,251.82463258982847 L 149,250.90962463848592 L 150,250.0 L 151,249.09585842496287 L 152,248.19729906268697 L 153,247.30442045033223 L 154,246.41732050210035 L 155,245.5360964984973 L 156,244.6608450756656 L 157,243.79166221478692 L 158,242.92864323155683 L 159,242.0718827657321 L 160,241.22147477075268 L 161,240.37751250343842 L 162,239.54008851376253 L 163,238.70929463470236 L 164,237.88522197216898 L 165,237.06796089501626 L 166,236.25760102513104 L 167,235.45423122760496 L 168,234.65793960098947 L 169,233.86881346763482 L 170,233.0869393641142 L 171,232.31240303173394 L 172,231.54528940713112 L 173,230.7856826129593 L 174,230.03366594866344 L 175,229.28932188134524 L 176,228.55273203671968 L 177,227.82397719016382 L 178,227.10313725785886 L 179,226.39029128802656 L 180,225.68551745226057 L 181,224.98889303695404 L 182,224.30049443482437 L 183,223.6203971365358 L 184,222.9486757224211 L 185,222.28540385430293 L 186,221.63065426741605 L 187,220.98449876243097 L 188,220.34700819758038 L 189,219.71825248088857 L 190,219.09830056250527 L 191,218.4872204271446 L 192,217.88507908662962 L 193,217.29194257254383 L 194,216.70787592899006 L 195,216.1329432054576 L 196,215.5672074497985 L 197,215.0107307013136 L 198,214.46357398394935 L 199,213.92579729960565 L 200,213.39745962155615 L 201,212.87861888798108 L 202,212.36933199561363 L 203,211.86965479350079 L 204,211.37964207687855 L 205,210.89934758116323 L 206,210.4288239760587 L 207,209.96812285978066 L 208,209.51729475339806 L 209,209.07638909529317 L 210,208.64545423573992 L 211,208.2245374316019 L 212,207.81368484114995 L 213,207.41294151900053 L 214,207.02235141117487 L 215,206.64195735027982 L 216,206.27180105081084 L 217,205.91192310457745 L 218,205.5623629762519 L 219,205.22315899904143 L 220,204.89434837048464 L 221,204.5759671483723 L 222,204.26805024679328 L 223,203.9706314323057 L 224,203.68374332023419 L 225,203.40741737109317 L 226,203.14168388713688 L 227,202.8865720090364 L 228,202.64210971268398 L 229,202.40832380612528 L 230,202.18523992661943 L 231,201.97288253782781 L 232,201.77127492713115 L 233,201.5804392030758 L 234,201.4003962929495 L 235,201.23116594048622 L 236,201.07276670370118 L 237,200.92521595285564 L 238,200.78852986855222 L 239,200.66272343996036 L 240,200.54781046317265 L 241,200.443803539692 L 242,200.35071407504955 L 243,200.2685522775542 L 244,200.19732715717285 L 245,200.1370465245426 L 246,200.08771699011416 L 247,200.04934396342685 L 248,200.02193165251543 L 249,200.0054830634488 L 250,200.0 L 251,200.0054830634488 L 252,200.02193165251543 L 253,200.04934396342685 L 254,200.08771699011416 L 255,200.1370465245426 L 256,200.19732715717285 L 257,200.2685522775542 L 258,200.35071407504955 L 259,200.443803539692 L 260,200.54781046317265 L 261,200.66272343996036 L 262,200.78852986855222 L 263,200.92521595285564 L 264,201.07276670370118 L 265,201.23116594048622 L 266,201.4003962929495 L 267,201.5804392030758 L 268,201.77127492713112 L 269,201.97288253782781 L 270,202.18523992661943 L 271,202.40832380612525 L 272,202.64210971268398 L 273,202.8865720090364 L 274,203.14168388713688 L 275,203.40741737109317 L 276,203.68374332023419 L 277,203.9706314323057 L 278,204.26805024679328 L 279,204.57596714837229 L 280,204.89434837048464 L 281,205.2231589990414 L 282,205.5623629762519 L 283,205.91192310457745 L 284,206.27180105081084 L 285,206.64195735027982 L 286,207.02235141117484 L 287,207.41294151900053 L 288,207.81368484114995 L 289,208.22453743160187 L 290,208.64545423573992 L 291,209.07638909529314 L 292,209.51729475339803 L 293,209.96812285978064 L 294,210.4288239760587 L 295,210.89934758116323 L 296,211.3796420768785 L 297,211.86965479350079 L 298,212.36933199561363 L 299,212.87861888798105 L 300,213.39745962155612 L 301,213.92579729960562 L 302,214.46357398394935 L 303,215.0107307013136 L 304,215.5672074497985 L 305,216.1329432054576 L 306,216.70787592899006 L 307,217.2919425725438 L 308,217.8850790866296 L 309,218.48722042714456 L 310,219.09830056250524 L 311,219.71825248088854 L 312,220.34700819758038 L 313,220.98449876243095 L 314,221.630654267416 L 315,222.2854038543029 L 316,222.94867572242106 L 317,223.62039713653576 L 318,224.30049443482432 L 319,224.98889303695404 L 320,225.68551745226057 L 321,226.39029128802656 L 322,227.1031372578588 L 323,227.82397719016376 L 324,228.55273203671965 L 325,229.28932188134524 L 326,230.03366594866344 L 327,230.7856826129593 L 328,231.54528940713112 L 329,232.31240303173388 L 330,233.08693936411416 L 331,233.86881346763477 L 332,234.65793960098944 L 333,235.4542312276049 L 334,236.257601025131 L 335,237.06796089501623 L 336,237.88522197216895 L 337,238.7092946347023 L 338,239.5400885137625 L 339,240.3775125034384 L 340,241.22147477075268 L 341,242.07188276573208 L 342,242.92864323155678 L 343,243.79166221478692 L 344,244.66084507566555 L 345,245.53609649849727 L 346,246.4173205021003 L 347,247.30442045033223 L 348,248.19729906268694 L 349,249.09585842496284 L 350,249.99999999999997 L 351,250.9096246384859 L 352,251.82463258982844 L 353,252.7449235130946 L 354,253.6703964880138 L 355,254.60095002604533 L 356,255.53648208150722 L 357,256.4768900627672 L 358,257.4220708434927 L 359,258.37192077395986 L 360,259.32633569241995 L 361,260.2852109365219 L 362,261.2484413547897 L 363,262.2159213181533 L 364,263.18754473153217 L 365,264.1632050454699 L 366,265.1427952678185 L 367,266.12620797547083 L 368,267.1133353261417 L 369,268.10406907019296 L 370,269.09830056250524 L 371,270.0959207743913 L 372,271.0968203055528 L 373,272.10088939607704 L 374,273.1080179384734 L 375,274.1180954897479 L 376,275.13101128351445 L 377,276.1466542421419 L 378,277.16491298893436 L 379,278.1856758603457 L 380,279.208830918224 L 381,280.23426596208736 L 382,281.2618685414275 L 383,282.29152596804164 L 384,283.3231253283897 L 385,284.35655349597687 L 386,285.3916971437588 L 387,286.4284427565695 L 388,287.46667664356954 L 389,288.5062849507133 L 390,289.5471536732346 L 391,290.58916866814855 L 392,291.63221566676845 L 393,292.6761802872368 L 394,293.72094804706865 L 395,294.7664043757056 L 396,295.81243462708 L 397,296.8589240921871 L 398,297.90575801166426 L 399,298.9528215883754 L 400,299.99999999999994 L 401,301.04717841162454 L 402,302.0942419883356 L 403,303.1410759078128 L 404,304.1875653729199 L 405,305.23359562429437 L 406,306.2790519529313 L 407,307.32381971276317 L 408,308.3677843332315 L 409,309.4108313318514 L 410,310.4528463267653 L 411,311.49371504928666 L 412,312.5333233564304 L 413,313.5715572434304 L 414,314.60830285624115 L 415,315.643446504023 L 416,316.6768746716102 L 417,317.7084740319583 L 418,318.7381314585724 L 419,319.7657340379126 L 420,320.79116908177593 L 421,321.8143241396542 L 422,322.8350870110655 L 423,323.85334575785805 L 424,324.86898871648543 L 425,325.881904510252 L 426,326.89198206152656 L 427,327.8991106039229 L 428,328.9031796944471 L 429,329.90407922560865 L 430,330.9016994374947 L 431,331.895930929807 L 432,332.88666467385826 L 433,333.8737920245291 L 434,334.85720473218146 L 435,335.83679495453 L 436,336.8124552684677 L 437,337.78407868184667 L 438,338.75155864521025 L 439,339.71478906347807 L 440,340.67366430758 L 441,341.6280792260401 L 442,342.57792915650725 L 443,343.5231099372327 L 444,344.4635179184927 L 445,345.3990499739546 L 446,346.32960351198614 L 447,347.25507648690535 L 448,348.1753674101715 L 449,349.090375361514 L 450,350.0 L 451,350.9041415750371 L 452,351.802700937313 L 453,352.69557954966774 L 454,353.5826794978996 L 455,354.46390350150267 L 456,355.33915492433437 L 457,356.208337785213 L 458,357.07135676844314 L 459,357.92811723426786 L 460,358.7785252292473 L 461,359.6224874965616 L 462,360.45991148623744 L 463,361.29070536529764 L 464,362.114778027831 L 465,362.93203910498374 L 466,363.74239897486893 L 467,364.54576877239504 L 468,365.3420603990105 L 469,366.1311865323652 L 470,366.9130606358858 L 471,367.687596968266 L 472,368.4547105928688 L 473,369.21431738704064 L 474,369.9663340513365 L 475,370.7106781186547 L 476,371.4472679632803 L 477,372.1760228098362 L 478,372.89686274214114 L 479,373.6097087119734 L 480,374.31448254773943 L 481,375.0111069630459 L 482,375.6995055651756 L 483,376.37960286346424 L 484,377.0513242775789 L 485,377.71459614569704 L 486,378.36934573258395 L 487,379.01550123756897 L 488,379.6529918024196 L 489,380.28174751911143 L 490,380.9016994374947 L 491,381.5127795728554 L 492,382.1149209133704 L 493,382.70805742745614 L 494,383.29212407100994 L 495,383.86705679454235 L 496,384.4327925502015 L 497,384.9892692986864 L 498,385.53642601605065 L 499,386.0742027003943 L 500,386.60254037844385 L 501,387.1213811120189 L 502,387.6306680043863 L 503,388.1303452064992 L 504,388.62035792312145 L 505,389.1006524188368 L 506,389.57117602394123 L 507,390.0318771402193 L 508,390.48270524660194 L 509,390.92361090470683 L 510,391.35454576426 L 511,391.7754625683981 L 512,392.18631515885005 L 513,392.5870584809994 L 514,392.9776485888251 L 515,393.3580426497201 L 516,393.72819894918916 L 517,394.08807689542255 L 518,394.4376370237481 L 519,394.77684100095854 L 520,395.10565162951536 L 521,395.42403285162766 L 522,395.7319497532067 L 523,396.0293685676943 L 524,396.31625667976584 L 525,396.5925826289068 L 526,396.8583161128631 L 527,397.1134279909636 L 528,397.357890287316 L 529,397.5916761938747 L 530,397.81476007338057 L 531,398.02711746217216 L 532,398.2287250728689 L 533,398.4195607969242 L 534,398.5996037070505 L 535,398.7688340595138 L 536,398.9272332962988 L 537,399.07478404714436 L 538,399.21147013144775 L 539,399.33727656003964 L 540,399.45218953682735 L 541,399.556196460308 L 542,399.6492859249504 L 543,399.7314477224458 L 544,399.8026728428272 L 545,399.8629534754574 L 546,399.91228300988587 L 547,399.95065603657315 L 548,399.97806834748457 L 549,399.99451693655124 L 550,400.0 L 551,399.99451693655124 L 552,399.97806834748457 L 553,399.95065603657315 L 554,399.91228300988587 L 555,399.8629534754574 L 556,399.8026728428272 L 557,399.7314477224458 L 558,399.64928592495045 L 559,399.556196460308 L 560,399.45218953682735 L 561,399.33727656003964 L 562,399.2114701314478 L 563,399.07478404714436 L 564,398.9272332962988 L 565,398.7688340595138 L 566,398.5996037070505 L 567,398.4195607969242 L 568,398.2287250728689 L 569,398.0271174621722 L 570,397.81476007338057 L 571,397.5916761938748 L 572,397.357890287316 L 573,397.1134279909636 L 574,396.8583161128631 L 575,396.5925826289068 L 576,396.31625667976584 L 577,396.02936856769435 L 578,395.7319497532068 L 579,395.4240328516277 L 580,395.10565162951536 L 581,394.7768410009586 L 582,394.43763702374815 L 583,394.08807689542255 L 584,393.72819894918916 L 585,393.35804264972023 L 586,392.97764858882516 L 587,392.5870584809995 L 588,392.1863151588501 L 589,391.77546256839815 L 590,391.35454576426014 L 591,390.92361090470683 L 592,390.482705246602 L 593,390.03187714021936 L 594,389.5711760239413 L 595,389.1006524188368 L 596,388.6203579231215 L 597,388.1303452064992 L 598,387.6306680043864 L 599,387.121381112019 L 600,386.6025403784439 L 601,386.0742027003944 L 602,385.53642601605065 L 603,384.98926929868645 L 604,384.43279255020155 L 605,383.8670567945424 L 606,383.29212407101 L 607,382.70805742745625 L 608,382.11492091337044 L 609,381.51277957285544 L 610,380.90169943749476 L 611,380.2817475191115 L 612,379.6529918024197 L 613,379.0155012375691 L 614,378.36934573258407 L 615,377.7145961456971 L 616,377.05132427757894 L 617,376.37960286346424 L 618,375.69950556517574 L 619,375.011106963046 L 620,374.31448254773943 L 621,373.60970871197344 L 622,372.89686274214125 L 623,372.17602280983624 L 624,371.44726796328035 L 625,370.71067811865476 L 626,369.9663340513366 L 627,369.21431738704075 L 628,368.4547105928689 L 629,367.6875969682661 L 630,366.91306063588587 L 631,366.13118653236523 L 632,365.34206039901056 L 633,364.54576877239515 L 634,363.74239897486905 L 635,362.9320391049838 L 636,362.11477802783105 L 637,361.29070536529775 L 638,360.45991148623756 L 639,359.62248749656163 L 640,358.77852522924735 L 641,357.928117234268 L 642,357.07135676844325 L 643,356.2083377852131 L 644,355.3391549243345 L 645,354.4639035015028 L 646,353.58267949789973 L 647,352.6955795496678 L 648,351.8027009373131 L 649,350.9041415750372 L 650,350.00000000000006 L 651,349.09037536151413 L 652,348.1753674101716 L 653,347.25507648690547 L 654,346.3296035119862 L 655,345.3990499739548 L 656,344.4635179184928 L 657,343.5231099372328 L 658,342.5779291565073 L 659,341.6280792260402 L 660,340.6736643075801 L 661,339.7147890634781 L 662,338.7515586452103 L 663,337.78407868184684 L 664,336.8124552684679 L 665,335.8367949545301 L 666,334.8572047321816 L 667,333.8737920245292 L 668,332.8866646738584 L 669,331.89593092980704 L 670,330.90169943749487 L 671,329.90407922560877 L 672,328.9031796944472 L 673,327.89911060392296 L 674,326.8919820615267 L 675,325.8819045102522 L 676,324.86898871648555 L 677,323.8533457578581 L 678,322.8350870110657 L 679,321.81432413965433 L 680,320.791169081776 L 681,319.76573403791264 L 682,318.7381314585726 L 683,317.7084740319584 L 684,316.6768746716103 L 685,315.6434465040232 L 686,314.60830285624127 L 687,313.5715572434305 L 688,312.53332335643046 L 689,311.4937150492868 L 690,310.45284632676544 L 691,309.4108313318515 L 692,308.3677843332316 L 693,307.3238197127633 L 694,306.2790519529314 L 695,305.2335956242944 L 696,304.18756537292 L 697,303.14107590781293 L 698,302.0942419883358 L 699,301.0471784116246 L 700,300.0000000000001" fill="none" stroke="#3b82f6" stroke-width="2" opacity="1.0"  /><path d="M 100,300.0 L 101,301.0471784116246 L 102,302.0942419883357 L 103,303.1410759078128 L 104,304.18756537291995 L 105,305.23359562429437 L 106,306.27905195293135 L 107,307.32381971276317 L 108,308.36778433323155 L 109,309.41083133185145 L 110,310.4528463267653 L 111,311.49371504928666 L 112,312.5333233564304 L 113,313.57155724343045 L 114,314.60830285624115 L 115,315.6434465040231 L 116,316.6768746716102 L 117,317.7084740319583 L 118,318.73813145857247 L 119,319.76573403791264 L 120,320.79116908177593 L 121,321.8143241396543 L 122,322.8350870110656 L 123,323.8533457578581 L 124,324.8689887164855 L 125,325.88190451025207 L 126,326.89198206152656 L 127,327.8991106039229 L 128,328.90317969444715 L 129,329.90407922560865 L 130,330.90169943749476 L 131,331.895930929807 L 132,332.8866646738583 L 133,333.87379202452917 L 134,334.8572047321815 L 135,335.83679495453003 L 136,336.8124552684678 L 137,337.7840786818467 L 138,338.7515586452103 L 139,339.71478906347807 L 140,340.67366430758 L 141,341.6280792260401 L 142,342.57792915650725 L 143,343.52310993723273 L 144,344.46351791849276 L 145,345.3990499739547 L 146,346.3296035119862 L 147,347.2550764869054 L 148,348.17536741017153 L 149,349.0903753615141 L 150,350.0 L 151,350.9041415750371 L 152,351.80270093731303 L 153,352.69557954966774 L 154,353.5826794978997 L 155,354.4639035015027 L 156,355.3391549243344 L 157,356.2083377852131 L 158,357.07135676844314 L 159,357.9281172342679 L 160,358.7785252292473 L 161,359.6224874965616 L 162,360.4599114862375 L 163,361.29070536529764 L 164,362.11477802783105 L 165,362.93203910498374 L 166,363.74239897486893 L 167,364.54576877239504 L 168,365.3420603990105 L 169,366.1311865323652 L 170,366.9130606358858 L 171,367.68759696826606 L 172,368.4547105928689 L 173,369.2143173870407 L 174,369.96633405133656 L 175,370.71067811865476 L 176,371.4472679632803 L 177,372.1760228098362 L 178,372.89686274214114 L 179,373.60970871197344 L 180,374.31448254773943 L 181,375.01110696304596 L 182,375.6995055651756 L 183,376.37960286346424 L 184,377.05132427757894 L 185,377.7145961456971 L 186,378.36934573258395 L 187,379.015501237569 L 188,379.6529918024196 L 189,380.28174751911143 L 190,380.9016994374947 L 191,381.5127795728554 L 192,382.1149209133704 L 193,382.7080574274562 L 194,383.29212407100994 L 195,383.8670567945424 L 196,384.4327925502015 L 197,384.9892692986864 L 198,385.53642601605065 L 199,386.0742027003944 L 200,386.60254037844385 L 201,387.1213811120189 L 202,387.6306680043864 L 203,388.1303452064992 L 204,388.62035792312145 L 205,389.1006524188368 L 206,389.5711760239413 L 207,390.0318771402193 L 208,390.48270524660194 L 209,390.92361090470683 L 210,391.3545457642601 L 211,391.7754625683981 L 212,392.18631515885005 L 213,392.5870584809995 L 214,392.9776485888251 L 215,393.3580426497202 L 216,393.72819894918916 L 217,394.08807689542255 L 218,394.4376370237481 L 219,394.7768410009586 L 220,395.10565162951536 L 221,395.42403285162766 L 222,395.7319497532067 L 223,396.0293685676943 L 224,396.31625667976584 L 225,396.5925826289068 L 226,396.8583161128631 L 227,397.1134279909636 L 228,397.357890287316 L 229,397.5916761938747 L 230,397.81476007338057 L 231,398.0271174621722 L 232,398.2287250728689 L 233,398.4195607969242 L 234,398.5996037070505 L 235,398.7688340595138 L 236,398.9272332962988 L 237,399.07478404714436 L 238,399.21147013144775 L 239,399.33727656003964 L 240,399.45218953682735 L 241,399.556196460308 L 242,399.64928592495045 L 243,399.7314477224458 L 244,399.8026728428272 L 245,399.8629534754574 L 246,399.91228300988587 L 247,399.95065603657315 L 248,399.97806834748457 L 249,399.99451693655124 L 250,400.0 L 251,399.99451693655124 L 252,399.97806834748457 L 253,399.95065603657315 L 254,399.91228300988587 L 255,399.8629534754574 L 256,399.8026728428272 L 257,399.7314477224458 L 258,399.64928592495045 L 259,399.556196460308 L 260,399.45218953682735 L 261,399.33727656003964 L 262,399.21147013144775 L 263,399.07478404714436 L 264,398.9272332962988 L 265,398.7688340595138 L 266,398.5996037070505 L 267,398.4195607969242 L 268,398.2287250728689 L 269,398.0271174621722 L 270,397.81476007338057 L 271,397.5916761938747 L 272,397.357890287316 L 273,397.1134279909636 L 274,396.8583161128631 L 275,396.5925826289068 L 276,396.31625667976584 L 277,396.0293685676943 L 278,395.7319497532067 L 279,395.4240328516277 L 280,395.10565162951536 L 281,394.7768410009586 L 282,394.4376370237481 L 283,394.08807689542255 L 284,393.72819894918916 L 285,393.3580426497202 L 286,392.97764858882516 L 287,392.5870584809995 L 288,392.18631515885005 L 289,391.7754625683981 L 290,391.3545457642601 L 291,390.92361090470683 L 292,390.482705246602 L 293,390.03187714021936 L 294,389.5711760239413 L 295,389.1006524188368 L 296,388.6203579231215 L 297,388.1303452064992 L 298,387.6306680043864 L 299,387.121381112019 L 300,386.6025403784439 L 301,386.0742027003944 L 302,385.53642601605065 L 303,384.9892692986864 L 304,384.4327925502015 L 305,383.8670567945424 L 306,383.29212407100994 L 307,382.7080574274562 L 308,382.1149209133704 L 309,381.51277957285544 L 310,380.90169943749476 L 311,380.2817475191115 L 312,379.6529918024196 L 313,379.0155012375691 L 314,378.369345732584 L 315,377.7145961456971 L 316,377.05132427757894 L 317,376.37960286346424 L 318,375.6995055651757 L 319,375.01110696304596 L 320,374.31448254773943 L 321,373.60970871197344 L 322,372.8968627421412 L 323,372.17602280983624 L 324,371.44726796328035 L 325,370.71067811865476 L 326,369.96633405133656 L 327,369.2143173870407 L 328,368.4547105928689 L 329,367.6875969682661 L 330,366.9130606358858 L 331,366.13118653236523 L 332,365.34206039901056 L 333,364.5457687723951 L 334,363.742398974869 L 335,362.9320391049838 L 336,362.11477802783105 L 337,361.2907053652977 L 338,360.4599114862375 L 339,359.6224874965616 L 340,358.7785252292473 L 341,357.9281172342679 L 342,357.0713567684432 L 343,356.2083377852131 L 344,355.3391549243344 L 345,354.4639035015027 L 346,353.5826794978997 L 347,352.69557954966774 L 348,351.80270093731303 L 349,350.90414157503716 L 350,350.00000000000006 L 351,349.0903753615141 L 352,348.1753674101716 L 353,347.2550764869054 L 354,346.3296035119862 L 355,345.3990499739547 L 356,344.46351791849276 L 357,343.5231099372328 L 358,342.5779291565073 L 359,341.62807922604014 L 360,340.67366430758005 L 361,339.7147890634781 L 362,338.7515586452103 L 363,337.7840786818467 L 364,336.81245526846783 L 365,335.8367949545301 L 366,334.8572047321815 L 367,333.87379202452917 L 368,332.8866646738583 L 369,331.89593092980704 L 370,330.90169943749476 L 371,329.9040792256087 L 372,328.9031796944472 L 373,327.89911060392296 L 374,326.8919820615266 L 375,325.8819045102521 L 376,324.86898871648555 L 377,323.8533457578581 L 378,322.83508701106564 L 379,321.8143241396543 L 380,320.791169081776 L 381,319.76573403791264 L 382,318.7381314585725 L 383,317.70847403195836 L 384,316.6768746716103 L 385,315.64344650402313 L 386,314.6083028562412 L 387,313.5715572434305 L 388,312.53332335643046 L 389,311.4937150492867 L 390,310.4528463267654 L 391,309.41083133185145 L 392,308.36778433323155 L 393,307.3238197127632 L 394,306.27905195293135 L 395,305.2335956242944 L 396,304.18756537292 L 397,303.1410759078129 L 398,302.09424198833574 L 399,301.0471784116246 L 400,300.00000000000006 L 401,298.95282158837546 L 402,297.9057580116644 L 403,296.8589240921872 L 404,295.8124346270801 L 405,294.76640437570563 L 406,293.7209480470687 L 407,292.67618028723683 L 408,291.6322156667685 L 409,290.5891686681486 L 410,289.5471536732347 L 411,288.50628495071334 L 412,287.4666766435696 L 413,286.4284427565696 L 414,285.39169714375885 L 415,284.356553495977 L 416,283.3231253283898 L 417,282.2915259680417 L 418,281.2618685414276 L 419,280.2342659620874 L 420,279.20883091822407 L 421,278.1856758603458 L 422,277.1649129889345 L 423,276.14665424214195 L 424,275.13101128351457 L 425,274.118095489748 L 426,273.10801793847344 L 427,272.1008893960771 L 428,271.0968203055529 L 429,270.09592077439135 L 430,269.0983005625053 L 431,268.104069070193 L 432,267.11333532614174 L 433,266.1262079754709 L 434,265.14279526781854 L 435,264.16320504547 L 436,263.1875447315323 L 437,262.21592131815333 L 438,261.24844135478975 L 439,260.28521093652193 L 440,259.32633569242 L 441,258.3719207739599 L 442,257.42207084349275 L 443,256.4768900627673 L 444,255.5364820815073 L 445,254.60095002604538 L 446,253.67039648801386 L 447,252.74492351309465 L 448,251.8246325898285 L 449,250.90962463848598 L 450,250.00000000000003 L 451,249.0958584249629 L 452,248.197299062687 L 453,247.3044204503323 L 454,246.41732050210035 L 455,245.53609649849733 L 456,244.66084507566563 L 457,243.79166221478698 L 458,242.9286432315569 L 459,242.07188276573214 L 460,241.22147477075274 L 461,240.37751250343845 L 462,239.54008851376256 L 463,238.70929463470236 L 464,237.885221972169 L 465,237.06796089501626 L 466,236.25760102513107 L 467,235.45423122760496 L 468,234.6579396009895 L 469,233.86881346763482 L 470,233.08693936411422 L 471,232.31240303173396 L 472,231.54528940713118 L 473,230.78568261295936 L 474,230.0336659486635 L 475,229.2893218813453 L 476,228.5527320367197 L 477,227.82397719016382 L 478,227.10313725785886 L 479,226.39029128802662 L 480,225.6855174522606 L 481,224.98889303695407 L 482,224.30049443482437 L 483,223.6203971365358 L 484,222.94867572242111 L 485,222.28540385430296 L 486,221.63065426741605 L 487,220.98449876243103 L 488,220.3470081975804 L 489,219.71825248088857 L 490,219.09830056250527 L 491,218.48722042714462 L 492,217.88507908662962 L 493,217.29194257254386 L 494,216.70787592899006 L 495,216.13294320545765 L 496,215.56720744979853 L 497,215.0107307013136 L 498,214.46357398394935 L 499,213.92579729960568 L 500,213.39745962155615 L 501,212.87861888798108 L 502,212.3693319956137 L 503,211.86965479350079 L 504,211.37964207687855 L 505,210.89934758116323 L 506,210.42882397605877 L 507,209.96812285978066 L 508,209.51729475339806 L 509,209.07638909529317 L 510,208.64545423573995 L 511,208.2245374316019 L 512,207.81368484114995 L 513,207.41294151900055 L 514,207.0223514111749 L 515,206.64195735027985 L 516,206.27180105081084 L 517,205.91192310457748 L 518,205.5623629762519 L 519,205.22315899904146 L 520,204.89434837048464 L 521,204.57596714837234 L 522,204.26805024679328 L 523,203.9706314323057 L 524,203.68374332023419 L 525,203.40741737109317 L 526,203.1416838871369 L 527,202.8865720090364 L 528,202.64210971268398 L 529,202.40832380612528 L 530,202.18523992661943 L 531,201.97288253782784 L 532,201.77127492713115 L 533,201.58043920307583 L 534,201.4003962929495 L 535,201.23116594048622 L 536,201.07276670370118 L 537,200.92521595285564 L 538,200.78852986855222 L 539,200.66272343996036 L 540,200.54781046317265 L 541,200.443803539692 L 542,200.35071407504958 L 543,200.2685522775542 L 544,200.19732715717285 L 545,200.1370465245426 L 546,200.08771699011416 L 547,200.04934396342685 L 548,200.02193165251543 L 549,200.0054830634488 L 550,200.0 L 551,200.0054830634488 L 552,200.02193165251543 L 553,200.04934396342685 L 554,200.08771699011416 L 555,200.1370465245426 L 556,200.19732715717285 L 557,200.2685522775542 L 558,200.35071407504955 L 559,200.443803539692 L 560,200.54781046317265 L 561,200.66272343996036 L 562,200.7885298685522 L 563,200.92521595285564 L 564,201.07276670370118 L 565,201.23116594048622 L 566,201.4003962929495 L 567,201.5804392030758 L 568,201.77127492713112 L 569,201.97288253782781 L 570,202.18523992661943 L 571,202.40832380612522 L 572,202.64210971268398 L 573,202.88657200903637 L 574,203.14168388713688 L 575,203.40741737109317 L 576,203.68374332023419 L 577,203.97063143230565 L 578,204.26805024679325 L 579,204.57596714837229 L 580,204.89434837048464 L 581,205.2231589990414 L 582,205.56236297625188 L 583,205.91192310457745 L 584,206.2718010508108 L 585,206.6419573502798 L 586,207.02235141117484 L 587,207.41294151900053 L 588,207.81368484114992 L 589,208.22453743160185 L 590,208.6454542357399 L 591,209.07638909529314 L 592,209.517294753398 L 593,209.96812285978064 L 594,210.4288239760587 L 595,210.89934758116323 L 596,211.3796420768785 L 597,211.86965479350076 L 598,212.3693319956136 L 599,212.87861888798102 L 600,213.3974596215561 L 601,213.92579729960562 L 602,214.46357398394932 L 603,215.01073070131355 L 604,215.56720744979845 L 605,216.1329432054576 L 606,216.70787592899003 L 607,217.29194257254375 L 608,217.88507908662956 L 609,218.48722042714456 L 610,219.09830056250524 L 611,219.7182524808885 L 612,220.34700819758032 L 613,220.98449876243092 L 614,221.63065426741596 L 615,222.28540385430287 L 616,222.94867572242106 L 617,223.62039713653576 L 618,224.3004944348243 L 619,224.98889303695398 L 620,225.68551745226054 L 621,226.39029128802656 L 622,227.10313725785878 L 623,227.82397719016376 L 624,228.55273203671965 L 625,229.28932188134524 L 626,230.03366594866338 L 627,230.78568261295928 L 628,231.54528940713112 L 629,232.31240303173385 L 630,233.08693936411413 L 631,233.86881346763477 L 632,234.65793960098944 L 633,235.45423122760485 L 634,236.25760102513095 L 635,237.0679608950162 L 636,237.88522197216895 L 637,238.70929463470227 L 638,239.54008851376247 L 639,240.37751250343837 L 640,241.22147477075265 L 641,242.07188276573206 L 642,242.92864323155678 L 643,243.79166221478692 L 644,244.6608450756655 L 645,245.53609649849722 L 646,246.4173205021003 L 647,247.3044204503322 L 648,248.1972990626869 L 649,249.09585842496278 L 650,249.99999999999994 L 651,250.9096246384859 L 652,251.82463258982838 L 653,252.74492351309453 L 654,253.67039648801378 L 655,254.6009500260452 L 656,255.5364820815072 L 657,256.4768900627672 L 658,257.4220708434927 L 659,258.3719207739598 L 660,259.3263356924199 L 661,260.2852109365219 L 662,261.2484413547897 L 663,262.21592131815316 L 664,263.1875447315321 L 665,264.1632050454699 L 666,265.1427952678184 L 667,266.1262079754708 L 668,267.1133353261416 L 669,268.10406907019296 L 670,269.09830056250513 L 671,270.09592077439123 L 672,271.0968203055528 L 673,272.10088939607704 L 674,273.1080179384733 L 675,274.1180954897478 L 676,275.13101128351445 L 677,276.1466542421419 L 678,277.1649129889343 L 679,278.18567586034567 L 680,279.208830918224 L 681,280.23426596208736 L 682,281.2618685414274 L 683,282.2915259680416 L 684,283.3231253283897 L 685,284.3565534959768 L 686,285.39169714375873 L 687,286.4284427565695 L 688,287.46667664356954 L 689,288.5062849507132 L 690,289.54715367323456 L 691,290.5891686681485 L 692,291.6322156667684 L 693,292.6761802872367 L 694,293.7209480470686 L 695,294.7664043757056 L 696,295.81243462708 L 697,296.85892409218707 L 698,297.9057580116642 L 699,298.9528215883754 L 700,299.9999999999999" fill="none" stroke="#ef4444" stroke-width="2" opacity="1.0" stroke-dasharray="5,5" /><circle cx="400" cy="300" r="10" fill="#1e293b" stroke="none" stroke-width="0" opacity="1.0" /><text x="400" y="320" font-family="Inter, system-ui, sans-serif" font-size="20" fill="#1e293b" text-anchor="middle" font-weight="normal" font-style="normal" >Node (Silence)</text><circle cx="250" cy="200" r="10" fill="green" stroke="none" stroke-width="0" opacity="1.0" /><text x="250" y="180" font-family="Inter, system-ui, sans-serif" font-size="20" fill="#1e293b" text-anchor="middle" font-weight="normal" font-style="normal" >Anti-Node (Peak)</text><text x="400" y="50" font-family="Inter, system-ui, sans-serif" font-size="24" fill="#1e293b" text-anchor="middle" font-weight="bold" font-style="normal" >Standing Waves (Room Modes)</text></svg>