<svg xmlns="http://www.w3.org/2000/svg" viewBox="0 0 800 500" style="background-color: #111; font-family: sans-serif;">
  <!-- Main Osc -->
  <text x="50" y="50" fill="#00ffcc" font-size="18" font-weight="bold">MAIN OSC (Sawtooth)</text>
  <path d="M50 150 L150 50 L150 150 L250 50 L250 150 L350 50 L350 150 L450 50 L450 150 L550 50 L550 150 L650 50 L650 150" fill="none" stroke="#00ffcc" stroke-width="2"/>

  <!-- Sub Osc -->
  <text x="50" y="250" fill="#ffaa00" font-size="18" font-weight="bold">SUB OSC (Sine)</text>
  <text x="50" y="275" fill="#aaa" font-size="14">One Octave Lower (1/2 Frequency)</text>
  
  <!-- Sine with 2x wavelength relative to Saw -->
  <path d="M50 350 Q100 250 150 350 T250 350 T350 350 T450 350 T550 350 T650 350" fill="none" stroke="#ffaa00" stroke-width="4"/>
  
  <!-- Visual Link -->
  <line x1="50" y1="160" x2="50" y2="240" stroke="#334155" stroke-dasharray="5,5"/>
  <line x1="250" y1="160" x2="250" y2="240" stroke="#334155" stroke-dasharray="5,5"/>
  <line x1="450" y1="160" x2="450" y2="240" stroke="#334155" stroke-dasharray="5,5"/>
  
  <text x="400" y="450" fill="#fff" font-size="24" text-anchor="middle">SUB-OSCILLATOR ADDS WEIGHT</text>
</svg>