<svg xmlns="http://www.w3.org/2000/svg" viewBox="0 0 800 600"><rect x="0" y="0" width="800" height="600" fill="#f8fafc" /><rect x="380" y="200" width="40" height="200" rx="0" fill="#333" stroke="none" stroke-width="0" opacity="1.0"  /><path d="M 300 210 Q 340 200 380 210" fill="none" stroke="#ef4444" stroke-width="3" opacity="1.0"  /><path d="M 300 228 Q 340 218 380 228" fill="none" stroke="#ef4444" stroke-width="3" opacity="1.0"  /><path d="M 300 246 Q 340 236 380 246" fill="none" stroke="#ef4444" stroke-width="3" opacity="1.0"  /><path d="M 300 264 Q 340 254 380 264" fill="none" stroke="#ef4444" stroke-width="3" opacity="1.0"  /><path d="M 300 282 Q 340 272 380 282" fill="none" stroke="#ef4444" stroke-width="3" opacity="1.0"  /><path d="M 300 300 Q 340 290 380 300" fill="none" stroke="#ef4444" stroke-width="3" opacity="1.0"  /><path d="M 300 318 Q 340 308 380 318" fill="none" stroke="#ef4444" stroke-width="3" opacity="1.0"  /><path d="M 300 336 Q 340 326 380 336" fill="none" stroke="#ef4444" stroke-width="3" opacity="1.0"  /><path d="M 300 354 Q 340 344 380 354" fill="none" stroke="#ef4444" stroke-width="3" opacity="1.0"  /><path d="M 300 372 Q 340 362 380 372" fill="none" stroke="#ef4444" stroke-width="3" opacity="1.0"  /><text x="250" y="300" font-family="Inter, system-ui, sans-serif" font-size="20" fill="#ef4444" text-anchor="middle" font-weight="normal" font-style="normal" >Primary (In)</text><path d="M 420 210 Q 460 200 500 210" fill="none" stroke="#3b82f6" stroke-width="3" opacity="1.0"  /><path d="M 420 228 Q 460 218 500 228" fill="none" stroke="#3b82f6" stroke-width="3" opacity="1.0"  /><path d="M 420 246 Q 460 236 500 246" fill="none" stroke="#3b82f6" stroke-width="3" opacity="1.0"  /><path d="M 420 264 Q 460 254 500 264" fill="none" stroke="#3b82f6" stroke-width="3" opacity="1.0"  /><path d="M 420 282 Q 460 272 500 282" fill="none" stroke="#3b82f6" stroke-width="3" opacity="1.0"  /><path d="M 420 300 Q 460 290 500 300" fill="none" stroke="#3b82f6" stroke-width="3" opacity="1.0"  /><path d="M 420 318 Q 460 308 500 318" fill="none" stroke="#3b82f6" stroke-width="3" opacity="1.0"  /><path d="M 420 336 Q 460 326 500 336" fill="none" stroke="#3b82f6" stroke-width="3" opacity="1.0"  /><path d="M 420 354 Q 460 344 500 354" fill="none" stroke="#3b82f6" stroke-width="3" opacity="1.0"  /><path d="M 420 372 Q 460 362 500 372" fill="none" stroke="#3b82f6" stroke-width="3" opacity="1.0"  /><text x="550" y="300" font-family="Inter, system-ui, sans-serif" font-size="20" fill="#3b82f6" text-anchor="middle" font-weight="normal" font-style="normal" >Secondary (Out)</text><text x="400" y="500" font-family="Inter, system-ui, sans-serif" font-size="20" fill="#1e293b" text-anchor="middle" font-weight="normal" font-style="italic" >Magnetic Induction (Isolation)</text><text x="400" y="50" font-family="Inter, system-ui, sans-serif" font-size="24" fill="#1e293b" text-anchor="middle" font-weight="bold" font-style="normal" >Transformer</text></svg>