<svg xmlns="http://www.w3.org/2000/svg" viewBox="0 0 800 600"><rect x="0" y="0" width="800" height="600" fill="#f8f9fa" /><line x1="100" y1="500" x2="700" y2="500" stroke="#333" stroke-width="1" opacity="1.0"  /><line x1="100" y1="500" x2="100" y2="100" stroke="#333" stroke-width="1" opacity="1.0"  /><path d="M 100,444.60413701137253 L 101,444.49713279067703 L 102,444.3880470136936 L 103,444.2768408054226 L 104,444.16347462954207 L 105,444.0479082797767 L 106,443.93010087126436 L 107,443.81001083192814 L 108,443.6875958938595 L 109,443.562813084719 L 110,443.43561871916086 L 111,443.30596839029033 L 112,443.1738169611588 L 113,443.0391185563068 L 114,442.9018265533616 L 115,442.76189357469923 L 116,442.61927147917817 L 117,442.47391135395605 L 118,442.3257635063977 L 119,442.1747774560851 L 120,442.02090192694027 L 121,441.86408483947105 L 122,441.70427330315306 L 123,441.5414136089572 L 124,441.375451222038 L 125,441.2063307745931 L 126,441.0339960589091 L 127,440.85839002060675 L 128,440.6794547520998 L 129,440.4971314862831 L 130,440.31136059046486 L 131,440.12208156055914 L 132,439.92923301555527 L 133,439.7327526922812 L 134,439.5325774404789 L 135,439.32864321820915 L 136,439.12088508760553 L 137,438.90923721099693 L 138,438.69363284741826 L 139,438.4740043495304 L 140,438.2502831609707 L 141,438.02239981415585 L 142,437.79028392856003 L 143,437.5538642094913 L 144,437.31306844738987 L 145,437.0678235176741 L 146,436.8180553811576 L 147,436.56368908506397 L 148,436.30464876466687 L 149,436.04085764558056 L 150,435.77223804672997 L 151,435.4987113840284 L 152,435.220198174792 L 153,434.93661804292003 L 154,434.64788972487247 L 155,434.3539310764747 L 156,434.0546590805809 L 157,433.74998985562917 L 158,433.43983866511974 L 159,433.1241199280498 L 160,432.8027472303394 L 161,432.4756333372811 L 162,432.14269020704955 L 163,431.80382900530435 L 164,431.4589601209234 L 165,431.10799318290105 L 166,430.75083707844783 L 167,430.38739997232824 L 168,430.0175893274728 L 169,429.64131192690166 L 170,429.25847389699595 L 171,428.8689807321549 L 172,428.4727373208746 L 173,428.0696479732866 L 174,427.6596164501916 L 175,427.24254599362695 L 176,426.81833935900204 L 177,426.38689884883945 L 178,425.9481263481563 L 179,425.5019233615216 L 180,425.04819105182327 L 181,424.5868302807793 L 182,424.117741651225 L 183,423.6408255512096 L 184,423.15598219993154 L 185,422.6631116955432 L 186,422.1621140648529 L 187,421.65288931495223 L 188,421.13533748679214 L 189,420.60935871073383 L 190,420.0748532640945 L 191,419.531721630709 L 192,418.9798645625251 L 193,418.4191831432471 L 194,417.84957885404157 L 195,417.2709536413161 L 196,416.6832099865777 L 197,416.0862509783763 L 198,415.47998038633506 L 199,414.86430273726586 L 200,414.2391233933647 L 201,413.60434863247895 L 202,412.9598857304328 L 203,412.3056430453963 L 204,411.6415301042756 L 205,410.96745769110066 L 206,410.2833379373804 L 207,409.58908441439155 L 208,408.8846122273621 L 209,408.169838111505 L 210,407.44468052985366 L 211,406.7090597728444 L 212,405.9628980595853 L 213,405.20611964074686 L 214,404.4386509030022 L 215,403.6604204749396 L 216,402.8713593343642 L 217,402.0714009168993 L 218,401.2604812257912 L 219,400.4385389428156 L 220,399.60551554017735 L 221,398.76135539328766 L 222,397.9060058942985 L 223,397.039417566265 L 224,396.16154417780194 L 225,395.2723428580931 L 226,394.3717742121053 L 227,393.45980243585416 L 228,392.53639543155975 L 229,391.6015249225266 L 230,390.6551665675745 L 231,389.69730007484117 L 232,388.7279093147725 L 233,387.74698243210935 L 234,386.75451195667586 L 235,385.7504949127676 L 236,384.73493292693377 L 237,383.70783233394366 L 238,382.66920428072206 L 239,381.6190648280351 L 240,380.5574350497053 L 241,379.4843411291294 L 242,378.3998144528731 L 243,377.30389170111147 L 244,376.1966149346844 L 245,375.0780316785353 L 246,373.94819500129864 L 247,372.8071635908057 L 248,371.65500182527467 L 249,370.49177983995565 L 250,369.3175735890014 L 251,368.1324649023389 L 252,366.93654153731694 L 253,365.72989722491513 L 254,364.51263171029694 L 255,363.2848507875012 L 256,362.0466663280703 L 257,360.79819630341945 L 258,359.53956480076164 L 259,358.27090203240914 L 260,356.9923443382837 L 261,355.7040341814761 L 262,354.40612013670767 L 263,353.09875687155693 L 264,351.78210512032814 L 265,350.45633165044984 L 266,349.1216092213058 L 267,347.7781165354156 L 268,346.42603818189576 L 269,345.0655645721481 L 270,343.6968918677386 L 271,342.3202219004451 L 272,340.9357620844699 L 273,339.5437253208305 L 274,338.1443298939587 L 275,336.7377993605564 L 276,335.3243624307747 L 277,333.90425284180066 L 278,332.4777092239543 L 279,331.0449749594179 L 280,329.6062980337356 L 281,328.16193088024283 L 282,326.71213021759957 L 283,325.25715688062223 L 284,323.79727564462485 L 285,322.3327550434977 L 286,320.8638671817687 L 287,319.39088754090875 L 288,317.9140947801579 L 289,316.43377053216443 L 290,314.9501991937434 L 291,313.463667712074 L 292,311.97446536666973 L 293,310.4828835474643 L 294,308.98921552937156 L 295,307.493756243682 L 296,305.99680204667453 L 297,304.498650485823 L 298,302.99960006398965 L 299,301.4999500019999 L 300,300.0 L 301,298.5000499980001 L 302,297.00039993601035 L 303,295.501349514177 L 304,294.00319795332547 L 305,292.506243756318 L 306,291.01078447062844 L 307,289.5171164525357 L 308,288.02553463333027 L 309,286.536332287926 L 310,285.0498008062566 L 311,283.56622946783557 L 312,282.0859052198421 L 313,280.60911245909125 L 314,279.1361328182313 L 315,277.6672449565023 L 316,276.20272435537515 L 317,274.74284311937777 L 318,273.28786978240043 L 319,271.83806911975717 L 320,270.3937019662644 L 321,268.9550250405821 L 322,267.5222907760457 L 323,266.09574715819934 L 324,264.6756375692253 L 325,263.2622006394436 L 326,261.8556701060413 L 327,260.4562746791695 L 328,259.0642379155301 L 329,257.6797780995549 L 330,256.3031081322614 L 331,254.9344354278519 L 332,253.57396181810424 L 333,252.22188346458438 L 334,250.8783907786942 L 335,249.54366834955016 L 336,248.21789487967186 L 337,246.9012431284431 L 338,245.59387986329233 L 339,244.29596581852385 L 340,243.00765566171629 L 341,241.72909796759086 L 342,240.46043519923836 L 343,239.20180369658055 L 344,237.95333367192973 L 345,236.71514921249883 L 346,235.48736828970306 L 347,234.27010277508487 L 348,233.06345846268306 L 349,231.86753509766112 L 350,230.68242641099857 L 351,229.50822016004435 L 352,228.34499817472533 L 353,227.19283640919429 L 354,226.05180499870136 L 355,224.9219683214647 L 356,223.80338506531558 L 357,222.69610829888853 L 358,221.6001855471269 L 359,220.5156588708706 L 360,219.4425649502947 L 361,218.3809351719649 L 362,217.33079571927794 L 363,216.29216766605634 L 364,215.26506707306623 L 365,214.24950508723242 L 366,213.24548804332414 L 367,212.25301756789065 L 368,211.2720906852275 L 369,210.30269992515883 L 370,209.3448334324255 L 371,208.3984750774734 L 372,207.46360456844025 L 373,206.54019756414584 L 374,205.62822578789468 L 375,204.7276571419069 L 376,203.83845582219806 L 377,202.960582433735 L 378,202.09399410570148 L 379,201.23864460671234 L 380,200.39448445982265 L 381,199.56146105718437 L 382,198.73951877420882 L 383,197.92859908310072 L 384,197.12864066563583 L 385,196.3395795250604 L 386,195.5613490969978 L 387,194.79388035925314 L 388,194.0371019404147 L 389,193.2909402271556 L 390,192.55531947014634 L 391,191.830161888495 L 392,191.11538777263792 L 393,190.41091558560845 L 394,189.7166620626196 L 395,189.03254230889934 L 396,188.3584698957244 L 397,187.69435695460368 L 398,187.0401142695672 L 399,186.39565136752105 L 400,185.7608766066353 L 401,185.13569726273414 L 402,184.52001961366494 L 403,183.9137490216237 L 404,183.3167900134223 L 405,182.7290463586839 L 406,182.15042114595843 L 407,181.5808168567529 L 408,181.0201354374749 L 409,180.468278369291 L 410,179.9251467359055 L 411,179.39064128926617 L 412,178.86466251320786 L 413,178.34711068504777 L 414,177.83788593514709 L 415,177.3368883044568 L 416,176.84401780006846 L 417,176.35917444879038 L 418,175.882258348775 L 419,175.41316971922072 L 420,174.95180894817673 L 421,174.49807663847838 L 422,174.05187365184372 L 423,173.61310115116055 L 424,173.18166064099796 L 425,172.75745400637305 L 426,172.3403835498084 L 427,171.93035202671342 L 428,171.52726267912539 L 429,171.1310192678451 L 430,170.74152610300405 L 431,170.35868807309834 L 432,169.98241067252718 L 433,169.61260002767176 L 434,169.24916292155217 L 435,168.89200681709895 L 436,168.5410398790766 L 437,168.19617099469565 L 438,167.85730979295045 L 439,167.52436666271888 L 440,167.19725276966062 L 441,166.87588007195018 L 442,166.56016133488026 L 443,166.25001014437083 L 444,165.9453409194191 L 445,165.64606892352532 L 446,165.35211027512753 L 447,165.06338195707997 L 448,164.77980182520798 L 449,164.5012886159716 L 450,164.22776195327003 L 451,163.95914235441944 L 452,163.69535123533313 L 453,163.43631091493603 L 454,163.1819446188424 L 455,162.93217648232587 L 456,162.68693155261013 L 457,162.44613579050872 L 458,162.20971607143997 L 459,161.97760018584415 L 460,161.7497168390293 L 461,161.5259956504696 L 462,161.30636715258174 L 463,161.09076278900307 L 464,160.87911491239447 L 465,160.67135678179085 L 466,160.46742255952108 L 467,160.26724730771878 L 468,160.07076698444473 L 469,159.87791843944086 L 470,159.68863940953514 L 471,159.50286851371692 L 472,159.3205452479002 L 473,159.14160997939325 L 474,158.9660039410909 L 475,158.79366922540692 L 476,158.624548777962 L 477,158.4585863910428 L 478,158.29572669684694 L 479,158.13591516052895 L 480,157.97909807305973 L 481,157.8252225439149 L 482,157.67423649360228 L 483,157.52608864604395 L 484,157.38072852082183 L 485,157.23810642530077 L 486,157.09817344663838 L 487,156.9608814436932 L 488,156.82618303884118 L 489,156.69403160970967 L 490,156.56438128083914 L 491,156.43718691528102 L 492,156.3124041061405 L 493,156.18998916807186 L 494,156.06989912873564 L 495,155.95209172022328 L 496,155.83652537045793 L 497,155.72315919457742 L 498,155.6119529863064 L 499,155.50286720932297" fill="none" stroke="#333" stroke-width="2" opacity="1.0"  /><circle cx="300" cy="300" r="5" fill="green" stroke="none" stroke-width="0" opacity="1.0" /><text x="320" y="300" font-family="Arial, sans-serif" font-size="20" fill="green" text-anchor="start" font-weight="normal" font-style="normal" >Optimal Bias (Class A)</text><circle cx="200" cy="450" r="5" fill="blue" stroke="none" stroke-width="0" opacity="1.0" /><text x="220" y="450" font-family="Arial, sans-serif" font-size="20" fill="blue" text-anchor="start" font-weight="normal" font-style="normal" >Cold (Cutoff)</text><circle cx="400" cy="150" r="5" fill="red" stroke="none" stroke-width="0" opacity="1.0" /><text x="420" y="150" font-family="Arial, sans-serif" font-size="20" fill="red" text-anchor="start" font-weight="normal" font-style="normal" >Hot (Saturation)</text><text x="400" y="50" font-family="Arial, sans-serif" font-size="24" fill="black" text-anchor="middle" font-weight="bold" font-style="normal" >Tube Bias Points</text></svg>