<svg xmlns="http://www.w3.org/2000/svg" viewBox="0 0 800 600"><rect x="0" y="0" width="800" height="600" fill="#f8f9fa" /><text x="50" y="300" font-family="Arial, sans-serif" font-size="20" fill="black" text-anchor="middle" font-weight="normal" >Speaker</text><rect x="20" y="250" width="60" height="100" rx="0" fill="#ddd" stroke="black" stroke-width="0" opacity="1.0" /><line x1="120" y1="250" x2="120" y2="350" stroke="#666" stroke-width="1" opacity="1.0"  /><line x1="126.10292250900537" y1="250" x2="126.10292250900537" y2="350" stroke="#666" stroke-width="1" opacity="1.0"  /><line x1="133.71271777456377" y1="250" x2="133.71271777456377" y2="350" stroke="#666" stroke-width="1" opacity="1.0"  /><line x1="143.1710893037159" y1="250" x2="143.1710893037159" y2="350" stroke="#666" stroke-width="1" opacity="1.0"  /><line x1="154.50998969898234" y1="250" x2="154.50998969898234" y2="350" stroke="#666" stroke-width="1" opacity="1.0"  /><line x1="166.96877728265005" y1="250" x2="166.96877728265005" y2="350" stroke="#666" stroke-width="1" opacity="1.0"  /><line x1="178.8699093479443" y1="250" x2="178.8699093479443" y2="350" stroke="#666" stroke-width="1" opacity="1.0"  /><line x1="188.68449115081722" y1="250" x2="188.68449115081722" y2="350" stroke="#666" stroke-width="1" opacity="1.0"  /><line x1="196.13725886945434" y1="250" x2="196.13725886945434" y2="350" stroke="#666" stroke-width="1" opacity="1.0"  /><line x1="201.77297931201034" y1="250" x2="201.77297931201034" y2="350" stroke="#666" stroke-width="1" opacity="1.0"  /><line x1="206.1921277399749" y1="250" x2="206.1921277399749" y2="350" stroke="#666" stroke-width="1" opacity="1.0"  /><line x1="209.8230961406156" y1="250" x2="209.8230961406156" y2="350" stroke="#666" stroke-width="1" opacity="1.0"  /><line x1="212.94582020771844" y1="250" x2="212.94582020771844" y2="350" stroke="#666" stroke-width="1" opacity="1.0"  /><line x1="215.7460202636186" y1="250" x2="215.7460202636186" y2="350" stroke="#666" stroke-width="1" opacity="1.0"  /><line x1="218.3540732158417" y1="250" x2="218.3540732158417" y2="350" stroke="#666" stroke-width="1" opacity="1.0"  /><line x1="220.86922514323945" y1="250" x2="220.86922514323945" y2="350" stroke="#666" stroke-width="1" opacity="1.0"  /><line x1="223.37495695242646" y1="250" x2="223.37495695242646" y2="350" stroke="#666" stroke-width="1" opacity="1.0"  /><line x1="225.94974248083003" y1="250" x2="225.94974248083003" y2="350" stroke="#666" stroke-width="1" opacity="1.0"  /><line x1="228.67589518143635" y1="250" x2="228.67589518143635" y2="350" stroke="#666" stroke-width="1" opacity="1.0"  /><line x1="231.64835417300586" y1="250" x2="231.64835417300586" y2="350" stroke="#666" stroke-width="1" opacity="1.0"  /><line x1="234.98489050341513" y1="250" x2="234.98489050341513" y2="350" stroke="#666" stroke-width="1" opacity="1.0"  /><line x1="238.8389796527908" y1="250" x2="238.8389796527908" y2="350" stroke="#666" stroke-width="1" opacity="1.0"  /><line x1="243.41583895398412" y1="250" x2="243.41583895398412" y2="350" stroke="#666" stroke-width="1" opacity="1.0"  /><line x1="248.9891277955341" y1="250" x2="248.9891277955341" y2="350" stroke="#666" stroke-width="1" opacity="1.0"  /><line x1="255.9058875069439" y1="250" x2="255.9058875069439" y2="350" stroke="#666" stroke-width="1" opacity="1.0"  /><line x1="264.54053497667616" y1="250" x2="264.54053497667616" y2="350" stroke="#666" stroke-width="1" opacity="1.0"  /><line x1="275.1087102821602" y1="250" x2="275.1087102821602" y2="350" stroke="#666" stroke-width="1" opacity="1.0"  /><line x1="287.2488153930164" y1="250" x2="287.2488153930164" y2="350" stroke="#666" stroke-width="1" opacity="1.0"  /><line x1="299.622480281236" y1="250" x2="299.622480281236" y2="350" stroke="#666" stroke-width="1" opacity="1.0"  /><line x1="310.445035284803" y1="250" x2="310.445035284803" y2="350" stroke="#666" stroke-width="1" opacity="1.0"  /><line x1="318.86826453328587" y1="250" x2="318.86826453328587" y2="350" stroke="#666" stroke-width="1" opacity="1.0"  /><line x1="325.2018617671344" y1="250" x2="325.2018617671344" y2="350" stroke="#666" stroke-width="1" opacity="1.0"  /><line x1="330.07935293616606" y1="250" x2="330.07935293616606" y2="350" stroke="#666" stroke-width="1" opacity="1.0"  /><line x1="334.0065199563321" y1="250" x2="334.0065199563321" y2="350" stroke="#666" stroke-width="1" opacity="1.0"  /><line x1="337.31991970751847" y1="250" x2="337.31991970751847" y2="350" stroke="#666" stroke-width="1" opacity="1.0"  /><line x1="340.2398411001378" y1="250" x2="340.2398411001378" y2="350" stroke="#666" stroke-width="1" opacity="1.0"  /><line x1="342.9167008075657" y1="250" x2="342.9167008075657" y2="350" stroke="#666" stroke-width="1" opacity="1.0"  /><line x1="345.46080814888046" y1="250" x2="345.46080814888046" y2="350" stroke="#666" stroke-width="1" opacity="1.0"  /><line x1="347.96088992141597" y1="250" x2="347.96088992141597" y2="350" stroke="#666" stroke-width="1" opacity="1.0"  /><line x1="350.4964199812019" y1="250" x2="350.4964199812019" y2="350" stroke="#666" stroke-width="1" opacity="1.0"  /><line x1="353.1470233400882" y1="250" x2="353.1470233400882" y2="350" stroke="#666" stroke-width="1" opacity="1.0"  /><line x1="356.00109269508465" y1="250" x2="356.00109269508465" y2="350" stroke="#666" stroke-width="1" opacity="1.0"  /><line x1="359.16521783270184" y1="250" x2="359.16521783270184" y2="350" stroke="#666" stroke-width="1" opacity="1.0"  /><line x1="362.77578681729807" y1="250" x2="362.77578681729807" y2="350" stroke="#666" stroke-width="1" opacity="1.0"  /><line x1="367.01371219230407" y1="250" x2="367.01371219230407" y2="350" stroke="#666" stroke-width="1" opacity="1.0"  /><line x1="372.1215430006112" y1="250" x2="372.1215430006112" y2="350" stroke="#666" stroke-width="1" opacity="1.0"  /><line x1="378.41614177979153" y1="250" x2="378.41614177979153" y2="350" stroke="#666" stroke-width="1" opacity="1.0"  /><line x1="386.27209625783644" y1="250" x2="386.27209625783644" y2="350" stroke="#666" stroke-width="1" opacity="1.0"  /><line x1="396.0099586444895" y1="250" x2="396.0099586444895" y2="350" stroke="#666" stroke-width="1" opacity="1.0"  /><line x1="407.5797741219311" y1="250" x2="407.5797741219311" y2="350" stroke="#666" stroke-width="1" opacity="1.0"  /><line x1="420.0754973751896" y1="250" x2="420.0754973751896" y2="350" stroke="#666" stroke-width="1" opacity="1.0"  /><line x1="431.7484077570002" y1="250" x2="431.7484077570002" y2="350" stroke="#666" stroke-width="1" opacity="1.0"  /><line x1="441.21265533650393" y1="250" x2="441.21265533650393" y2="350" stroke="#666" stroke-width="1" opacity="1.0"  /><line x1="448.3655138716691" y1="250" x2="448.3655138716691" y2="350" stroke="#666" stroke-width="1" opacity="1.0"  /><line x1="453.79422519774755" y1="250" x2="453.79422519774755" y2="350" stroke="#666" stroke-width="1" opacity="1.0"  /><line x1="458.07863668351354" y1="250" x2="458.07863668351354" y2="350" stroke="#666" stroke-width="1" opacity="1.0"  /><line x1="461.62259221881953" y1="250" x2="461.62259221881953" y2="350" stroke="#666" stroke-width="1" opacity="1.0"  /><line x1="464.68950150066553" y1="250" x2="464.68950150066553" y2="350" stroke="#666" stroke-width="1" opacity="1.0"  /><line x1="467.45520550348294" y1="250" x2="467.45520550348294" y2="350" stroke="#666" stroke-width="1" opacity="1.0"  /><line x1="470.04441600769957" y1="250" x2="470.04441600769957" y2="350" stroke="#666" stroke-width="1" opacity="1.0"  /><line x1="472.5533307780964" y1="250" x2="472.5533307780964" y2="350" stroke="#666" stroke-width="1" opacity="1.0"  /><line x1="475.0641252257742" y1="250" x2="475.0641252257742" y2="350" stroke="#666" stroke-width="1" opacity="1.0"  /><line x1="477.6552990505402" y1="250" x2="477.6552990505402" y2="350" stroke="#666" stroke-width="1" opacity="1.0"  /><line x1="480.4104133583345" y1="250" x2="480.4104133583345" y2="350" stroke="#666" stroke-width="1" opacity="1.0"  /><line x1="483.4269939857965" y1="250" x2="483.4269939857965" y2="350" stroke="#666" stroke-width="1" opacity="1.0"  /><line x1="486.8270497614988" y1="250" x2="486.8270497614988" y2="350" stroke="#666" stroke-width="1" opacity="1.0"  /><line x1="490.77039953296793" y1="250" x2="490.77039953296793" y2="350" stroke="#666" stroke-width="1" opacity="1.0"  /><line x1="495.4710812045935" y1="250" x2="495.4710812045935" y2="350" stroke="#666" stroke-width="1" opacity="1.0"  /><line x1="501.21351425181194" y1="250" x2="501.21351425181194" y2="350" stroke="#666" stroke-width="1" opacity="1.0"  /><line x1="508.35349848005603" y1="250" x2="508.35349848005603" y2="350" stroke="#666" stroke-width="1" opacity="1.0"  /><line x1="517.2589675829781" y1="250" x2="517.2589675829781" y2="350" stroke="#666" stroke-width="1" opacity="1.0"  /><line x1="528.0940875024419" y1="250" x2="528.0940875024419" y2="350" stroke="#666" stroke-width="1" opacity="1.0"  /><line x1="540.3724907898886" y1="250" x2="540.3724907898886" y2="350" stroke="#666" stroke-width="1" opacity="1.0"  /><line x1="552.6263379211236" y1="250" x2="552.6263379211236" y2="350" stroke="#666" stroke-width="1" opacity="1.0"  /><line x1="563.124401079472" y1="250" x2="563.124401079472" y2="350" stroke="#666" stroke-width="1" opacity="1.0"  /><line x1="571.2135980191443" y1="250" x2="571.2135980191443" y2="350" stroke="#666" stroke-width="1" opacity="1.0"  /><line x1="577.3013534256904" y1="250" x2="577.3013534256904" y2="350" stroke="#666" stroke-width="1" opacity="1.0"  /><line x1="582.0165003847746" y1="250" x2="582.0165003847746" y2="350" stroke="#666" stroke-width="1" opacity="1.0"  /><line x1="585.838706451809" y1="250" x2="585.838706451809" y2="350" stroke="#666" stroke-width="1" opacity="1.0"  /><line x1="589.084455214112" y1="250" x2="589.084455214112" y2="350" stroke="#666" stroke-width="1" opacity="1.0"  /><line x1="591.9616368254988" y1="250" x2="591.9616368254988" y2="350" stroke="#666" stroke-width="1" opacity="1.0"  /><line x1="594.6134445980374" y1="250" x2="594.6134445980374" y2="350" stroke="#666" stroke-width="1" opacity="1.0"  /><line x1="597.146160430638" y1="250" x2="597.146160430638" y2="350" stroke="#666" stroke-width="1" opacity="1.0"  /><line x1="599.6465311738451" y1="250" x2="599.6465311738451" y2="350" stroke="#666" stroke-width="1" opacity="1.0"  /><line x1="602.1935145036507" y1="250" x2="602.1935145036507" y2="350" stroke="#666" stroke-width="1" opacity="1.0"  /><line x1="604.8674573298728" y1="250" x2="604.8674573298728" y2="350" stroke="#666" stroke-width="1" opacity="1.0"  /><line x1="607.7587377655622" y1="250" x2="607.7587377655622" y2="350" stroke="#666" stroke-width="1" opacity="1.0"  /><line x1="610.9774263145526" y1="250" x2="610.9774263145526" y2="350" stroke="#666" stroke-width="1" opacity="1.0"  /><line x1="614.6652925468729" y1="250" x2="614.6652925468729" y2="350" stroke="#666" stroke-width="1" opacity="1.0"  /><line x1="619.0109894403245" y1="250" x2="619.0109894403245" y2="350" stroke="#666" stroke-width="1" opacity="1.0"  /><line x1="624.2671904533795" y1="250" x2="624.2671904533795" y2="350" stroke="#666" stroke-width="1" opacity="1.0"  /><line x1="630.7612678667219" y1="250" x2="630.7612678667219" y2="350" stroke="#666" stroke-width="1" opacity="1.0"  /><line x1="638.8704349811229" y1="250" x2="638.8704349811229" y2="350" stroke="#666" stroke-width="1" opacity="1.0"  /><line x1="648.887720052951" y1="250" x2="648.887720052951" y2="350" stroke="#666" stroke-width="1" opacity="1.0"  /><line x1="660.6702444362741" y1="250" x2="660.6702444362741" y2="350" stroke="#666" stroke-width="1" opacity="1.0"  /><line x1="673.1647723243817" y1="250" x2="673.1647723243817" y2="350" stroke="#666" stroke-width="1" opacity="1.0"  /><line x1="684.5791698449981" y1="250" x2="684.5791698449981" y2="350" stroke="#666" stroke-width="1" opacity="1.0"  /><line x1="693.6925751043198" y1="250" x2="693.6925751043198" y2="350" stroke="#666" stroke-width="1" opacity="1.0"  /><line x1="700.558737301273" y1="250" x2="700.558737301273" y2="350" stroke="#666" stroke-width="1" opacity="1.0"  /><line x1="705.7924441404589" y1="250" x2="705.7924441404589" y2="350" stroke="#666" stroke-width="1" opacity="1.0"  /><line x1="709.9502677704209" y1="250" x2="709.9502677704209" y2="350" stroke="#666" stroke-width="1" opacity="1.0"  /><line x1="713.4124943751666" y1="250" x2="713.4124943751666" y2="350" stroke="#666" stroke-width="1" opacity="1.0"  /><line x1="716.4271180070625" y1="250" x2="716.4271180070625" y2="350" stroke="#666" stroke-width="1" opacity="1.0"  /><line x1="719.1608346959424" y1="250" x2="719.1608346959424" y2="350" stroke="#666" stroke-width="1" opacity="1.0"  /><line x1="721.7331426410555" y1="250" x2="721.7331426410555" y2="350" stroke="#666" stroke-width="1" opacity="1.0"  /><line x1="724.2374805660987" y1="250" x2="724.2374805660987" y2="350" stroke="#666" stroke-width="1" opacity="1.0"  /><line x1="726.7549254748171" y1="250" x2="726.7549254748171" y2="350" stroke="#666" stroke-width="1" opacity="1.0"  /><line x1="729.3641783723078" y1="250" x2="729.3641783723078" y2="350" stroke="#666" stroke-width="1" opacity="1.0"  /><line x1="732.1502273267175" y1="250" x2="732.1502273267175" y2="350" stroke="#666" stroke-width="1" opacity="1.0"  /><line x1="735.2133974484781" y1="250" x2="735.2133974484781" y2="350" stroke="#666" stroke-width="1" opacity="1.0"  /><line x1="738.6802063806267" y1="250" x2="738.6802063806267" y2="350" stroke="#666" stroke-width="1" opacity="1.0"  /><line x1="742.7171552173767" y1="250" x2="742.7171552173767" y2="350" stroke="#666" stroke-width="1" opacity="1.0"  /><line x1="747.547453125068" y1="250" x2="747.547453125068" y2="350" stroke="#666" stroke-width="1" opacity="1.0"  /><text x="250" y="200" font-family="Arial, sans-serif" font-size="20" fill="#666" text-anchor="middle" font-weight="normal" >Rarefaction (Low Pressure)</text><line x1="250" y1="220" x2="250" y2="240" stroke="#666" stroke-width="1" opacity="1.0"  /><text x="400" y="400" font-family="Arial, sans-serif" font-size="20" fill="#333" text-anchor="middle" font-weight="normal" >Compression (High Pressure)</text><line x1="400" y1="380" x2="400" y2="360" stroke="#333" stroke-width="1" opacity="1.0"  /><text x="400" y="50" font-family="Arial, sans-serif" font-size="24" fill="black" text-anchor="middle" font-weight="bold" >Longitudinal Sound Wave</text></svg>