<svg xmlns="http://www.w3.org/2000/svg" viewBox="0 0 800 600"><rect x="0" y="0" width="800" height="600" fill="#f8f9fa" /><text x="400.0" y="40.0" font-family="Arial, sans-serif" font-size="24" fill="black" text-anchor="middle" font-weight="bold" >Sine Wave</text><line x1="60" y1="540" x2="740" y2="540" stroke="#333" stroke-width="2" opacity="1"  /><line x1="60" y1="540" x2="60" y2="60" stroke="#333" stroke-width="2" opacity="1"  /><text x="400.0" y="580" font-family="Arial, sans-serif" font-size="16" fill="black" text-anchor="middle" font-weight="normal" >Time</text><text x="20" y="300.0" font-family="Arial, sans-serif" font-size="16" fill="black" text-anchor="middle" font-weight="normal" transform="rotate(-90, 20, 300.0)">Amplitude</text><line x1="60" y1="300.0" x2="740" y2="300.0" stroke="#ccc" stroke-width="1" opacity="1"  /><path d="M 60.0 300.0 L 63.4 287.9442202503718 L 66.8 275.9360191556536 L 70.2 264.0227875995409 L 73.6 252.25154166434788 L 77.0 240.6687370800101 L 80.4 229.32008588454184 L 83.8 218.25037601950604 L 87.2 207.50329457247065 L 90.6 197.12125536403263 L 94.0 187.14523155984517 L 97.4 177.6145939682516 L 100.8 168.5669556616918 L 104.2 160.038023535089 L 107.6 152.06145738704845 L 111.0 144.6687370800101 L 114.4 137.88903830361312 L 117.80000000000001 131.74911743157816 L 121.19999999999999 126.27320592652424 L 124.6 121.48291470945574 L 128.0 117.39714887133053 L 131.39999999999998 114.03203306330283 L 134.8 111.4008478600918 L 138.2 109.51397734762025 L 141.6 108.37886814177187 L 145.0 108.0 L 148.4 108.37886814177187 L 151.8 109.51397734762025 L 155.2 111.4008478600918 L 158.6 114.0320330633028 L 162.0 117.3971488713305 L 165.4 121.48291470945574 L 168.8 126.27320592652427 L 172.2 131.7491174315782 L 175.60000000000002 137.88903830361312 L 179.0 144.6687370800101 L 182.39999999999998 152.06145738704845 L 185.8 160.038023535089 L 189.2 168.56695566169174 L 192.6 177.61459396825154 L 196.0 187.14523155984514 L 199.4 197.12125536403258 L 202.79999999999998 207.50329457247062 L 206.2 218.250376019506 L 209.6 229.3200858845418 L 213.0 240.6687370800101 L 216.4 252.25154166434788 L 219.79999999999998 264.0227875995408 L 223.2 275.9360191556535 L 226.6 287.9442202503718 L 230.0 300.0 L 233.4 312.0557797496282 L 236.8 324.0639808443464 L 240.20000000000002 335.97721240045917 L 243.60000000000002 347.7484583356522 L 247.00000000000003 359.33126291998997 L 250.4 370.67991411545825 L 253.79999999999998 381.7496239804939 L 257.2 392.49670542752926 L 260.6 402.87874463596734 L 264.0 412.8547684401548 L 267.4 422.3854060317484 L 270.8 431.43304433830826 L 274.2 439.961976464911 L 277.6 447.93854261295155 L 281.0 455.33126291998985 L 284.4 462.11096169638694 L 287.8 468.25088256842184 L 291.20000000000005 473.7267940734758 L 294.6 478.51708529054423 L 298.0 482.6028511286695 L 301.4 485.96796693669717 L 304.79999999999995 488.59915213990826 L 308.2 490.48602265237975 L 311.6 491.6211318582281 L 315.0 492.0 L 318.4 491.6211318582281 L 321.8 490.48602265237975 L 325.2 488.59915213990826 L 328.6 485.96796693669717 L 332.0 482.6028511286695 L 335.40000000000003 478.51708529054423 L 338.8 473.72679407347584 L 342.2 468.25088256842184 L 345.59999999999997 462.110961696387 L 349.0 455.33126291998997 L 352.4 447.9385426129516 L 355.8 439.961976464911 L 359.2 431.43304433830826 L 362.6 422.3854060317484 L 366.0 412.8547684401549 L 369.40000000000003 402.8787446359673 L 372.8 392.4967054275294 L 376.2 381.7496239804939 L 379.59999999999997 370.6799141154583 L 383.0 359.33126291998997 L 386.4 347.74845833565223 L 389.8 335.97721240045917 L 393.2 324.0639808443465 L 396.6 312.05577974962813 L 400.0 300.00000000000006 L 403.4 287.9442202503719 L 406.8 275.9360191556536 L 410.2 264.02278759954095 L 413.6 252.25154166434785 L 417.0 240.66873708001015 L 420.40000000000003 229.32008588454178 L 423.8 218.25037601950606 L 427.20000000000005 207.5032945724706 L 430.6 197.12125536403263 L 434.00000000000006 187.14523155984506 L 437.40000000000003 177.61459396825154 L 440.8 168.56695566169165 L 444.2 160.03802353508917 L 447.59999999999997 152.06145738704856 L 450.99999999999994 144.6687370800102 L 454.4 137.88903830361318 L 457.79999999999995 131.74911743157827 L 461.2 126.27320592652427 L 464.59999999999997 121.48291470945577 L 468.0 117.39714887133053 L 471.4 114.03203306330286 L 474.8 111.4008478600918 L 478.2 109.51397734762025 L 481.6 108.37886814177187 L 485.0 108.0 L 488.4 108.37886814177187 L 491.8 109.51397734762025 L 495.2 111.4008478600918 L 498.6 114.03203306330283 L 502.0 117.3971488713305 L 505.40000000000003 121.48291470945568 L 508.8 126.2732059265243 L 512.2 131.74911743157824 L 515.6 137.88903830361312 L 519.0 144.66873708001003 L 522.4000000000001 152.0614573870486 L 525.8 160.03802353508908 L 529.2 168.56695566169157 L 532.5999999999999 177.6145939682513 L 536.0 187.14523155984512 L 539.4 197.12125536403255 L 542.8 207.50329457247048 L 546.2 218.2503760195058 L 549.5999999999999 229.3200858845418 L 553.0 240.66873708001003 L 556.4 252.25154166434774 L 559.8 264.02278759954066 L 563.2 275.93601915565364 L 566.6 287.9442202503718 L 570.0 299.99999999999994 L 573.4 312.055779749628 L 576.8 324.0639808443462 L 580.2 335.97721240045917 L 583.6 347.7484583356521 L 587.0 359.33126291998985 L 590.4 370.679914115458 L 593.8000000000001 381.74962398049405 L 597.2 392.4967054275294 L 600.6 402.87874463596734 L 604.0 412.85476844015477 L 607.4 422.3854060317486 L 610.8000000000001 431.4330443383083 L 614.1999999999999 439.96197646491083 L 617.6 447.9385426129513 L 621.0 455.33126291998985 L 624.4 462.1109616963868 L 627.8 468.25088256842173 L 631.1999999999999 473.7267940734756 L 634.6 478.5170852905443 L 638.0 482.60285112866944 L 641.4 485.96796693669717 L 644.8 488.5991521399082 L 648.2 490.48602265237975 L 651.6 491.6211318582281 L 655.0 492.0 L 658.4 491.6211318582281 L 661.8 490.4860226523798 L 665.2 488.5991521399082 L 668.6 485.96796693669717 L 672.0 482.6028511286695 L 675.4 478.5170852905443 L 678.8000000000001 473.72679407347573 L 682.2 468.2508825684218 L 685.6 462.1109616963869 L 689.0 455.33126291998997 L 692.4 447.93854261295144 L 695.8000000000001 439.96197646491095 L 699.1999999999999 431.43304433830843 L 702.6 422.38540603174874 L 706.0 412.8547684401549 L 709.4 402.87874463596745 L 712.8 392.49670542752955 L 716.1999999999999 381.7496239804942 L 719.6 370.6799141154582 L 723.0 359.33126291998997 L 726.4 347.7484583356523 L 729.8 335.97721240045934 L 733.2 324.06398084434636 L 736.6 312.0557797496282 L 740.0 300.0000000000001" fill="none" stroke="#8b5cf6" stroke-width="4" opacity="1" /></svg>